G04 DipTrace 4.1.1.0*
G04 1 - Top.gbr*
%MOMM*%
G04 #@! TF.FileFunction,Copper,L1,Top*
G04 #@! TF.Part,Single*
%ADD15C,3.0*%
%ADD30C,1.016*%
%ADD31C,0.48567*%
%ADD32C,0.9*%
%ADD33C,1.4*%
%ADD34C,1.0*%
%ADD35C,0.96533*%
%ADD36C,0.965*%
%ADD37C,2.75*%
G04 #@! TA.AperFunction,Conductor*
%ADD14C,0.3*%
G04 #@! TA.AperFunction,CopperBalancing*
%ADD16C,0.635*%
G04 #@! TA.AperFunction,ComponentPad*
%ADD17C,1.6*%
%ADD18R,1.6X1.6*%
%ADD20R,2.1X2.1*%
%ADD21C,2.1*%
%ADD23R,1.508X1.508*%
%ADD24C,1.508*%
%ADD25C,6.0*%
%ADD26C,1.524*%
%ADD27C,1.524*%
%ADD28C,6.2*%
%ADD29R,1.524X1.524*%
%FSLAX35Y35*%
G04*
G71*
G90*
G75*
G01*
G04 Top*
%LPD*%
X7692007Y7644983D2*
D14*
X7448000Y7400980D1*
Y4299000D1*
X7328000Y4179000D1*
X7691993Y7898983D2*
X7368000Y7574990D1*
Y4473000D1*
X7074000Y4179000D1*
X5405990Y7898977D2*
X6250013Y8743000D1*
X6897000D1*
X7613000Y8027000D1*
X7733000D1*
X8328000Y7432000D1*
Y5554000D1*
X9198000Y4684000D1*
Y4513000D1*
X8980000Y4295000D1*
Y4140000D1*
X8902000Y4062000D1*
X8715000D1*
X8598000Y4179000D1*
X3446993Y5364983D2*
X3456017D1*
X3588000Y5233000D1*
X4338000D1*
X4498000Y5073000D1*
Y4783000D1*
X4918000Y4363000D1*
Y4052000D1*
X7671787D1*
X7693000Y4073213D1*
Y4348000D1*
X7560000Y4481000D1*
Y5196000D1*
X7807000Y5443000D1*
X8337000D1*
X9108000Y4672000D1*
Y4553000D1*
X8852000Y4297000D1*
Y4179000D1*
X9952000Y5033000D2*
X9502000Y4583000D1*
Y3758000D1*
X10510000Y2750000D1*
X10570000D1*
X12107000Y1213000D1*
X13278800D1*
Y1656700D1*
X6812000Y9035000D2*
X7230000Y9453000D1*
X13304500D1*
X14238800Y10387300D1*
X6812000Y9035000D2*
X5822000Y9033000D1*
X5537000Y9318000D1*
Y9506000D1*
X4810000D1*
X4147000Y10169000D1*
X3378007D1*
X2131000D1*
X1904450Y10395550D1*
X1891200Y10382300D1*
X9952000Y5033000D2*
Y5329000D1*
X9244000Y6037000D1*
X9207997D1*
X8407500Y2617300D2*
Y1855300D1*
X2614200Y9739000D2*
X3208007D1*
X3378007Y9909000D1*
X5405973Y8152977D2*
Y8430973D1*
X5822000Y8847000D1*
Y9033000D1*
X6812000Y9035000D2*
Y9032967D1*
X7691983Y8152983D1*
X8407500Y2617300D2*
Y2663500D1*
X9502000Y3758000D1*
X8454000Y5867000D2*
X8472000D1*
X8454000D2*
X9002000D1*
X9172000Y6037000D1*
X9207997D1*
X3264000Y7182983D2*
X3127983D1*
X2848000Y6903000D1*
X2303000D1*
X2131000Y7075000D1*
Y9507053D1*
Y10169000D1*
X3264000Y7182983D2*
X3248000D1*
Y6043000D1*
X2618000D1*
X2606787Y6031787D1*
X2601987D1*
X2614200Y6044000D1*
X3458010Y6059000D2*
X3446983D1*
Y5618983D1*
X3248000Y6043000D2*
X3442010D1*
X3458010Y6059000D1*
X7858000Y6433000D2*
Y6453000D1*
X8198000Y6793000D1*
X4986000Y8203000D2*
X4188000D1*
X2883947Y9507053D1*
X2131000D1*
X3248000Y2705000D2*
Y2513000D1*
X2637900Y1902900D1*
X2614213D1*
X3378007Y9909000D2*
Y10169000D1*
X1852200Y5536000D2*
X1583000Y5805200D1*
Y8961800D1*
X1852200Y9231000D1*
X8915500Y1855300D2*
X8816300D1*
X8606000Y1645000D1*
X5555000D1*
X5344700Y1855300D1*
X5215600D1*
X9423500Y2617300D2*
Y3160510D1*
X9426000Y3163010D1*
X8757990Y7071000D2*
Y7103010D1*
X8469980Y7391020D1*
X8454017D1*
X9931500Y2617300D2*
Y2981487D1*
X9760000Y3152987D1*
X8453983Y8153020D2*
X8917983D1*
Y8541000D1*
Y8553000D1*
X9208000D1*
X8453993Y7899020D2*
X8531983D1*
X8535963Y7903000D1*
X8918017D1*
Y7525000D1*
X10188000Y6255017D1*
Y3376800D1*
X10947500Y2617300D1*
X2614200Y8723000D2*
X2658000D1*
X3178000Y8203000D1*
X3970000D1*
X3988000D1*
X4478000Y7713000D1*
X4986000D1*
X5078000D1*
X5268000Y7523000D1*
X6036040D1*
X6168020Y7391020D1*
X2614200Y8215000D2*
X2626000D1*
X2916000Y7925000D1*
X3128000D1*
X3758000D1*
X3970000Y7713000D1*
X6167973Y8153020D2*
X6657990D1*
Y8521000D1*
X6918000D1*
Y7083000D1*
X4238000D1*
X6167990Y7899020D2*
X6658010D1*
Y7505000D1*
Y7199000D1*
X4682000D1*
X4408000Y7473000D1*
X2614200D1*
Y7199000D1*
X6231600Y2617300D2*
Y3466600D1*
X6670000Y6643000D2*
X6838000D1*
X7028000Y6453000D1*
Y5881000D1*
X8454000Y5105000D2*
X8900000Y4669023D1*
X6739600Y2617300D2*
X7002700D1*
X7188000Y2432000D1*
X7300000D1*
X8468000Y3600000D1*
Y4669023D1*
X8900000D1*
X8200000Y5105000D2*
Y4975000D1*
X7893977Y4668977D1*
X7884000D1*
X7247600Y2617300D2*
X8226000Y3595700D1*
Y4335000D1*
X7888000Y4673000D1*
X7884000D1*
Y4668977D1*
X2614200Y5028000D2*
X3238000D1*
Y3721000D1*
X3248000D1*
X3780000D1*
X4178000Y3323000D1*
Y2765000D1*
X3838000Y2425000D1*
Y2833000D2*
X3498000Y3173000D1*
X3008000Y4721000D2*
Y4043000D1*
X2768000Y3803000D1*
Y3653000D1*
X2980000Y3441000D1*
X3838000D1*
X2614200Y4520000D2*
X2807000D1*
X3008000Y4721000D1*
X3518000Y3893000D2*
Y4563000D1*
X4066020Y5111020D1*
X4209007D1*
X4208983Y5619020D2*
X4258000D1*
Y6913000D1*
X5006000D1*
Y6633013D1*
X4518000D1*
X3990000Y6632987D2*
Y5584013D1*
X4208993Y5365020D1*
X3990000Y6632987D2*
X3838000D1*
Y5493000D1*
X2988000D1*
X2778000Y5283000D1*
X2348000D1*
Y3753000D1*
X2597000Y3504000D1*
X2614200D1*
D30*
X7858000Y6433000D3*
X8198000Y6793000D3*
X9208000Y8553000D3*
X4238000Y7083000D3*
X6231600Y3466600D3*
X3838000Y2833000D3*
X3498000Y3173000D3*
X3518000Y3893000D3*
X4518000Y6633013D3*
X6708000Y5453000D3*
X5098000Y4473000D3*
X1113837Y11893083D2*
D16*
X14828883D1*
X1113653Y11829917D2*
X14828837D1*
X1113517Y11766750D2*
X14828837D1*
X1113337Y11703583D2*
X14828793D1*
X1113153Y11640417D2*
X14828793D1*
X1112970Y11577250D2*
X14828747D1*
X1112787Y11514083D2*
X14828747D1*
X1112650Y11450917D2*
X14828700D1*
X1112470Y11387750D2*
X14828700D1*
X1112287Y11324583D2*
X3920640D1*
X4195387D2*
X12190623D1*
X12465367D2*
X14828657D1*
X1112103Y11261417D2*
X1760440D1*
X2021923D2*
X3814320D1*
X4301707D2*
X12084300D1*
X12571687D2*
X14061573D1*
X14415977D2*
X14828657D1*
X1111923Y11198250D2*
X1722750D1*
X2059657D2*
X3755803D1*
X4360177D2*
X12025830D1*
X12630157D2*
X14061573D1*
X14415977D2*
X14828610D1*
X1111787Y11135083D2*
X1714230D1*
X2068133D2*
X3718890D1*
X4397090D2*
X11988917D1*
X12667073D2*
X14061573D1*
X14415977D2*
X14828610D1*
X1111603Y11071917D2*
X1730087D1*
X2052320D2*
X3696787D1*
X4419240D2*
X11966767D1*
X12689220D2*
X14061573D1*
X14415977D2*
X14828563D1*
X1111420Y11008750D2*
X1780857D1*
X2001550D2*
X3686717D1*
X4429310D2*
X11956697D1*
X12699293D2*
X14061573D1*
X14415977D2*
X14828563D1*
X1111240Y10945583D2*
X3687720D1*
X4428263D2*
X11957700D1*
X12698290D2*
X14828520D1*
X1111057Y10882417D2*
X3699887D1*
X4416097D2*
X11969913D1*
X12686120D2*
X14828520D1*
X1110920Y10819250D2*
X3724497D1*
X4391487D2*
X11994477D1*
X12661513D2*
X14828473D1*
X1110737Y10756083D2*
X3764690D1*
X4351337D2*
X12034670D1*
X12621317D2*
X14828473D1*
X1110557Y10692917D2*
X3828720D1*
X4287260D2*
X12098700D1*
X12557287D2*
X14828427D1*
X1110373Y10629750D2*
X3956463D1*
X4159520D2*
X12226443D1*
X12429547D2*
X14828427D1*
X1110190Y10566583D2*
X14828383D1*
X1110053Y10503417D2*
X1764360D1*
X2018050D2*
X14061617D1*
X14415977D2*
X14828383D1*
X1109870Y10440250D2*
X1724117D1*
X2058290D2*
X14061617D1*
X14415977D2*
X14828337D1*
X1109690Y10377083D2*
X1714093D1*
X2068317D2*
X14061617D1*
X14415977D2*
X14828337D1*
X1109507Y10313917D2*
X1728267D1*
X2106780D2*
X14044710D1*
X14415977D2*
X14828290D1*
X1109323Y10250750D2*
X1775843D1*
X2169943D2*
X13981547D1*
X14415977D2*
X14828290D1*
X1109187Y10187583D2*
X1991723D1*
X4249117D2*
X13918383D1*
X14159767D2*
X14828247D1*
X1109007Y10124417D2*
X2043813D1*
X4312280D2*
X13855220D1*
X14096603D2*
X14828247D1*
X1108823Y10061250D2*
X2043813D1*
X2218203D2*
X3290823D1*
X3465217D2*
X4134060D1*
X4375443D2*
X13792053D1*
X14033440D2*
X14828200D1*
X1108640Y9998083D2*
X2043813D1*
X2218203D2*
X3256190D1*
X3499853D2*
X4197223D1*
X4438610D2*
X13728890D1*
X13970277D2*
X14828200D1*
X1108503Y9934917D2*
X2043813D1*
X2218203D2*
X3228117D1*
X3527880D2*
X4260387D1*
X4501773D2*
X13665727D1*
X13907110D2*
X14828153D1*
X1108323Y9871750D2*
X1674990D1*
X2218203D2*
X2437017D1*
X2791420D2*
X3220050D1*
X3525373D2*
X4323553D1*
X4564937D2*
X13602563D1*
X13843947D2*
X14828153D1*
X1108140Y9808583D2*
X1674990D1*
X2218203D2*
X2437017D1*
X3490143D2*
X4386717D1*
X4628100D2*
X13539397D1*
X13780783D2*
X14828110D1*
X1107957Y9745417D2*
X1674990D1*
X2218203D2*
X2437017D1*
X3335107D2*
X4449880D1*
X4691263D2*
X13476233D1*
X13717620D2*
X14828110D1*
X1107777Y9682250D2*
X1674990D1*
X2218203D2*
X2437017D1*
X3271943D2*
X4513043D1*
X4754430D2*
X13413070D1*
X13654453D2*
X14828063D1*
X1107640Y9619083D2*
X1674990D1*
X2218203D2*
X2437017D1*
X2791420D2*
X4576207D1*
X4817593D2*
X13349907D1*
X13591290D2*
X14828017D1*
X1107457Y9555917D2*
X2043813D1*
X2955757D2*
X4639373D1*
X5606960D2*
X13286743D1*
X13528127D2*
X14828017D1*
X1107273Y9492750D2*
X2043813D1*
X3018920D2*
X4702580D1*
X5624187D2*
X7149073D1*
X13464917D2*
X14827973D1*
X1107090Y9429583D2*
X2043813D1*
X3082087D2*
X4777230D1*
X5624187D2*
X7085910D1*
X13401753D2*
X14827973D1*
X1106910Y9366417D2*
X2043813D1*
X2218203D2*
X2903910D1*
X3145293D2*
X5449797D1*
X5624187D2*
X7022743D1*
X7264083D2*
X14827927D1*
X1106773Y9303250D2*
X2043813D1*
X2218203D2*
X2967073D1*
X3208460D2*
X3906923D1*
X4187090D2*
X5451163D1*
X5672450D2*
X6959580D1*
X7200920D2*
X9706897D1*
X9987110D2*
X14827927D1*
X1106590Y9240083D2*
X2043813D1*
X2218203D2*
X3030237D1*
X3271623D2*
X3799237D1*
X4294733D2*
X5494230D1*
X5735613D2*
X6896417D1*
X7137757D2*
X9599253D1*
X10094753D2*
X14827880D1*
X1106407Y9176917D2*
X2043813D1*
X2218203D2*
X3093403D1*
X3334787D2*
X3739533D1*
X4354480D2*
X5557393D1*
X5852007D2*
X6772003D1*
X7074590D2*
X9539510D1*
X10154453D2*
X14827880D1*
X1106227Y9113750D2*
X2043813D1*
X2218203D2*
X3156567D1*
X3397950D2*
X3701390D1*
X4392627D2*
X5620557D1*
X7011427D2*
X9501363D1*
X10192600D2*
X14827837D1*
X1106043Y9050583D2*
X2043813D1*
X2218203D2*
X3219730D1*
X3461113D2*
X3677967D1*
X4416050D2*
X5670870D1*
X6963347D2*
X9477940D1*
X10216023D2*
X14827837D1*
X1105907Y8987417D2*
X2043813D1*
X2218203D2*
X3282893D1*
X3524280D2*
X3666480D1*
X4427533D2*
X5677113D1*
X6978250D2*
X9466457D1*
X10227507D2*
X14827790D1*
X1105723Y8924250D2*
X2043813D1*
X2218203D2*
X3346057D1*
X3587443D2*
X3665843D1*
X4428173D2*
X5718447D1*
X5925517D2*
X6710753D1*
X7041413D2*
X9465817D1*
X10228193D2*
X14827790D1*
X1105543Y8861083D2*
X1745220D1*
X1959170D2*
X2043813D1*
X2218203D2*
X2507243D1*
X2721147D2*
X3409223D1*
X3650607D2*
X3675960D1*
X4418057D2*
X5715393D1*
X5909200D2*
X6863193D1*
X7104580D2*
X9475980D1*
X10218030D2*
X14827743D1*
X1105360Y8797917D2*
X1692307D1*
X2012080D2*
X2043813D1*
X2218203D2*
X2454287D1*
X2774103D2*
X3472387D1*
X4396180D2*
X5652230D1*
X5892613D2*
X6184247D1*
X7167743D2*
X9497857D1*
X10196153D2*
X14827743D1*
X1105177Y8734750D2*
X1675400D1*
X2218203D2*
X2437427D1*
X2791010D2*
X3535550D1*
X4360040D2*
X5589067D1*
X5830450D2*
X6121083D1*
X7230907D2*
X9533950D1*
X10160060D2*
X14827700D1*
X1105040Y8671583D2*
X1682920D1*
X2021467D2*
X2043813D1*
X2218203D2*
X2444900D1*
X2830113D2*
X3598713D1*
X4303620D2*
X5525903D1*
X5767287D2*
X6057920D1*
X7294070D2*
X8855733D1*
X8980223D2*
X9590367D1*
X10103597D2*
X14827700D1*
X1104860Y8608417D2*
X1719107D1*
X1985280D2*
X2043813D1*
X2218203D2*
X2481130D1*
X2893277D2*
X3661880D1*
X4205730D2*
X5462737D1*
X5704123D2*
X5994757D1*
X6236140D2*
X6539670D1*
X6776317D2*
X6910910D1*
X7357233D2*
X8786600D1*
X9317007D2*
X9688303D1*
X10005703D2*
X14827653D1*
X1104677Y8545250D2*
X2043813D1*
X2218203D2*
X2715057D1*
X2956440D2*
X3725043D1*
X3966427D2*
X5399573D1*
X5640960D2*
X5931593D1*
X6172930D2*
X6511690D1*
X7420400D2*
X8769647D1*
X9330723D2*
X14827653D1*
X1104493Y8482083D2*
X2043813D1*
X2218203D2*
X2778220D1*
X3019603D2*
X3788207D1*
X4029590D2*
X5336957D1*
X5577793D2*
X5868427D1*
X6109767D2*
X6515017D1*
X7005183D2*
X7037237D1*
X7483563D2*
X8782360D1*
X9306980D2*
X14827607D1*
X1104357Y8418917D2*
X2043813D1*
X2218203D2*
X2841383D1*
X3082770D2*
X3851417D1*
X4092757D2*
X5318773D1*
X5514587D2*
X5805220D1*
X6046603D2*
X6552843D1*
X6763100D2*
X6830790D1*
X7005183D2*
X7100400D1*
X7546727D2*
X8830803D1*
X9005197D2*
X14827607D1*
X1104173Y8355750D2*
X1749000D1*
X1955387D2*
X2043813D1*
X2218203D2*
X2511027D1*
X2717410D2*
X2904547D1*
X3145933D2*
X3914580D1*
X4155920D2*
X5318773D1*
X5493167D2*
X5742053D1*
X5983440D2*
X6570797D1*
X6745190D2*
X6830790D1*
X7005183D2*
X7163563D1*
X7609890D2*
X8830803D1*
X9005197D2*
X14827563D1*
X1103993Y8292583D2*
X1693630D1*
X2010757D2*
X2043813D1*
X2218203D2*
X2455610D1*
X2772780D2*
X2967713D1*
X3209097D2*
X3853420D1*
X4219083D2*
X4869423D1*
X5102607D2*
X5258390D1*
X5553597D2*
X5678890D1*
X5920277D2*
X6139860D1*
X6196083D2*
X6570797D1*
X6745190D2*
X6830790D1*
X7005183D2*
X7226730D1*
X7839580D2*
X8425890D1*
X8482067D2*
X8830803D1*
X9005197D2*
X14827563D1*
X1103810Y8229417D2*
X1675630D1*
X2218203D2*
X2437607D1*
X2790783D2*
X3030877D1*
X5131910D2*
X5258390D1*
X5553597D2*
X5615727D1*
X5857110D2*
X6042837D1*
X6745190D2*
X6830790D1*
X7005183D2*
X7289893D1*
X7839580D2*
X8328820D1*
X9005197D2*
X14827517D1*
X1103627Y8166250D2*
X1682100D1*
X2022287D2*
X2043813D1*
X2218203D2*
X2444123D1*
X2795430D2*
X3094040D1*
X5129587D2*
X5258390D1*
X5793947D2*
X6021007D1*
X6745190D2*
X6830790D1*
X7005183D2*
X7353057D1*
X7839580D2*
X8306990D1*
X9005197D2*
X14827517D1*
X1103490Y8103083D2*
X1716780D1*
X1987650D2*
X2043813D1*
X2218203D2*
X2478760D1*
X2858597D2*
X3862673D1*
X4208603D2*
X4878677D1*
X5093310D2*
X5258390D1*
X5730783D2*
X6029483D1*
X6727920D2*
X6830790D1*
X7005183D2*
X7416220D1*
X7839580D2*
X8315510D1*
X8987923D2*
X14827470D1*
X1103310Y8039917D2*
X2043813D1*
X2218203D2*
X2680373D1*
X2921760D2*
X3038167D1*
X3217847D2*
X4030380D1*
X4271767D2*
X5258390D1*
X5667620D2*
X6077017D1*
X6258927D2*
X6830790D1*
X7005183D2*
X7479387D1*
X7840763D2*
X8362997D1*
X8544957D2*
X14827470D1*
X1103127Y7976750D2*
X2043813D1*
X2218203D2*
X2743540D1*
X3826930D2*
X4093547D1*
X4334930D2*
X5281723D1*
X5604453D2*
X6043700D1*
X6686583D2*
X6830790D1*
X7005183D2*
X7542550D1*
X7903927D2*
X8329683D1*
X8957483D2*
X14827427D1*
X1102943Y7913583D2*
X2043813D1*
X2218203D2*
X2806747D1*
X3890093D2*
X4156710D1*
X4398093D2*
X5259163D1*
X5552820D2*
X6021143D1*
X6743870D2*
X6830790D1*
X7005183D2*
X7545147D1*
X7967090D2*
X8307127D1*
X9004513D2*
X14827427D1*
X1102763Y7850417D2*
X1753010D1*
X1951420D2*
X2043813D1*
X2218203D2*
X2514990D1*
X2713400D2*
X2878433D1*
X4012320D2*
X4219873D1*
X4461257D2*
X4943663D1*
X5028323D2*
X5267003D1*
X5544983D2*
X6029027D1*
X6745190D2*
X6830790D1*
X7005183D2*
X7522723D1*
X8030257D2*
X8315010D1*
X9005197D2*
X14827380D1*
X1102627Y7787250D2*
X1695043D1*
X2009390D2*
X2043813D1*
X2218203D2*
X2457023D1*
X2771370D2*
X3086977D1*
X3169037D2*
X3775080D1*
X4097450D2*
X4283083D1*
X5116323D2*
X5313213D1*
X5498770D2*
X6075283D1*
X6260703D2*
X6570797D1*
X6745190D2*
X6830790D1*
X7005183D2*
X7459560D1*
X7784753D2*
X7852080D1*
X8093420D2*
X8361267D1*
X8546733D2*
X8830803D1*
X9005197D2*
X14827380D1*
X1102443Y7724083D2*
X1675857D1*
X2218203D2*
X2437837D1*
X2790557D2*
X3822023D1*
X4117957D2*
X4346247D1*
X5187600D2*
X5282633D1*
X5529397D2*
X6044613D1*
X6291420D2*
X6570797D1*
X6745190D2*
X6830790D1*
X7005183D2*
X7396397D1*
X7815380D2*
X7915243D1*
X8156583D2*
X8330597D1*
X8577403D2*
X8830803D1*
X9005197D2*
X14827333D1*
X1102260Y7660917D2*
X1681327D1*
X2023060D2*
X2043813D1*
X2218203D2*
X2443350D1*
X2785087D2*
X3831500D1*
X4108523D2*
X4409410D1*
X5552683D2*
X6021280D1*
X6314710D2*
X6570797D1*
X6745190D2*
X6830790D1*
X7005183D2*
X7333233D1*
X7838713D2*
X7978410D1*
X8219793D2*
X8307307D1*
X8600693D2*
X8830803D1*
X9005197D2*
X14827333D1*
X1102080Y7597750D2*
X1714503D1*
X1989883D2*
X2043813D1*
X2218203D2*
X2476480D1*
X2751910D2*
X3880630D1*
X4059397D2*
X4896630D1*
X6307463D2*
X6544047D1*
X6771943D2*
X6830790D1*
X7005183D2*
X7284060D1*
X7831467D2*
X8041573D1*
X8282957D2*
X8314553D1*
X8593447D2*
X8789653D1*
X9046393D2*
X14827290D1*
X1101897Y7534583D2*
X2043813D1*
X2218203D2*
X2555460D1*
X4466727D2*
X5135707D1*
X6262437D2*
X6512737D1*
X6803297D2*
X6830790D1*
X7005183D2*
X7280777D1*
X7786487D2*
X8104737D1*
X8548420D2*
X8769920D1*
X9066083D2*
X14827290D1*
X1101760Y7471417D2*
X2043813D1*
X2218203D2*
X2527023D1*
X4530257D2*
X5198917D1*
X6290510D2*
X6513650D1*
X6802383D2*
X6830790D1*
X7005183D2*
X7280777D1*
X7639150D2*
X8167900D1*
X8576493D2*
X8780127D1*
X9092287D2*
X14827243D1*
X1101577Y7408250D2*
X2043813D1*
X2218203D2*
X2527023D1*
X4593420D2*
X6021463D1*
X6314573D2*
X6547647D1*
X6768387D2*
X6830790D1*
X7005183D2*
X7280777D1*
X7575940D2*
X8231063D1*
X8600557D2*
X8830760D1*
X9155450D2*
X14827243D1*
X1101393Y7345083D2*
X1757250D1*
X1947137D2*
X2043813D1*
X2218203D2*
X2519273D1*
X2709163D2*
X4415243D1*
X4656583D2*
X6028117D1*
X6307920D2*
X6570797D1*
X6745190D2*
X6830790D1*
X7005183D2*
X7280777D1*
X7535197D2*
X8240817D1*
X8636603D2*
X8977230D1*
X9218613D2*
X14827197D1*
X1101213Y7281917D2*
X1696457D1*
X2007930D2*
X2043813D1*
X2218203D2*
X2458480D1*
X2769910D2*
X3150503D1*
X3377533D2*
X4478410D1*
X4719793D2*
X6071957D1*
X6264077D2*
X6570797D1*
X6745190D2*
X6830790D1*
X7005183D2*
X7280777D1*
X7535197D2*
X8240817D1*
X8699767D2*
X9040393D1*
X9281780D2*
X14827197D1*
X1101030Y7218750D2*
X1676130D1*
X2218203D2*
X2438153D1*
X2790237D2*
X3043043D1*
X3411760D2*
X4541573D1*
X6745190D2*
X6830790D1*
X7005183D2*
X7280777D1*
X7535197D2*
X8240817D1*
X8415210D2*
X8521547D1*
X8762930D2*
X9103557D1*
X9344943D2*
X14827153D1*
X1100893Y7155583D2*
X1680597D1*
X2023790D2*
X2043813D1*
X2218203D2*
X2442620D1*
X2785770D2*
X2979880D1*
X3413583D2*
X4140350D1*
X7005183D2*
X7280777D1*
X7535197D2*
X8240817D1*
X8415210D2*
X8584710D1*
X8878460D2*
X9166723D1*
X9408107D2*
X14827153D1*
X1100710Y7092417D2*
X1712313D1*
X1992073D2*
X2043813D1*
X2234293D2*
X2474340D1*
X2754097D2*
X2916717D1*
X3384690D2*
X4115373D1*
X7005183D2*
X7280777D1*
X7535197D2*
X8240817D1*
X8415210D2*
X8611233D1*
X8904753D2*
X9229933D1*
X9471270D2*
X14827107D1*
X1100530Y7029250D2*
X1826473D1*
X1877913D2*
X2057987D1*
X2297457D2*
X2588500D1*
X2639890D2*
X2853553D1*
X3094937D2*
X3160803D1*
X3335197D2*
X4128137D1*
X6984767D2*
X7280777D1*
X7535197D2*
X8240817D1*
X8415210D2*
X8615883D1*
X8900107D2*
X9293097D1*
X9534437D2*
X14827107D1*
X1100347Y6966083D2*
X2119237D1*
X3031773D2*
X3160803D1*
X3335197D2*
X4190660D1*
X5073347D2*
X7280777D1*
X7535197D2*
X8240817D1*
X8415210D2*
X8655897D1*
X8860093D2*
X9356260D1*
X9597643D2*
X14827060D1*
X1100163Y6902917D2*
X2182400D1*
X2968610D2*
X3160803D1*
X3335197D2*
X4170790D1*
X5093217D2*
X7280777D1*
X7535197D2*
X8152587D1*
X8415210D2*
X9419423D1*
X9660810D2*
X14827060D1*
X1100027Y6839750D2*
X2246293D1*
X2904717D2*
X3160803D1*
X3335197D2*
X4170790D1*
X5093217D2*
X7280777D1*
X7535197D2*
X8084777D1*
X8415210D2*
X9482587D1*
X9723973D2*
X14827017D1*
X1099847Y6776583D2*
X3160803D1*
X3335197D2*
X4170790D1*
X4345183D2*
X4918780D1*
X5093217D2*
X6615323D1*
X6724637D2*
X7280777D1*
X7535197D2*
X8060897D1*
X8415210D2*
X9545753D1*
X9787137D2*
X14827017D1*
X1099663Y6713417D2*
X3160803D1*
X3335197D2*
X3823433D1*
X4113447D2*
X4170790D1*
X4345183D2*
X4427140D1*
X5129447D2*
X6540263D1*
X6884097D2*
X7280777D1*
X7535197D2*
X7997730D1*
X8415210D2*
X9608917D1*
X9850300D2*
X14826970D1*
X1099480Y6650250D2*
X3160803D1*
X3335197D2*
X3752660D1*
X4137327D2*
X4170790D1*
X4345183D2*
X4396287D1*
X5153330D2*
X6521807D1*
X6951453D2*
X7280777D1*
X7535197D2*
X7934567D1*
X8175953D2*
X8240817D1*
X8415210D2*
X9672080D1*
X9913467D2*
X14826970D1*
X1099343Y6587083D2*
X3160803D1*
X3335197D2*
X3750790D1*
X4130763D2*
X4170790D1*
X4345183D2*
X4404443D1*
X5146767D2*
X6533063D1*
X7014617D2*
X7280777D1*
X7535197D2*
X7871403D1*
X8112787D2*
X8240817D1*
X8415210D2*
X9735243D1*
X9976630D2*
X14826923D1*
X1099163Y6523917D2*
X3160803D1*
X3335197D2*
X3750790D1*
X4087377D2*
X4170790D1*
X4345183D2*
X4470343D1*
X4565667D2*
X4908663D1*
X5103337D2*
X6586200D1*
X6753803D2*
X6836397D1*
X7077780D2*
X7280777D1*
X7535197D2*
X7778570D1*
X8049623D2*
X8240817D1*
X8415210D2*
X9798410D1*
X10039793D2*
X14826923D1*
X1098980Y6460750D2*
X3160803D1*
X3335197D2*
X3750790D1*
X4077217D2*
X4170790D1*
X4345183D2*
X6899560D1*
X7114833D2*
X7280777D1*
X7535197D2*
X7738330D1*
X7986460D2*
X8240817D1*
X8415210D2*
X9861573D1*
X10102957D2*
X14826880D1*
X1098797Y6397583D2*
X3160803D1*
X3335197D2*
X3750790D1*
X4077217D2*
X4170790D1*
X4345183D2*
X4740497D1*
X6353537D2*
X6940803D1*
X7115197D2*
X7280777D1*
X7535197D2*
X7740517D1*
X7975477D2*
X8240817D1*
X8415210D2*
X9924737D1*
X10166120D2*
X14826880D1*
X1098613Y6334417D2*
X3160803D1*
X3335197D2*
X3750790D1*
X4077217D2*
X4170790D1*
X4345183D2*
X4687680D1*
X6406310D2*
X6940803D1*
X7115197D2*
X7280777D1*
X7535197D2*
X7789280D1*
X7926713D2*
X8240817D1*
X8415210D2*
X9987900D1*
X10229287D2*
X14826833D1*
X1098477Y6271250D2*
X3160803D1*
X3335197D2*
X3750790D1*
X4077217D2*
X4170790D1*
X4345183D2*
X4682713D1*
X6411277D2*
X6659117D1*
X6716890D2*
X6940803D1*
X7115197D2*
X7280777D1*
X7535197D2*
X8240817D1*
X8415210D2*
X10051063D1*
X10273537D2*
X14826833D1*
X1098297Y6208083D2*
X1674990D1*
X2029397D2*
X2437017D1*
X2791420D2*
X3160803D1*
X3335197D2*
X3750790D1*
X4077217D2*
X4170790D1*
X4345183D2*
X4682713D1*
X6411277D2*
X6562320D1*
X6813687D2*
X6940803D1*
X7115197D2*
X7280777D1*
X7535197D2*
X8240817D1*
X8415210D2*
X10100783D1*
X10275177D2*
X14826787D1*
X1098113Y6144917D2*
X1674990D1*
X2029397D2*
X2437017D1*
X2791420D2*
X3160803D1*
X3582203D2*
X3750790D1*
X4077217D2*
X4170790D1*
X4345183D2*
X4682713D1*
X6411277D2*
X6540263D1*
X6835697D2*
X6940803D1*
X7115197D2*
X7280777D1*
X7535197D2*
X8240817D1*
X8415210D2*
X8641677D1*
X8874310D2*
X9103513D1*
X9312450D2*
X10100783D1*
X10275177D2*
X14826787D1*
X1097930Y6081750D2*
X1674990D1*
X2029397D2*
X2437017D1*
X3608407D2*
X3750790D1*
X4077217D2*
X4170790D1*
X4345183D2*
X4682713D1*
X6411277D2*
X6548420D1*
X6827587D2*
X6940803D1*
X7115197D2*
X7280777D1*
X7535197D2*
X8240817D1*
X8415210D2*
X8612147D1*
X8903890D2*
X9062817D1*
X9353147D2*
X10100783D1*
X10275177D2*
X14826743D1*
X1097750Y6018583D2*
X1674990D1*
X2029397D2*
X2437017D1*
X3604487D2*
X3750790D1*
X4077217D2*
X4170790D1*
X4345183D2*
X4682713D1*
X6411277D2*
X6594813D1*
X6781193D2*
X6940803D1*
X7115197D2*
X7280777D1*
X7535197D2*
X8240817D1*
X8415210D2*
X8614380D1*
X8901657D2*
X9032873D1*
X9383087D2*
X10100783D1*
X10275177D2*
X14826743D1*
X1097613Y5955417D2*
X1674990D1*
X2029397D2*
X2437017D1*
X2791420D2*
X3348973D1*
X3567027D2*
X3750790D1*
X4077217D2*
X4170790D1*
X4345183D2*
X4682713D1*
X6411277D2*
X6900653D1*
X7155347D2*
X7280777D1*
X7535197D2*
X7829477D1*
X8062520D2*
X8083500D1*
X8601603D2*
X8650380D1*
X8865653D2*
X8969710D1*
X9446253D2*
X10100783D1*
X10275177D2*
X14826697D1*
X1097430Y5892250D2*
X1674990D1*
X2029397D2*
X2437017D1*
X2791420D2*
X3359777D1*
X3534170D2*
X3750790D1*
X4077217D2*
X4170790D1*
X4345183D2*
X4682713D1*
X6411277D2*
X6880057D1*
X7175947D2*
X7280777D1*
X7535197D2*
X7800673D1*
X9147930D2*
X9183767D1*
X9232240D2*
X9268077D1*
X9509460D2*
X10100783D1*
X10275177D2*
X14826697D1*
X1097247Y5829083D2*
X3359777D1*
X3534170D2*
X3750790D1*
X4077217D2*
X4170790D1*
X4345183D2*
X4682713D1*
X6411277D2*
X6889443D1*
X7166557D2*
X7280777D1*
X7535197D2*
X7803590D1*
X9084767D2*
X9331240D1*
X9572627D2*
X10100783D1*
X10275177D2*
X14826650D1*
X1097067Y5765917D2*
X3359777D1*
X3534170D2*
X3750790D1*
X4077217D2*
X4170790D1*
X4345183D2*
X4682713D1*
X6411277D2*
X6938390D1*
X7117613D2*
X7280777D1*
X7535197D2*
X7841007D1*
X8050990D2*
X8094983D1*
X8601603D2*
X9394403D1*
X9635790D2*
X10100783D1*
X10275177D2*
X14826650D1*
X1096883Y5702750D2*
X3299390D1*
X3594597D2*
X3750790D1*
X4345183D2*
X4682713D1*
X6411277D2*
X7280777D1*
X7535197D2*
X8240817D1*
X8415210D2*
X9457570D1*
X9698953D2*
X10100783D1*
X10275177D2*
X14826607D1*
X1096747Y5639583D2*
X3299390D1*
X3594597D2*
X3750790D1*
X4355073D2*
X4682713D1*
X6411277D2*
X7280777D1*
X7535197D2*
X8240817D1*
X8415210D2*
X9520733D1*
X9762117D2*
X10100783D1*
X10275177D2*
X14826560D1*
X1096563Y5576417D2*
X3299390D1*
X3594597D2*
X3750790D1*
X4350013D2*
X4682713D1*
X6411277D2*
X7280777D1*
X7535197D2*
X8240817D1*
X8426283D2*
X9583897D1*
X9825280D2*
X10100783D1*
X10275177D2*
X14826560D1*
X1096383Y5513250D2*
X2887550D1*
X4308953D2*
X4682713D1*
X6411277D2*
X7280777D1*
X7535197D2*
X7760617D1*
X8489447D2*
X9647060D1*
X9888447D2*
X10100783D1*
X10275177D2*
X14826513D1*
X1096200Y5450083D2*
X2824387D1*
X3912880D2*
X4003220D1*
X4328093D2*
X4682713D1*
X6411277D2*
X7280777D1*
X7535197D2*
X7693397D1*
X8552613D2*
X9710223D1*
X9951610D2*
X10100783D1*
X10275177D2*
X14826513D1*
X1096017Y5386917D2*
X2761220D1*
X3002607D2*
X3301123D1*
X3592867D2*
X4063103D1*
X4354890D2*
X4682713D1*
X6411277D2*
X7280777D1*
X7535197D2*
X7630230D1*
X8615777D2*
X9773390D1*
X10014773D2*
X10100783D1*
X10275177D2*
X14826470D1*
X1095880Y5323750D2*
X2271813D1*
X2939443D2*
X3305543D1*
X3617930D2*
X4067570D1*
X4350423D2*
X4682713D1*
X6411277D2*
X7280777D1*
X7535197D2*
X7567067D1*
X7808453D2*
X8335563D1*
X8678940D2*
X9836553D1*
X10039200D2*
X10100783D1*
X10275177D2*
X14826470D1*
X1095697Y5260583D2*
X2260783D1*
X2876277D2*
X3345510D1*
X4431090D2*
X4682713D1*
X6411277D2*
X7280777D1*
X7745287D2*
X8398727D1*
X8742103D2*
X9864807D1*
X10039200D2*
X10100783D1*
X10275177D2*
X14826423D1*
X1095517Y5197417D2*
X1823787D1*
X1880647D2*
X2260783D1*
X2435177D2*
X2585767D1*
X2642627D2*
X3328923D1*
X4494253D2*
X4682713D1*
X6411277D2*
X6565967D1*
X6810040D2*
X7280777D1*
X7805170D2*
X7832850D1*
X8059150D2*
X8086827D1*
X8313173D2*
X8340850D1*
X8805270D2*
X9864807D1*
X10039200D2*
X10100783D1*
X10275177D2*
X14826423D1*
X1095333Y5134250D2*
X1712040D1*
X1992347D2*
X2260783D1*
X2435177D2*
X2474067D1*
X2754323D2*
X3301350D1*
X3592683D2*
X3968540D1*
X4557417D2*
X4682713D1*
X6411277D2*
X6540903D1*
X6835107D2*
X7280777D1*
X8868433D2*
X9840653D1*
X10063310D2*
X10100783D1*
X10275177D2*
X14826377D1*
X1095150Y5071083D2*
X1680503D1*
X2023883D2*
X2260783D1*
X3588857D2*
X3905373D1*
X4350837D2*
X4379243D1*
X4585217D2*
X4682713D1*
X6411277D2*
X6546553D1*
X6829453D2*
X7280777D1*
X8931597D2*
X9804880D1*
X10275177D2*
X14826377D1*
X1095013Y5007917D2*
X1676177D1*
X2028210D2*
X2260783D1*
X3549937D2*
X3842210D1*
X4083597D2*
X4106123D1*
X4311917D2*
X4410777D1*
X4585217D2*
X4682713D1*
X6411277D2*
X6588297D1*
X6787663D2*
X7280777D1*
X7800933D2*
X7837040D1*
X8054957D2*
X8091063D1*
X8308933D2*
X8345043D1*
X8994760D2*
X9801963D1*
X10275177D2*
X14826330D1*
X1094833Y4944750D2*
X1696637D1*
X2007750D2*
X2260783D1*
X2435177D2*
X2458663D1*
X2769727D2*
X3150777D1*
X3325217D2*
X3779047D1*
X4020430D2*
X4091950D1*
X4326090D2*
X4410777D1*
X4585217D2*
X4682713D1*
X6411277D2*
X6904117D1*
X7151883D2*
X7280777D1*
X7647217D2*
X8049047D1*
X8281317D2*
X8495933D1*
X9057923D2*
X9743083D1*
X10074473D2*
X10100783D1*
X10275177D2*
X14826330D1*
X1094650Y4881583D2*
X1757797D1*
X1946590D2*
X2260783D1*
X2435177D2*
X2519820D1*
X2708613D2*
X3150777D1*
X3325217D2*
X3715883D1*
X3957267D2*
X4063557D1*
X4354480D2*
X4410777D1*
X4585217D2*
X4682713D1*
X6411277D2*
X6880557D1*
X7175443D2*
X7280777D1*
X7647217D2*
X7985883D1*
X8227267D2*
X8560557D1*
X9121090D2*
X9679873D1*
X9921257D2*
X10100783D1*
X10275177D2*
X14826287D1*
X1094467Y4818417D2*
X2260783D1*
X2435177D2*
X2898260D1*
X3117723D2*
X3150777D1*
X3325217D2*
X3652720D1*
X3894103D2*
X4066793D1*
X4351247D2*
X4410777D1*
X4585217D2*
X4682713D1*
X6411277D2*
X6887440D1*
X7168563D2*
X7280777D1*
X7647217D2*
X7922720D1*
X8164103D2*
X8625180D1*
X9184253D2*
X9616710D1*
X9858093D2*
X10100783D1*
X10275177D2*
X14826287D1*
X1094330Y4755250D2*
X2260783D1*
X2435177D2*
X2863807D1*
X3325217D2*
X3589553D1*
X3830940D2*
X4104710D1*
X4313330D2*
X4415700D1*
X4646420D2*
X4693330D1*
X6400660D2*
X6931463D1*
X7124540D2*
X7280777D1*
X7647217D2*
X7764807D1*
X8100940D2*
X8689803D1*
X9247417D2*
X9553547D1*
X9794930D2*
X10100783D1*
X10275177D2*
X14826240D1*
X1094150Y4692083D2*
X2260783D1*
X2435177D2*
X2858383D1*
X3325217D2*
X3526390D1*
X3767777D2*
X4468247D1*
X4709587D2*
X7280777D1*
X7647217D2*
X7737510D1*
X8037777D2*
X8384143D1*
X9284787D2*
X9490380D1*
X9731767D2*
X10100783D1*
X10275177D2*
X14826240D1*
X1093967Y4628917D2*
X1714230D1*
X1990203D2*
X2260783D1*
X2435177D2*
X2476207D1*
X2752183D2*
X2795220D1*
X3122507D2*
X3150777D1*
X3325217D2*
X3463227D1*
X3704610D2*
X4531410D1*
X4772793D2*
X7280777D1*
X7647217D2*
X7741383D1*
X8052770D2*
X8380817D1*
X9285197D2*
X9429087D1*
X9668603D2*
X10100783D1*
X10275177D2*
X14826193D1*
X1093783Y4565750D2*
X1681233D1*
X2023153D2*
X2260783D1*
X3095210D2*
X3150777D1*
X3325217D2*
X3430823D1*
X3641447D2*
X4594573D1*
X4835960D2*
X7280777D1*
X7647217D2*
X7780077D1*
X8115933D2*
X8380817D1*
X8555210D2*
X8796123D1*
X9285197D2*
X9414820D1*
X9605437D2*
X10100783D1*
X10275177D2*
X14826193D1*
X1093603Y4502583D2*
X1675903D1*
X2028530D2*
X2260783D1*
X3095210D2*
X3150777D1*
X3325217D2*
X3430777D1*
X3605217D2*
X4657737D1*
X4899123D2*
X7276903D1*
X7659110D2*
X7937713D1*
X8179097D2*
X8380817D1*
X8555210D2*
X8936897D1*
X9284513D2*
X9414820D1*
X9589213D2*
X10100783D1*
X10275177D2*
X14826150D1*
X1093467Y4439417D2*
X1695180D1*
X2009207D2*
X2260783D1*
X2435177D2*
X2457203D1*
X2819903D2*
X2920817D1*
X3095210D2*
X3150777D1*
X3325217D2*
X3430777D1*
X3605217D2*
X4720903D1*
X4962287D2*
X7213740D1*
X7722273D2*
X8000877D1*
X8242260D2*
X8380817D1*
X8555210D2*
X8873733D1*
X9245093D2*
X9414820D1*
X9589213D2*
X10100783D1*
X10275177D2*
X14826150D1*
X1093283Y4376250D2*
X1753513D1*
X1950873D2*
X2260783D1*
X2435177D2*
X2515537D1*
X2712900D2*
X2920817D1*
X3095210D2*
X3150777D1*
X3325217D2*
X3430777D1*
X3605217D2*
X3850597D1*
X4243420D2*
X4784067D1*
X5004123D2*
X7150577D1*
X7775093D2*
X8064040D1*
X8301870D2*
X8380817D1*
X8555210D2*
X8810570D1*
X9181930D2*
X9414820D1*
X9589213D2*
X9650570D1*
X10043393D2*
X10100783D1*
X10275177D2*
X14826103D1*
X1093100Y4313083D2*
X2260783D1*
X2435177D2*
X2920817D1*
X3095210D2*
X3150777D1*
X3325217D2*
X3430777D1*
X3605217D2*
X3770297D1*
X4323720D2*
X4385623D1*
X4682377D2*
X4734757D1*
X5095270D2*
X5242757D1*
X5349247D2*
X5496737D1*
X5603270D2*
X5750760D1*
X5857247D2*
X6004737D1*
X6111270D2*
X6258760D1*
X6365250D2*
X6512737D1*
X6619273D2*
X6766760D1*
X6873250D2*
X7020740D1*
X7889253D2*
X8036743D1*
X8651233D2*
X8766410D1*
X9159233D2*
X9306767D1*
X10275177D2*
X14826103D1*
X1092920Y4249917D2*
X2260783D1*
X2435177D2*
X2920817D1*
X3095210D2*
X3150777D1*
X3325217D2*
X3430777D1*
X3605217D2*
X3721123D1*
X10275177D2*
X14826057D1*
X1092737Y4186750D2*
X2260783D1*
X2435177D2*
X2920817D1*
X3095210D2*
X3150777D1*
X3325217D2*
X3430777D1*
X3605217D2*
X3689770D1*
X10275177D2*
X14826057D1*
X1092600Y4123583D2*
X1716463D1*
X1987923D2*
X2260783D1*
X2435177D2*
X2478487D1*
X2749950D2*
X2920817D1*
X3095210D2*
X3150777D1*
X3325217D2*
X3430777D1*
X3605217D2*
X3671677D1*
X10275177D2*
X14826013D1*
X1092417Y4060417D2*
X1682010D1*
X2022377D2*
X2260783D1*
X2784403D2*
X2904730D1*
X3095210D2*
X3150777D1*
X3325217D2*
X3430777D1*
X3605217D2*
X3664887D1*
X4682377D2*
X4703447D1*
X7920560D2*
X8005433D1*
X9190543D2*
X9275460D1*
X10275177D2*
X14826013D1*
X1092233Y3997250D2*
X1675630D1*
X2028757D2*
X2260783D1*
X2790783D2*
X2841567D1*
X3080990D2*
X3150777D1*
X3325217D2*
X3430777D1*
X3605217D2*
X3668807D1*
X10275177D2*
X14825967D1*
X1092053Y3934083D2*
X1693813D1*
X2010620D2*
X2260783D1*
X2435177D2*
X2455790D1*
X3019787D2*
X3150777D1*
X3325217D2*
X3402477D1*
X3633517D2*
X3683753D1*
X4936127D2*
X5147873D1*
X10275177D2*
X14825967D1*
X1091870Y3870917D2*
X1749503D1*
X1954930D2*
X2260783D1*
X2435177D2*
X2511480D1*
X2956623D2*
X3150777D1*
X3325217D2*
X3397100D1*
X3638893D2*
X3711280D1*
X4925693D2*
X5158310D1*
X10275177D2*
X14825920D1*
X1091733Y3807750D2*
X2260783D1*
X2435177D2*
X2680920D1*
X2893460D2*
X3129177D1*
X3366823D2*
X3432010D1*
X3603987D2*
X3754983D1*
X4339030D2*
X4447463D1*
X4620537D2*
X4701443D1*
X4874560D2*
X5209443D1*
X5382560D2*
X5463467D1*
X5636537D2*
X5717443D1*
X5890560D2*
X5971470D1*
X6144540D2*
X6225447D1*
X6398563D2*
X6479470D1*
X6652540D2*
X6733447D1*
X6906520D2*
X6987470D1*
X7160543D2*
X7241450D1*
X7414520D2*
X7495473D1*
X7668543D2*
X7749450D1*
X7922520D2*
X8003473D1*
X8684547D2*
X8765453D1*
X8938523D2*
X9019477D1*
X9192547D2*
X9273453D1*
X10275177D2*
X14825920D1*
X1091550Y3744583D2*
X2261240D1*
X2477103D2*
X2680783D1*
X2855177D2*
X3101560D1*
X4269580D2*
X8138780D1*
X8313217D2*
X8380817D1*
X8555210D2*
X9367880D1*
X10069597D2*
X10100783D1*
X10275177D2*
X14825877D1*
X1091370Y3681417D2*
X2298883D1*
X2540270D2*
X2680783D1*
X2860280D2*
X3105207D1*
X3940270D2*
X3977973D1*
X4116043D2*
X8138780D1*
X8313217D2*
X8380817D1*
X8555210D2*
X9304717D1*
X9699273D2*
X9777947D1*
X9916063D2*
X10100783D1*
X10275177D2*
X14825877D1*
X1091187Y3618250D2*
X1718830D1*
X1985600D2*
X2362047D1*
X2923447D2*
X3143577D1*
X3352423D2*
X3762047D1*
X4003433D2*
X8127843D1*
X8313217D2*
X8365550D1*
X8555210D2*
X9241553D1*
X9482937D2*
X9521053D1*
X9762437D2*
X10100783D1*
X10275177D2*
X14825830D1*
X1091003Y3555083D2*
X1682830D1*
X2021603D2*
X2425213D1*
X2986610D2*
X3747010D1*
X4066597D2*
X6149247D1*
X6313980D2*
X8064677D1*
X8541583D2*
X9178390D1*
X9419773D2*
X9584217D1*
X9825600D2*
X10100783D1*
X10275177D2*
X14825830D1*
X1090867Y3491917D2*
X1675447D1*
X2028987D2*
X2437427D1*
X4129760D2*
X6111377D1*
X6351807D2*
X8001513D1*
X8480607D2*
X9115223D1*
X9356610D2*
X9647380D1*
X9888763D2*
X10100783D1*
X10275177D2*
X14825783D1*
X1090687Y3428750D2*
X1692443D1*
X2011943D2*
X2454470D1*
X2773920D2*
X2871553D1*
X4192923D2*
X6114933D1*
X6348297D2*
X7938350D1*
X8417443D2*
X9052060D1*
X9293447D2*
X9710543D1*
X9951930D2*
X10100783D1*
X10275177D2*
X14825783D1*
X1090503Y3365583D2*
X1745720D1*
X1958713D2*
X2507700D1*
X2720693D2*
X2944517D1*
X3964740D2*
X4014750D1*
X4253080D2*
X6144417D1*
X6318810D2*
X7875187D1*
X8354280D2*
X8988897D1*
X9230280D2*
X9773707D1*
X10015093D2*
X10101560D1*
X10319883D2*
X14825740D1*
X1090320Y3302417D2*
X3800467D1*
X3875557D2*
X4077913D1*
X4265203D2*
X6144417D1*
X6318810D2*
X7812023D1*
X8291113D2*
X8376487D1*
X8443510D2*
X8925733D1*
X9167117D2*
X9392353D1*
X9459650D2*
X9836873D1*
X10078257D2*
X10141710D1*
X10383093D2*
X14825740D1*
X1090183Y3239250D2*
X3395640D1*
X3600340D2*
X4090810D1*
X4265203D2*
X4440037D1*
X4687983D2*
X6144417D1*
X6318810D2*
X7748857D1*
X8227950D2*
X8283793D1*
X8536207D2*
X8862570D1*
X9103953D2*
X9299797D1*
X9552210D2*
X9640773D1*
X9879193D2*
X9900080D1*
X10141420D2*
X10204873D1*
X10446257D2*
X14825693D1*
X1090003Y3176083D2*
X3375043D1*
X3620940D2*
X4090810D1*
X4265203D2*
X4413650D1*
X4714370D2*
X6144417D1*
X6318810D2*
X7685693D1*
X8164787D2*
X8262190D1*
X8557807D2*
X8799403D1*
X9040790D2*
X9278193D1*
X9573810D2*
X9613473D1*
X9906493D2*
X9963247D1*
X10204587D2*
X10268037D1*
X10509423D2*
X14825693D1*
X1089820Y3112917D2*
X3391677D1*
X3678770D2*
X4090810D1*
X4265203D2*
X4417433D1*
X4710587D2*
X6144417D1*
X6318810D2*
X7622530D1*
X8101623D2*
X8270713D1*
X8549287D2*
X8736240D1*
X8977627D2*
X9286717D1*
X9565287D2*
X9617347D1*
X9920757D2*
X10026410D1*
X10267793D2*
X10331200D1*
X10572587D2*
X14825647D1*
X1089637Y3049750D2*
X3500550D1*
X3741937D2*
X4090810D1*
X4265203D2*
X4454620D1*
X4673353D2*
X6144417D1*
X6318810D2*
X7559367D1*
X8038460D2*
X8317880D1*
X8502117D2*
X8673077D1*
X8914460D2*
X9333930D1*
X9518073D2*
X9656083D1*
X9983920D2*
X10089573D1*
X10330960D2*
X10394367D1*
X10635750D2*
X14825647D1*
X1089453Y2986583D2*
X3563713D1*
X3805100D2*
X4090810D1*
X4265203D2*
X6144417D1*
X6318810D2*
X7496200D1*
X7975293D2*
X8609913D1*
X8851253D2*
X9336300D1*
X9510693D2*
X9805700D1*
X10018557D2*
X10152737D1*
X10394123D2*
X10457530D1*
X10698913D2*
X14825603D1*
X1089317Y2923417D2*
X3626880D1*
X3918073D2*
X4090810D1*
X4265203D2*
X6144417D1*
X6318810D2*
X7433037D1*
X7912087D2*
X8546747D1*
X8788087D2*
X9336300D1*
X9510693D2*
X9844300D1*
X10018693D2*
X10215903D1*
X10457287D2*
X10520693D1*
X10762080D2*
X14825603D1*
X1089137Y2860250D2*
X3690043D1*
X3957770D2*
X4090810D1*
X4265203D2*
X6144417D1*
X6318810D2*
X7369873D1*
X7848920D2*
X8483540D1*
X8724923D2*
X9336300D1*
X9510693D2*
X9844300D1*
X10018693D2*
X10279067D1*
X10520450D2*
X10583857D1*
X10825243D2*
X14825557D1*
X1088953Y2797083D2*
X3133507D1*
X3362497D2*
X3720667D1*
X3955353D2*
X4089397D1*
X4265203D2*
X6144417D1*
X6318810D2*
X7306710D1*
X7785757D2*
X8420373D1*
X8661760D2*
X9336300D1*
X9510693D2*
X9844300D1*
X10018693D2*
X10342230D1*
X10888407D2*
X14825557D1*
X1088770Y2733917D2*
X3102563D1*
X3393440D2*
X3770070D1*
X3905907D2*
X4026233D1*
X4259007D2*
X4530407D1*
X4884813D2*
X5592393D1*
X5854833D2*
X6100393D1*
X6362833D2*
X6608397D1*
X6870790D2*
X7116397D1*
X7722593D2*
X8230290D1*
X8598597D2*
X9292277D1*
X9554717D2*
X9800277D1*
X10062717D2*
X10308277D1*
X11078720D2*
X14825510D1*
X1088590Y2670750D2*
X3103793D1*
X3392210D2*
X3963070D1*
X4204453D2*
X4530407D1*
X4884813D2*
X5554977D1*
X5892203D2*
X6062980D1*
X6400203D2*
X6570980D1*
X7659430D2*
X8230290D1*
X8584697D2*
X9254860D1*
X9592130D2*
X9762860D1*
X10100133D2*
X10270863D1*
X11116133D2*
X14825510D1*
X1088453Y2607583D2*
X3138247D1*
X3357757D2*
X3899907D1*
X4141290D2*
X4530407D1*
X4884813D2*
X5546683D1*
X5900543D2*
X6054683D1*
X6408543D2*
X6562687D1*
X7596263D2*
X8230290D1*
X8584697D2*
X9246567D1*
X9600423D2*
X9754567D1*
X10108427D2*
X10262570D1*
X11124430D2*
X14825467D1*
X1088270Y2544417D2*
X3158707D1*
X3335197D2*
X3754710D1*
X4078127D2*
X4530407D1*
X4884813D2*
X5562723D1*
X5884453D2*
X6070727D1*
X6392457D2*
X6578727D1*
X7533100D2*
X8230290D1*
X8584697D2*
X9262607D1*
X9584383D2*
X9770610D1*
X10092383D2*
X10278610D1*
X10600387D2*
X10654907D1*
X11108387D2*
X14825467D1*
X1088087Y2481250D2*
X3095543D1*
X3328727D2*
X3701207D1*
X4014917D2*
X4530407D1*
X4884813D2*
X5613903D1*
X5833277D2*
X6121903D1*
X6341277D2*
X6629907D1*
X6849280D2*
X7018050D1*
X7469937D2*
X8230290D1*
X8584697D2*
X9313787D1*
X9533203D2*
X9821787D1*
X10041207D2*
X10329790D1*
X10549207D2*
X10718070D1*
X11057210D2*
X14825420D1*
X1087907Y2418083D2*
X3032380D1*
X3273763D2*
X3689770D1*
X3986253D2*
X7081213D1*
X7406773D2*
X8320297D1*
X8494690D2*
X10781233D1*
X11022620D2*
X14825420D1*
X1087723Y2354917D2*
X2969217D1*
X3210600D2*
X3708090D1*
X3967887D2*
X7157277D1*
X7330757D2*
X8320297D1*
X8494690D2*
X10844397D1*
X11085783D2*
X14825373D1*
X1087587Y2291750D2*
X2906053D1*
X3147437D2*
X3782420D1*
X4260600D2*
X8320297D1*
X8494690D2*
X10907563D1*
X11148947D2*
X12125407D1*
X12530627D2*
X14825373D1*
X1087403Y2228583D2*
X2842887D1*
X3084273D2*
X3780460D1*
X4335523D2*
X8320297D1*
X8494690D2*
X10970727D1*
X11212110D2*
X12050487D1*
X12605503D2*
X14825330D1*
X1087223Y2165417D2*
X2779723D1*
X3021110D2*
X3734523D1*
X4381460D2*
X8320297D1*
X8494690D2*
X11033890D1*
X11275277D2*
X12004503D1*
X12651487D2*
X14825330D1*
X1087040Y2102250D2*
X2716560D1*
X2957943D2*
X3705767D1*
X4410217D2*
X8320297D1*
X8494690D2*
X11097053D1*
X11338440D2*
X11975790D1*
X12680197D2*
X14825283D1*
X1086857Y2039083D2*
X1742713D1*
X1961720D2*
X2504690D1*
X2894780D2*
X3690133D1*
X4425893D2*
X8320297D1*
X8494690D2*
X11160220D1*
X11401603D2*
X11960113D1*
X12695873D2*
X14825283D1*
X1086720Y1975917D2*
X1691397D1*
X2013037D2*
X2453420D1*
X2831617D2*
X3685850D1*
X4430133D2*
X4530407D1*
X4884813D2*
X5596267D1*
X5850960D2*
X6104267D1*
X6358960D2*
X6612270D1*
X6866960D2*
X7120270D1*
X7374963D2*
X8230290D1*
X8584697D2*
X9296150D1*
X9550840D2*
X9804150D1*
X10058843D2*
X10312153D1*
X10566843D2*
X10820153D1*
X11074847D2*
X11223383D1*
X11464767D2*
X11955877D1*
X12700113D2*
X14825237D1*
X1086537Y1912750D2*
X1675310D1*
X2029123D2*
X2437290D1*
X2791147D2*
X3692593D1*
X4423387D2*
X4530407D1*
X4884813D2*
X5556343D1*
X5890837D2*
X6064347D1*
X6398837D2*
X6572347D1*
X6906837D2*
X7080350D1*
X7414840D2*
X8230290D1*
X8584697D2*
X9256227D1*
X9590763D2*
X9764230D1*
X10098763D2*
X10272230D1*
X10606767D2*
X10780230D1*
X11114767D2*
X11286547D1*
X11527930D2*
X11962620D1*
X12693413D2*
X14825237D1*
X1086357Y1849583D2*
X1683557D1*
X2020873D2*
X2445537D1*
X2782900D2*
X3711007D1*
X4405020D2*
X4530407D1*
X4884813D2*
X5546500D1*
X5900723D2*
X6054503D1*
X6408727D2*
X6562503D1*
X6916727D2*
X7070503D1*
X7424683D2*
X8230290D1*
X8584697D2*
X9246383D1*
X9600607D2*
X9754387D1*
X10108610D2*
X10262387D1*
X10616610D2*
X10770387D1*
X11124610D2*
X11349710D1*
X11591097D2*
X11980987D1*
X12675003D2*
X14825193D1*
X1086173Y1786417D2*
X1720837D1*
X1983550D2*
X2482860D1*
X2745530D2*
X3743090D1*
X4372893D2*
X4530407D1*
X4884813D2*
X5560903D1*
X5886277D2*
X6068903D1*
X6394280D2*
X6576903D1*
X6902280D2*
X7084907D1*
X7410280D2*
X8230290D1*
X8584697D2*
X9260783D1*
X9586207D2*
X9768787D1*
X10094207D2*
X10276787D1*
X10602210D2*
X10784790D1*
X11110210D2*
X11412873D1*
X11654260D2*
X12013117D1*
X12642920D2*
X13101580D1*
X13455983D2*
X13863603D1*
X14218010D2*
X14825193D1*
X1085990Y1723250D2*
X3793993D1*
X4321987D2*
X4530407D1*
X4884813D2*
X5608843D1*
X5838380D2*
X6116847D1*
X6346337D2*
X6624847D1*
X6854337D2*
X7132850D1*
X7362340D2*
X8230290D1*
X8584697D2*
X9308727D1*
X9538263D2*
X9816730D1*
X10046263D2*
X10324730D1*
X10554267D2*
X10832730D1*
X11062267D2*
X11476040D1*
X11717423D2*
X12064020D1*
X12591967D2*
X13101580D1*
X13455983D2*
X13863603D1*
X14218010D2*
X14825147D1*
X1085853Y1660083D2*
X3879670D1*
X4236310D2*
X11539247D1*
X11780587D2*
X12149697D1*
X12506290D2*
X13101580D1*
X13455983D2*
X13863603D1*
X14218010D2*
X14825100D1*
X1085673Y1596917D2*
X11602413D1*
X11843753D2*
X13101580D1*
X13455983D2*
X13863603D1*
X14218010D2*
X14825100D1*
X1085490Y1533750D2*
X11665577D1*
X11906960D2*
X13101580D1*
X13455983D2*
X13863603D1*
X14218010D2*
X14825057D1*
X1085307Y1470583D2*
X11728740D1*
X11970127D2*
X13191587D1*
X13365977D2*
X14825057D1*
X1085170Y1407417D2*
X11791903D1*
X12033290D2*
X13191587D1*
X13365977D2*
X14825010D1*
X1084990Y1344250D2*
X11855070D1*
X12096453D2*
X13191587D1*
X13365977D2*
X14825010D1*
X1084807Y1281083D2*
X11918233D1*
X13365977D2*
X14824963D1*
X1084623Y1217917D2*
X11981397D1*
X13365977D2*
X14824963D1*
X1084443Y1154750D2*
X12044560D1*
X13341233D2*
X14824920D1*
X1084307Y1091583D2*
X14824920D1*
X4707987Y3129767D2*
X4702397Y3106970D1*
X4693220Y3085367D1*
X4680697Y3065513D1*
X4665153Y3047927D1*
X4646987Y3033060D1*
X4626673Y3021303D1*
X4604737Y3012953D1*
X4581743Y3008233D1*
X4558290Y3007263D1*
X4534987Y3010063D1*
X4512433Y3016570D1*
X4491217Y3026607D1*
X4471887Y3039920D1*
X4454940Y3056160D1*
X4440817Y3074910D1*
X4429887Y3095680D1*
X4422427Y3117937D1*
X4418637Y3141100D1*
X4418610Y3164573D1*
X4422350Y3187743D1*
X4429757Y3210017D1*
X4440640Y3230813D1*
X4454720Y3249593D1*
X4471630Y3265873D1*
X4490933Y3279227D1*
X4512127Y3289313D1*
X4534667Y3295870D1*
X4557963Y3298727D1*
X4581417Y3297807D1*
X4604420Y3293137D1*
X4626377Y3284840D1*
X4646717Y3273127D1*
X4664917Y3258300D1*
X4680500Y3240750D1*
X4693067Y3220927D1*
X4702293Y3199343D1*
X4707933Y3176557D1*
X4709850Y3153000D1*
X4707987Y3129767D1*
X3235333Y9880653D2*
X3232643Y9897100D1*
X3232617Y9920573D1*
X3236357Y9943743D1*
X3243763Y9966017D1*
X3254647Y9986813D1*
X3268727Y10005593D1*
X3285637Y10021873D1*
X3297153Y10029840D1*
X3297157Y10088143D1*
X2211830Y10088150D1*
X2211850Y9818693D1*
Y9587890D1*
X2443347Y9587903D1*
X2443350Y9909850D1*
X2785050D1*
Y9819867D1*
X3174503Y9819850D1*
X3235010Y9880343D1*
X4420783Y7655877D2*
X4009720Y8066953D1*
X4005020Y8065333D1*
X3981883Y8061447D1*
X3958423Y8061423D1*
X3935277Y8065260D1*
X3913080Y8072853D1*
X3892437Y8083997D1*
X3873907Y8098387D1*
X3857997Y8115630D1*
X3853717Y8122167D1*
X3178000Y8122150D1*
X3154990Y8125493D1*
X3133863Y8135263D1*
X3120783Y8145877D1*
X2694380Y8572263D1*
X2692803Y8571307D1*
X2671417Y8562017D1*
X2648963Y8555723D1*
X2625863Y8552550D1*
X2602543Y8552547D1*
X2579443Y8555723D1*
X2556990Y8562013D1*
X2535600Y8571303D1*
X2515677Y8583420D1*
X2497587Y8598133D1*
X2481673Y8615177D1*
X2468223Y8634227D1*
X2457497Y8654930D1*
X2449687Y8676903D1*
X2444943Y8699733D1*
X2443350Y8722997D1*
X2444940Y8746260D1*
X2449683Y8769090D1*
X2457493Y8791063D1*
X2468220Y8811767D1*
X2481667Y8830820D1*
X2497583Y8847860D1*
X2515670Y8862577D1*
X2535597Y8874693D1*
X2556983Y8883983D1*
X2579437Y8890277D1*
X2602537Y8893450D1*
X2625857Y8893453D1*
X2648957Y8890277D1*
X2671410Y8883987D1*
X2692800Y8874697D1*
X2712723Y8862580D1*
X2730813Y8847867D1*
X2746727Y8830823D1*
X2760177Y8811773D1*
X2770903Y8791070D1*
X2778713Y8769097D1*
X2783457Y8746267D1*
X2785050Y8723000D1*
X2784237Y8711120D1*
X3211490Y8283850D1*
X3853193D1*
X3857807Y8290127D1*
X3873680Y8307407D1*
X3892177Y8321837D1*
X3912797Y8333023D1*
X3934980Y8340667D1*
X3935860Y8340813D1*
X2850460Y9426203D1*
X2211847D1*
X2211850Y7108477D1*
X2336477Y6983863D1*
X2814500Y6983850D1*
X3070813Y7240153D1*
X3089450Y7254060D1*
X3111293Y7262090D1*
X3128040Y7263833D1*
X3142910Y7263823D1*
X3154720Y7279577D1*
X3171630Y7295857D1*
X3190933Y7309210D1*
X3212127Y7319297D1*
X3234667Y7325853D1*
X3257963Y7328707D1*
X3281417Y7327790D1*
X3304420Y7323120D1*
X3326377Y7314823D1*
X3346717Y7303110D1*
X3364917Y7288283D1*
X3380500Y7270733D1*
X3393067Y7250910D1*
X3402293Y7229323D1*
X3407933Y7206540D1*
X3409850Y7182983D1*
X3407987Y7159750D1*
X3402397Y7136953D1*
X3393220Y7115350D1*
X3380697Y7095497D1*
X3365153Y7077910D1*
X3346987Y7063043D1*
X3328837Y7052537D1*
X3328850Y6576850D1*
X3328860Y6125743D1*
X3334650Y6136813D1*
X3348730Y6155593D1*
X3365640Y6171873D1*
X3384943Y6185227D1*
X3406137Y6195313D1*
X3428677Y6201870D1*
X3451973Y6204727D1*
X3475427Y6203807D1*
X3498430Y6199137D1*
X3520387Y6190840D1*
X3540727Y6179127D1*
X3558927Y6164300D1*
X3574510Y6146750D1*
X3587077Y6126927D1*
X3596303Y6105343D1*
X3601947Y6082557D1*
X3603860Y6059000D1*
X3601997Y6035767D1*
X3596407Y6012970D1*
X3587230Y5991367D1*
X3574707Y5971513D1*
X3559163Y5953927D1*
X3540997Y5939060D1*
X3527843Y5931447D1*
X3527833Y5760213D1*
X3588233Y5760233D1*
Y5573863D1*
X3757160Y5573850D1*
X3757150Y6632727D1*
X3758193Y6645930D1*
X3765177Y6668110D1*
X3778187Y6687383D1*
X3796140Y6702157D1*
X3817560Y6711210D1*
X3838000Y6713837D1*
X3873717D1*
X3877807Y6720113D1*
X3893680Y6737390D1*
X3912177Y6751820D1*
X3932797Y6763010D1*
X3954980Y6770650D1*
X3978117Y6774537D1*
X4001577Y6774563D1*
X4024723Y6770727D1*
X4046920Y6763133D1*
X4067563Y6751990D1*
X4086093Y6737600D1*
X4102003Y6720357D1*
X4114857Y6700730D1*
X4124303Y6679253D1*
X4130087Y6656517D1*
X4132050Y6632987D1*
X4130137Y6609757D1*
X4124403Y6587007D1*
X4115003Y6565513D1*
X4102193Y6545857D1*
X4086320Y6528580D1*
X4070840Y6516503D1*
X4070850Y5648443D1*
X4071460Y5651247D1*
X4072597Y5655770D1*
X4073887Y5660257D1*
X4075323Y5664697D1*
X4076903Y5669087D1*
X4078630Y5673420D1*
X4080500Y5677697D1*
X4082507Y5681910D1*
X4084653Y5686053D1*
X4086937Y5690123D1*
X4100303Y5709243D1*
X4116637Y5725900D1*
X4135487Y5739643D1*
X4156343Y5750093D1*
X4177133Y5756507D1*
X4177150Y6038793D1*
Y6912947D1*
X4178193Y6925943D1*
X4185177Y6948123D1*
X4198203Y6967410D1*
X4202980Y6972230D1*
X4186907Y6978137D1*
X4166843Y6990567D1*
X4149693Y7006783D1*
X4136157Y7026120D1*
X4126793Y7047783D1*
X4121980Y7070890D1*
X4121917Y7094493D1*
X4126607Y7117627D1*
X4135857Y7139340D1*
X4149290Y7158747D1*
X4166353Y7175053D1*
X4186350Y7187593D1*
X4208463Y7195847D1*
X4231783Y7199483D1*
X4255357Y7198350D1*
X4278223Y7192497D1*
X4299440Y7182157D1*
X4318143Y7167760D1*
X4321533Y7163833D1*
X4447770Y7163850D1*
X4602833D1*
X4374510Y7392150D1*
X2695043D1*
X2695037Y7349337D1*
X2712723Y7338580D1*
X2730813Y7323867D1*
X2746727Y7306823D1*
X2760177Y7287773D1*
X2770903Y7267070D1*
X2778713Y7245097D1*
X2783457Y7222267D1*
X2785050Y7199000D1*
X2783460Y7175740D1*
X2778717Y7152910D1*
X2770907Y7130937D1*
X2760180Y7110233D1*
X2746733Y7091180D1*
X2730817Y7074140D1*
X2712730Y7059423D1*
X2692803Y7047307D1*
X2671417Y7038017D1*
X2648963Y7031723D1*
X2625863Y7028550D1*
X2602543Y7028547D1*
X2579443Y7031723D1*
X2556990Y7038013D1*
X2535600Y7047303D1*
X2515677Y7059420D1*
X2497587Y7074133D1*
X2481673Y7091177D1*
X2468223Y7110227D1*
X2457497Y7130930D1*
X2449687Y7152903D1*
X2444943Y7175733D1*
X2443350Y7198997D1*
X2444940Y7222260D1*
X2449683Y7245090D1*
X2457493Y7267063D1*
X2468220Y7287767D1*
X2481667Y7306820D1*
X2497583Y7323860D1*
X2515670Y7338577D1*
X2533357Y7349333D1*
X2533350Y7473000D1*
X2536693Y7496010D1*
X2546447Y7517117D1*
X2561827Y7534590D1*
X2571833Y7541853D1*
X2556990Y7546013D1*
X2535600Y7555303D1*
X2515677Y7567420D1*
X2497587Y7582133D1*
X2481673Y7599177D1*
X2468223Y7618227D1*
X2457497Y7638930D1*
X2449687Y7660903D1*
X2444943Y7683733D1*
X2443350Y7706997D1*
X2444940Y7730260D1*
X2449683Y7753090D1*
X2457493Y7775063D1*
X2468220Y7795767D1*
X2481667Y7814820D1*
X2497583Y7831860D1*
X2515670Y7846577D1*
X2535597Y7858693D1*
X2556983Y7867983D1*
X2579437Y7874277D1*
X2602537Y7877450D1*
X2625857Y7877453D1*
X2648957Y7874277D1*
X2671410Y7867987D1*
X2692800Y7858697D1*
X2712723Y7846580D1*
X2730813Y7831867D1*
X2746727Y7814823D1*
X2760177Y7795773D1*
X2770903Y7775070D1*
X2778713Y7753097D1*
X2783457Y7730267D1*
X2785050Y7707000D1*
X2783460Y7683740D1*
X2778717Y7660910D1*
X2770907Y7638937D1*
X2760180Y7618233D1*
X2746733Y7599180D1*
X2730817Y7582140D1*
X2712730Y7567423D1*
X2692803Y7555307D1*
X2689443Y7553847D1*
X4408000Y7553850D1*
X4431010Y7550507D1*
X4452137Y7540737D1*
X4465213Y7530127D1*
X4715480Y7279850D1*
X6081663Y7279853D1*
X6072370Y7287087D1*
X6056567Y7304247D1*
X6043803Y7323773D1*
X6034430Y7345137D1*
X6028700Y7367750D1*
X6026770Y7391000D1*
X6028693Y7414250D1*
X6029043Y7415640D1*
X6002560Y7442140D1*
X5268000Y7442150D1*
X5244990Y7445493D1*
X5223863Y7455263D1*
X5210783Y7465877D1*
X5074320Y7602353D1*
X5063823Y7594163D1*
X5043203Y7582977D1*
X5021020Y7575333D1*
X4997883Y7571447D1*
X4974423Y7571423D1*
X4951277Y7575260D1*
X4929080Y7582853D1*
X4908437Y7593997D1*
X4889907Y7608387D1*
X4873997Y7625630D1*
X4869717Y7632167D1*
X4478000Y7632150D1*
X4454990Y7635493D1*
X4433863Y7645263D1*
X4420783Y7655877D1*
X9592760Y2594040D2*
X9588017Y2571210D1*
X9580207Y2549237D1*
X9569480Y2528533D1*
X9556033Y2509480D1*
X9540117Y2492440D1*
X9522030Y2477723D1*
X9502103Y2465607D1*
X9480717Y2456317D1*
X9458263Y2450023D1*
X9435163Y2446850D1*
X9411843Y2446847D1*
X9388743Y2450023D1*
X9366290Y2456313D1*
X9344900Y2465603D1*
X9324977Y2477720D1*
X9306887Y2492433D1*
X9290973Y2509477D1*
X9277523Y2528527D1*
X9266797Y2549230D1*
X9258987Y2571203D1*
X9254243Y2594033D1*
X9252650Y2617297D1*
X9254240Y2640560D1*
X9258983Y2663390D1*
X9266793Y2685363D1*
X9277520Y2706067D1*
X9290967Y2725120D1*
X9306883Y2742160D1*
X9324970Y2756877D1*
X9342657Y2767633D1*
X9342650Y3047970D1*
X9329907Y3058397D1*
X9313997Y3075640D1*
X9301143Y3095267D1*
X9291697Y3116743D1*
X9285913Y3139480D1*
X9283950Y3162857D1*
X9285863Y3186240D1*
X9291597Y3208990D1*
X9300997Y3230483D1*
X9313807Y3250140D1*
X9329680Y3267417D1*
X9348177Y3281847D1*
X9368797Y3293033D1*
X9390980Y3300677D1*
X9414117Y3304563D1*
X9437577Y3304590D1*
X9460723Y3300753D1*
X9482920Y3293160D1*
X9503563Y3282013D1*
X9522093Y3267627D1*
X9538003Y3250383D1*
X9550857Y3230757D1*
X9560303Y3209280D1*
X9566087Y3186543D1*
X9568050Y3163010D1*
X9566137Y3139783D1*
X9560403Y3117033D1*
X9551003Y3095540D1*
X9538193Y3075883D1*
X9522320Y3058607D1*
X9504347Y3044583D1*
X9504350Y2767800D1*
X9522023Y2756880D1*
X9540113Y2742167D1*
X9556027Y2725123D1*
X9569477Y2706073D1*
X9580203Y2685370D1*
X9588013Y2663397D1*
X9592757Y2640567D1*
X9594350Y2617300D1*
X9592760Y2594040D1*
X10627347Y2806993D2*
X10780913Y2653427D1*
X10782983Y2663390D1*
X10784060Y2666417D1*
X10130830Y3319630D1*
X10116923Y3338267D1*
X10108893Y3360110D1*
X10107150Y3376867D1*
X10107153Y3780773D1*
X10106530Y3780140D1*
X10089127Y3764530D1*
X10070787Y3750033D1*
X10051580Y3736707D1*
X10031583Y3724597D1*
X10010870Y3713757D1*
X9989523Y3704220D1*
X9967627Y3696033D1*
X9945263Y3689223D1*
X9922520Y3683817D1*
X9899483Y3679833D1*
X9876247Y3677290D1*
X9852893Y3676197D1*
X9829520Y3676557D1*
X9806210Y3678370D1*
X9783060Y3681630D1*
X9760160Y3686320D1*
X9737593Y3692427D1*
X9715450Y3699923D1*
X9704587Y3704177D1*
X9693860Y3708763D1*
X9683280Y3713680D1*
X9672860Y3718927D1*
X9662607Y3724490D1*
X9652530Y3730370D1*
X9642643Y3736560D1*
X9632950Y3743057D1*
X9627070Y3747267D1*
X10543480Y2830860D1*
X10570000Y2830850D1*
X10593010Y2827507D1*
X10614137Y2817737D1*
X10627347Y2806993D1*
X9592760Y1832040D2*
X9588017Y1809210D1*
X9580207Y1787237D1*
X9569480Y1766533D1*
X9556033Y1747480D1*
X9540117Y1730440D1*
X9522030Y1715723D1*
X9502103Y1703607D1*
X9480717Y1694317D1*
X9458263Y1688023D1*
X9435163Y1684850D1*
X9411843Y1684847D1*
X9388743Y1688023D1*
X9366290Y1694313D1*
X9344900Y1703603D1*
X9324977Y1715720D1*
X9306887Y1730433D1*
X9290973Y1747477D1*
X9277523Y1766527D1*
X9266797Y1787230D1*
X9258987Y1809203D1*
X9254243Y1832033D1*
X9252650Y1855297D1*
X9254240Y1878560D1*
X9258983Y1901390D1*
X9266793Y1923363D1*
X9277520Y1944067D1*
X9290967Y1963120D1*
X9306883Y1980160D1*
X9324970Y1994877D1*
X9344897Y2006993D1*
X9366283Y2016283D1*
X9388737Y2022577D1*
X9411837Y2025750D1*
X9435157Y2025753D1*
X9458257Y2022577D1*
X9480710Y2016287D1*
X9502100Y2006997D1*
X9522023Y1994880D1*
X9540113Y1980167D1*
X9556027Y1963123D1*
X9569477Y1944073D1*
X9580203Y1923370D1*
X9588013Y1901397D1*
X9592757Y1878567D1*
X9594350Y1855300D1*
X9592760Y1832040D1*
X10100760D2*
X10096017Y1809210D1*
X10088207Y1787237D1*
X10077480Y1766533D1*
X10064033Y1747480D1*
X10048117Y1730440D1*
X10030030Y1715723D1*
X10010103Y1703607D1*
X9988717Y1694317D1*
X9966263Y1688023D1*
X9943163Y1684850D1*
X9919843Y1684847D1*
X9896743Y1688023D1*
X9874290Y1694313D1*
X9852900Y1703603D1*
X9832977Y1715720D1*
X9814887Y1730433D1*
X9798973Y1747477D1*
X9785523Y1766527D1*
X9774797Y1787230D1*
X9766987Y1809203D1*
X9762243Y1832033D1*
X9760650Y1855297D1*
X9762240Y1878560D1*
X9766983Y1901390D1*
X9774793Y1923363D1*
X9785520Y1944067D1*
X9798967Y1963120D1*
X9814883Y1980160D1*
X9832970Y1994877D1*
X9852897Y2006993D1*
X9874283Y2016283D1*
X9896737Y2022577D1*
X9919837Y2025750D1*
X9943157Y2025753D1*
X9966257Y2022577D1*
X9988710Y2016287D1*
X10010100Y2006997D1*
X10030023Y1994880D1*
X10048113Y1980167D1*
X10064027Y1963123D1*
X10077477Y1944073D1*
X10088203Y1923370D1*
X10096013Y1901397D1*
X10100757Y1878567D1*
X10102350Y1855300D1*
X10100760Y1832040D1*
X10608760D2*
X10604017Y1809210D1*
X10596207Y1787237D1*
X10585480Y1766533D1*
X10572033Y1747480D1*
X10556117Y1730440D1*
X10538030Y1715723D1*
X10518103Y1703607D1*
X10496717Y1694317D1*
X10474263Y1688023D1*
X10451163Y1684850D1*
X10427843Y1684847D1*
X10404743Y1688023D1*
X10382290Y1694313D1*
X10360900Y1703603D1*
X10340977Y1715720D1*
X10322887Y1730433D1*
X10306973Y1747477D1*
X10293523Y1766527D1*
X10282797Y1787230D1*
X10274987Y1809203D1*
X10270243Y1832033D1*
X10268650Y1855297D1*
X10270240Y1878560D1*
X10274983Y1901390D1*
X10282793Y1923363D1*
X10293520Y1944067D1*
X10306967Y1963120D1*
X10322883Y1980160D1*
X10340970Y1994877D1*
X10360897Y2006993D1*
X10382283Y2016283D1*
X10404737Y2022577D1*
X10427837Y2025750D1*
X10451157Y2025753D1*
X10474257Y2022577D1*
X10496710Y2016287D1*
X10518100Y2006997D1*
X10538023Y1994880D1*
X10556113Y1980167D1*
X10572027Y1963123D1*
X10585477Y1944073D1*
X10596203Y1923370D1*
X10604013Y1901397D1*
X10608757Y1878567D1*
X10610350Y1855300D1*
X10608760Y1832040D1*
X11116760D2*
X11112017Y1809210D1*
X11104207Y1787237D1*
X11093480Y1766533D1*
X11080033Y1747480D1*
X11064117Y1730440D1*
X11046030Y1715723D1*
X11026103Y1703607D1*
X11004717Y1694317D1*
X10982263Y1688023D1*
X10959163Y1684850D1*
X10935843Y1684847D1*
X10912743Y1688023D1*
X10890290Y1694313D1*
X10868900Y1703603D1*
X10848977Y1715720D1*
X10830887Y1730433D1*
X10814973Y1747477D1*
X10801523Y1766527D1*
X10790797Y1787230D1*
X10782987Y1809203D1*
X10778243Y1832033D1*
X10776650Y1855297D1*
X10778240Y1878560D1*
X10782983Y1901390D1*
X10790793Y1923363D1*
X10801520Y1944067D1*
X10814967Y1963120D1*
X10830883Y1980160D1*
X10848970Y1994877D1*
X10868897Y2006993D1*
X10890283Y2016283D1*
X10912737Y2022577D1*
X10935837Y2025750D1*
X10959157Y2025753D1*
X10982257Y2022577D1*
X11004710Y2016287D1*
X11026100Y2006997D1*
X11046023Y1994880D1*
X11064113Y1980167D1*
X11080027Y1963123D1*
X11093477Y1944073D1*
X11104203Y1923370D1*
X11112013Y1901397D1*
X11116757Y1878567D1*
X11118350Y1855300D1*
X11116760Y1832040D1*
X4560083Y2788150D2*
X4878450D1*
Y2446450D1*
X4536750D1*
Y2788150D1*
X4560083D1*
X5892860Y2594040D2*
X5888117Y2571210D1*
X5880307Y2549237D1*
X5869580Y2528533D1*
X5856133Y2509480D1*
X5840217Y2492440D1*
X5822130Y2477723D1*
X5802203Y2465607D1*
X5780817Y2456317D1*
X5758363Y2450023D1*
X5735263Y2446850D1*
X5711943Y2446847D1*
X5688843Y2450023D1*
X5666390Y2456313D1*
X5645000Y2465603D1*
X5625077Y2477720D1*
X5606987Y2492433D1*
X5591073Y2509477D1*
X5577623Y2528527D1*
X5566897Y2549230D1*
X5559087Y2571203D1*
X5554343Y2594033D1*
X5552750Y2617297D1*
X5554340Y2640560D1*
X5559083Y2663390D1*
X5566893Y2685363D1*
X5577620Y2706067D1*
X5591067Y2725120D1*
X5606983Y2742160D1*
X5625070Y2756877D1*
X5644997Y2768993D1*
X5666383Y2778283D1*
X5688837Y2784577D1*
X5711937Y2787750D1*
X5735257Y2787753D1*
X5758357Y2784577D1*
X5780810Y2778287D1*
X5802200Y2768997D1*
X5822123Y2756880D1*
X5840213Y2742167D1*
X5856127Y2725123D1*
X5869577Y2706073D1*
X5880303Y2685370D1*
X5888113Y2663397D1*
X5892857Y2640567D1*
X5894450Y2617300D1*
X5892860Y2594040D1*
X6400860D2*
X6396117Y2571210D1*
X6388307Y2549237D1*
X6377580Y2528533D1*
X6364133Y2509480D1*
X6348217Y2492440D1*
X6330130Y2477723D1*
X6310203Y2465607D1*
X6288817Y2456317D1*
X6266363Y2450023D1*
X6243263Y2446850D1*
X6219943Y2446847D1*
X6196843Y2450023D1*
X6174390Y2456313D1*
X6153000Y2465603D1*
X6133077Y2477720D1*
X6114987Y2492433D1*
X6099073Y2509477D1*
X6085623Y2528527D1*
X6074897Y2549230D1*
X6067087Y2571203D1*
X6062343Y2594033D1*
X6060750Y2617297D1*
X6062340Y2640560D1*
X6067083Y2663390D1*
X6074893Y2685363D1*
X6085620Y2706067D1*
X6099067Y2725120D1*
X6114983Y2742160D1*
X6133070Y2756877D1*
X6150757Y2767633D1*
X6150750Y3382523D1*
X6143293Y3390383D1*
X6129757Y3409720D1*
X6120393Y3431383D1*
X6115580Y3454490D1*
X6115517Y3478093D1*
X6120207Y3501227D1*
X6129457Y3522940D1*
X6142890Y3542347D1*
X6159953Y3558653D1*
X6179950Y3571193D1*
X6202063Y3579447D1*
X6225383Y3583083D1*
X6248957Y3581950D1*
X6271823Y3576097D1*
X6293040Y3565757D1*
X6311743Y3551360D1*
X6327163Y3533493D1*
X6338673Y3512887D1*
X6345800Y3490383D1*
X6348250Y3466600D1*
X6345923Y3443423D1*
X6338917Y3420883D1*
X6327520Y3400217D1*
X6312447Y3382563D1*
X6312450Y2767823D1*
X6330123Y2756880D1*
X6348213Y2742167D1*
X6364127Y2725123D1*
X6377577Y2706073D1*
X6388303Y2685370D1*
X6396113Y2663397D1*
X6400857Y2640567D1*
X6402450Y2617300D1*
X6400860Y2594040D1*
X8293737Y3551563D2*
X8303507Y3572690D1*
X8306850Y3595700D1*
X8306830Y3788097D1*
X8309277Y3787260D1*
X8332423Y3783423D1*
X8355883Y3783447D1*
X8379020Y3787333D1*
X8387150Y3789650D1*
X8387133Y3633473D1*
X7412960Y2659317D1*
X7412113Y2663397D1*
X7411037Y2666423D1*
X7524400Y2779760D1*
X8283123Y3538483D1*
X8293737Y3551563D1*
X4560083Y2026150D2*
X4878450D1*
Y1684450D1*
X4536750D1*
Y2026150D1*
X4560083D1*
X5892860Y1832040D2*
X5888117Y1809210D1*
X5880307Y1787237D1*
X5869580Y1766533D1*
X5856133Y1747480D1*
X5840217Y1730440D1*
X5822130Y1715723D1*
X5802203Y1703607D1*
X5780817Y1694317D1*
X5758363Y1688023D1*
X5735263Y1684850D1*
X5711943Y1684847D1*
X5688843Y1688023D1*
X5666390Y1694313D1*
X5645000Y1703603D1*
X5625077Y1715720D1*
X5606987Y1730433D1*
X5591073Y1747477D1*
X5577623Y1766527D1*
X5566897Y1787230D1*
X5559087Y1809203D1*
X5554343Y1832033D1*
X5552750Y1855297D1*
X5554340Y1878560D1*
X5559083Y1901390D1*
X5566893Y1923363D1*
X5577620Y1944067D1*
X5591067Y1963120D1*
X5606983Y1980160D1*
X5625070Y1994877D1*
X5644997Y2006993D1*
X5666383Y2016283D1*
X5688837Y2022577D1*
X5711937Y2025750D1*
X5735257Y2025753D1*
X5758357Y2022577D1*
X5780810Y2016287D1*
X5802200Y2006997D1*
X5822123Y1994880D1*
X5840213Y1980167D1*
X5856127Y1963123D1*
X5869577Y1944073D1*
X5880303Y1923370D1*
X5888113Y1901397D1*
X5892857Y1878567D1*
X5894450Y1855300D1*
X5892860Y1832040D1*
X6400860D2*
X6396117Y1809210D1*
X6388307Y1787237D1*
X6377580Y1766533D1*
X6364133Y1747480D1*
X6348217Y1730440D1*
X6330130Y1715723D1*
X6310203Y1703607D1*
X6288817Y1694317D1*
X6266363Y1688023D1*
X6243263Y1684850D1*
X6219943Y1684847D1*
X6196843Y1688023D1*
X6174390Y1694313D1*
X6153000Y1703603D1*
X6133077Y1715720D1*
X6114987Y1730433D1*
X6099073Y1747477D1*
X6085623Y1766527D1*
X6074897Y1787230D1*
X6067087Y1809203D1*
X6062343Y1832033D1*
X6060750Y1855297D1*
X6062340Y1878560D1*
X6067083Y1901390D1*
X6074893Y1923363D1*
X6085620Y1944067D1*
X6099067Y1963120D1*
X6114983Y1980160D1*
X6133070Y1994877D1*
X6152997Y2006993D1*
X6174383Y2016283D1*
X6196837Y2022577D1*
X6219937Y2025750D1*
X6243257Y2025753D1*
X6266357Y2022577D1*
X6288810Y2016287D1*
X6310200Y2006997D1*
X6330123Y1994880D1*
X6348213Y1980167D1*
X6364127Y1963123D1*
X6377577Y1944073D1*
X6388303Y1923370D1*
X6396113Y1901397D1*
X6400857Y1878567D1*
X6402450Y1855300D1*
X6400860Y1832040D1*
X6908860D2*
X6904117Y1809210D1*
X6896307Y1787237D1*
X6885580Y1766533D1*
X6872133Y1747480D1*
X6856217Y1730440D1*
X6838130Y1715723D1*
X6818203Y1703607D1*
X6796817Y1694317D1*
X6774363Y1688023D1*
X6751263Y1684850D1*
X6727943Y1684847D1*
X6704843Y1688023D1*
X6682390Y1694313D1*
X6661000Y1703603D1*
X6641077Y1715720D1*
X6622987Y1730433D1*
X6607073Y1747477D1*
X6593623Y1766527D1*
X6582897Y1787230D1*
X6575087Y1809203D1*
X6570343Y1832033D1*
X6568750Y1855297D1*
X6570340Y1878560D1*
X6575083Y1901390D1*
X6582893Y1923363D1*
X6593620Y1944067D1*
X6607067Y1963120D1*
X6622983Y1980160D1*
X6641070Y1994877D1*
X6660997Y2006993D1*
X6682383Y2016283D1*
X6704837Y2022577D1*
X6727937Y2025750D1*
X6751257Y2025753D1*
X6774357Y2022577D1*
X6796810Y2016287D1*
X6818200Y2006997D1*
X6838123Y1994880D1*
X6856213Y1980167D1*
X6872127Y1963123D1*
X6885577Y1944073D1*
X6896303Y1923370D1*
X6904113Y1901397D1*
X6908857Y1878567D1*
X6910450Y1855300D1*
X6908860Y1832040D1*
X7416860D2*
X7412117Y1809210D1*
X7404307Y1787237D1*
X7393580Y1766533D1*
X7380133Y1747480D1*
X7364217Y1730440D1*
X7346130Y1715723D1*
X7326203Y1703607D1*
X7304817Y1694317D1*
X7282363Y1688023D1*
X7259263Y1684850D1*
X7235943Y1684847D1*
X7212843Y1688023D1*
X7190390Y1694313D1*
X7169000Y1703603D1*
X7149077Y1715720D1*
X7130987Y1730433D1*
X7115073Y1747477D1*
X7101623Y1766527D1*
X7090897Y1787230D1*
X7083087Y1809203D1*
X7078343Y1832033D1*
X7076750Y1855297D1*
X7078340Y1878560D1*
X7083083Y1901390D1*
X7090893Y1923363D1*
X7101620Y1944067D1*
X7115067Y1963120D1*
X7130983Y1980160D1*
X7149070Y1994877D1*
X7168997Y2006993D1*
X7190383Y2016283D1*
X7212837Y2022577D1*
X7235937Y2025750D1*
X7259257Y2025753D1*
X7282357Y2022577D1*
X7304810Y2016287D1*
X7326200Y2006997D1*
X7346123Y1994880D1*
X7364213Y1980167D1*
X7380127Y1963123D1*
X7393577Y1944073D1*
X7404303Y1923370D1*
X7412113Y1901397D1*
X7416857Y1878567D1*
X7418450Y1855300D1*
X7416860Y1832040D1*
X7553027Y7620367D2*
X7552687Y7621713D1*
X7550873Y7643533D1*
X7448853Y7541503D1*
X7448850Y7516180D1*
X7552947Y7620263D1*
X10031107Y5345690D2*
X10023077Y5367533D1*
X10009170Y5386170D1*
X9353457Y6041893D1*
X9351930Y6060557D1*
X9346287Y6083343D1*
X9337063Y6104927D1*
X9324497Y6124750D1*
X9308910Y6142300D1*
X9290713Y6157127D1*
X9270373Y6168840D1*
X9248417Y6177137D1*
X9225413Y6181807D1*
X9201960Y6182727D1*
X9178660Y6179870D1*
X9156123Y6173313D1*
X9134927Y6163227D1*
X9115627Y6149873D1*
X9098717Y6133593D1*
X9084637Y6114813D1*
X9073753Y6094017D1*
X9066343Y6071743D1*
X9062607Y6048573D1*
X9062613Y6041947D1*
X8968497Y5947850D1*
X8850807Y5947847D1*
X8854330Y5950593D1*
X8870200Y5967873D1*
X8883013Y5987527D1*
X8892413Y6009023D1*
X8898147Y6031770D1*
X8900060Y6055153D1*
X8898097Y6078533D1*
X8892313Y6101270D1*
X8882867Y6122743D1*
X8870013Y6142370D1*
X8854103Y6159613D1*
X8835573Y6174003D1*
X8814930Y6185147D1*
X8792730Y6192740D1*
X8769587Y6196577D1*
X8746127Y6196553D1*
X8722990Y6192667D1*
X8700807Y6185023D1*
X8680187Y6173837D1*
X8661687Y6159407D1*
X8645817Y6142127D1*
X8633007Y6122473D1*
X8623607Y6100977D1*
X8617870Y6078230D1*
X8615960Y6054847D1*
X8617923Y6031467D1*
X8623707Y6008730D1*
X8633153Y5987257D1*
X8646007Y5967630D1*
X8661913Y5950387D1*
X8664753Y5947850D1*
X8595250Y5947843D1*
Y6008250D1*
X8408850Y6008230D1*
X8408870Y7257687D1*
X8419363Y7254087D1*
X8442373Y7250250D1*
X8465703Y7250253D1*
X8488713Y7254097D1*
X8491580Y7255080D1*
X8625450Y7121240D1*
X8623587Y7116977D1*
X8617853Y7094230D1*
X8615940Y7070847D1*
X8617903Y7047467D1*
X8623687Y7024730D1*
X8633133Y7003257D1*
X8645987Y6983630D1*
X8661897Y6966387D1*
X8680427Y6951997D1*
X8701070Y6940853D1*
X8723270Y6933260D1*
X8746413Y6929423D1*
X8769873Y6929447D1*
X8793010Y6933333D1*
X8815193Y6940977D1*
X8835813Y6952163D1*
X8854313Y6966593D1*
X8870183Y6983873D1*
X8882993Y7003527D1*
X8892393Y7025023D1*
X8898130Y7047770D1*
X8900040Y7071153D1*
X8898077Y7094533D1*
X8892293Y7117270D1*
X8882847Y7138743D1*
X8869993Y7158370D1*
X8854087Y7175613D1*
X8835557Y7190003D1*
X8814910Y7201147D1*
X8792713Y7208740D1*
X8769567Y7212577D1*
X8762360Y7212980D1*
X8594430Y7380923D1*
X8595267Y7391020D1*
X8594950Y7400453D1*
X8591477Y7423523D1*
X8584250Y7445703D1*
X8573473Y7466393D1*
X8559437Y7485030D1*
X8542527Y7501097D1*
X8523200Y7514167D1*
X8515310Y7517777D1*
X8515433Y7518200D1*
X8531280Y7526780D1*
X8549687Y7541113D1*
X8565487Y7558277D1*
X8578243Y7577810D1*
X8587610Y7599177D1*
X8593333Y7621790D1*
X8595257Y7645020D1*
X8594933Y7654543D1*
X8591443Y7677607D1*
X8584207Y7699787D1*
X8573417Y7720470D1*
X8559370Y7739093D1*
X8542447Y7755153D1*
X8523113Y7768207D1*
X8515300Y7771777D1*
X8515423Y7772200D1*
X8531270Y7780780D1*
X8549677Y7795113D1*
X8565473Y7812277D1*
X8571913Y7822140D1*
X8837150Y7822150D1*
X8837167Y7688627D1*
X8837177Y7641483D1*
X8821697Y7629407D1*
X8805823Y7612127D1*
X8793013Y7592473D1*
X8783613Y7570977D1*
X8777880Y7548230D1*
X8775967Y7524847D1*
X8777930Y7501467D1*
X8783713Y7478730D1*
X8793160Y7457257D1*
X8806013Y7437630D1*
X8821923Y7420387D1*
X8840453Y7405997D1*
X8861097Y7394853D1*
X8883297Y7387260D1*
X8906440Y7383423D1*
X8929900Y7383447D1*
X8943447Y7385230D1*
X10107150Y6221543D1*
X10107147Y4323203D1*
X10106040Y4324327D1*
X10088610Y4339903D1*
X10070243Y4354367D1*
X10051013Y4367660D1*
X10030993Y4379733D1*
X10010263Y4390540D1*
X9988900Y4400033D1*
X9966990Y4408183D1*
X9944613Y4414953D1*
X9921860Y4420320D1*
X9898817Y4424260D1*
X9875573Y4426763D1*
X9852220Y4427813D1*
X9828843Y4427410D1*
X9805540Y4425557D1*
X9782397Y4422257D1*
X9759503Y4417523D1*
X9736947Y4411377D1*
X9714817Y4403840D1*
X9693200Y4394940D1*
X9672177Y4384717D1*
X9651830Y4373203D1*
X9632240Y4360450D1*
X9613477Y4346500D1*
X9595620Y4331413D1*
X9582850Y4319390D1*
X9582860Y4549520D1*
X9923373Y4890017D1*
X9946290Y4887263D1*
X9969743Y4888233D1*
X9992737Y4892953D1*
X10014673Y4901303D1*
X10034987Y4913060D1*
X10053153Y4927927D1*
X10068697Y4945513D1*
X10081220Y4965367D1*
X10090397Y4986970D1*
X10095987Y5009767D1*
X10097850Y5033163D1*
X10095933Y5056557D1*
X10090293Y5079343D1*
X10081067Y5100927D1*
X10068500Y5120750D1*
X10052917Y5138300D1*
X10034717Y5153127D1*
X10032870Y5154190D1*
X10032850Y5237857D1*
Y5328937D1*
X10031107Y5345690D1*
X7721193Y5242843D2*
X7726653Y5241933D1*
X7748720Y5234363D1*
X7769237Y5223263D1*
X7787650Y5208937D1*
X7803453Y5191773D1*
X7816217Y5172247D1*
X7818787Y5166383D1*
X7824007Y5176200D1*
X7837390Y5195307D1*
X7853737Y5211953D1*
X7872597Y5225680D1*
X7893463Y5236117D1*
X7915760Y5242977D1*
X7938883Y5246070D1*
X7962200Y5245317D1*
X7985073Y5240737D1*
X8006883Y5232457D1*
X8027030Y5220697D1*
X8044970Y5205780D1*
X8060207Y5188117D1*
X8072330Y5168187D1*
X8072930Y5166683D1*
X8078007Y5176200D1*
X8091390Y5195307D1*
X8107737Y5211953D1*
X8126597Y5225680D1*
X8147463Y5236117D1*
X8169760Y5242977D1*
X8192883Y5246070D1*
X8216200Y5245317D1*
X8239073Y5240737D1*
X8260883Y5232457D1*
X8281030Y5220697D1*
X8298970Y5205780D1*
X8314207Y5188117D1*
X8326330Y5168187D1*
X8326930Y5166683D1*
X8332007Y5176200D1*
X8345390Y5195307D1*
X8361737Y5211953D1*
X8380597Y5225680D1*
X8401463Y5236117D1*
X8422953Y5242727D1*
X8303503Y5362157D1*
X7840480Y5362150D1*
X7721493Y5243153D1*
X1704683Y9909850D2*
X2023050D1*
Y9568150D1*
X1681350D1*
Y9909850D1*
X1704683D1*
X2021460Y8699740D2*
X2016717Y8676910D1*
X2008907Y8654937D1*
X1998180Y8634233D1*
X1984733Y8615180D1*
X1968817Y8598140D1*
X1950730Y8583423D1*
X1930803Y8571307D1*
X1909417Y8562017D1*
X1886963Y8555723D1*
X1863863Y8552550D1*
X1840543Y8552547D1*
X1817443Y8555723D1*
X1794990Y8562013D1*
X1773600Y8571303D1*
X1753677Y8583420D1*
X1735587Y8598133D1*
X1719673Y8615177D1*
X1706223Y8634227D1*
X1695497Y8654930D1*
X1687687Y8676903D1*
X1682943Y8699733D1*
X1681350Y8722997D1*
X1682940Y8746260D1*
X1687683Y8769090D1*
X1695493Y8791063D1*
X1706220Y8811767D1*
X1719667Y8830820D1*
X1735583Y8847860D1*
X1753670Y8862577D1*
X1773597Y8874693D1*
X1794983Y8883983D1*
X1817437Y8890277D1*
X1840537Y8893450D1*
X1863857Y8893453D1*
X1886957Y8890277D1*
X1909410Y8883987D1*
X1930800Y8874697D1*
X1950723Y8862580D1*
X1968813Y8847867D1*
X1984727Y8830823D1*
X1998177Y8811773D1*
X2008903Y8791070D1*
X2016713Y8769097D1*
X2021457Y8746267D1*
X2023050Y8723000D1*
X2021460Y8699740D1*
Y8191740D2*
X2016717Y8168910D1*
X2008907Y8146937D1*
X1998180Y8126233D1*
X1984733Y8107180D1*
X1968817Y8090140D1*
X1950730Y8075423D1*
X1930803Y8063307D1*
X1909417Y8054017D1*
X1886963Y8047723D1*
X1863863Y8044550D1*
X1840543Y8044547D1*
X1817443Y8047723D1*
X1794990Y8054013D1*
X1773600Y8063303D1*
X1753677Y8075420D1*
X1735587Y8090133D1*
X1719673Y8107177D1*
X1706223Y8126227D1*
X1695497Y8146930D1*
X1687687Y8168903D1*
X1682943Y8191733D1*
X1681350Y8214997D1*
X1682940Y8238260D1*
X1687683Y8261090D1*
X1695493Y8283063D1*
X1706220Y8303767D1*
X1719667Y8322820D1*
X1735583Y8339860D1*
X1753670Y8354577D1*
X1773597Y8366693D1*
X1794983Y8375983D1*
X1817437Y8382277D1*
X1840537Y8385450D1*
X1863857Y8385453D1*
X1886957Y8382277D1*
X1909410Y8375987D1*
X1930800Y8366697D1*
X1950723Y8354580D1*
X1968813Y8339867D1*
X1984727Y8322823D1*
X1998177Y8303773D1*
X2008903Y8283070D1*
X2016713Y8261097D1*
X2021457Y8238267D1*
X2023050Y8215000D1*
X2021460Y8191740D1*
Y7683740D2*
X2016717Y7660910D1*
X2008907Y7638937D1*
X1998180Y7618233D1*
X1984733Y7599180D1*
X1968817Y7582140D1*
X1950730Y7567423D1*
X1930803Y7555307D1*
X1909417Y7546017D1*
X1886963Y7539723D1*
X1863863Y7536550D1*
X1840543Y7536547D1*
X1817443Y7539723D1*
X1794990Y7546013D1*
X1773600Y7555303D1*
X1753677Y7567420D1*
X1735587Y7582133D1*
X1719673Y7599177D1*
X1706223Y7618227D1*
X1695497Y7638930D1*
X1687687Y7660903D1*
X1682943Y7683733D1*
X1681350Y7706997D1*
X1682940Y7730260D1*
X1687683Y7753090D1*
X1695493Y7775063D1*
X1706220Y7795767D1*
X1719667Y7814820D1*
X1735583Y7831860D1*
X1753670Y7846577D1*
X1773597Y7858693D1*
X1794983Y7867983D1*
X1817437Y7874277D1*
X1840537Y7877450D1*
X1863857Y7877453D1*
X1886957Y7874277D1*
X1909410Y7867987D1*
X1930800Y7858697D1*
X1950723Y7846580D1*
X1968813Y7831867D1*
X1984727Y7814823D1*
X1998177Y7795773D1*
X2008903Y7775070D1*
X2016713Y7753097D1*
X2021457Y7730267D1*
X2023050Y7707000D1*
X2021460Y7683740D1*
Y7175740D2*
X2016717Y7152910D1*
X2008907Y7130937D1*
X1998180Y7110233D1*
X1984733Y7091180D1*
X1968817Y7074140D1*
X1950730Y7059423D1*
X1930803Y7047307D1*
X1909417Y7038017D1*
X1886963Y7031723D1*
X1863863Y7028550D1*
X1840543Y7028547D1*
X1817443Y7031723D1*
X1794990Y7038013D1*
X1773600Y7047303D1*
X1753677Y7059420D1*
X1735587Y7074133D1*
X1719673Y7091177D1*
X1706223Y7110227D1*
X1695497Y7130930D1*
X1687687Y7152903D1*
X1682943Y7175733D1*
X1681350Y7198997D1*
X1682940Y7222260D1*
X1687683Y7245090D1*
X1695493Y7267063D1*
X1706220Y7287767D1*
X1719667Y7306820D1*
X1735583Y7323860D1*
X1753670Y7338577D1*
X1773597Y7350693D1*
X1794983Y7359983D1*
X1817437Y7366277D1*
X1840537Y7369450D1*
X1863857Y7369453D1*
X1886957Y7366277D1*
X1909410Y7359987D1*
X1930800Y7350697D1*
X1950723Y7338580D1*
X1968813Y7323867D1*
X1984727Y7306823D1*
X1998177Y7287773D1*
X2008903Y7267070D1*
X2016713Y7245097D1*
X2021457Y7222267D1*
X2023050Y7199000D1*
X2021460Y7175740D1*
X2783460Y3988740D2*
X2778717Y3965910D1*
X2770907Y3943937D1*
X2760180Y3923233D1*
X2746733Y3904180D1*
X2730817Y3887140D1*
X2712730Y3872423D1*
X2692803Y3860307D1*
X2671417Y3851017D1*
X2648963Y3844723D1*
X2625863Y3841550D1*
X2602543Y3841547D1*
X2579443Y3844723D1*
X2556990Y3851013D1*
X2535600Y3860303D1*
X2515677Y3872420D1*
X2497587Y3887133D1*
X2481673Y3904177D1*
X2468223Y3923227D1*
X2457497Y3943930D1*
X2449687Y3965903D1*
X2444943Y3988733D1*
X2443350Y4011997D1*
X2444940Y4035260D1*
X2449683Y4058090D1*
X2457493Y4080063D1*
X2468220Y4100767D1*
X2481667Y4119820D1*
X2497583Y4136860D1*
X2515670Y4151577D1*
X2535597Y4163693D1*
X2556983Y4172983D1*
X2579437Y4179277D1*
X2602537Y4182450D1*
X2625857Y4182453D1*
X2648957Y4179277D1*
X2671410Y4172987D1*
X2692800Y4163697D1*
X2712723Y4151580D1*
X2730813Y4136867D1*
X2746727Y4119823D1*
X2760177Y4100773D1*
X2770903Y4080070D1*
X2778713Y4058097D1*
X2783457Y4035267D1*
X2785050Y4012000D1*
X2783460Y3988740D1*
X1704683Y6214850D2*
X2023050D1*
Y5873150D1*
X1681350D1*
Y6214850D1*
X1704683D1*
X2021460Y5004740D2*
X2016717Y4981910D1*
X2008907Y4959937D1*
X1998180Y4939233D1*
X1984733Y4920180D1*
X1968817Y4903140D1*
X1950730Y4888423D1*
X1930803Y4876307D1*
X1909417Y4867017D1*
X1886963Y4860723D1*
X1863863Y4857550D1*
X1840543Y4857547D1*
X1817443Y4860723D1*
X1794990Y4867013D1*
X1773600Y4876303D1*
X1753677Y4888420D1*
X1735587Y4903133D1*
X1719673Y4920177D1*
X1706223Y4939227D1*
X1695497Y4959930D1*
X1687687Y4981903D1*
X1682943Y5004733D1*
X1681350Y5027997D1*
X1682940Y5051260D1*
X1687683Y5074090D1*
X1695493Y5096063D1*
X1706220Y5116767D1*
X1719667Y5135820D1*
X1735583Y5152860D1*
X1753670Y5167577D1*
X1773597Y5179693D1*
X1794983Y5188983D1*
X1817437Y5195277D1*
X1840537Y5198450D1*
X1863857Y5198453D1*
X1886957Y5195277D1*
X1909410Y5188987D1*
X1930800Y5179697D1*
X1950723Y5167580D1*
X1968813Y5152867D1*
X1984727Y5135823D1*
X1998177Y5116773D1*
X2008903Y5096070D1*
X2016713Y5074097D1*
X2021457Y5051267D1*
X2023050Y5028000D1*
X2021460Y5004740D1*
Y4496740D2*
X2016717Y4473910D1*
X2008907Y4451937D1*
X1998180Y4431233D1*
X1984733Y4412180D1*
X1968817Y4395140D1*
X1950730Y4380423D1*
X1930803Y4368307D1*
X1909417Y4359017D1*
X1886963Y4352723D1*
X1863863Y4349550D1*
X1840543Y4349547D1*
X1817443Y4352723D1*
X1794990Y4359013D1*
X1773600Y4368303D1*
X1753677Y4380420D1*
X1735587Y4395133D1*
X1719673Y4412177D1*
X1706223Y4431227D1*
X1695497Y4451930D1*
X1687687Y4473903D1*
X1682943Y4496733D1*
X1681350Y4519997D1*
X1682940Y4543260D1*
X1687683Y4566090D1*
X1695493Y4588063D1*
X1706220Y4608767D1*
X1719667Y4627820D1*
X1735583Y4644860D1*
X1753670Y4659577D1*
X1773597Y4671693D1*
X1794983Y4680983D1*
X1817437Y4687277D1*
X1840537Y4690450D1*
X1863857Y4690453D1*
X1886957Y4687277D1*
X1909410Y4680987D1*
X1930800Y4671697D1*
X1950723Y4659580D1*
X1968813Y4644867D1*
X1984727Y4627823D1*
X1998177Y4608773D1*
X2008903Y4588070D1*
X2016713Y4566097D1*
X2021457Y4543267D1*
X2023050Y4520000D1*
X2021460Y4496740D1*
Y3988740D2*
X2016717Y3965910D1*
X2008907Y3943937D1*
X1998180Y3923233D1*
X1984733Y3904180D1*
X1968817Y3887140D1*
X1950730Y3872423D1*
X1930803Y3860307D1*
X1909417Y3851017D1*
X1886963Y3844723D1*
X1863863Y3841550D1*
X1840543Y3841547D1*
X1817443Y3844723D1*
X1794990Y3851013D1*
X1773600Y3860303D1*
X1753677Y3872420D1*
X1735587Y3887133D1*
X1719673Y3904177D1*
X1706223Y3923227D1*
X1695497Y3943930D1*
X1687687Y3965903D1*
X1682943Y3988733D1*
X1681350Y4011997D1*
X1682940Y4035260D1*
X1687683Y4058090D1*
X1695493Y4080063D1*
X1706220Y4100767D1*
X1719667Y4119820D1*
X1735583Y4136860D1*
X1753670Y4151577D1*
X1773597Y4163693D1*
X1794983Y4172983D1*
X1817437Y4179277D1*
X1840537Y4182450D1*
X1863857Y4182453D1*
X1886957Y4179277D1*
X1909410Y4172987D1*
X1930800Y4163697D1*
X1950723Y4151580D1*
X1968813Y4136867D1*
X1984727Y4119823D1*
X1998177Y4100773D1*
X2008903Y4080070D1*
X2016713Y4058097D1*
X2021457Y4035267D1*
X2023050Y4012000D1*
X2021460Y3988740D1*
Y3480740D2*
X2016717Y3457910D1*
X2008907Y3435937D1*
X1998180Y3415233D1*
X1984733Y3396180D1*
X1968817Y3379140D1*
X1950730Y3364423D1*
X1930803Y3352307D1*
X1909417Y3343017D1*
X1886963Y3336723D1*
X1863863Y3333550D1*
X1840543Y3333547D1*
X1817443Y3336723D1*
X1794990Y3343013D1*
X1773600Y3352303D1*
X1753677Y3364420D1*
X1735587Y3379133D1*
X1719673Y3396177D1*
X1706223Y3415227D1*
X1695497Y3435930D1*
X1687687Y3457903D1*
X1682943Y3480733D1*
X1681350Y3503997D1*
X1682940Y3527260D1*
X1687683Y3550090D1*
X1695493Y3572063D1*
X1706220Y3592767D1*
X1719667Y3611820D1*
X1735583Y3628860D1*
X1753670Y3643577D1*
X1773597Y3655693D1*
X1794983Y3664983D1*
X1817437Y3671277D1*
X1840537Y3674450D1*
X1863857Y3674453D1*
X1886957Y3671277D1*
X1909410Y3664987D1*
X1930800Y3655697D1*
X1950723Y3643580D1*
X1968813Y3628867D1*
X1984727Y3611823D1*
X1998177Y3592773D1*
X2008903Y3572070D1*
X2016713Y3550097D1*
X2021457Y3527267D1*
X2023050Y3504000D1*
X2021460Y3480740D1*
X5545317Y7875750D2*
X5539593Y7853133D1*
X5530227Y7831767D1*
X5517470Y7812237D1*
X5501670Y7795070D1*
X5483263Y7780740D1*
X5467417Y7772160D1*
X5475190Y7768123D1*
X5494513Y7755057D1*
X5511427Y7738987D1*
X5525460Y7720353D1*
X5536240Y7699663D1*
X5543463Y7677480D1*
X5546940Y7654413D1*
X5547253Y7644977D1*
X5545330Y7621750D1*
X5540800Y7603837D1*
X6032907Y7603850D1*
X6030543Y7612517D1*
X6027070Y7635587D1*
X6027440Y7658910D1*
X6031643Y7681857D1*
X6039563Y7703800D1*
X6050990Y7724140D1*
X6065610Y7742320D1*
X6083020Y7757847D1*
X6102750Y7770293D1*
X6106467Y7771857D1*
X6098803Y7775873D1*
X6079480Y7788940D1*
X6062567Y7805010D1*
X6048533Y7823647D1*
X6037753Y7844337D1*
X6030530Y7866517D1*
X6027053Y7889587D1*
X6027423Y7912910D1*
X6031627Y7935857D1*
X6039550Y7957800D1*
X6050977Y7978140D1*
X6065593Y7996320D1*
X6083007Y8011847D1*
X6102737Y8024293D1*
X6106453Y8025857D1*
X6098790Y8029873D1*
X6079463Y8042940D1*
X6062553Y8059010D1*
X6048517Y8077647D1*
X6037740Y8098337D1*
X6030517Y8120517D1*
X6027040Y8143587D1*
X6027410Y8166910D1*
X6031613Y8189857D1*
X6039537Y8211800D1*
X6050960Y8232140D1*
X6065580Y8250320D1*
X6082990Y8265847D1*
X6102720Y8278293D1*
X6124230Y8287327D1*
X6146933Y8292697D1*
X6170210Y8294253D1*
X6193423Y8291960D1*
X6215947Y8285877D1*
X6237160Y8276167D1*
X6256483Y8263100D1*
X6273397Y8247030D1*
X6283307Y8233873D1*
X6577137Y8233870D1*
X6577140Y8404227D1*
X6561897Y8416387D1*
X6545987Y8433630D1*
X6533133Y8453257D1*
X6523687Y8474730D1*
X6517903Y8497467D1*
X6515940Y8520847D1*
X6517853Y8544230D1*
X6523587Y8566977D1*
X6532987Y8588473D1*
X6545800Y8608127D1*
X6561670Y8625407D1*
X6580167Y8639837D1*
X6600790Y8651023D1*
X6605090Y8652833D1*
X6609450Y8654500D1*
X6613860Y8656020D1*
X6618320Y8657397D1*
X6622820Y8658627D1*
X6627360Y8659707D1*
X6631933Y8660640D1*
X6636533Y8661420D1*
X6642140Y8662150D1*
X6283520D1*
X5545057Y7923707D1*
X5546917Y7908500D1*
X5547240Y7898977D1*
X5545317Y7875750D1*
X6307347Y7367793D2*
X6301623Y7345177D1*
X6292257Y7323813D1*
X6279500Y7304280D1*
X6263700Y7287117D1*
X6254373Y7279850D1*
X6577180D1*
X6577160Y7388223D1*
X6561913Y7400387D1*
X6546007Y7417630D1*
X6533153Y7437257D1*
X6523707Y7458730D1*
X6517923Y7481467D1*
X6515960Y7504847D1*
X6517870Y7528230D1*
X6523607Y7550977D1*
X6533007Y7572473D1*
X6545817Y7592127D1*
X6561687Y7609407D1*
X6577170Y7621483D1*
X6577160Y7818170D1*
X6283800D1*
X6279470Y7812280D1*
X6263670Y7795117D1*
X6245263Y7780783D1*
X6229417Y7772203D1*
X6237113Y7768210D1*
X6256447Y7755157D1*
X6273367Y7739097D1*
X6287413Y7720470D1*
X6298203Y7699787D1*
X6305443Y7677610D1*
X6308933Y7654543D1*
X6309253Y7645020D1*
X6307330Y7621793D1*
X6301607Y7599177D1*
X6292240Y7577813D1*
X6279483Y7558280D1*
X6263687Y7541117D1*
X6245280Y7526783D1*
X6229433Y7518203D1*
X6237203Y7514167D1*
X6256530Y7501100D1*
X6273440Y7485030D1*
X6287477Y7466397D1*
X6298253Y7445707D1*
X6305477Y7423527D1*
X6308953Y7400457D1*
X6309270Y7391020D1*
X6307347Y7367793D1*
X4418893Y4766310D2*
X4426923Y4744467D1*
X4440830Y4725830D1*
X4837150Y4329503D1*
X4837130Y4311850D1*
X4830663Y4314493D1*
X4807780Y4319667D1*
X4784357Y4321003D1*
X4761033Y4318467D1*
X4738447Y4312127D1*
X4717210Y4302153D1*
X4697903Y4288823D1*
X4681057Y4272497D1*
X4676050Y4266430D1*
Y4321050D1*
X4391950D1*
Y4200790D1*
X4387753Y4210590D1*
X4377233Y4231467D1*
X4365437Y4251650D1*
X4352410Y4271063D1*
X4338200Y4289627D1*
X4322863Y4307270D1*
X4306460Y4323927D1*
X4289053Y4339530D1*
X4270707Y4354023D1*
X4251500Y4367347D1*
X4231497Y4379450D1*
X4210783Y4390287D1*
X4189437Y4399813D1*
X4167537Y4407997D1*
X4145170Y4414803D1*
X4122427Y4420203D1*
X4099390Y4424180D1*
X4076150Y4426717D1*
X4052797Y4427807D1*
X4029423Y4427440D1*
X4006117Y4425620D1*
X3982967Y4422357D1*
X3960067Y4417657D1*
X3937500Y4411547D1*
X3915360Y4404043D1*
X3893727Y4395177D1*
X3872690Y4384987D1*
X3852323Y4373503D1*
X3832713Y4360780D1*
X3813930Y4346860D1*
X3796050Y4331800D1*
X3779140Y4315657D1*
X3763267Y4298493D1*
X3748493Y4280377D1*
X3734873Y4261377D1*
X3722460Y4241567D1*
X3711300Y4221023D1*
X3701443Y4199827D1*
X3692920Y4178060D1*
X3685767Y4155803D1*
X3680013Y4133143D1*
X3675680Y4110170D1*
X3672780Y4086973D1*
X3671330Y4063640D1*
X3671333Y4040263D1*
X3672790Y4016930D1*
X3675693Y3993733D1*
X3680033Y3970763D1*
X3685793Y3948107D1*
X3692953Y3925850D1*
X3701480Y3904083D1*
X3711343Y3882890D1*
X3722507Y3862350D1*
X3734927Y3842543D1*
X3748550Y3823547D1*
X3763330Y3805433D1*
X3766500Y3801850D1*
X3589843Y3801857D1*
X3598593Y3808667D1*
X3613920Y3826617D1*
X3625317Y3847283D1*
X3632323Y3869823D1*
X3634650Y3893310D1*
X3632200Y3916783D1*
X3625073Y3939287D1*
X3613563Y3959893D1*
X3598850Y3977090D1*
X3598837Y4529497D1*
X4096170Y5026853D1*
X4103583Y5017010D1*
X4120497Y5000940D1*
X4139820Y4987873D1*
X4147590Y4983837D1*
X4131743Y4975257D1*
X4113333Y4960923D1*
X4097537Y4943760D1*
X4084780Y4924227D1*
X4075413Y4902860D1*
X4069690Y4880247D1*
X4067767Y4856997D1*
X4069697Y4833747D1*
X4075427Y4811133D1*
X4084800Y4789770D1*
X4097563Y4770243D1*
X4113367Y4753083D1*
X4131780Y4738757D1*
X4152297Y4727657D1*
X4174363Y4720087D1*
X4197373Y4716250D1*
X4220703Y4716253D1*
X4243713Y4720097D1*
X4265777Y4727673D1*
X4286290Y4738780D1*
X4304700Y4753113D1*
X4320497Y4770277D1*
X4333253Y4789810D1*
X4342620Y4811177D1*
X4348343Y4833790D1*
X4350267Y4857020D1*
X4349950Y4866453D1*
X4346477Y4889523D1*
X4339250Y4911703D1*
X4328473Y4932393D1*
X4314437Y4951030D1*
X4297527Y4967097D1*
X4278200Y4980167D1*
X4270310Y4983777D1*
X4270433Y4984200D1*
X4286280Y4992780D1*
X4304687Y5007113D1*
X4320487Y5024277D1*
X4333243Y5043810D1*
X4342610Y5065177D1*
X4348333Y5087790D1*
X4349903Y5106777D1*
X4417150Y5039520D1*
Y4783070D1*
X4418893Y4766310D1*
X14091267Y11320150D2*
X14409633D1*
Y10978450D1*
X14067933D1*
Y11320150D1*
X14091267D1*
X3328850Y2513050D2*
X3328840Y2588517D1*
X3344320Y2600593D1*
X3360193Y2617873D1*
X3373003Y2637527D1*
X3382403Y2659023D1*
X3388137Y2681770D1*
X3390050Y2705153D1*
X3388087Y2728533D1*
X3382303Y2751270D1*
X3372857Y2772743D1*
X3360003Y2792370D1*
X3344093Y2809613D1*
X3325563Y2824003D1*
X3304920Y2835147D1*
X3282723Y2842740D1*
X3259577Y2846577D1*
X3236117Y2846553D1*
X3212980Y2842667D1*
X3190797Y2835023D1*
X3170177Y2823837D1*
X3151680Y2809407D1*
X3135807Y2792127D1*
X3122997Y2772473D1*
X3113597Y2750977D1*
X3107863Y2728230D1*
X3105950Y2704847D1*
X3107913Y2681467D1*
X3113697Y2658730D1*
X3123143Y2637257D1*
X3135997Y2617630D1*
X3151907Y2600387D1*
X3167150Y2588200D1*
Y2546490D1*
X2680553Y2059920D1*
X2671423Y2063887D1*
X2648970Y2070177D1*
X2625870Y2073350D1*
X2602550D1*
X2579450Y2070173D1*
X2556997Y2063883D1*
X2535610Y2054593D1*
X2515683Y2042477D1*
X2497597Y2027760D1*
X2481680Y2010717D1*
X2468233Y1991667D1*
X2457507Y1970963D1*
X2449697Y1948990D1*
X2444953Y1926160D1*
X2443363Y1902897D1*
X2444957Y1879630D1*
X2449700Y1856800D1*
X2457510Y1834830D1*
X2468237Y1814127D1*
X2481687Y1795073D1*
X2497600Y1778033D1*
X2515690Y1763317D1*
X2535613Y1751203D1*
X2557003Y1741913D1*
X2579457Y1735623D1*
X2602557Y1732447D1*
X2625877D1*
X2648977Y1735623D1*
X2671430Y1741913D1*
X2692820Y1751207D1*
X2712743Y1763320D1*
X2730830Y1778037D1*
X2746747Y1795080D1*
X2760193Y1814130D1*
X2770920Y1834837D1*
X2778730Y1856807D1*
X2783473Y1879637D1*
X2785063Y1902903D1*
X2783473Y1926167D1*
X2782103Y1932743D1*
X2926133Y2076793D1*
X3305170Y2455830D1*
X3315293Y2468183D1*
X3325263Y2489190D1*
X3328843Y2512187D1*
X2021473Y1879620D2*
X2016730Y1856787D1*
X2008920Y1834817D1*
X1998193Y1814110D1*
X1984747Y1795060D1*
X1968830Y1778017D1*
X1950743Y1763303D1*
X1930820Y1751187D1*
X1909430Y1741897D1*
X1886977Y1735603D1*
X1863877Y1732427D1*
X1840557D1*
X1817457Y1735603D1*
X1795003Y1741893D1*
X1773613Y1751183D1*
X1753690Y1763297D1*
X1735600Y1778013D1*
X1719687Y1795057D1*
X1706237Y1814107D1*
X1695510Y1834810D1*
X1687700Y1856780D1*
X1682957Y1879613D1*
X1681363Y1902877D1*
X1682953Y1926140D1*
X1687697Y1948970D1*
X1695507Y1970943D1*
X1706233Y1991647D1*
X1719680Y2010697D1*
X1735597Y2027740D1*
X1753683Y2042457D1*
X1773610Y2054573D1*
X1794997Y2063863D1*
X1817450Y2070157D1*
X1840550Y2073330D1*
X1863870D1*
X1886970Y2070157D1*
X1909423Y2063867D1*
X1930813Y2054577D1*
X1950737Y2042460D1*
X1968827Y2027743D1*
X1984743Y2010703D1*
X1998190Y1991653D1*
X2008917Y1970950D1*
X2016727Y1948977D1*
X2021473Y1926147D1*
X2023063Y1902880D1*
X2021473Y1879620D1*
X13893283Y1827550D2*
X14211650D1*
Y1485850D1*
X13869950D1*
Y1827550D1*
X13893283D1*
X2060460Y11121040D2*
X2055717Y11098210D1*
X2047907Y11076237D1*
X2037180Y11055533D1*
X2023733Y11036480D1*
X2007817Y11019440D1*
X1989730Y11004723D1*
X1969803Y10992607D1*
X1948417Y10983317D1*
X1925963Y10977023D1*
X1902863Y10973850D1*
X1879543Y10973847D1*
X1856443Y10977023D1*
X1833990Y10983313D1*
X1812600Y10992603D1*
X1792677Y11004720D1*
X1774587Y11019433D1*
X1758673Y11036477D1*
X1745223Y11055527D1*
X1734497Y11076230D1*
X1726687Y11098203D1*
X1721943Y11121033D1*
X1720350Y11144297D1*
X1721940Y11167560D1*
X1726683Y11190390D1*
X1734493Y11212363D1*
X1745220Y11233067D1*
X1758667Y11252120D1*
X1774583Y11269160D1*
X1792670Y11283877D1*
X1812597Y11295993D1*
X1833983Y11305283D1*
X1856437Y11311577D1*
X1879537Y11314750D1*
X1902857Y11314753D1*
X1925957Y11311577D1*
X1948410Y11305287D1*
X1969800Y11295997D1*
X1989723Y11283880D1*
X2007813Y11269167D1*
X2023727Y11252123D1*
X2037177Y11233073D1*
X2047903Y11212370D1*
X2055713Y11190397D1*
X2060457Y11167567D1*
X2062050Y11144300D1*
X2060460Y11121040D1*
X4423107Y10959683D2*
X4420893Y10936573D1*
X4417217Y10913650D1*
X4412097Y10891007D1*
X4405547Y10868733D1*
X4397600Y10846920D1*
X4388287Y10825657D1*
X4377643Y10805027D1*
X4365710Y10785110D1*
X4352540Y10765993D1*
X4338183Y10747750D1*
X4322700Y10730453D1*
X4306150Y10714173D1*
X4288600Y10698973D1*
X4270120Y10684920D1*
X4250790Y10672067D1*
X4230680Y10660467D1*
X4209877Y10650163D1*
X4188460Y10641200D1*
X4166520Y10633617D1*
X4144140Y10627437D1*
X4121417Y10622687D1*
X4098437Y10619390D1*
X4075293Y10617560D1*
X4052080Y10617197D1*
X4028893Y10618310D1*
X4005820Y10620890D1*
X3982960Y10624930D1*
X3960400Y10630410D1*
X3938233Y10637310D1*
X3916550Y10645600D1*
X3895437Y10655250D1*
X3874977Y10666223D1*
X3855253Y10678467D1*
X3836347Y10691940D1*
X3818333Y10706583D1*
X3801283Y10722340D1*
X3785270Y10739147D1*
X3770353Y10756937D1*
X3756593Y10775637D1*
X3744047Y10795170D1*
X3732767Y10815460D1*
X3722797Y10836423D1*
X3714173Y10857980D1*
X3706937Y10880037D1*
X3701113Y10902510D1*
X3696727Y10925307D1*
X3693797Y10948337D1*
X3692330Y10971507D1*
X3692337Y10994723D1*
X3693817Y11017890D1*
X3696763Y11040917D1*
X3701163Y11063713D1*
X3707000Y11086180D1*
X3714253Y11108237D1*
X3722887Y11129783D1*
X3732873Y11150743D1*
X3744167Y11171027D1*
X3756723Y11190553D1*
X3770493Y11209243D1*
X3785420Y11227023D1*
X3801447Y11243820D1*
X3818507Y11259567D1*
X3836530Y11274200D1*
X3855443Y11287660D1*
X3875173Y11299893D1*
X3895640Y11310850D1*
X3916760Y11320487D1*
X3938450Y11328767D1*
X3960620Y11335653D1*
X3983183Y11341117D1*
X4006047Y11345143D1*
X4029120Y11347710D1*
X4052310Y11348807D1*
X4075523Y11348430D1*
X4098663Y11346583D1*
X4121640Y11343273D1*
X4144363Y11338510D1*
X4166737Y11332317D1*
X4188673Y11324717D1*
X4210083Y11315740D1*
X4230880Y11305427D1*
X4250983Y11293813D1*
X4270307Y11280947D1*
X4288777Y11266880D1*
X4306317Y11251673D1*
X4322857Y11235383D1*
X4338330Y11218077D1*
X4352677Y11199823D1*
X4365833Y11180697D1*
X4377753Y11160777D1*
X4388383Y11140137D1*
X4397687Y11118867D1*
X4405620Y11097050D1*
X4412153Y11074773D1*
X4417260Y11052127D1*
X4420920Y11029200D1*
X4423120Y11006090D1*
X4423850Y10983000D1*
X4423107Y10959683D1*
X12693107D2*
X12690893Y10936573D1*
X12687217Y10913650D1*
X12682097Y10891007D1*
X12675547Y10868733D1*
X12667600Y10846920D1*
X12658287Y10825657D1*
X12647643Y10805027D1*
X12635710Y10785110D1*
X12622540Y10765993D1*
X12608183Y10747750D1*
X12592700Y10730453D1*
X12576150Y10714173D1*
X12558600Y10698973D1*
X12540120Y10684920D1*
X12520790Y10672067D1*
X12500680Y10660467D1*
X12479877Y10650163D1*
X12458460Y10641200D1*
X12436520Y10633617D1*
X12414140Y10627437D1*
X12391417Y10622687D1*
X12368437Y10619390D1*
X12345293Y10617560D1*
X12322080Y10617197D1*
X12298893Y10618310D1*
X12275820Y10620890D1*
X12252960Y10624930D1*
X12230400Y10630410D1*
X12208233Y10637310D1*
X12186550Y10645600D1*
X12165437Y10655250D1*
X12144977Y10666223D1*
X12125253Y10678467D1*
X12106347Y10691940D1*
X12088333Y10706583D1*
X12071283Y10722340D1*
X12055270Y10739147D1*
X12040353Y10756937D1*
X12026593Y10775637D1*
X12014047Y10795170D1*
X12002767Y10815460D1*
X11992797Y10836423D1*
X11984173Y10857980D1*
X11976937Y10880037D1*
X11971113Y10902510D1*
X11966727Y10925307D1*
X11963797Y10948337D1*
X11962330Y10971507D1*
X11962337Y10994723D1*
X11963817Y11017890D1*
X11966763Y11040917D1*
X11971163Y11063713D1*
X11977000Y11086180D1*
X11984253Y11108237D1*
X11992887Y11129783D1*
X12002873Y11150743D1*
X12014167Y11171027D1*
X12026723Y11190553D1*
X12040493Y11209243D1*
X12055420Y11227023D1*
X12071447Y11243820D1*
X12088507Y11259567D1*
X12106530Y11274200D1*
X12125443Y11287660D1*
X12145173Y11299893D1*
X12165640Y11310850D1*
X12186760Y11320487D1*
X12208450Y11328767D1*
X12230620Y11335653D1*
X12253183Y11341117D1*
X12276047Y11345143D1*
X12299120Y11347710D1*
X12322310Y11348807D1*
X12345523Y11348430D1*
X12368663Y11346583D1*
X12391640Y11343273D1*
X12414363Y11338510D1*
X12436737Y11332317D1*
X12458673Y11324717D1*
X12480083Y11315740D1*
X12500880Y11305427D1*
X12520983Y11293813D1*
X12540307Y11280947D1*
X12558777Y11266880D1*
X12576317Y11251673D1*
X12592857Y11235383D1*
X12608330Y11218077D1*
X12622677Y11199823D1*
X12635833Y11180697D1*
X12647753Y11160777D1*
X12658383Y11140137D1*
X12667687Y11118867D1*
X12675620Y11097050D1*
X12682153Y11074773D1*
X12687260Y11052127D1*
X12690920Y11029200D1*
X12693120Y11006090D1*
X12693850Y10983000D1*
X12693107Y10959683D1*
Y1959683D2*
X12690893Y1936573D1*
X12687217Y1913650D1*
X12682097Y1891007D1*
X12675547Y1868733D1*
X12667600Y1846920D1*
X12658287Y1825657D1*
X12647643Y1805027D1*
X12635710Y1785110D1*
X12622540Y1765993D1*
X12608183Y1747750D1*
X12592700Y1730453D1*
X12576150Y1714173D1*
X12558600Y1698973D1*
X12540120Y1684920D1*
X12520790Y1672067D1*
X12500680Y1660467D1*
X12479877Y1650163D1*
X12458460Y1641200D1*
X12436520Y1633617D1*
X12414140Y1627437D1*
X12391417Y1622687D1*
X12368437Y1619390D1*
X12345293Y1617560D1*
X12322080Y1617197D1*
X12298893Y1618310D1*
X12275820Y1620890D1*
X12252960Y1624930D1*
X12230400Y1630410D1*
X12208233Y1637310D1*
X12186550Y1645600D1*
X12165437Y1655250D1*
X12144977Y1666223D1*
X12125253Y1678467D1*
X12106347Y1691940D1*
X12088333Y1706583D1*
X12071283Y1722340D1*
X12055270Y1739147D1*
X12040353Y1756937D1*
X12026593Y1775637D1*
X12014047Y1795170D1*
X12002767Y1815460D1*
X11992797Y1836423D1*
X11984173Y1857980D1*
X11976937Y1880037D1*
X11971113Y1902510D1*
X11966727Y1925307D1*
X11963797Y1948337D1*
X11962330Y1971507D1*
X11962337Y1994723D1*
X11963817Y2017890D1*
X11966763Y2040917D1*
X11971163Y2063713D1*
X11977000Y2086180D1*
X11984253Y2108237D1*
X11992887Y2129783D1*
X12002873Y2150743D1*
X12014167Y2171027D1*
X12026723Y2190553D1*
X12040493Y2209243D1*
X12055420Y2227023D1*
X12071447Y2243820D1*
X12088507Y2259567D1*
X12106530Y2274200D1*
X12125443Y2287660D1*
X12145173Y2299893D1*
X12165640Y2310850D1*
X12186760Y2320487D1*
X12208450Y2328767D1*
X12230620Y2335653D1*
X12253183Y2341117D1*
X12276047Y2345143D1*
X12299120Y2347710D1*
X12322310Y2348807D1*
X12345523Y2348430D1*
X12368663Y2346583D1*
X12391640Y2343273D1*
X12414363Y2338510D1*
X12436737Y2332317D1*
X12458673Y2324717D1*
X12480083Y2315740D1*
X12500880Y2305427D1*
X12520983Y2293813D1*
X12540307Y2280947D1*
X12558777Y2266880D1*
X12576317Y2251673D1*
X12592857Y2235383D1*
X12608330Y2218077D1*
X12622677Y2199823D1*
X12635833Y2180697D1*
X12647753Y2160777D1*
X12658383Y2140137D1*
X12667687Y2118867D1*
X12675620Y2097050D1*
X12682153Y2074773D1*
X12687260Y2052127D1*
X12690920Y2029200D1*
X12693120Y2006090D1*
X12693850Y1983000D1*
X12693107Y1959683D1*
X10245123Y6312233D2*
X9057633Y7499707D1*
X9058153Y7501770D1*
X9060067Y7525153D1*
X9058103Y7548533D1*
X9052320Y7571270D1*
X9042873Y7592743D1*
X9030020Y7612370D1*
X9014110Y7629613D1*
X8998857Y7641460D1*
X8998867Y7903000D1*
X8996240Y7923440D1*
X8987187Y7944860D1*
X8972413Y7962813D1*
X8953140Y7975823D1*
X8930940Y7982807D1*
X8917960Y7983850D1*
X8566340Y7983837D1*
X8559357Y7993093D1*
X8542437Y8009153D1*
X8523103Y8022207D1*
X8515290Y8025777D1*
X8515410Y8026200D1*
X8531257Y8034780D1*
X8549667Y8049113D1*
X8565463Y8066277D1*
X8569313Y8072173D1*
X8917917Y8072170D1*
X8928287Y8072830D1*
X8950683Y8079080D1*
X8970377Y8091443D1*
X8985737Y8108903D1*
X8995490Y8130010D1*
X8998833Y8153020D1*
X8998823Y8424517D1*
X9014303Y8436593D1*
X9030177Y8453873D1*
X9042213Y8472150D1*
X9124600Y8472143D1*
X9136843Y8460567D1*
X9156907Y8448137D1*
X9179060Y8439997D1*
X9202400Y8436483D1*
X9225970Y8437743D1*
X9248803Y8443720D1*
X9269967Y8454170D1*
X9288593Y8468667D1*
X9303920Y8486617D1*
X9315317Y8507283D1*
X9322323Y8529823D1*
X9324650Y8553310D1*
X9322200Y8576783D1*
X9315073Y8599287D1*
X9303563Y8619893D1*
X9288143Y8637760D1*
X9269440Y8652157D1*
X9248223Y8662497D1*
X9225357Y8668350D1*
X9201783Y8669483D1*
X9178463Y8665847D1*
X9156350Y8657593D1*
X9136353Y8645053D1*
X9123920Y8633850D1*
X9024937Y8633843D1*
X9014077Y8645613D1*
X8995547Y8660003D1*
X8974903Y8671147D1*
X8952703Y8678740D1*
X8929560Y8682577D1*
X8906100Y8682553D1*
X8882963Y8678667D1*
X8860780Y8671023D1*
X8840160Y8659837D1*
X8821663Y8645407D1*
X8805790Y8628127D1*
X8792980Y8608473D1*
X8783580Y8586977D1*
X8777847Y8564230D1*
X8775933Y8540847D1*
X8777897Y8517467D1*
X8783680Y8494730D1*
X8793127Y8473257D1*
X8805980Y8453630D1*
X8821890Y8436387D1*
X8837133Y8424200D1*
X8837140Y8233870D1*
X8569313Y8233873D1*
X8559403Y8247030D1*
X8542493Y8263097D1*
X8523167Y8276167D1*
X8501953Y8285873D1*
X8479433Y8291957D1*
X8456217Y8294250D1*
X8432940Y8292693D1*
X8410240Y8287323D1*
X8388730Y8278293D1*
X8369000Y8265843D1*
X8351590Y8250317D1*
X8336970Y8232137D1*
X8325543Y8211797D1*
X8317620Y8189857D1*
X8313417Y8166907D1*
X8313050Y8143583D1*
X8316523Y8120513D1*
X8323750Y8098333D1*
X8334527Y8077643D1*
X8348563Y8059010D1*
X8365473Y8042940D1*
X8384800Y8029873D1*
X8392460Y8025853D1*
X8388740Y8024293D1*
X8369010Y8011843D1*
X8351600Y7996317D1*
X8336980Y7978137D1*
X8325557Y7957797D1*
X8317633Y7935857D1*
X8313430Y7912907D1*
X8313060Y7889583D1*
X8316537Y7866513D1*
X8323760Y7844333D1*
X8334537Y7823643D1*
X8348573Y7805010D1*
X8365483Y7788940D1*
X8384810Y7775873D1*
X8392470Y7771853D1*
X8388753Y7770293D1*
X8369023Y7757843D1*
X8351610Y7742317D1*
X8336993Y7724137D1*
X8325567Y7703797D1*
X8317643Y7681857D1*
X8313440Y7658907D1*
X8313070Y7635583D1*
X8316547Y7612513D1*
X8323770Y7590333D1*
X8334550Y7569643D1*
X8348583Y7551010D1*
X8365497Y7534940D1*
X8384820Y7521873D1*
X8392590Y7517837D1*
X8376743Y7509257D1*
X8369877Y7504463D1*
X7833233Y8041100D1*
Y8294233D1*
X7665067Y8294240D1*
X6954323Y9004977D1*
X6955987Y9011767D1*
X6957850Y9035163D1*
X6955933Y9058557D1*
X6954740Y9063387D1*
X7263483Y9372150D1*
X13304430D1*
X13321210Y9373897D1*
X13343033Y9381923D1*
X13361670Y9395830D1*
X14182310Y10216450D1*
X14409650D1*
Y10558150D1*
X14067950D1*
Y10330790D1*
X13271017Y9533850D1*
X7230000D1*
X7209560Y9531223D1*
X7188123Y9522157D1*
X7172790Y9510130D1*
X6840267Y9177603D1*
X6829417Y9179807D1*
X6805963Y9180727D1*
X6782667Y9177870D1*
X6760127Y9171313D1*
X6738933Y9161227D1*
X6719630Y9147873D1*
X6702720Y9131593D1*
X6690747Y9115620D1*
X6498740Y9115217D1*
X5942710Y9114110D1*
X5938500Y9120750D1*
X5922917Y9138300D1*
X5904717Y9153127D1*
X5884377Y9164840D1*
X5862420Y9173137D1*
X5839417Y9177807D1*
X5815963Y9178727D1*
X5793347Y9175993D1*
X5617850Y9351500D1*
Y9505930D1*
X5617190Y9516303D1*
X5610943Y9538700D1*
X5598577Y9558393D1*
X5581117Y9573753D1*
X5560010Y9583507D1*
X5537000Y9586850D1*
X4843477Y9586863D1*
X4204217Y10226120D1*
X4191117Y10236753D1*
X4170010Y10246507D1*
X4147000Y10249850D1*
X2164497Y10249843D1*
X2059573Y10354780D1*
X2060460Y10359040D1*
X2062050Y10382303D1*
X2060457Y10405567D1*
X2055713Y10428397D1*
X2047903Y10450370D1*
X2037177Y10471073D1*
X2023727Y10490123D1*
X2007813Y10507167D1*
X1989723Y10521880D1*
X1969800Y10533997D1*
X1948410Y10543287D1*
X1925957Y10549577D1*
X1902857Y10552753D1*
X1879537Y10552750D1*
X1856437Y10549577D1*
X1833983Y10543283D1*
X1812597Y10533993D1*
X1792670Y10521877D1*
X1774583Y10507160D1*
X1758667Y10490120D1*
X1745220Y10471067D1*
X1734493Y10450363D1*
X1726683Y10428390D1*
X1721940Y10405560D1*
X1720350Y10382297D1*
X1721943Y10359033D1*
X1726687Y10336203D1*
X1734497Y10314230D1*
X1745223Y10293527D1*
X1758673Y10274477D1*
X1774587Y10257433D1*
X1792677Y10242720D1*
X1812600Y10230603D1*
X1833990Y10221313D1*
X1856443Y10215023D1*
X1879543Y10211847D1*
X1902863Y10211850D1*
X1925963Y10215023D1*
X1948417Y10221317D1*
X1959507Y10226133D1*
X2050150Y10135517D1*
Y7075000D1*
X2052777Y7054560D1*
X2061843Y7033123D1*
X2073860Y7017800D1*
X2245830Y6845830D1*
X2262140Y6833233D1*
X2283710Y6824487D1*
X2303043Y6822150D1*
X2848000D1*
X2868440Y6824777D1*
X2889877Y6833843D1*
X2905207Y6845867D1*
X3150870Y7091547D1*
X3154940Y7086143D1*
X3167137Y7074457D1*
X3167150Y6905800D1*
X3167163Y6123850D1*
X2785050Y6123863D1*
Y6214850D1*
X2443350D1*
Y5873150D1*
X2785050D1*
X2785060Y5962150D1*
X3348967Y5962143D1*
X3365897Y5945920D1*
X3366133Y5945710D1*
X3366140Y5760233D1*
X3305733D1*
X3305717Y5573850D1*
X2988070D1*
X2971290Y5572103D1*
X2949467Y5564077D1*
X2930830Y5550170D1*
X2744517Y5363850D1*
X2348070D1*
X2337697Y5363190D1*
X2315300Y5356940D1*
X2295607Y5344577D1*
X2280247Y5327117D1*
X2270493Y5306010D1*
X2267150Y5283000D1*
Y3753067D1*
X2268897Y3736290D1*
X2276923Y3714467D1*
X2290830Y3695830D1*
X2447430Y3539233D1*
X2444940Y3527260D1*
X2443350Y3503997D1*
X2444943Y3480733D1*
X2449687Y3457903D1*
X2457497Y3435930D1*
X2468223Y3415227D1*
X2481673Y3396177D1*
X2497587Y3379133D1*
X2515677Y3364420D1*
X2535600Y3352303D1*
X2556990Y3343013D1*
X2579443Y3336723D1*
X2602543Y3333547D1*
X2625863Y3333550D1*
X2648963Y3336723D1*
X2671417Y3343017D1*
X2692803Y3352307D1*
X2712730Y3364423D1*
X2730817Y3379140D1*
X2746733Y3396180D1*
X2760180Y3415233D1*
X2770907Y3435937D1*
X2778717Y3457910D1*
X2783460Y3480740D1*
X2785050Y3504003D1*
X2783757Y3522883D1*
X2922787Y3383873D1*
X2935883Y3373247D1*
X2956990Y3363493D1*
X2980000Y3360150D1*
X3721717Y3360167D1*
X3725997Y3353630D1*
X3741907Y3336387D1*
X3760437Y3321997D1*
X3781080Y3310853D1*
X3803277Y3303260D1*
X3826423Y3299423D1*
X3849883Y3299447D1*
X3873020Y3303333D1*
X3895203Y3310977D1*
X3915823Y3322163D1*
X3934320Y3336593D1*
X3950193Y3353873D1*
X3963003Y3373527D1*
X3972403Y3395023D1*
X3976620Y3410040D1*
X4097150Y3289530D1*
X4097153Y2798493D1*
X3863027Y2564347D1*
X3849577Y2566577D1*
X3826117Y2566553D1*
X3802980Y2562667D1*
X3780797Y2555023D1*
X3760177Y2543837D1*
X3741680Y2529407D1*
X3725807Y2512127D1*
X3712997Y2492473D1*
X3703597Y2470977D1*
X3697863Y2448230D1*
X3695950Y2424847D1*
X3697913Y2401467D1*
X3703697Y2378730D1*
X3713143Y2357257D1*
X3725997Y2337630D1*
X3741907Y2320387D1*
X3760437Y2305997D1*
X3781080Y2294853D1*
X3803277Y2287260D1*
X3826423Y2283423D1*
X3849477Y2283413D1*
X3836530Y2274200D1*
X3818507Y2259567D1*
X3801447Y2243820D1*
X3785420Y2227023D1*
X3770493Y2209243D1*
X3756723Y2190553D1*
X3744167Y2171027D1*
X3732873Y2150743D1*
X3722887Y2129783D1*
X3714253Y2108237D1*
X3707000Y2086180D1*
X3701163Y2063713D1*
X3696763Y2040917D1*
X3693817Y2017890D1*
X3692337Y1994723D1*
X3692330Y1971507D1*
X3693797Y1948337D1*
X3696727Y1925307D1*
X3701113Y1902510D1*
X3706937Y1880037D1*
X3714173Y1857980D1*
X3722797Y1836423D1*
X3732767Y1815460D1*
X3744047Y1795170D1*
X3756593Y1775637D1*
X3770353Y1756937D1*
X3785270Y1739147D1*
X3801283Y1722340D1*
X3818333Y1706583D1*
X3836347Y1691940D1*
X3855253Y1678467D1*
X3874977Y1666223D1*
X3895437Y1655250D1*
X3916550Y1645600D1*
X3938233Y1637310D1*
X3960400Y1630410D1*
X3982960Y1624930D1*
X4005820Y1620890D1*
X4028893Y1618310D1*
X4052080Y1617197D1*
X4075293Y1617560D1*
X4098437Y1619390D1*
X4121417Y1622687D1*
X4144140Y1627437D1*
X4166520Y1633617D1*
X4188460Y1641200D1*
X4209877Y1650163D1*
X4230680Y1660467D1*
X4250790Y1672067D1*
X4270120Y1684920D1*
X4288600Y1698973D1*
X4306150Y1714173D1*
X4322700Y1730453D1*
X4338183Y1747750D1*
X4352540Y1765993D1*
X4365710Y1785110D1*
X4377643Y1805027D1*
X4388287Y1825657D1*
X4397600Y1846920D1*
X4405547Y1868733D1*
X4412097Y1891007D1*
X4417217Y1913650D1*
X4420893Y1936573D1*
X4423107Y1959683D1*
X4423850Y1983000D1*
X4423120Y2006090D1*
X4420920Y2029200D1*
X4417260Y2052127D1*
X4412153Y2074773D1*
X4405620Y2097050D1*
X4397687Y2118867D1*
X4388383Y2140137D1*
X4377753Y2160777D1*
X4365833Y2180697D1*
X4352677Y2199823D1*
X4338330Y2218077D1*
X4322857Y2235383D1*
X4306317Y2251673D1*
X4288777Y2266880D1*
X4270307Y2280947D1*
X4250983Y2293813D1*
X4230880Y2305427D1*
X4210083Y2315740D1*
X4188673Y2324717D1*
X4166737Y2332317D1*
X4144363Y2338510D1*
X4121640Y2343273D1*
X4098663Y2346583D1*
X4075523Y2348430D1*
X4052310Y2348807D1*
X4029120Y2347710D1*
X4006047Y2345143D1*
X3983183Y2341117D1*
X3960620Y2335653D1*
X3944057Y2330507D1*
X3943357Y2330433D1*
X3950193Y2337873D1*
X3963003Y2357527D1*
X3972403Y2379023D1*
X3978137Y2401770D1*
X3980050Y2425153D1*
X3978087Y2448533D1*
X3977640Y2450287D1*
X4235170Y2707830D1*
X4247767Y2724140D1*
X4256510Y2745710D1*
X4258850Y2765063D1*
Y3322750D1*
X4257103Y3339713D1*
X4249077Y3361533D1*
X4235170Y3380170D1*
X3915450Y3699923D1*
X3937593Y3692427D1*
X3960160Y3686320D1*
X3983060Y3681630D1*
X4006210Y3678370D1*
X4029520Y3676557D1*
X4052893Y3676197D1*
X4076247Y3677290D1*
X4099483Y3679833D1*
X4122520Y3683817D1*
X4145263Y3689223D1*
X4167627Y3696033D1*
X4189523Y3704220D1*
X4210870Y3713757D1*
X4231583Y3724597D1*
X4251580Y3736707D1*
X4270787Y3750033D1*
X4289127Y3764530D1*
X4306530Y3780140D1*
X4322930Y3796800D1*
X4338260Y3814450D1*
X4352467Y3833017D1*
X4365490Y3852430D1*
X4377280Y3872617D1*
X4387793Y3893497D1*
X4393500Y3906377D1*
X4393913Y3901467D1*
X4399697Y3878730D1*
X4409143Y3857257D1*
X4421997Y3837630D1*
X4437907Y3820387D1*
X4456437Y3805997D1*
X4477080Y3794853D1*
X4499277Y3787260D1*
X4522423Y3783423D1*
X4545883Y3783447D1*
X4569020Y3787333D1*
X4591203Y3794977D1*
X4611823Y3806163D1*
X4630320Y3820593D1*
X4646193Y3837873D1*
X4659003Y3857527D1*
X4661180Y3861723D1*
X4663143Y3857257D1*
X4675997Y3837630D1*
X4691907Y3820387D1*
X4710437Y3805997D1*
X4731080Y3794853D1*
X4753277Y3787260D1*
X4776423Y3783423D1*
X4799883Y3783447D1*
X4823020Y3787333D1*
X4845203Y3794977D1*
X4865823Y3806163D1*
X4884320Y3820593D1*
X4900193Y3837873D1*
X4913003Y3857527D1*
X4922403Y3879023D1*
X4928137Y3901770D1*
X4930050Y3925000D1*
X4929913Y3931207D1*
X4926957Y3954480D1*
X4922347Y3971150D1*
X5161680Y3971167D1*
X5155863Y3948230D1*
X5153950Y3924847D1*
X5155913Y3901467D1*
X5161697Y3878730D1*
X5171143Y3857257D1*
X5183997Y3837630D1*
X5199907Y3820387D1*
X5218437Y3805997D1*
X5239080Y3794853D1*
X5261277Y3787260D1*
X5284423Y3783423D1*
X5307883Y3783447D1*
X5331020Y3787333D1*
X5353203Y3794977D1*
X5373823Y3806163D1*
X5392320Y3820593D1*
X5408193Y3837873D1*
X5421003Y3857527D1*
X5423180Y3861723D1*
X5425143Y3857257D1*
X5437997Y3837630D1*
X5453907Y3820387D1*
X5472437Y3805997D1*
X5493080Y3794853D1*
X5515277Y3787260D1*
X5538423Y3783423D1*
X5561883Y3783447D1*
X5585020Y3787333D1*
X5607203Y3794977D1*
X5627823Y3806163D1*
X5646320Y3820593D1*
X5662193Y3837873D1*
X5675003Y3857527D1*
X5677180Y3861723D1*
X5679143Y3857257D1*
X5691997Y3837630D1*
X5707907Y3820387D1*
X5726437Y3805997D1*
X5747080Y3794853D1*
X5769277Y3787260D1*
X5792423Y3783423D1*
X5815883Y3783447D1*
X5839020Y3787333D1*
X5861203Y3794977D1*
X5881823Y3806163D1*
X5900320Y3820593D1*
X5916193Y3837873D1*
X5929003Y3857527D1*
X5931180Y3861723D1*
X5933143Y3857257D1*
X5945997Y3837630D1*
X5961907Y3820387D1*
X5980437Y3805997D1*
X6001080Y3794853D1*
X6023277Y3787260D1*
X6046423Y3783423D1*
X6069883Y3783447D1*
X6093020Y3787333D1*
X6115203Y3794977D1*
X6135823Y3806163D1*
X6154320Y3820593D1*
X6170193Y3837873D1*
X6183003Y3857527D1*
X6185180Y3861723D1*
X6187143Y3857257D1*
X6199997Y3837630D1*
X6215907Y3820387D1*
X6234437Y3805997D1*
X6255080Y3794853D1*
X6277277Y3787260D1*
X6300423Y3783423D1*
X6323883Y3783447D1*
X6347020Y3787333D1*
X6369203Y3794977D1*
X6389823Y3806163D1*
X6408320Y3820593D1*
X6424193Y3837873D1*
X6437003Y3857527D1*
X6439180Y3861723D1*
X6441143Y3857257D1*
X6453997Y3837630D1*
X6469907Y3820387D1*
X6488437Y3805997D1*
X6509080Y3794853D1*
X6531277Y3787260D1*
X6554423Y3783423D1*
X6577883Y3783447D1*
X6601020Y3787333D1*
X6623203Y3794977D1*
X6643823Y3806163D1*
X6662320Y3820593D1*
X6678193Y3837873D1*
X6691003Y3857527D1*
X6693180Y3861723D1*
X6695143Y3857257D1*
X6707997Y3837630D1*
X6723907Y3820387D1*
X6742437Y3805997D1*
X6763080Y3794853D1*
X6785277Y3787260D1*
X6808423Y3783423D1*
X6831883Y3783447D1*
X6855020Y3787333D1*
X6877203Y3794977D1*
X6897823Y3806163D1*
X6916320Y3820593D1*
X6932193Y3837873D1*
X6945003Y3857527D1*
X6947180Y3861723D1*
X6949143Y3857257D1*
X6961997Y3837630D1*
X6977907Y3820387D1*
X6996437Y3805997D1*
X7017080Y3794853D1*
X7039277Y3787260D1*
X7062423Y3783423D1*
X7085883Y3783447D1*
X7109020Y3787333D1*
X7131203Y3794977D1*
X7151823Y3806163D1*
X7170320Y3820593D1*
X7186193Y3837873D1*
X7199003Y3857527D1*
X7201180Y3861723D1*
X7203143Y3857257D1*
X7215997Y3837630D1*
X7231907Y3820387D1*
X7250437Y3805997D1*
X7271080Y3794853D1*
X7293277Y3787260D1*
X7316423Y3783423D1*
X7339883Y3783447D1*
X7363020Y3787333D1*
X7385203Y3794977D1*
X7405823Y3806163D1*
X7424320Y3820593D1*
X7440193Y3837873D1*
X7453003Y3857527D1*
X7455180Y3861723D1*
X7457143Y3857257D1*
X7469997Y3837630D1*
X7485907Y3820387D1*
X7504437Y3805997D1*
X7525080Y3794853D1*
X7547277Y3787260D1*
X7570423Y3783423D1*
X7593883Y3783447D1*
X7617020Y3787333D1*
X7639203Y3794977D1*
X7659823Y3806163D1*
X7678320Y3820593D1*
X7694193Y3837873D1*
X7707003Y3857527D1*
X7709180Y3861723D1*
X7711143Y3857257D1*
X7723997Y3837630D1*
X7739907Y3820387D1*
X7758437Y3805997D1*
X7779080Y3794853D1*
X7801277Y3787260D1*
X7824423Y3783423D1*
X7847883Y3783447D1*
X7871020Y3787333D1*
X7893203Y3794977D1*
X7913823Y3806163D1*
X7932320Y3820593D1*
X7948193Y3837873D1*
X7961003Y3857527D1*
X7963180Y3861723D1*
X7965143Y3857257D1*
X7977997Y3837630D1*
X7993907Y3820387D1*
X8012437Y3805997D1*
X8033080Y3794853D1*
X8055277Y3787260D1*
X8078423Y3783423D1*
X8101883Y3783447D1*
X8125020Y3787333D1*
X8145150Y3794100D1*
X8145143Y3629183D1*
X7296543Y2780603D1*
X7282357Y2784577D1*
X7259257Y2787753D1*
X7235937Y2787750D1*
X7212837Y2784577D1*
X7190383Y2778283D1*
X7168997Y2768993D1*
X7149070Y2756877D1*
X7130983Y2742160D1*
X7115067Y2725120D1*
X7101620Y2706067D1*
X7090893Y2685363D1*
X7083083Y2663390D1*
X7080997Y2653337D1*
X7059870Y2674470D1*
X7043560Y2687067D1*
X7021990Y2695813D1*
X7002647Y2698150D1*
X6889673Y2698167D1*
X6885577Y2706073D1*
X6872127Y2725123D1*
X6856213Y2742167D1*
X6838123Y2756880D1*
X6818200Y2768997D1*
X6796810Y2778287D1*
X6774357Y2784577D1*
X6751257Y2787753D1*
X6727937Y2787750D1*
X6704837Y2784577D1*
X6682383Y2778283D1*
X6660997Y2768993D1*
X6641070Y2756877D1*
X6622983Y2742160D1*
X6607067Y2725120D1*
X6593620Y2706067D1*
X6582893Y2685363D1*
X6575083Y2663390D1*
X6570340Y2640560D1*
X6568750Y2617297D1*
X6570343Y2594033D1*
X6575087Y2571203D1*
X6582897Y2549230D1*
X6593623Y2528527D1*
X6607073Y2509477D1*
X6622987Y2492433D1*
X6641077Y2477720D1*
X6661000Y2465603D1*
X6682390Y2456313D1*
X6704843Y2450023D1*
X6727943Y2446847D1*
X6751263Y2446850D1*
X6774363Y2450023D1*
X6796817Y2456317D1*
X6818203Y2465607D1*
X6838130Y2477723D1*
X6856217Y2492440D1*
X6872133Y2509480D1*
X6885580Y2528533D1*
X6889677Y2536437D1*
X6969200Y2536460D1*
X7130787Y2374877D1*
X7143883Y2364247D1*
X7164990Y2354493D1*
X7188000Y2351150D1*
X7299947D1*
X7316710Y2352897D1*
X7338533Y2360923D1*
X7357170Y2374830D1*
X8525123Y3542783D1*
X8535753Y3555883D1*
X8545507Y3576990D1*
X8548850Y3600000D1*
X8548863Y3792190D1*
X8563277Y3787260D1*
X8586423Y3783423D1*
X8609883Y3783447D1*
X8633020Y3787333D1*
X8655203Y3794977D1*
X8675823Y3806163D1*
X8694320Y3820593D1*
X8710193Y3837873D1*
X8723003Y3857527D1*
X8725180Y3861723D1*
X8727143Y3857257D1*
X8739997Y3837630D1*
X8755907Y3820387D1*
X8774437Y3805997D1*
X8795080Y3794853D1*
X8817277Y3787260D1*
X8840423Y3783423D1*
X8863883Y3783447D1*
X8887020Y3787333D1*
X8909203Y3794977D1*
X8929823Y3806163D1*
X8948320Y3820593D1*
X8964193Y3837873D1*
X8977003Y3857527D1*
X8979180Y3861723D1*
X8981143Y3857257D1*
X8993997Y3837630D1*
X9009907Y3820387D1*
X9028437Y3805997D1*
X9049080Y3794853D1*
X9071277Y3787260D1*
X9094423Y3783423D1*
X9117883Y3783447D1*
X9141020Y3787333D1*
X9163203Y3794977D1*
X9183823Y3806163D1*
X9202320Y3820593D1*
X9218193Y3837873D1*
X9231003Y3857527D1*
X9233193Y3861760D1*
X9235440Y3856713D1*
X9248377Y3837143D1*
X9264360Y3819970D1*
X9282953Y3805660D1*
X9303647Y3794607D1*
X9325877Y3787110D1*
X9349037Y3783373D1*
X9372500Y3783500D1*
X9395617Y3787487D1*
X9400117Y3788733D1*
X9404570Y3790123D1*
X9408977Y3791660D1*
X9413330Y3793340D1*
X9417627Y3795163D1*
X9421150Y3796787D1*
X9421137Y3791477D1*
X8417827Y2788150D1*
X8236650D1*
Y2446450D1*
X8326650Y2446440D1*
X8326633Y2026150D1*
X8236650D1*
Y1684450D1*
X8578350D1*
Y2026150D1*
X8488350Y2026160D1*
X8488367Y2446450D1*
X8578350D1*
X8578337Y2719997D1*
X9502000Y3643660D1*
X10371903Y2773777D1*
X10360897Y2768993D1*
X10340970Y2756877D1*
X10322883Y2742160D1*
X10306967Y2725120D1*
X10293520Y2706067D1*
X10282793Y2685363D1*
X10274983Y2663390D1*
X10270240Y2640560D1*
X10268650Y2617297D1*
X10270243Y2594033D1*
X10274987Y2571203D1*
X10282797Y2549230D1*
X10293523Y2528527D1*
X10306973Y2509477D1*
X10322887Y2492433D1*
X10340977Y2477720D1*
X10360900Y2465603D1*
X10382290Y2456313D1*
X10404743Y2450023D1*
X10427843Y2446847D1*
X10451163Y2446850D1*
X10474263Y2450023D1*
X10496717Y2456317D1*
X10518103Y2465607D1*
X10538030Y2477723D1*
X10556117Y2492440D1*
X10572033Y2509480D1*
X10585480Y2528533D1*
X10596207Y2549237D1*
X10604017Y2571210D1*
X10608760Y2594040D1*
X10608940Y2596697D1*
X10680550Y2525113D1*
X12049783Y1155877D1*
X12062883Y1145247D1*
X12083990Y1135493D1*
X12107000Y1132150D1*
X13278730D1*
X13289103Y1132810D1*
X13311500Y1139060D1*
X13331193Y1151423D1*
X13346553Y1168883D1*
X13356307Y1189990D1*
X13359650Y1213000D1*
X13359667Y1485850D1*
X13449650D1*
Y1827550D1*
X13107950D1*
Y1485850D1*
X13197950Y1485860D1*
X13197960Y1293850D1*
X12140480Y1293857D1*
X10983863Y2450473D1*
X11004717Y2456317D1*
X11026103Y2465607D1*
X11046030Y2477723D1*
X11064117Y2492440D1*
X11080033Y2509480D1*
X11093480Y2528533D1*
X11104207Y2549237D1*
X11112017Y2571210D1*
X11116760Y2594040D1*
X11118350Y2617303D1*
X11116757Y2640567D1*
X11112013Y2663397D1*
X11104203Y2685370D1*
X11093477Y2706073D1*
X11080027Y2725123D1*
X11064113Y2742167D1*
X11046023Y2756880D1*
X11026100Y2768997D1*
X11004710Y2778287D1*
X10982257Y2784577D1*
X10959157Y2787753D1*
X10935837Y2787750D1*
X10912737Y2784577D1*
X10898550Y2780600D1*
X10268850Y3410273D1*
Y6255017D1*
X10266223Y6275457D1*
X10257157Y6296893D1*
X10245123Y6312233D1*
X6738860Y7199053D2*
X6738850Y7388517D1*
X6754330Y7400593D1*
X6770200Y7417873D1*
X6783013Y7437527D1*
X6792413Y7459023D1*
X6798147Y7481770D1*
X6800060Y7505153D1*
X6798097Y7528533D1*
X6792313Y7551270D1*
X6782867Y7572743D1*
X6770013Y7592370D1*
X6754103Y7609613D1*
X6738850Y7621460D1*
X6738860Y7899020D1*
X6736233Y7919460D1*
X6727180Y7940880D1*
X6712407Y7958833D1*
X6693133Y7971843D1*
X6670933Y7978827D1*
X6657960Y7979870D1*
X6283327Y7979873D1*
X6273353Y7993097D1*
X6256430Y8009157D1*
X6237097Y8022210D1*
X6229287Y8025780D1*
X6229403Y8026203D1*
X6245250Y8034783D1*
X6263657Y8049117D1*
X6279453Y8066280D1*
X6283303Y8072173D1*
X6657923Y8072170D1*
X6668293Y8072830D1*
X6690690Y8079080D1*
X6710383Y8091443D1*
X6725743Y8108903D1*
X6735497Y8130010D1*
X6738840Y8153020D1*
X6738830Y8404517D1*
X6754313Y8416593D1*
X6770183Y8433873D1*
X6774273Y8440150D1*
X6837150Y8440137D1*
X6837137Y7163850D1*
X6730833Y7163877D1*
X6737817Y7186077D1*
X6738860Y7199053D1*
X8550137Y3139760D2*
X8544403Y3117010D1*
X8535003Y3095517D1*
X8522193Y3075860D1*
X8506320Y3058583D1*
X8487823Y3044153D1*
X8467203Y3032967D1*
X8445020Y3025323D1*
X8421883Y3021437D1*
X8398423Y3021410D1*
X8375277Y3025247D1*
X8353080Y3032840D1*
X8332437Y3043987D1*
X8313907Y3058373D1*
X8297997Y3075617D1*
X8285143Y3095243D1*
X8275697Y3116720D1*
X8269913Y3139457D1*
X8267950Y3162833D1*
X8269863Y3186217D1*
X8275597Y3208967D1*
X8284997Y3230460D1*
X8297807Y3250117D1*
X8313680Y3267393D1*
X8332177Y3281823D1*
X8352797Y3293013D1*
X8374980Y3300653D1*
X8398117Y3304540D1*
X8421577Y3304567D1*
X8444723Y3300730D1*
X8466920Y3293137D1*
X8487563Y3281993D1*
X8506093Y3267603D1*
X8522003Y3250360D1*
X8534857Y3230733D1*
X8544303Y3209257D1*
X8550087Y3186520D1*
X8552050Y3162990D1*
X8550137Y3139760D1*
X6828137Y6107770D2*
X6822403Y6085023D1*
X6813003Y6063527D1*
X6800193Y6043873D1*
X6784320Y6026593D1*
X6765823Y6012163D1*
X6745203Y6000977D1*
X6723020Y5993333D1*
X6699883Y5989447D1*
X6676423Y5989423D1*
X6653277Y5993260D1*
X6631080Y6000853D1*
X6610437Y6011997D1*
X6591907Y6026387D1*
X6575997Y6043630D1*
X6563143Y6063257D1*
X6553697Y6084730D1*
X6547913Y6107467D1*
X6545950Y6130847D1*
X6547863Y6154230D1*
X6553597Y6176977D1*
X6562997Y6198473D1*
X6575807Y6218127D1*
X6591680Y6235407D1*
X6610177Y6249837D1*
X6630797Y6261023D1*
X6652980Y6268667D1*
X6676117Y6272553D1*
X6699577Y6272577D1*
X6722723Y6268740D1*
X6744920Y6261147D1*
X6765563Y6250003D1*
X6784093Y6235613D1*
X6800003Y6218370D1*
X6812857Y6198743D1*
X6822303Y6177270D1*
X6828087Y6154533D1*
X6830050Y6131000D1*
X6828137Y6107770D1*
Y5091770D2*
X6822403Y5069023D1*
X6813003Y5047527D1*
X6800193Y5027873D1*
X6784320Y5010593D1*
X6765823Y4996163D1*
X6745203Y4984977D1*
X6723020Y4977333D1*
X6699883Y4973447D1*
X6676423Y4973423D1*
X6653277Y4977260D1*
X6631080Y4984853D1*
X6610437Y4995997D1*
X6591907Y5010387D1*
X6575997Y5027630D1*
X6563143Y5047257D1*
X6553697Y5068730D1*
X6547913Y5091467D1*
X6545950Y5114847D1*
X6547863Y5138230D1*
X6553597Y5160977D1*
X6562997Y5182473D1*
X6575807Y5202127D1*
X6591680Y5219407D1*
X6610177Y5233837D1*
X6630797Y5245023D1*
X6652980Y5252667D1*
X6676117Y5256553D1*
X6699577Y5256577D1*
X6722723Y5252740D1*
X6744920Y5245147D1*
X6765563Y5234003D1*
X6784093Y5219613D1*
X6800003Y5202370D1*
X6812857Y5182743D1*
X6822303Y5161270D1*
X6828087Y5138533D1*
X6830050Y5115000D1*
X6828137Y5091770D1*
X7168137Y4841770D2*
X7162403Y4819023D1*
X7153003Y4797527D1*
X7140193Y4777873D1*
X7124320Y4760593D1*
X7105823Y4746163D1*
X7085203Y4734977D1*
X7063020Y4727333D1*
X7039883Y4723447D1*
X7016423Y4723423D1*
X6993277Y4727260D1*
X6971080Y4734853D1*
X6950437Y4745997D1*
X6931907Y4760387D1*
X6915997Y4777630D1*
X6903143Y4797257D1*
X6893697Y4818730D1*
X6887913Y4841467D1*
X6885950Y4864847D1*
X6887863Y4888230D1*
X6893597Y4910977D1*
X6902997Y4932473D1*
X6915807Y4952127D1*
X6931680Y4969407D1*
X6950177Y4983837D1*
X6970797Y4995023D1*
X6992980Y5002667D1*
X7016117Y5006553D1*
X7039577Y5006577D1*
X7062723Y5002740D1*
X7084920Y4995147D1*
X7105563Y4984003D1*
X7124093Y4969613D1*
X7140003Y4952370D1*
X7152857Y4932743D1*
X7162303Y4911270D1*
X7168087Y4888533D1*
X7170050Y4865000D1*
X7168137Y4841770D1*
X4620797Y4036953D2*
X4626137Y4033113D1*
X4642677Y4016477D1*
X4656250Y3997340D1*
X4660740Y3988083D1*
X4667370Y4000010D1*
X4681363Y4018843D1*
X4698263Y4035117D1*
X4717610Y4048383D1*
X4724860Y4051760D1*
X4714913Y4057193D1*
X4695863Y4070887D1*
X4679323Y4087523D1*
X4676050Y4092140D1*
Y4036950D1*
X4621430D1*
X7962830Y4115703D2*
X7961003Y4111527D1*
X7948193Y4091873D1*
X7932320Y4074593D1*
X7913823Y4060163D1*
X7899183Y4052220D1*
X7908423Y4047200D1*
X7927550Y4033613D1*
X7944177Y4017063D1*
X7957857Y3998003D1*
X7962740Y3988073D1*
X7969370Y4000010D1*
X7983363Y4018843D1*
X8000263Y4035117D1*
X8019610Y4048383D1*
X8026860Y4051760D1*
X8016913Y4057193D1*
X7997863Y4070887D1*
X7981323Y4087523D1*
X7967750Y4106660D1*
X7963260Y4115917D1*
X7773850Y4347933D2*
Y4306720D1*
X7777390Y4308393D1*
X7781670Y4310250D1*
X7804017Y4317403D1*
X7827233Y4320780D1*
X7850687Y4320290D1*
X7873743Y4315943D1*
X7895770Y4307863D1*
X7916163Y4296270D1*
X7934373Y4281477D1*
X7949897Y4263887D1*
X7962317Y4243980D1*
X7962937Y4242480D1*
X7969127Y4253617D1*
X7983057Y4272497D1*
X7999903Y4288823D1*
X8019210Y4302153D1*
X8040447Y4312127D1*
X8063033Y4318467D1*
X8086357Y4321003D1*
X8109780Y4319667D1*
X8132013Y4314640D1*
X7915880Y4530783D1*
X7895883Y4527427D1*
X7872423Y4527400D1*
X7849277Y4531237D1*
X7827080Y4538830D1*
X7806437Y4549973D1*
X7787907Y4564363D1*
X7771997Y4581607D1*
X7759143Y4601233D1*
X7749697Y4622707D1*
X7743913Y4645443D1*
X7741950Y4668823D1*
X7743863Y4692207D1*
X7749597Y4714957D1*
X7758997Y4736450D1*
X7771807Y4756103D1*
X7787680Y4773383D1*
X7806177Y4787813D1*
X7826797Y4799000D1*
X7848980Y4806643D1*
X7872117Y4810530D1*
X7895577Y4810557D1*
X7917570Y4806910D1*
X8108503Y4997833D1*
X8104350Y5001063D1*
X8088547Y5018227D1*
X8075783Y5037753D1*
X8073213Y5043617D1*
X8072790Y5043613D1*
X8070237Y5037793D1*
X8057480Y5018260D1*
X8041683Y5001093D1*
X8023273Y4986763D1*
X8002760Y4975657D1*
X7980697Y4968077D1*
X7957687Y4964233D1*
X7934357Y4964230D1*
X7911347Y4968067D1*
X7889280Y4975637D1*
X7868763Y4986737D1*
X7850350Y5001063D1*
X7834547Y5018227D1*
X7821783Y5037753D1*
X7819213Y5043617D1*
X7818790Y5043613D1*
X7816237Y5037793D1*
X7803480Y5018260D1*
X7787683Y5001093D1*
X7769273Y4986763D1*
X7748760Y4975657D1*
X7726697Y4968077D1*
X7703687Y4964233D1*
X7680357Y4964230D1*
X7657347Y4968067D1*
X7640863Y4973723D1*
X7640850Y4514467D1*
X7750170Y4405170D1*
X7764077Y4386533D1*
X7772107Y4364690D1*
X7773850Y4347933D1*
X9169090Y4051737D2*
X9178423Y4047200D1*
X9197550Y4033613D1*
X9214177Y4017063D1*
X9227857Y3998003D1*
X9232740Y3988073D1*
X9239047Y3999487D1*
X9252957Y4018380D1*
X9269787Y4034723D1*
X9289077Y4048077D1*
X9296890Y4051757D1*
X9286913Y4057193D1*
X9267863Y4070887D1*
X9251323Y4087523D1*
X9237750Y4106660D1*
X9233260Y4115917D1*
X9231003Y4111527D1*
X9218193Y4091873D1*
X9202320Y4074593D1*
X9183823Y4060163D1*
X9169183Y4052220D1*
X10222127Y8928680D2*
X10219950Y8905407D1*
X10216333Y8882310D1*
X10211287Y8859483D1*
X10204830Y8837013D1*
X10196987Y8814990D1*
X10187793Y8793497D1*
X10177280Y8772617D1*
X10165490Y8752430D1*
X10152467Y8733017D1*
X10138260Y8714450D1*
X10122930Y8696800D1*
X10106530Y8680140D1*
X10089127Y8664530D1*
X10070787Y8650033D1*
X10051580Y8636707D1*
X10031583Y8624597D1*
X10010870Y8613757D1*
X9989523Y8604220D1*
X9967627Y8596033D1*
X9945263Y8589223D1*
X9922520Y8583817D1*
X9899483Y8579833D1*
X9876247Y8577290D1*
X9852893Y8576197D1*
X9829520Y8576557D1*
X9806210Y8578370D1*
X9783060Y8581630D1*
X9760160Y8586320D1*
X9737593Y8592427D1*
X9715450Y8599923D1*
X9693817Y8608783D1*
X9672773Y8618970D1*
X9652407Y8630447D1*
X9632793Y8643167D1*
X9614007Y8657080D1*
X9596123Y8672137D1*
X9579210Y8688273D1*
X9563330Y8705433D1*
X9548550Y8723547D1*
X9534927Y8742543D1*
X9522507Y8762350D1*
X9511343Y8782890D1*
X9501480Y8804083D1*
X9492953Y8825850D1*
X9485793Y8848107D1*
X9480033Y8870763D1*
X9475693Y8893733D1*
X9472790Y8916930D1*
X9471333Y8940263D1*
X9471330Y8963640D1*
X9472780Y8986973D1*
X9475680Y9010170D1*
X9480013Y9033143D1*
X9485767Y9055803D1*
X9492920Y9078060D1*
X9501443Y9099827D1*
X9511300Y9121023D1*
X9522460Y9141567D1*
X9534873Y9161377D1*
X9548493Y9180377D1*
X9563267Y9198493D1*
X9579140Y9215657D1*
X9596050Y9231800D1*
X9613930Y9246860D1*
X9632713Y9260780D1*
X9652323Y9273503D1*
X9672690Y9284987D1*
X9693727Y9295177D1*
X9715360Y9304043D1*
X9737500Y9311547D1*
X9760067Y9317657D1*
X9782967Y9322357D1*
X9806117Y9325620D1*
X9829423Y9327440D1*
X9852797Y9327807D1*
X9876150Y9326717D1*
X9899390Y9324180D1*
X9922427Y9320203D1*
X9945170Y9314803D1*
X9967537Y9307997D1*
X9989437Y9299813D1*
X10010783Y9290287D1*
X10031497Y9279450D1*
X10051500Y9267347D1*
X10070707Y9254023D1*
X10089053Y9239530D1*
X10106460Y9223927D1*
X10122863Y9207270D1*
X10138200Y9189627D1*
X10152410Y9171063D1*
X10165437Y9151650D1*
X10177233Y9131467D1*
X10187753Y9110590D1*
X10196953Y9089100D1*
X10204800Y9067077D1*
X10211260Y9044610D1*
X10216313Y9021787D1*
X10219940Y8998690D1*
X10222120Y8975413D1*
X10222850Y8952000D1*
X10222127Y8928680D1*
X7528857Y4310440D2*
X7532447Y4312127D1*
X7555033Y4318467D1*
X7578357Y4321003D1*
X7601780Y4319667D1*
X7608507Y4318147D1*
X7528863Y4397797D1*
X7528850Y4310753D1*
X4689050Y6301723D2*
Y4825437D1*
X4689230Y4795770D1*
X4693073Y4772800D1*
X4701753Y4751190D1*
X4714867Y4731947D1*
X4731803Y4715960D1*
X4751773Y4703980D1*
X4773847Y4696560D1*
X4797000Y4694050D1*
X6297000D1*
X6309443Y4694770D1*
X6332150Y4699933D1*
X6353223Y4709847D1*
X6371680Y4724050D1*
X6386660Y4741880D1*
X6397467Y4762507D1*
X6403600Y4784997D1*
X6404950Y4802057D1*
Y6302000D1*
X6404230Y6314443D1*
X6399067Y6337150D1*
X6389153Y6358223D1*
X6374950Y6376680D1*
X6357120Y6391660D1*
X6336493Y6402467D1*
X6314003Y6408600D1*
X6296943Y6409950D1*
X4797000D1*
X4784557Y6409230D1*
X4761850Y6404067D1*
X4740777Y6394153D1*
X4722323Y6379950D1*
X4707340Y6362120D1*
X4696533Y6341493D1*
X4690400Y6319003D1*
X4689050Y6301723D1*
X6924047Y8601617D2*
X6863527Y8662150D1*
X6673927D1*
X6678380Y8661580D1*
X6682987Y8660833D1*
X6687567Y8659937D1*
X6692113Y8658890D1*
X6696623Y8657697D1*
X6701093Y8656353D1*
X6705517Y8654863D1*
X6709887Y8653230D1*
X6714203Y8651453D1*
X6718457Y8649537D1*
X6722647Y8647483D1*
X6742583Y8635117D1*
X6760213Y8619637D1*
X6774750Y8601837D1*
X6917947Y8601850D1*
X6924047Y8601617D1*
X9267157Y4725877D2*
X9276223Y4704440D1*
X9278850Y4684000D1*
Y4513047D1*
X9276510Y4493687D1*
X9267767Y4472140D1*
X9255170Y4455830D1*
X9119350Y4320033D1*
X9125780Y4319667D1*
X9148663Y4314493D1*
X9170380Y4305623D1*
X9190343Y4293300D1*
X9208007Y4277857D1*
X9222887Y4259720D1*
X9232857Y4242377D1*
X9239127Y4253617D1*
X9253057Y4272497D1*
X9269903Y4288823D1*
X9289210Y4302153D1*
X9310447Y4312127D1*
X9333033Y4318467D1*
X9356357Y4321003D1*
X9379780Y4319667D1*
X9402663Y4314493D1*
X9421137Y4306947D1*
X9421150Y4583000D1*
X9424493Y4606010D1*
X9434263Y4627137D1*
X9444877Y4640217D1*
X9809327Y5004653D1*
X9806637Y5021100D1*
X9806610Y5044573D1*
X9810350Y5067743D1*
X9817757Y5090017D1*
X9828640Y5110813D1*
X9842720Y5129593D1*
X9859630Y5145873D1*
X9871147Y5153840D1*
X9871150Y5295520D1*
X9264227Y5902433D1*
X9248730Y5896953D1*
X9225740Y5892233D1*
X9202287Y5891263D1*
X9178983Y5894063D1*
X9156430Y5900570D1*
X9152017Y5902657D1*
X9059170Y5809830D1*
X9040533Y5795923D1*
X9018690Y5787893D1*
X9001933Y5786150D1*
X8595250D1*
Y5725750D1*
X8408833D1*
X8408850Y5587500D1*
X9255133Y4741207D1*
X9267157Y4725877D1*
X4987157Y4404877D2*
X4996223Y4383440D1*
X4998850Y4363000D1*
X4998847Y4314317D1*
X5001293Y4315093D1*
X5024247Y4319937D1*
X5047687Y4320937D1*
X5070973Y4318063D1*
X5093467Y4311400D1*
X5114557Y4301123D1*
X5133667Y4287513D1*
X5150277Y4270947D1*
X5163937Y4251870D1*
X5168727Y4242100D1*
X5175127Y4253617D1*
X5189057Y4272497D1*
X5205903Y4288823D1*
X5225210Y4302153D1*
X5246447Y4312127D1*
X5269033Y4318467D1*
X5292357Y4321003D1*
X5315780Y4319667D1*
X5338663Y4314493D1*
X5360380Y4305623D1*
X5380343Y4293300D1*
X5398007Y4277857D1*
X5412887Y4259720D1*
X5422857Y4242377D1*
X5429127Y4253617D1*
X5443057Y4272497D1*
X5459903Y4288823D1*
X5479210Y4302153D1*
X5500447Y4312127D1*
X5523033Y4318467D1*
X5546357Y4321003D1*
X5569780Y4319667D1*
X5592663Y4314493D1*
X5614380Y4305623D1*
X5634343Y4293300D1*
X5652007Y4277857D1*
X5666887Y4259720D1*
X5676857Y4242377D1*
X5683127Y4253617D1*
X5697057Y4272497D1*
X5713903Y4288823D1*
X5733210Y4302153D1*
X5754447Y4312127D1*
X5777033Y4318467D1*
X5800357Y4321003D1*
X5823780Y4319667D1*
X5846663Y4314493D1*
X5868380Y4305623D1*
X5888343Y4293300D1*
X5906007Y4277857D1*
X5920887Y4259720D1*
X5930857Y4242377D1*
X5937127Y4253617D1*
X5951057Y4272497D1*
X5967903Y4288823D1*
X5987210Y4302153D1*
X6008447Y4312127D1*
X6031033Y4318467D1*
X6054357Y4321003D1*
X6077780Y4319667D1*
X6100663Y4314493D1*
X6122380Y4305623D1*
X6142343Y4293300D1*
X6160007Y4277857D1*
X6174887Y4259720D1*
X6184857Y4242377D1*
X6191127Y4253617D1*
X6205057Y4272497D1*
X6221903Y4288823D1*
X6241210Y4302153D1*
X6262447Y4312127D1*
X6285033Y4318467D1*
X6308357Y4321003D1*
X6331780Y4319667D1*
X6354663Y4314493D1*
X6376380Y4305623D1*
X6396343Y4293300D1*
X6414007Y4277857D1*
X6428887Y4259720D1*
X6438857Y4242377D1*
X6445127Y4253617D1*
X6459057Y4272497D1*
X6475903Y4288823D1*
X6495210Y4302153D1*
X6516447Y4312127D1*
X6539033Y4318467D1*
X6562357Y4321003D1*
X6585780Y4319667D1*
X6608663Y4314493D1*
X6630380Y4305623D1*
X6650343Y4293300D1*
X6668007Y4277857D1*
X6682887Y4259720D1*
X6692857Y4242377D1*
X6699127Y4253617D1*
X6713057Y4272497D1*
X6729903Y4288823D1*
X6749210Y4302153D1*
X6770447Y4312127D1*
X6793033Y4318467D1*
X6816357Y4321003D1*
X6839780Y4319667D1*
X6862663Y4314493D1*
X6884380Y4305623D1*
X6904343Y4293300D1*
X6922007Y4277857D1*
X6936887Y4259720D1*
X6946857Y4242377D1*
X6953127Y4253617D1*
X6967057Y4272497D1*
X6983903Y4288823D1*
X7003210Y4302153D1*
X7024447Y4312127D1*
X7047033Y4318467D1*
X7070357Y4321003D1*
X7093780Y4319667D1*
X7099120Y4318460D1*
X7287143Y4506483D1*
X7287150Y7574990D1*
X7290493Y7598000D1*
X7300263Y7619127D1*
X7310877Y7632207D1*
X7553303Y7874657D1*
X7551060Y7889550D1*
X7551430Y7912873D1*
X7555633Y7935820D1*
X7563557Y7957763D1*
X7565643Y7961477D1*
X7555783Y7969877D1*
X6998613Y8527047D1*
X6998850Y8521000D1*
Y7083043D1*
X6997807Y7070057D1*
X6990823Y7047877D1*
X6977813Y7028603D1*
X6959860Y7013830D1*
X6938440Y7004777D1*
X6918000Y7002150D1*
X4322100D1*
X4318593Y6998667D1*
X4312390Y6993840D1*
X5005947Y6993850D1*
X5018943Y6992807D1*
X5041123Y6985823D1*
X5060397Y6972813D1*
X5075170Y6954860D1*
X5084223Y6933440D1*
X5086850Y6913000D1*
X5086840Y6749477D1*
X5102093Y6737630D1*
X5118003Y6720387D1*
X5130857Y6700760D1*
X5140303Y6679283D1*
X5146087Y6656547D1*
X5148050Y6633013D1*
X5146137Y6609787D1*
X5140403Y6587037D1*
X5131003Y6565543D1*
X5118193Y6545887D1*
X5102320Y6528610D1*
X5083823Y6514180D1*
X5063203Y6502990D1*
X5041020Y6495350D1*
X5017883Y6491463D1*
X4994423Y6491437D1*
X4971277Y6495273D1*
X4949080Y6502867D1*
X4928437Y6514010D1*
X4909907Y6528400D1*
X4893997Y6545643D1*
X4889717Y6552180D1*
X4602077Y6552163D1*
X4598593Y6548680D1*
X4579967Y6534183D1*
X4558803Y6523733D1*
X4535970Y6517757D1*
X4512400Y6516497D1*
X4489060Y6520010D1*
X4466907Y6528150D1*
X4446843Y6540580D1*
X4429693Y6556797D1*
X4416157Y6576133D1*
X4406793Y6597797D1*
X4401980Y6620903D1*
X4401917Y6644507D1*
X4406607Y6667640D1*
X4415857Y6689353D1*
X4429290Y6708760D1*
X4446353Y6725067D1*
X4466350Y6737607D1*
X4488463Y6745860D1*
X4511783Y6749497D1*
X4535357Y6748363D1*
X4558223Y6742510D1*
X4579440Y6732170D1*
X4598143Y6717773D1*
X4601533Y6713847D1*
X4889203Y6713863D1*
X4893807Y6720143D1*
X4909680Y6737420D1*
X4925160Y6749497D1*
X4925150Y6832143D1*
X4338840Y6832150D1*
X4338850Y5674577D1*
X4338853Y5673360D1*
X4343957Y5660653D1*
X4348970Y5637870D1*
X4350233Y5619020D1*
X4348310Y5595790D1*
X4342587Y5573177D1*
X4333220Y5551810D1*
X4320463Y5532277D1*
X4304667Y5515113D1*
X4286257Y5500780D1*
X4270410Y5492200D1*
X4270290Y5491777D1*
X4278103Y5488207D1*
X4297437Y5475153D1*
X4314357Y5459093D1*
X4328403Y5440470D1*
X4339193Y5419787D1*
X4346433Y5397607D1*
X4349923Y5374543D1*
X4350243Y5365020D1*
X4348320Y5341790D1*
X4342597Y5319177D1*
X4340247Y5313813D1*
X4357313Y5311510D1*
X4378860Y5302767D1*
X4395170Y5290170D1*
X4555133Y5130203D1*
X4567170Y5114857D1*
X4576223Y5093440D1*
X4578850Y5073000D1*
Y4816480D1*
X4975130Y4420207D1*
X4987157Y4404877D1*
X7765123Y5512157D2*
X7786560Y5521223D1*
X7807000Y5523850D1*
X8252980D1*
X8248893Y5537310D1*
X8247150Y5554070D1*
X8247130Y5734347D1*
X8234697Y5730077D1*
X8211687Y5726233D1*
X8188357Y5726230D1*
X8165347Y5730067D1*
X8143280Y5737637D1*
X8122763Y5748737D1*
X8104350Y5763063D1*
X8088547Y5780227D1*
X8075783Y5799753D1*
X8073213Y5805617D1*
X8070237Y5799793D1*
X8057480Y5780260D1*
X8041683Y5763093D1*
X8023273Y5748763D1*
X8002760Y5737657D1*
X7980697Y5730077D1*
X7957687Y5726233D1*
X7934357Y5726230D1*
X7911347Y5730067D1*
X7889280Y5737637D1*
X7868763Y5748737D1*
X7850350Y5763063D1*
X7834547Y5780227D1*
X7821783Y5799753D1*
X7812410Y5821117D1*
X7806680Y5843730D1*
X7804750Y5866977D1*
X7806673Y5890227D1*
X7812397Y5912843D1*
X7821763Y5934207D1*
X7834520Y5953740D1*
X7850317Y5970907D1*
X7868727Y5985237D1*
X7889240Y5996343D1*
X7911303Y6003923D1*
X7934313Y6007767D1*
X7957643Y6007770D1*
X7980653Y6003933D1*
X8002720Y5996363D1*
X8023237Y5985263D1*
X8041650Y5970937D1*
X8057453Y5953773D1*
X8070217Y5934247D1*
X8072787Y5928383D1*
X8078007Y5938200D1*
X8091390Y5957307D1*
X8107737Y5973953D1*
X8126597Y5987680D1*
X8147463Y5998117D1*
X8169760Y6004977D1*
X8192883Y6008070D1*
X8216200Y6007317D1*
X8239073Y6002737D1*
X8247147Y5999673D1*
X8247150Y6687197D1*
X8238803Y6683720D1*
X8215970Y6677743D1*
X8196013Y6676677D1*
X7972843Y6453507D1*
X7974650Y6433000D1*
X7972323Y6409823D1*
X7965317Y6387283D1*
X7953920Y6366617D1*
X7938593Y6348667D1*
X7919967Y6334170D1*
X7898803Y6323720D1*
X7875970Y6317743D1*
X7852400Y6316483D1*
X7829060Y6319997D1*
X7806907Y6328137D1*
X7786843Y6340567D1*
X7769693Y6356783D1*
X7756157Y6376120D1*
X7746793Y6397783D1*
X7741980Y6420890D1*
X7741917Y6444493D1*
X7746607Y6467627D1*
X7755857Y6489340D1*
X7769290Y6508747D1*
X7786353Y6525053D1*
X7806350Y6537593D1*
X7828463Y6545847D1*
X7838003Y6547337D1*
X8081383Y6790723D1*
X8081917Y6804493D1*
X8086607Y6827627D1*
X8095857Y6849340D1*
X8109290Y6868747D1*
X8126353Y6885053D1*
X8146350Y6897593D1*
X8168463Y6905847D1*
X8191783Y6909483D1*
X8215357Y6908350D1*
X8238223Y6902497D1*
X8247153Y6898143D1*
X8247150Y7398500D1*
X7815297Y7830347D1*
X7803473Y7812243D1*
X7787677Y7795080D1*
X7769270Y7780747D1*
X7753423Y7772167D1*
X7761190Y7768130D1*
X7780517Y7755063D1*
X7797427Y7738993D1*
X7811463Y7720360D1*
X7822240Y7699670D1*
X7829463Y7677490D1*
X7832940Y7654420D1*
X7833257Y7644983D1*
X7831333Y7621757D1*
X7825610Y7599143D1*
X7816243Y7577777D1*
X7803487Y7558243D1*
X7787687Y7541080D1*
X7769280Y7526747D1*
X7748767Y7515640D1*
X7726703Y7508063D1*
X7703693Y7504220D1*
X7680363Y7504217D1*
X7667710Y7506323D1*
X7528860Y7367500D1*
X7528850Y5441163D1*
Y5279177D1*
X7749793Y5500133D1*
X7765123Y5512157D1*
X8794877Y4354217D2*
X9027150Y4586483D1*
X9027140Y4606440D1*
X9025003Y4601550D1*
X9012193Y4581897D1*
X8996320Y4564617D1*
X8977823Y4550187D1*
X8957203Y4539000D1*
X8935020Y4531357D1*
X8911883Y4527470D1*
X8888423Y4527443D1*
X8865277Y4531280D1*
X8843080Y4538873D1*
X8822437Y4550020D1*
X8803907Y4564410D1*
X8787997Y4581653D1*
X8783717Y4588187D1*
X8548840Y4588173D1*
X8548850Y4312257D1*
X8571033Y4318467D1*
X8594357Y4321003D1*
X8617780Y4319667D1*
X8640663Y4314493D1*
X8662380Y4305623D1*
X8682343Y4293300D1*
X8700007Y4277857D1*
X8714887Y4259720D1*
X8724857Y4242377D1*
X8731127Y4253617D1*
X8745057Y4272497D1*
X8761903Y4288823D1*
X8771160Y4295213D1*
X8771150Y4297000D1*
X8774493Y4320010D1*
X8784263Y4341137D1*
X8794877Y4354217D1*
X5327463Y8450263D2*
X5336210Y8471833D1*
X5348803Y8488143D1*
X5741143Y8880483D1*
X5741157Y8912160D1*
X5729887Y8919920D1*
X5712940Y8936160D1*
X5698817Y8954910D1*
X5687887Y8975680D1*
X5680427Y8997937D1*
X5676637Y9021100D1*
X5676610Y9044573D1*
X5679317Y9061340D1*
X5479867Y9260793D1*
X5467830Y9276140D1*
X5458777Y9297560D1*
X5456150Y9318000D1*
Y9425150D1*
X4810053D1*
X4790687Y9427490D1*
X4769140Y9436233D1*
X4752830Y9448830D1*
X4113523Y10088137D1*
X3458860Y10088150D1*
X3458877Y10030190D1*
X3460723Y10029127D1*
X3478923Y10014300D1*
X3494507Y9996750D1*
X3507073Y9976927D1*
X3516300Y9955343D1*
X3521940Y9932557D1*
X3523857Y9909000D1*
X3521993Y9885767D1*
X3516403Y9862970D1*
X3507227Y9841367D1*
X3494703Y9821513D1*
X3479160Y9803927D1*
X3460993Y9789060D1*
X3440680Y9777303D1*
X3418743Y9768953D1*
X3395750Y9764233D1*
X3372297Y9763263D1*
X3349380Y9766017D1*
X3265177Y9681830D1*
X3246540Y9667923D1*
X3224697Y9659893D1*
X3207940Y9658150D1*
X2785050Y9658127D1*
Y9587900D1*
X2883947Y9587903D1*
X2906957Y9584560D1*
X2928083Y9574790D1*
X2941163Y9564177D1*
X3701683Y8803650D1*
X3692953Y8825850D1*
X3685793Y8848107D1*
X3680033Y8870763D1*
X3675693Y8893733D1*
X3672790Y8916930D1*
X3671333Y8940263D1*
X3671330Y8963640D1*
X3672780Y8986973D1*
X3675680Y9010170D1*
X3680013Y9033143D1*
X3685767Y9055803D1*
X3692920Y9078060D1*
X3701443Y9099827D1*
X3711300Y9121023D1*
X3722460Y9141567D1*
X3734873Y9161377D1*
X3748493Y9180377D1*
X3763267Y9198493D1*
X3779140Y9215657D1*
X3796050Y9231800D1*
X3813930Y9246860D1*
X3832713Y9260780D1*
X3852323Y9273503D1*
X3872690Y9284987D1*
X3893727Y9295177D1*
X3915360Y9304043D1*
X3937500Y9311547D1*
X3960067Y9317657D1*
X3982967Y9322357D1*
X4006117Y9325620D1*
X4029423Y9327440D1*
X4052797Y9327807D1*
X4076150Y9326717D1*
X4099390Y9324180D1*
X4122427Y9320203D1*
X4145170Y9314803D1*
X4167537Y9307997D1*
X4189437Y9299813D1*
X4210783Y9290287D1*
X4231497Y9279450D1*
X4251500Y9267347D1*
X4270707Y9254023D1*
X4289053Y9239530D1*
X4306460Y9223927D1*
X4322863Y9207270D1*
X4338200Y9189627D1*
X4352410Y9171063D1*
X4365437Y9151650D1*
X4377233Y9131467D1*
X4387753Y9110590D1*
X4396953Y9089100D1*
X4404800Y9067077D1*
X4411260Y9044610D1*
X4416313Y9021787D1*
X4419940Y8998690D1*
X4422120Y8975413D1*
X4422850Y8952000D1*
X4422127Y8928680D1*
X4419950Y8905407D1*
X4416333Y8882310D1*
X4411287Y8859483D1*
X4404830Y8837013D1*
X4396987Y8814990D1*
X4387793Y8793497D1*
X4377280Y8772617D1*
X4365490Y8752430D1*
X4352467Y8733017D1*
X4338260Y8714450D1*
X4322930Y8696800D1*
X4306530Y8680140D1*
X4289127Y8664530D1*
X4270787Y8650033D1*
X4251580Y8636707D1*
X4231583Y8624597D1*
X4210870Y8613757D1*
X4189523Y8604220D1*
X4167627Y8596033D1*
X4145263Y8589223D1*
X4122520Y8583817D1*
X4099483Y8579833D1*
X4076247Y8577290D1*
X4052893Y8576197D1*
X4029520Y8576557D1*
X4006210Y8578370D1*
X3983060Y8581630D1*
X3960160Y8586320D1*
X3937593Y8592427D1*
X3915450Y8599923D1*
X3898443Y8606887D1*
X4221487Y8283850D1*
X4869717D1*
X4873807Y8290127D1*
X4889680Y8307407D1*
X4908177Y8321837D1*
X4928797Y8333023D1*
X4950980Y8340667D1*
X4974117Y8344553D1*
X4997577Y8344577D1*
X5020723Y8340740D1*
X5042920Y8333147D1*
X5063563Y8322003D1*
X5082093Y8307613D1*
X5098003Y8290370D1*
X5110857Y8270743D1*
X5120303Y8249270D1*
X5126087Y8226533D1*
X5128050Y8203000D1*
X5126137Y8179770D1*
X5120403Y8157023D1*
X5111003Y8135527D1*
X5098193Y8115873D1*
X5082320Y8098593D1*
X5063823Y8084163D1*
X5043203Y8072977D1*
X5021020Y8065333D1*
X4997883Y8061447D1*
X4974423Y8061423D1*
X4951277Y8065260D1*
X4929080Y8072853D1*
X4908437Y8083997D1*
X4889907Y8098387D1*
X4873997Y8115630D1*
X4869717Y8122167D1*
X4635863Y8122150D1*
X4188050D1*
X4183040Y8122300D1*
X4511477Y7793863D1*
X4869717Y7793850D1*
X4873807Y7800127D1*
X4889680Y7817407D1*
X4908177Y7831837D1*
X4928797Y7843023D1*
X4950980Y7850667D1*
X4974117Y7854553D1*
X4997577Y7854577D1*
X5020723Y7850740D1*
X5042920Y7843147D1*
X5063563Y7832003D1*
X5082093Y7817613D1*
X5098003Y7800370D1*
X5105397Y7789080D1*
X5118857Y7782767D1*
X5135170Y7770170D1*
X5265147Y7640210D1*
X5264753Y7644953D1*
X5266677Y7668203D1*
X5272400Y7690820D1*
X5281767Y7712183D1*
X5294523Y7731717D1*
X5310323Y7748883D1*
X5328730Y7763213D1*
X5344577Y7771793D1*
X5344697Y7772217D1*
X5336803Y7775830D1*
X5317480Y7788897D1*
X5300567Y7804967D1*
X5286533Y7823600D1*
X5275753Y7844290D1*
X5268530Y7866473D1*
X5265053Y7889540D1*
X5265423Y7912867D1*
X5269627Y7935813D1*
X5277550Y7957757D1*
X5288977Y7978093D1*
X5303593Y7996273D1*
X5320887Y8011727D1*
X5264723D1*
Y8294227D1*
X5325130D1*
X5325123Y8430910D1*
X5327463Y8450263D1*
X6192807Y8800133D2*
X5547223Y8154567D1*
Y8294227D1*
X5486823Y8294217D1*
X5486830Y8397490D1*
X5879123Y8789783D1*
X5889753Y8802883D1*
X5899507Y8823990D1*
X5902850Y8847000D1*
X5902863Y8911833D1*
X5904987Y8913060D1*
X5923153Y8927927D1*
X5938697Y8945513D1*
X5943557Y8952397D1*
X6691093Y8953890D1*
X6702940Y8938160D1*
X6719887Y8921920D1*
X6739217Y8908607D1*
X6760433Y8898570D1*
X6782987Y8892063D1*
X6806290Y8889263D1*
X6829743Y8890233D1*
X6838567Y8892047D1*
X6907460Y8823170D1*
X6896950Y8823850D1*
X6250013D1*
X6229573Y8821223D1*
X6208137Y8812157D1*
X6192807Y8800133D1*
X10000657Y3023363D2*
X10009723Y3001927D1*
X10012350Y2981487D1*
X10012337Y2767637D1*
X10030023Y2756880D1*
X10048113Y2742167D1*
X10064027Y2725123D1*
X10077477Y2706073D1*
X10088203Y2685370D1*
X10096013Y2663397D1*
X10100757Y2640567D1*
X10102350Y2617300D1*
X10100760Y2594040D1*
X10096017Y2571210D1*
X10088207Y2549237D1*
X10077480Y2528533D1*
X10064033Y2509480D1*
X10048117Y2492440D1*
X10030030Y2477723D1*
X10010103Y2465607D1*
X9988717Y2456317D1*
X9966263Y2450023D1*
X9943163Y2446850D1*
X9919843Y2446847D1*
X9896743Y2450023D1*
X9874290Y2456313D1*
X9852900Y2465603D1*
X9832977Y2477720D1*
X9814887Y2492433D1*
X9798973Y2509477D1*
X9785523Y2528527D1*
X9774797Y2549230D1*
X9766987Y2571203D1*
X9762243Y2594033D1*
X9760650Y2617297D1*
X9762240Y2640560D1*
X9766983Y2663390D1*
X9774793Y2685363D1*
X9785520Y2706067D1*
X9798967Y2725120D1*
X9814883Y2742160D1*
X9832970Y2756877D1*
X9850657Y2767633D1*
X9850650Y2948020D1*
X9785430Y3013217D1*
X9771883Y3011433D1*
X9748423Y3011407D1*
X9725277Y3015243D1*
X9703080Y3022837D1*
X9682437Y3033980D1*
X9663907Y3048370D1*
X9647997Y3065613D1*
X9635143Y3085240D1*
X9625697Y3106717D1*
X9619913Y3129453D1*
X9617950Y3152830D1*
X9619863Y3176213D1*
X9625597Y3198963D1*
X9634997Y3220457D1*
X9647807Y3240113D1*
X9663680Y3257390D1*
X9682177Y3271820D1*
X9702797Y3283010D1*
X9724980Y3290650D1*
X9748117Y3294537D1*
X9771577Y3294563D1*
X9794723Y3290727D1*
X9816920Y3283133D1*
X9837563Y3271990D1*
X9856093Y3257600D1*
X9872003Y3240357D1*
X9884857Y3220730D1*
X9894303Y3199253D1*
X9900087Y3176517D1*
X9902050Y3152987D1*
X9900137Y3129757D1*
X9899617Y3127690D1*
X9988493Y3038833D1*
X10000657Y3023363D1*
X3757950Y8005850D2*
X3244283Y8005833D1*
X3240003Y8012370D1*
X3224093Y8029613D1*
X3205563Y8044003D1*
X3184920Y8055147D1*
X3162723Y8062740D1*
X3139577Y8066577D1*
X3116117Y8066553D1*
X3092980Y8062667D1*
X3070797Y8055023D1*
X3050177Y8043837D1*
X3031680Y8029407D1*
X3015807Y8012127D1*
X3011187Y8005850D1*
X2949490Y8005847D1*
X2780043Y8175307D1*
X2783460Y8191740D1*
X2785050Y8215003D1*
X2783457Y8238267D1*
X2778713Y8261097D1*
X2770903Y8283070D1*
X2760177Y8303773D1*
X2746727Y8322823D1*
X2730813Y8339867D1*
X2712723Y8354580D1*
X2692800Y8366697D1*
X2671410Y8375987D1*
X2648957Y8382277D1*
X2625857Y8385453D1*
X2602537Y8385450D1*
X2579437Y8382277D1*
X2556983Y8375983D1*
X2535597Y8366693D1*
X2515670Y8354577D1*
X2497583Y8339860D1*
X2481667Y8322820D1*
X2468220Y8303767D1*
X2457493Y8283063D1*
X2449683Y8261090D1*
X2444940Y8238260D1*
X2443350Y8214997D1*
X2444943Y8191733D1*
X2449687Y8168903D1*
X2457497Y8146930D1*
X2468223Y8126227D1*
X2481673Y8107177D1*
X2497587Y8090133D1*
X2515677Y8075420D1*
X2535600Y8063303D1*
X2556990Y8054013D1*
X2579443Y8047723D1*
X2602543Y8044547D1*
X2625863Y8044550D1*
X2648963Y8047723D1*
X2671417Y8054017D1*
X2672273Y8054387D1*
X2858783Y7867877D1*
X2871883Y7857247D1*
X2892990Y7847493D1*
X2916000Y7844150D1*
X3011717Y7844167D1*
X3015997Y7837630D1*
X3031907Y7820387D1*
X3050437Y7805997D1*
X3071080Y7794853D1*
X3093277Y7787260D1*
X3116423Y7783423D1*
X3139883Y7783447D1*
X3163020Y7787333D1*
X3185203Y7794977D1*
X3205823Y7806163D1*
X3224320Y7820593D1*
X3240193Y7837873D1*
X3244283Y7844150D1*
X3724493Y7844167D1*
X3830383Y7738293D1*
X3829863Y7736230D1*
X3827950Y7712847D1*
X3829913Y7689467D1*
X3835697Y7666730D1*
X3845143Y7645257D1*
X3857997Y7625630D1*
X3873907Y7608387D1*
X3892437Y7593997D1*
X3913080Y7582853D1*
X3935277Y7575260D1*
X3958423Y7571423D1*
X3981883Y7571447D1*
X4005020Y7575333D1*
X4027203Y7582977D1*
X4047823Y7594163D1*
X4066320Y7608593D1*
X4082193Y7625873D1*
X4095003Y7645527D1*
X4104403Y7667023D1*
X4110137Y7689770D1*
X4112050Y7713153D1*
X4110087Y7736533D1*
X4104303Y7759270D1*
X4094857Y7780743D1*
X4082003Y7800370D1*
X4066093Y7817613D1*
X4047563Y7832003D1*
X4026920Y7843147D1*
X4004723Y7850740D1*
X3981577Y7854577D1*
X3958117Y7854553D1*
X3944990Y7852347D1*
X3815170Y7982170D1*
X3798860Y7994767D1*
X3777290Y8003513D1*
X3757950Y8005850D1*
X6857290Y6721513D2*
X6878857Y6712767D1*
X6895170Y6700170D1*
X7085170Y6510170D1*
X7099077Y6491533D1*
X7107107Y6469690D1*
X7108850Y6452763D1*
X7108840Y5997460D1*
X7124093Y5985613D1*
X7140003Y5968370D1*
X7152857Y5948743D1*
X7162303Y5927270D1*
X7168087Y5904533D1*
X7170050Y5881000D1*
X7168137Y5857770D1*
X7162403Y5835023D1*
X7153003Y5813527D1*
X7140193Y5793873D1*
X7124320Y5776593D1*
X7105823Y5762163D1*
X7085203Y5750977D1*
X7063020Y5743333D1*
X7039883Y5739447D1*
X7016423Y5739423D1*
X6993277Y5743260D1*
X6971080Y5750853D1*
X6950437Y5761997D1*
X6931907Y5776387D1*
X6915997Y5793630D1*
X6903143Y5813257D1*
X6893697Y5834730D1*
X6887913Y5857467D1*
X6885950Y5880847D1*
X6887863Y5904230D1*
X6893597Y5926977D1*
X6902997Y5948473D1*
X6915807Y5968127D1*
X6931680Y5985407D1*
X6947160Y5997483D1*
X6947150Y6419500D1*
X6804523Y6562137D1*
X6786283Y6562150D1*
X6782193Y6555873D1*
X6766320Y6538593D1*
X6747823Y6524163D1*
X6727203Y6512977D1*
X6705020Y6505333D1*
X6681883Y6501447D1*
X6658423Y6501423D1*
X6635277Y6505260D1*
X6613080Y6512853D1*
X6592437Y6523997D1*
X6573907Y6538387D1*
X6557997Y6555630D1*
X6545143Y6575257D1*
X6535697Y6596730D1*
X6529913Y6619467D1*
X6527950Y6642847D1*
X6529863Y6666230D1*
X6535597Y6688977D1*
X6544997Y6710473D1*
X6557807Y6730127D1*
X6573680Y6747407D1*
X6592177Y6761837D1*
X6612797Y6773023D1*
X6634980Y6780667D1*
X6658117Y6784553D1*
X6681577Y6784577D1*
X6704723Y6780740D1*
X6726920Y6773147D1*
X6747563Y6762003D1*
X6766093Y6747613D1*
X6782003Y6730370D1*
X6786283Y6723833D1*
X6837953Y6723850D1*
X6857290Y6721513D1*
X8278513Y4955710D2*
X8269767Y4934140D1*
X8257170Y4917830D1*
X8024687Y4685363D1*
X8026050Y4668977D1*
X8024553Y4650807D1*
X8242557Y4432783D1*
X8283170Y4392170D1*
X8297077Y4373533D1*
X8305107Y4351690D1*
X8306850Y4334943D1*
X8306863Y4315613D1*
X8317033Y4318467D1*
X8340357Y4321003D1*
X8363780Y4319667D1*
X8386663Y4314493D1*
X8387150Y4314293D1*
Y4668967D1*
X8388193Y4681967D1*
X8395177Y4704147D1*
X8408187Y4723420D1*
X8426140Y4738193D1*
X8447560Y4747247D1*
X8468000Y4749873D1*
X8701613Y4749887D1*
X8479910Y4966610D1*
X8465687Y4964233D1*
X8442357Y4964230D1*
X8419347Y4968067D1*
X8397280Y4975637D1*
X8376763Y4986737D1*
X8358350Y5001063D1*
X8342547Y5018227D1*
X8329783Y5037753D1*
X8327213Y5043617D1*
X8326790Y5043613D1*
X8324237Y5037793D1*
X8311480Y5018260D1*
X8295683Y5001093D1*
X8280853Y4989547D1*
X8280850Y4975050D1*
X8278513Y4955710D1*
X3721373Y2835287D2*
X3500277Y3056383D1*
X3492400Y3056483D1*
X3469060Y3059997D1*
X3446907Y3068137D1*
X3426843Y3080567D1*
X3409693Y3096783D1*
X3396157Y3116120D1*
X3386793Y3137783D1*
X3381980Y3160890D1*
X3381917Y3184493D1*
X3386607Y3207627D1*
X3395857Y3229340D1*
X3409290Y3248747D1*
X3426353Y3265053D1*
X3446350Y3277593D1*
X3468463Y3285847D1*
X3491783Y3289483D1*
X3515357Y3288350D1*
X3538223Y3282497D1*
X3559440Y3272157D1*
X3578143Y3257760D1*
X3593563Y3239893D1*
X3605073Y3219287D1*
X3612200Y3196783D1*
X3614650Y3173000D1*
X3614440Y3170893D1*
X3835723Y2949617D1*
X3855357Y2948350D1*
X3878223Y2942497D1*
X3899440Y2932157D1*
X3918143Y2917760D1*
X3933563Y2899893D1*
X3945073Y2879287D1*
X3952200Y2856783D1*
X3954650Y2833000D1*
X3952323Y2809823D1*
X3945317Y2787283D1*
X3933920Y2766617D1*
X3918593Y2748667D1*
X3899967Y2734170D1*
X3878803Y2723720D1*
X3855970Y2717743D1*
X3832400Y2716483D1*
X3809060Y2719997D1*
X3786907Y2728137D1*
X3766843Y2740567D1*
X3749693Y2756783D1*
X3736157Y2776120D1*
X3726793Y2797783D1*
X3721980Y2820890D1*
X3721943Y2834697D1*
X3917807Y5480077D2*
X3910823Y5457877D1*
X3897813Y5438603D1*
X3879857Y5423830D1*
X3858440Y5414777D1*
X3838000Y5412150D1*
X3579677D1*
X3584433Y5397573D1*
X3587923Y5374507D1*
X3588243Y5364983D1*
X3586877Y5348450D1*
X3621477Y5313863D1*
X4077353Y5313850D1*
X4071537Y5332513D1*
X4068060Y5355583D1*
X4068430Y5378907D1*
X4070337Y5389330D1*
X3932830Y5526843D1*
X3918917Y5545500D1*
X3918850Y5536853D1*
Y5493060D1*
X3917807Y5480077D1*
X2819877Y5213843D2*
X2798440Y5204777D1*
X2778000Y5202150D1*
X2428833D1*
X2428850Y4746483D1*
Y3786470D1*
X2552367Y3662980D1*
X2556983Y3664983D1*
X2579437Y3671277D1*
X2602537Y3674450D1*
X2625857Y3674453D1*
X2648957Y3671277D1*
X2671410Y3664987D1*
X2687140Y3658157D1*
X2687150Y3803000D1*
X2690493Y3826010D1*
X2700263Y3847137D1*
X2710873Y3860213D1*
X2927150Y4076470D1*
Y4525817D1*
X2864170Y4462830D1*
X2845533Y4448923D1*
X2823690Y4440893D1*
X2806930Y4439150D1*
X2764277Y4439137D1*
X2760180Y4431233D1*
X2746733Y4412180D1*
X2730817Y4395140D1*
X2712730Y4380423D1*
X2692803Y4368307D1*
X2671417Y4359017D1*
X2648963Y4352723D1*
X2625863Y4349550D1*
X2602543Y4349547D1*
X2579443Y4352723D1*
X2556990Y4359013D1*
X2535600Y4368303D1*
X2515677Y4380420D1*
X2497587Y4395133D1*
X2481673Y4412177D1*
X2468223Y4431227D1*
X2457497Y4451930D1*
X2449687Y4473903D1*
X2444943Y4496733D1*
X2443350Y4519997D1*
X2444940Y4543260D1*
X2449683Y4566090D1*
X2457493Y4588063D1*
X2468220Y4608767D1*
X2481667Y4627820D1*
X2497583Y4644860D1*
X2515670Y4659577D1*
X2535597Y4671693D1*
X2556983Y4680983D1*
X2579437Y4687277D1*
X2602537Y4690450D1*
X2625857Y4690453D1*
X2648957Y4687277D1*
X2671410Y4680987D1*
X2692800Y4671697D1*
X2712723Y4659580D1*
X2730813Y4644867D1*
X2746727Y4627823D1*
X2760177Y4608773D1*
X2764273Y4600867D1*
X2773503Y4600850D1*
X2868233Y4695573D1*
X2867913Y4697467D1*
X2865950Y4720847D1*
X2867863Y4744230D1*
X2873597Y4766977D1*
X2882997Y4788473D1*
X2895807Y4808127D1*
X2911680Y4825407D1*
X2930177Y4839837D1*
X2950797Y4851023D1*
X2972980Y4858667D1*
X2996117Y4862553D1*
X3019577Y4862577D1*
X3042723Y4858740D1*
X3064920Y4851147D1*
X3085563Y4840003D1*
X3104093Y4825613D1*
X3120003Y4808370D1*
X3132857Y4788743D1*
X3142303Y4767270D1*
X3148087Y4744533D1*
X3150050Y4721000D1*
X3148137Y4697770D1*
X3142403Y4675023D1*
X3133003Y4653527D1*
X3120193Y4633873D1*
X3104320Y4616593D1*
X3088840Y4604517D1*
X3088850Y4043050D1*
X3086510Y4023687D1*
X3077767Y4002140D1*
X3065170Y3985830D1*
X2848843Y3769507D1*
X2848850Y3686467D1*
X3013473Y3521867D1*
X3445913Y3521850D1*
X3721717D1*
X3725807Y3528127D1*
X3741680Y3545407D1*
X3760177Y3559837D1*
X3780797Y3571023D1*
X3802980Y3578667D1*
X3807293Y3579390D1*
X3746503Y3640160D1*
X3364283Y3640150D1*
X3360193Y3633873D1*
X3344320Y3616593D1*
X3325823Y3602163D1*
X3305203Y3590977D1*
X3283020Y3583333D1*
X3259883Y3579447D1*
X3236423Y3579423D1*
X3213277Y3583260D1*
X3191080Y3590853D1*
X3170437Y3601997D1*
X3151907Y3616387D1*
X3135997Y3633630D1*
X3123143Y3653257D1*
X3113697Y3674730D1*
X3107913Y3697467D1*
X3105950Y3720847D1*
X3107863Y3744230D1*
X3113597Y3766977D1*
X3122997Y3788473D1*
X3135807Y3808127D1*
X3151680Y3825407D1*
X3157153Y3829673D1*
X3157150Y4947167D1*
X2865720Y4947150D1*
X2764277Y4947137D1*
X2760180Y4939233D1*
X2746733Y4920180D1*
X2730817Y4903140D1*
X2712730Y4888423D1*
X2692803Y4876307D1*
X2671417Y4867017D1*
X2648963Y4860723D1*
X2625863Y4857550D1*
X2602543Y4857547D1*
X2579443Y4860723D1*
X2556990Y4867013D1*
X2535600Y4876303D1*
X2515677Y4888420D1*
X2497587Y4903133D1*
X2481673Y4920177D1*
X2468223Y4939227D1*
X2457497Y4959930D1*
X2449687Y4981903D1*
X2444943Y5004733D1*
X2443350Y5027997D1*
X2444940Y5051260D1*
X2449683Y5074090D1*
X2457493Y5096063D1*
X2468220Y5116767D1*
X2481667Y5135820D1*
X2497583Y5152860D1*
X2515670Y5167577D1*
X2535597Y5179693D1*
X2556983Y5188983D1*
X2579437Y5195277D1*
X2602537Y5198450D1*
X2625857Y5198453D1*
X2648957Y5195277D1*
X2671410Y5188987D1*
X2692800Y5179697D1*
X2712723Y5167580D1*
X2730813Y5152867D1*
X2746727Y5135823D1*
X2760177Y5116773D1*
X2764273Y5108867D1*
X3079813Y5108850D1*
X3237947D1*
X3250943Y5107807D1*
X3273123Y5100823D1*
X3292397Y5087813D1*
X3307170Y5069860D1*
X3316223Y5048440D1*
X3318850Y5028000D1*
Y3843627D1*
X3325563Y3840003D1*
X3344093Y3825613D1*
X3360003Y3808370D1*
X3364283Y3801833D1*
X3445190Y3801850D1*
X3429693Y3816783D1*
X3416157Y3836120D1*
X3406793Y3857783D1*
X3401980Y3880890D1*
X3401917Y3904493D1*
X3406607Y3927627D1*
X3415857Y3949340D1*
X3429290Y3968747D1*
X3437137Y3976247D1*
X3437150Y4562947D1*
X3439490Y4582313D1*
X3448233Y4603860D1*
X3460830Y4620170D1*
X3992793Y5152150D1*
X3587977Y5152153D1*
X3581567Y5152393D1*
X3584463Y5143490D1*
X3587940Y5120420D1*
X3588257Y5110983D1*
X3586333Y5087757D1*
X3580610Y5065143D1*
X3571243Y5043777D1*
X3558487Y5024243D1*
X3542687Y5007080D1*
X3524280Y4992747D1*
X3503767Y4981640D1*
X3481703Y4974063D1*
X3458693Y4970220D1*
X3435363Y4970217D1*
X3412353Y4974053D1*
X3390287Y4981623D1*
X3369767Y4992723D1*
X3351357Y5007050D1*
X3335553Y5024210D1*
X3322790Y5043737D1*
X3313417Y5065100D1*
X3307687Y5087713D1*
X3305757Y5110963D1*
X3307680Y5134213D1*
X3313403Y5156827D1*
X3322770Y5178193D1*
X3335527Y5197727D1*
X3351323Y5214890D1*
X3369730Y5229223D1*
X3385577Y5237803D1*
X3385703Y5238227D1*
X3377810Y5241837D1*
X3358483Y5254907D1*
X3341573Y5270973D1*
X3327537Y5289610D1*
X3316760Y5310300D1*
X3309537Y5332480D1*
X3306060Y5355550D1*
X3306430Y5378873D1*
X3310633Y5401820D1*
X3314370Y5412170D1*
X3114390Y5412150D1*
X3021490D1*
X2835210Y5225870D1*
X2819877Y5213843D1*
X14835243Y11933303D2*
X1107650Y11956197D1*
X1103600Y10471257D1*
X1077837Y1055813D1*
X14831250Y1081690D1*
X14832080Y3313333D1*
X14835237Y11933290D1*
D17*
X6812000Y9035000D3*
D18*
X7320000D3*
D17*
X9952000Y5033000D3*
D18*
X9444000D3*
D17*
X9207995Y6037000D3*
D18*
X9208005Y5529000D3*
D17*
X4564000Y3153000D3*
D18*
X5072000D3*
D17*
X5822000Y9033000D3*
D18*
X5314000D3*
D17*
X3378007Y9909000D3*
D18*
X3377993Y10417000D3*
D17*
X3458010Y6059000D3*
D18*
X3457990Y6567000D3*
D17*
X3264000Y7182983D3*
D18*
X3772000Y7183017D3*
D20*
X8407500Y2617300D3*
D21*
X8915500D3*
X9423500D3*
X9931500D3*
X10439500D3*
X10947500D3*
D20*
X8407500Y1855300D3*
D21*
X8915500D3*
X9423500D3*
X9931500D3*
X10439500D3*
X10947500D3*
D20*
X4707600Y2617300D3*
D21*
X5215600D3*
X5723600D3*
X6231600D3*
X6739600D3*
X7247600D3*
D20*
X4707600Y1855300D3*
D21*
X5215600D3*
X5723600D3*
X6231600D3*
X6739600D3*
X7247600D3*
D23*
X7691983Y8152985D3*
D24*
X7691994Y7898985D3*
X7692006Y7644985D3*
X7692017Y7390985D3*
X8454017Y7391018D3*
X8454006Y7645018D3*
X8453994Y7899018D3*
X8453983Y8153018D3*
D23*
X8454000Y5867000D3*
D24*
X8200000D3*
X7946000D3*
X7692000D3*
Y5105000D3*
X7946000D3*
X8200000D3*
X8454000D3*
D20*
X2614200Y9739000D3*
D21*
Y9231000D3*
Y8723000D3*
Y8215000D3*
Y7707000D3*
Y7199000D3*
D20*
X1852200Y9739000D3*
D21*
Y9231000D3*
Y8723000D3*
Y8215000D3*
Y7707000D3*
Y7199000D3*
D20*
X2614200Y6044000D3*
D21*
Y5536000D3*
Y5028000D3*
Y4520000D3*
Y4012000D3*
Y3504000D3*
D20*
X1852200Y6044000D3*
D21*
Y5536000D3*
Y5028000D3*
Y4520000D3*
Y4012000D3*
Y3504000D3*
D23*
X5405974Y8152976D3*
D24*
X5405989Y7898976D3*
X5406004Y7644976D3*
X5406019Y7390976D3*
X6168019Y7391021D3*
X6168004Y7645021D3*
X6167989Y7899021D3*
X6167974Y8153021D3*
D23*
X3446983Y5618985D3*
D24*
X3446994Y5364985D3*
X3447006Y5110985D3*
X3447017Y4856985D3*
X4209017Y4857018D3*
X4209006Y5111018D3*
X4208994Y5365018D3*
X4208983Y5619018D3*
D20*
X14238800Y10387302D3*
D21*
X13730800Y10387290D3*
D20*
X14238784Y11149302D3*
D21*
X13730784Y11149290D3*
D20*
X2614200Y2410899D3*
D21*
X2614213Y1902899D3*
D20*
X1852200Y2410879D3*
D21*
X1852213Y1902879D3*
D20*
X13278800Y1656700D3*
D21*
Y2164700D3*
D20*
X14040800Y1656700D3*
D21*
Y2164700D3*
D20*
X2399200Y10382300D3*
D21*
X1891200D3*
D20*
X2399200Y11144300D3*
D21*
X1891200D3*
D25*
X4058000Y10983000D3*
Y1983000D3*
X12328000Y10983000D3*
Y1983000D3*
D26*
X8917983Y8541000D3*
D27*
X8918017Y7525000D3*
D26*
X8900000Y4669022D3*
D27*
X7884000Y4668978D3*
D26*
X6657991Y8521000D3*
D27*
X6658009Y7505000D3*
D26*
X5006000Y6633015D3*
D27*
X3990000Y6632985D3*
D26*
X8410000Y3162989D3*
D27*
X9426000Y3163011D3*
D26*
X10776000Y3153015D3*
D27*
X9760000Y3152985D3*
D26*
X8757991Y7071000D3*
D27*
X8758009Y6055000D3*
D26*
X6688000Y6131000D3*
D27*
Y5115000D3*
D26*
X7686000Y6643000D3*
D27*
X6670000D3*
D26*
X7028000Y4865000D3*
D27*
Y5881000D3*
D26*
X4986000Y8203000D3*
D27*
X3970000D3*
D26*
X3128000Y8941000D3*
D27*
Y7925000D3*
D26*
X4986000Y7713000D3*
D27*
X3970000D3*
D26*
X3248000Y2705000D3*
D27*
Y3721000D3*
D26*
X3008000Y3705000D3*
D27*
Y4721000D3*
D26*
X3838000Y2425000D3*
D27*
Y3441000D3*
X4534000Y3925000D3*
D28*
X4047000Y8952000D3*
D29*
X4534000Y4179000D3*
D27*
X4788000D3*
X5042000D3*
X5296000Y3925000D3*
Y4179000D3*
X5550000Y3925000D3*
X5042000D3*
X5804000D3*
X6058000Y4179000D3*
X6312000D3*
Y3925000D3*
X6566000D3*
X5804000Y4179000D3*
X6820000D3*
X7074000Y3925000D3*
Y4179000D3*
X7328000Y3925000D3*
X7582000D3*
X7836000Y4179000D3*
Y3925000D3*
X8090000Y4179000D3*
X8344000D3*
Y3925000D3*
X7328000Y4179000D3*
X8598000D3*
X8852000Y3925000D3*
Y4179000D3*
X9106000Y3925000D3*
X9360000D3*
X9106000Y4179000D3*
D28*
X4047000Y4052000D3*
X9847000D3*
Y8952000D3*
D27*
X5550000Y4179000D3*
X4788000Y3925000D3*
X6058000D3*
X6566000Y4179000D3*
X7582000D3*
X6820000Y3925000D3*
X9360000Y4179000D3*
X8090000Y3925000D3*
X8598000D3*
G04 Top Clear*
%LPC*%
D31*
X7858000Y6433000D3*
X8198000Y6793000D3*
X9208000Y8553000D3*
X4238000Y7083000D3*
X6231600Y3466600D3*
X3838000Y2833000D3*
X3498000Y3173000D3*
X3518000Y3893000D3*
X4518000Y6633013D3*
X6708000Y5453000D3*
X5098000Y4473000D3*
D32*
X6812000Y9035000D3*
X7320000D3*
X9952000Y5033000D3*
X9444000D3*
X9207995Y6037000D3*
X9208005Y5529000D3*
X4564000Y3153000D3*
X5072000D3*
X5822000Y9033000D3*
X5314000D3*
X3378007Y9909000D3*
X3377993Y10417000D3*
X3458010Y6059000D3*
X3457990Y6567000D3*
X3264000Y7182983D3*
X3772000Y7183017D3*
D33*
X8407500Y2617300D3*
X8915500D3*
X9423500D3*
X9931500D3*
X10439500D3*
X10947500D3*
X8407500Y1855300D3*
X8915500D3*
X9423500D3*
X9931500D3*
X10439500D3*
X10947500D3*
X4707600Y2617300D3*
X5215600D3*
X5723600D3*
X6231600D3*
X6739600D3*
X7247600D3*
X4707600Y1855300D3*
X5215600D3*
X5723600D3*
X6231600D3*
X6739600D3*
X7247600D3*
D34*
X7691983Y8152985D3*
X7691994Y7898985D3*
X7692006Y7644985D3*
X7692017Y7390985D3*
X8454017Y7391018D3*
X8454006Y7645018D3*
X8453994Y7899018D3*
X8453983Y8153018D3*
X8454000Y5867000D3*
X8200000D3*
X7946000D3*
X7692000D3*
Y5105000D3*
X7946000D3*
X8200000D3*
X8454000D3*
D33*
X2614200Y9739000D3*
Y9231000D3*
Y8723000D3*
Y8215000D3*
Y7707000D3*
Y7199000D3*
X1852200Y9739000D3*
Y9231000D3*
Y8723000D3*
Y8215000D3*
Y7707000D3*
Y7199000D3*
X2614200Y6044000D3*
Y5536000D3*
Y5028000D3*
Y4520000D3*
Y4012000D3*
Y3504000D3*
X1852200Y6044000D3*
Y5536000D3*
Y5028000D3*
Y4520000D3*
Y4012000D3*
Y3504000D3*
D34*
X5405974Y8152976D3*
X5405989Y7898976D3*
X5406004Y7644976D3*
X5406019Y7390976D3*
X6168019Y7391021D3*
X6168004Y7645021D3*
X6167989Y7899021D3*
X6167974Y8153021D3*
X3446983Y5618985D3*
X3446994Y5364985D3*
X3447006Y5110985D3*
X3447017Y4856985D3*
X4209017Y4857018D3*
X4209006Y5111018D3*
X4208994Y5365018D3*
X4208983Y5619018D3*
D33*
X14238800Y10387302D3*
X13730800Y10387290D3*
X14238784Y11149302D3*
X13730784Y11149290D3*
X2614200Y2410899D3*
X2614213Y1902899D3*
X1852200Y2410879D3*
X1852213Y1902879D3*
X13278800Y1656700D3*
Y2164700D3*
X14040800Y1656700D3*
Y2164700D3*
X2399200Y10382300D3*
X1891200D3*
X2399200Y11144300D3*
X1891200D3*
D15*
X4058000Y10983000D3*
Y1983000D3*
X12328000Y10983000D3*
Y1983000D3*
D35*
X8917983Y8541000D3*
D36*
X8918017Y7525000D3*
D35*
X8900000Y4669022D3*
D36*
X7884000Y4668978D3*
D35*
X6657991Y8521000D3*
D36*
X6658009Y7505000D3*
D35*
X5006000Y6633015D3*
D36*
X3990000Y6632985D3*
D35*
X8410000Y3162989D3*
D36*
X9426000Y3163011D3*
D35*
X10776000Y3153015D3*
D36*
X9760000Y3152985D3*
D35*
X8757991Y7071000D3*
D36*
X8758009Y6055000D3*
D35*
X6688000Y6131000D3*
D36*
Y5115000D3*
D35*
X7686000Y6643000D3*
D36*
X6670000D3*
D35*
X7028000Y4865000D3*
D36*
Y5881000D3*
D35*
X4986000Y8203000D3*
D36*
X3970000D3*
D35*
X3128000Y8941000D3*
D36*
Y7925000D3*
D35*
X4986000Y7713000D3*
D36*
X3970000D3*
D35*
X3248000Y2705000D3*
D36*
Y3721000D3*
D35*
X3008000Y3705000D3*
D36*
Y4721000D3*
D35*
X3838000Y2425000D3*
D36*
Y3441000D3*
D30*
X4534000Y3925000D3*
D37*
X4047000Y8952000D3*
D30*
X4534000Y4179000D3*
X4788000D3*
X5042000D3*
X5296000Y3925000D3*
Y4179000D3*
X5550000Y3925000D3*
X5042000D3*
X5804000D3*
X6058000Y4179000D3*
X6312000D3*
Y3925000D3*
X6566000D3*
X5804000Y4179000D3*
X6820000D3*
X7074000Y3925000D3*
Y4179000D3*
X7328000Y3925000D3*
X7582000D3*
X7836000Y4179000D3*
Y3925000D3*
X8090000Y4179000D3*
X8344000D3*
Y3925000D3*
X7328000Y4179000D3*
X8598000D3*
X8852000Y3925000D3*
Y4179000D3*
X9106000Y3925000D3*
X9360000D3*
X9106000Y4179000D3*
D37*
X4047000Y4052000D3*
X9847000D3*
Y8952000D3*
D30*
X5550000Y4179000D3*
X4788000Y3925000D3*
X6058000D3*
X6566000Y4179000D3*
X7582000D3*
X6820000Y3925000D3*
X9360000Y4179000D3*
X8090000Y3925000D3*
X8598000D3*
M02*
