G04 DipTrace 4.1.1.0*
G04 2 - Bottom.gbr*
%MOMM*%
G04 #@! TF.FileFunction,Copper,L2,Bot*
G04 #@! TF.Part,Single*
%ADD15C,3.0*%
%ADD30C,1.016*%
%ADD31C,0.48567*%
%ADD32C,0.9*%
%ADD33C,1.4*%
%ADD34C,1.0*%
%ADD35C,0.96533*%
%ADD36C,0.965*%
%ADD37C,2.75*%
G04 #@! TA.AperFunction,Conductor*
%ADD14C,0.3*%
G04 #@! TA.AperFunction,CopperBalancing*
%ADD16C,0.635*%
G04 #@! TA.AperFunction,ComponentPad*
%ADD17C,1.6*%
%ADD18R,1.6X1.6*%
%ADD20R,2.1X2.1*%
%ADD21C,2.1*%
%ADD23R,1.508X1.508*%
%ADD24C,1.508*%
%ADD25C,6.0*%
%ADD26C,1.524*%
%ADD27C,1.524*%
%ADD28C,6.2*%
%ADD29R,1.524X1.524*%
%FSLAX35Y35*%
G04*
G71*
G90*
G75*
G01*
G04 Bottom*
%LPD*%
X7946000Y5867000D2*
D14*
Y5861000D1*
X8078000Y5729000D1*
Y4873000D1*
X7658000D1*
Y4304000D1*
X7711000Y4251000D1*
Y4054000D1*
X7582000Y3925000D1*
X8200000Y5867000D2*
X8328000Y5739000D1*
Y4403000D1*
X8104000Y4179000D1*
X8090000D1*
X5406003Y7644977D2*
X6488000Y6562980D1*
Y4563000D1*
X5971640D1*
X5678000Y4269360D1*
Y3925000D1*
X5550000D1*
X3447007Y5110983D2*
X3848000D1*
Y6273000D1*
X5343000Y7768000D1*
X5503000D1*
X6258000Y7013000D1*
X7598000D1*
X8657000Y5954000D1*
Y5244000D1*
X9225000Y4676000D1*
Y4060000D1*
X9360000Y3925000D1*
X4534000D2*
X4538000D1*
Y3826687D1*
X4209493Y3498180D1*
X2614213Y1902900D1*
X1852200Y9739000D2*
X2614200D1*
X1852200Y6044000D2*
X2614200D1*
X2614213Y1902900D2*
D15*
X3095113Y1422000D1*
X7823830D1*
X13044100D1*
X13278800Y1656700D1*
X14040800D2*
X13278800D1*
X1852213Y1902880D2*
X2614213Y1902900D1*
X8407500Y1855300D2*
D14*
Y2617300D1*
X4707600Y1855300D2*
Y2617300D1*
X14040800Y1656700D2*
D15*
X14071700D1*
X14428000Y2013000D1*
Y10198103D1*
X14238800Y10387300D1*
X14238783Y11149300D2*
X14238800Y10387300D1*
X14238783Y11149300D2*
Y11252217D1*
X13878000Y11613000D1*
X2359900D1*
X1891200Y11144300D1*
Y10382300D2*
Y11144300D1*
Y10382300D2*
X1418000Y9909100D1*
Y2203000D1*
X1718120Y1902880D1*
X1852213D1*
X4564000Y3153000D2*
D14*
X4554673D1*
X4209493Y3498180D1*
X4564000Y3153000D2*
X4568000D1*
X4707600Y3013400D1*
Y2617300D1*
X6688000Y6131000D2*
X7556000D1*
X7858000Y6433000D1*
X8198000Y6793000D2*
X8451997D1*
X9207997Y6037000D1*
X8410000Y3162990D2*
X8297990D1*
X7823830Y2688830D1*
Y1422000D1*
X2614200Y9231000D2*
Y9407200D1*
X2800000Y9593000D1*
Y9840000D1*
X2399200Y10240800D1*
Y10382300D1*
X7692017Y7390983D2*
X8309000Y8007967D1*
Y8189000D1*
X10410000Y10290000D1*
X13633510D1*
X13730800Y10387290D1*
X1852200Y9231000D2*
X2614200D1*
X9423500Y1855300D2*
Y2617300D1*
X9426000Y3163010D2*
Y3473000D1*
X10258000D1*
Y5570990D1*
X8757990Y7071000D1*
X9931500Y1855300D2*
Y2617300D1*
X9760000Y3152987D2*
Y2976640D1*
X9696360Y2913000D1*
X8998000D1*
Y3293000D1*
X9488000Y3783000D1*
Y4653000D1*
X8758010Y5382990D1*
Y6055000D1*
X8756000D1*
X8008000Y6803000D1*
Y7199013D1*
X8454007Y7645020D1*
X10439500Y1855300D2*
Y2617300D1*
X9208000Y8553000D2*
Y7623000D1*
X10439500Y6391500D1*
Y2617300D1*
X10947500Y1855300D2*
Y2617300D1*
X1852200Y8723000D2*
X2614200D1*
X1852200Y8215000D2*
X2614200D1*
X3970000Y7713000D2*
X4518000D1*
X4828000Y8023000D1*
X5790027D1*
X6168003Y7645020D1*
X1852200Y7707000D2*
X2614200D1*
X4238000Y7083000D2*
X3614000Y7707000D1*
X2614200D1*
X1852200Y7199000D2*
X2614200D1*
X5723600Y1855300D2*
Y2617300D1*
X6688000Y5115000D2*
X6766000D1*
X7016000Y4865000D1*
X7028000D1*
X7030000D1*
X7270000Y5105000D1*
X7692000D1*
X5723600Y2617300D2*
X5732300D1*
X6948000Y3833000D1*
Y4533000D1*
X6688000Y4793000D1*
Y5115000D1*
X6231600Y1855300D2*
Y2617300D1*
X7028000Y5881000D2*
X7170000D1*
X7946000Y5105000D1*
X6231600Y3466600D2*
X6321600D1*
X6698000Y3843000D1*
Y4573000D1*
X6548000Y4723000D1*
Y6521000D1*
X6670000Y6643000D1*
X6739600Y2617300D2*
Y1855300D1*
X7247600D2*
Y2617300D1*
X1852200Y5028000D2*
X2614200D1*
X3838000Y2425000D2*
Y2833000D1*
X3498000Y3173000D2*
X3288000D1*
X2708000Y3753000D1*
X1668000D1*
Y4273000D1*
X3268000D1*
X3852020Y4857020D1*
X4209017D1*
X1852200Y4520000D2*
X2614200D1*
X3838000Y3441000D2*
Y3573000D1*
X3518000Y3893000D1*
X1852200Y4012000D2*
X2614200D1*
X4518000Y6633013D2*
Y4633000D1*
X4458000Y4573000D1*
X3908000D1*
X3347000Y4012000D1*
X2614200D1*
X1852200Y3504000D2*
X2614200D1*
D30*
X7858000Y6433000D3*
X8198000Y6793000D3*
X9208000Y8553000D3*
X4238000Y7083000D3*
X6231600Y3466600D3*
X3838000Y2833000D3*
X3498000Y3173000D3*
X3518000Y3893000D3*
X4518000Y6633013D3*
X6708000Y5453000D3*
X5098000Y4473000D3*
X1043260Y11901083D2*
D16*
X14853647D1*
X1043350Y11837917D2*
X14853510D1*
X1043443Y11774750D2*
X2210623D1*
X14027257D2*
X14853327D1*
X1043580Y11711583D2*
X2146867D1*
X14091013D2*
X14853143D1*
X1043670Y11648417D2*
X2083703D1*
X14154177D2*
X14852963D1*
X1043760Y11585250D2*
X2020540D1*
X14217340D2*
X14852827D1*
X1043897Y11522083D2*
X1957377D1*
X14280507D2*
X14852643D1*
X1043990Y11458917D2*
X1894213D1*
X14343670D2*
X14852460D1*
X1044080Y11395750D2*
X1831047D1*
X2454243D2*
X13783640D1*
X14406333D2*
X14852277D1*
X1044170Y11332583D2*
X1767883D1*
X2391080D2*
X3943763D1*
X4172250D2*
X12213790D1*
X12442230D2*
X13846803D1*
X14445480D2*
X14852097D1*
X1044307Y11269417D2*
X1708957D1*
X2327913D2*
X3824043D1*
X4291970D2*
X12094023D1*
X12561950D2*
X13909967D1*
X14460290D2*
X14851960D1*
X1044400Y11206250D2*
X1678060D1*
X2264750D2*
X3761790D1*
X4354177D2*
X12031817D1*
X12624203D2*
X13973130D1*
X14460973D2*
X14851777D1*
X1044490Y11143083D2*
X1668990D1*
X2201587D2*
X3722690D1*
X4393323D2*
X11992670D1*
X12663307D2*
X14016563D1*
X14460973D2*
X14851593D1*
X1044627Y11079917D2*
X1668990D1*
X2138423D2*
X3698853D1*
X4417113D2*
X11968880D1*
X12687140D2*
X14016607D1*
X14460973D2*
X14851413D1*
X1044717Y11016750D2*
X1668990D1*
X2113403D2*
X3687370D1*
X4428643D2*
X11957350D1*
X12698623D2*
X14016607D1*
X14460973D2*
X14851230D1*
X1044810Y10953583D2*
X1668990D1*
X2113403D2*
X3687003D1*
X4429007D2*
X11956987D1*
X12699033D2*
X14016607D1*
X14460973D2*
X14851093D1*
X1044900Y10890417D2*
X1668990D1*
X2113403D2*
X3697713D1*
X4418300D2*
X11967693D1*
X12688280D2*
X14016607D1*
X14460973D2*
X14850910D1*
X1045037Y10827250D2*
X1668990D1*
X2113403D2*
X3720593D1*
X4395377D2*
X11990617D1*
X12665400D2*
X14016607D1*
X14460973D2*
X14850730D1*
X1045127Y10764083D2*
X1668990D1*
X2113403D2*
X3758510D1*
X4357460D2*
X12028533D1*
X12627483D2*
X14016607D1*
X14460973D2*
X14850547D1*
X1045220Y10700917D2*
X1668990D1*
X2113403D2*
X3818663D1*
X4297303D2*
X12088690D1*
X12567330D2*
X14016607D1*
X14460973D2*
X14850363D1*
X1045310Y10637750D2*
X1668990D1*
X2113403D2*
X3930637D1*
X4185377D2*
X12200617D1*
X12455400D2*
X14016607D1*
X14460973D2*
X14850227D1*
X1045447Y10574583D2*
X1668990D1*
X2113403D2*
X14016607D1*
X14460973D2*
X14850047D1*
X1045537Y10511417D2*
X1668990D1*
X2113403D2*
X14016607D1*
X14461020D2*
X14849863D1*
X1045630Y10448250D2*
X1645520D1*
X2113403D2*
X14016607D1*
X14489457D2*
X14849680D1*
X1045767Y10385083D2*
X1582357D1*
X2113403D2*
X14016607D1*
X14552620D2*
X14849543D1*
X1045857Y10321917D2*
X1519193D1*
X2104790D2*
X14026723D1*
X14611137D2*
X14849360D1*
X1045947Y10258750D2*
X1456027D1*
X2074530D2*
X14059037D1*
X14641490D2*
X14849180D1*
X1046040Y10195583D2*
X1392863D1*
X2016103D2*
X14118920D1*
X14650193D2*
X14848997D1*
X1046177Y10132417D2*
X1329700D1*
X1952940D2*
X14182083D1*
X14650193D2*
X14848813D1*
X1046267Y10069250D2*
X1266537D1*
X1889777D2*
X14205780D1*
X14650193D2*
X14848677D1*
X1046360Y10006083D2*
X1218820D1*
X1826613D2*
X3262813D1*
X3493213D2*
X14205780D1*
X14650193D2*
X14848497D1*
X1046450Y9942917D2*
X1198450D1*
X1763403D2*
X3229817D1*
X3526210D2*
X14205780D1*
X14650193D2*
X14848313D1*
X1046587Y9879750D2*
X1195807D1*
X2029413D2*
X2436987D1*
X2791390D2*
X3228770D1*
X3527257D2*
X14205780D1*
X14650193D2*
X14848130D1*
X1046677Y9816583D2*
X1195807D1*
X1640220D2*
X1675007D1*
X2791390D2*
X3258803D1*
X3497180D2*
X14205780D1*
X14650193D2*
X14847950D1*
X1046770Y9753417D2*
X1195807D1*
X1640220D2*
X1675007D1*
X2791390D2*
X14205780D1*
X14650193D2*
X14847813D1*
X1046907Y9690250D2*
X1195807D1*
X1640220D2*
X1675007D1*
X2791390D2*
X14205780D1*
X14650193D2*
X14847630D1*
X1046997Y9627083D2*
X1195807D1*
X1640220D2*
X1675007D1*
X2029413D2*
X2436987D1*
X2791390D2*
X14205780D1*
X14650193D2*
X14847447D1*
X1047087Y9563917D2*
X1195807D1*
X1640220D2*
X14205780D1*
X14650193D2*
X14847267D1*
X1047180Y9500750D2*
X1195807D1*
X1640220D2*
X14205780D1*
X14650193D2*
X14847083D1*
X1047317Y9437583D2*
X1195807D1*
X1640220D2*
X14205780D1*
X14650193D2*
X14846947D1*
X1047407Y9374417D2*
X1195807D1*
X1640220D2*
X14205780D1*
X14650193D2*
X14846763D1*
X1047497Y9311250D2*
X1195807D1*
X1640220D2*
X3930183D1*
X4163820D2*
X9730200D1*
X9963793D2*
X14205780D1*
X14650193D2*
X14846580D1*
X1047633Y9248083D2*
X1195807D1*
X1640220D2*
X3809140D1*
X4284860D2*
X9609160D1*
X10084880D2*
X14205780D1*
X14650193D2*
X14846400D1*
X1047727Y9184917D2*
X1195807D1*
X1640220D2*
X3745657D1*
X4348343D2*
X9545677D1*
X10148317D2*
X14205780D1*
X14650193D2*
X14846263D1*
X1047817Y9121750D2*
X1195807D1*
X1640220D2*
X3705327D1*
X4388677D2*
X5699913D1*
X5944080D2*
X6688390D1*
X6935610D2*
X9505300D1*
X10188697D2*
X14205780D1*
X14650193D2*
X14846080D1*
X1047907Y9058583D2*
X1195807D1*
X1640220D2*
X3680213D1*
X4413787D2*
X5672070D1*
X5971923D2*
X6661730D1*
X6962270D2*
X9480233D1*
X10213760D2*
X14205780D1*
X14650193D2*
X14845897D1*
X1048043Y8995417D2*
X1195807D1*
X1640220D2*
X3667317D1*
X4426683D2*
X5674713D1*
X5969280D2*
X6665287D1*
X6958717D2*
X9467337D1*
X10226703D2*
X14205780D1*
X14650193D2*
X14845717D1*
X1048137Y8932250D2*
X1195807D1*
X1640220D2*
X3665313D1*
X4428690D2*
X5710170D1*
X5933827D2*
X6702153D1*
X6921847D2*
X9465330D1*
X10228663D2*
X14205780D1*
X14650193D2*
X14845533D1*
X1048227Y8869083D2*
X1195807D1*
X1640220D2*
X1757267D1*
X1947153D2*
X2519243D1*
X2709133D2*
X3674063D1*
X4419940D2*
X9474080D1*
X10219960D2*
X14205780D1*
X14650193D2*
X14845397D1*
X1048317Y8805917D2*
X1195807D1*
X1640220D2*
X1696470D1*
X2007947D2*
X2458450D1*
X2769927D2*
X3694343D1*
X4399660D2*
X9494360D1*
X10199633D2*
X14205780D1*
X14650193D2*
X14845213D1*
X1048453Y8742750D2*
X1195807D1*
X1640220D2*
X1676147D1*
X2790253D2*
X3728430D1*
X4365570D2*
X9528450D1*
X10165543D2*
X14205780D1*
X14650193D2*
X14845033D1*
X1048547Y8679583D2*
X1195807D1*
X1640220D2*
X1680610D1*
X2785787D2*
X3781707D1*
X4312297D2*
X8880450D1*
X8955537D2*
X9581723D1*
X10112317D2*
X14205780D1*
X14650193D2*
X14844850D1*
X1048637Y8616417D2*
X1195807D1*
X1640220D2*
X1712330D1*
X1992087D2*
X2474310D1*
X2754067D2*
X3871393D1*
X4222610D2*
X6546387D1*
X6769587D2*
X8791263D1*
X9044723D2*
X9103757D1*
X9312237D2*
X9671413D1*
X10022583D2*
X14205780D1*
X14650193D2*
X14844667D1*
X1048773Y8553250D2*
X1195807D1*
X1640220D2*
X1826490D1*
X1877927D2*
X2588517D1*
X2639907D2*
X6513300D1*
X6802673D2*
X8770117D1*
X9065870D2*
X9084980D1*
X9331013D2*
X14205780D1*
X14650193D2*
X14844530D1*
X1048863Y8490083D2*
X1195807D1*
X1640220D2*
X6512980D1*
X6802993D2*
X8779003D1*
X9056937D2*
X9103437D1*
X9312557D2*
X14205780D1*
X14650193D2*
X14844350D1*
X1048957Y8426917D2*
X1195807D1*
X1640220D2*
X6545200D1*
X6770773D2*
X8826993D1*
X9008950D2*
X9120800D1*
X9295193D2*
X14205780D1*
X14650193D2*
X14844167D1*
X1049047Y8363750D2*
X1195807D1*
X1640220D2*
X1761823D1*
X1942597D2*
X2523803D1*
X2704573D2*
X9120800D1*
X9295193D2*
X14205780D1*
X14650193D2*
X14843983D1*
X1049183Y8300583D2*
X1195807D1*
X1640220D2*
X1697973D1*
X2006397D2*
X2460000D1*
X2768423D2*
X3860410D1*
X4079557D2*
X4876413D1*
X5095557D2*
X9120800D1*
X9295193D2*
X14205780D1*
X14650193D2*
X14843803D1*
X1049277Y8237417D2*
X1195807D1*
X1640220D2*
X1676463D1*
X2789933D2*
X3825820D1*
X4114143D2*
X4841823D1*
X5130147D2*
X5258360D1*
X5553567D2*
X6048367D1*
X6287610D2*
X7544387D1*
X7839593D2*
X8334350D1*
X8573590D2*
X9120800D1*
X9295193D2*
X14205780D1*
X14650193D2*
X14843663D1*
X1049367Y8174250D2*
X1195807D1*
X1640220D2*
X1679927D1*
X2786470D2*
X3824543D1*
X4115467D2*
X4840547D1*
X5131470D2*
X5258360D1*
X5553567D2*
X6021980D1*
X6313950D2*
X7544387D1*
X7839593D2*
X8308007D1*
X8599977D2*
X9120800D1*
X9295193D2*
X14205780D1*
X14650193D2*
X14843483D1*
X1049503Y8111083D2*
X1195807D1*
X1640220D2*
X1710233D1*
X1994183D2*
X2472260D1*
X2756163D2*
X3855350D1*
X4084660D2*
X4871353D1*
X5100663D2*
X5258360D1*
X5553567D2*
X6026763D1*
X6309210D2*
X7544387D1*
X7839593D2*
X8312747D1*
X8595193D2*
X9120800D1*
X9295193D2*
X14205780D1*
X14650193D2*
X14843300D1*
X1049593Y8047917D2*
X1195807D1*
X1640220D2*
X1810177D1*
X1894243D2*
X2572153D1*
X2656223D2*
X3050443D1*
X3205557D2*
X4732220D1*
X5885793D2*
X6067277D1*
X6268697D2*
X7544387D1*
X7839593D2*
X8353260D1*
X8554680D2*
X9120800D1*
X9295193D2*
X14205780D1*
X14650193D2*
X14843117D1*
X1049687Y7984750D2*
X1195807D1*
X1640220D2*
X2992793D1*
X3263207D2*
X4669057D1*
X5948957D2*
X6049367D1*
X6286607D2*
X7573417D1*
X7810563D2*
X8335397D1*
X8572590D2*
X9120800D1*
X9295193D2*
X14205780D1*
X14650193D2*
X14842980D1*
X1049777Y7921583D2*
X1195807D1*
X1640220D2*
X2979623D1*
X3276377D2*
X4605890D1*
X4847277D2*
X5260227D1*
X5551787D2*
X5770737D1*
X6313767D2*
X7546210D1*
X7837770D2*
X8308190D1*
X8599797D2*
X9120800D1*
X9295193D2*
X14205780D1*
X14650193D2*
X14842800D1*
X1049913Y7858417D2*
X1195807D1*
X1640220D2*
X1766700D1*
X1937673D2*
X2528723D1*
X2699697D2*
X2996163D1*
X3259837D2*
X4542727D1*
X4784113D2*
X5264330D1*
X5547640D2*
X5833900D1*
X6309620D2*
X7550357D1*
X7833623D2*
X8312337D1*
X8595650D2*
X9120800D1*
X9295193D2*
X14205780D1*
X14650193D2*
X14842617D1*
X1050003Y7795250D2*
X1195807D1*
X1640220D2*
X1699570D1*
X2004847D2*
X2461550D1*
X2766827D2*
X3063840D1*
X3192160D2*
X3847830D1*
X4092180D2*
X4479563D1*
X4720947D2*
X4863833D1*
X5108180D2*
X5249563D1*
X5596450D2*
X5897063D1*
X6270153D2*
X7589777D1*
X7794203D2*
X8351803D1*
X8556183D2*
X9120800D1*
X9295193D2*
X14205780D1*
X14650193D2*
X14842433D1*
X1050097Y7732083D2*
X1195807D1*
X1640220D2*
X1676830D1*
X3709593D2*
X3822903D1*
X4657783D2*
X4838907D1*
X5133110D2*
X5186400D1*
X5659613D2*
X5960273D1*
X6285603D2*
X7574467D1*
X7809560D2*
X8336443D1*
X8571587D2*
X9120800D1*
X9295193D2*
X14205780D1*
X14650193D2*
X14842253D1*
X1050187Y7668917D2*
X1195807D1*
X1640220D2*
X1679290D1*
X3772757D2*
X3828600D1*
X4594620D2*
X4844603D1*
X5722777D2*
X6022433D1*
X6313587D2*
X7546440D1*
X7837543D2*
X8308463D1*
X8599567D2*
X9120800D1*
X9295193D2*
X14205780D1*
X14650193D2*
X14842117D1*
X1050323Y7605750D2*
X1195807D1*
X1640220D2*
X1708230D1*
X1996143D2*
X2470253D1*
X2758170D2*
X3594583D1*
X3835923D2*
X3870527D1*
X4069483D2*
X4886530D1*
X5785943D2*
X6025990D1*
X6310030D2*
X6551537D1*
X6764483D2*
X7549947D1*
X7834033D2*
X8294063D1*
X8596060D2*
X8794817D1*
X9041217D2*
X9122670D1*
X9345960D2*
X14205780D1*
X14650193D2*
X14841933D1*
X1050413Y7542583D2*
X1195807D1*
X1640220D2*
X1799420D1*
X1904997D2*
X2561400D1*
X2666977D2*
X3657747D1*
X3899087D2*
X4996907D1*
X5238293D2*
X5302337D1*
X5849107D2*
X6064407D1*
X6271613D2*
X6514667D1*
X6801353D2*
X7588367D1*
X7795663D2*
X8230897D1*
X8557597D2*
X8770710D1*
X9065323D2*
X9167740D1*
X9409127D2*
X14205780D1*
X14650193D2*
X14841750D1*
X1050507Y7479417D2*
X1195807D1*
X1640220D2*
X3720910D1*
X3962250D2*
X4933743D1*
X5175127D2*
X5450860D1*
X5912270D2*
X6051510D1*
X6284557D2*
X6511933D1*
X6804087D2*
X8167733D1*
X8570537D2*
X8777137D1*
X9058897D2*
X9230903D1*
X9472290D2*
X14205780D1*
X14650193D2*
X14841570D1*
X1050643Y7416250D2*
X1195807D1*
X1640220D2*
X3784077D1*
X4025460D2*
X4870580D1*
X5111920D2*
X5514023D1*
X5975433D2*
X6022707D1*
X6313357D2*
X6540737D1*
X6775283D2*
X8104570D1*
X8599340D2*
X8820293D1*
X9015740D2*
X9294070D1*
X9535453D2*
X14205780D1*
X14650193D2*
X14841387D1*
X1050733Y7353083D2*
X1195807D1*
X1640220D2*
X1772030D1*
X1932340D2*
X2534057D1*
X2694367D2*
X3847240D1*
X4088623D2*
X4807413D1*
X5048753D2*
X5577187D1*
X6310440D2*
X8041360D1*
X8282747D2*
X8311607D1*
X8596423D2*
X9357233D1*
X9598617D2*
X14205780D1*
X14650193D2*
X14841250D1*
X1050823Y7289917D2*
X1195807D1*
X1640220D2*
X1701210D1*
X2003207D2*
X2463190D1*
X2765187D2*
X3158450D1*
X3369530D2*
X3910403D1*
X4151787D2*
X4744207D1*
X4985590D2*
X5640350D1*
X6273027D2*
X7978197D1*
X8219580D2*
X8349023D1*
X8559007D2*
X9420397D1*
X9661780D2*
X14205780D1*
X14650193D2*
X14841067D1*
X1050917Y7226750D2*
X1195807D1*
X1640220D2*
X1677283D1*
X2789113D2*
X3118527D1*
X3409497D2*
X3973567D1*
X4214953D2*
X4681040D1*
X4922427D2*
X5703560D1*
X6164927D2*
X7925697D1*
X8156417D2*
X9483560D1*
X9724947D2*
X14205780D1*
X14650193D2*
X14840887D1*
X1051053Y7163583D2*
X1195807D1*
X1640220D2*
X1678697D1*
X2787700D2*
X3113107D1*
X3414920D2*
X4036730D1*
X4328703D2*
X4617877D1*
X4859263D2*
X5766723D1*
X6228090D2*
X7920820D1*
X8095213D2*
X8643927D1*
X8872093D2*
X9546723D1*
X9788110D2*
X14205780D1*
X14650193D2*
X14840703D1*
X1051143Y7100417D2*
X1195807D1*
X1640220D2*
X1706313D1*
X1998103D2*
X2468293D1*
X2760083D2*
X3137440D1*
X3390583D2*
X4099897D1*
X4359693D2*
X4554713D1*
X4796097D2*
X5829890D1*
X6291253D2*
X7920820D1*
X8095213D2*
X8612663D1*
X8903310D2*
X9609890D1*
X9851273D2*
X14205780D1*
X14650193D2*
X14840520D1*
X1051233Y7037250D2*
X1195807D1*
X1640220D2*
X1790853D1*
X1913567D2*
X2552830D1*
X2675543D2*
X3251830D1*
X3276173D2*
X4124367D1*
X4351670D2*
X4491550D1*
X4732933D2*
X5893053D1*
X7694443D2*
X7920820D1*
X8095213D2*
X8613663D1*
X8912427D2*
X9673053D1*
X9914437D2*
X14205780D1*
X14650193D2*
X14840383D1*
X1051327Y6974083D2*
X1195807D1*
X1640220D2*
X4189903D1*
X4286137D2*
X4428387D1*
X4669770D2*
X5956217D1*
X7757610D2*
X7920820D1*
X8095213D2*
X8647800D1*
X8975590D2*
X9736217D1*
X9977603D2*
X14205780D1*
X14650193D2*
X14840200D1*
X1051463Y6910917D2*
X1195807D1*
X1640220D2*
X4365220D1*
X4606607D2*
X6019380D1*
X6260767D2*
X7579387D1*
X7820773D2*
X7920820D1*
X8095213D2*
X8797370D1*
X9038753D2*
X9799380D1*
X10040767D2*
X14205780D1*
X14650193D2*
X14840020D1*
X1051553Y6847750D2*
X1195807D1*
X1640220D2*
X4302057D1*
X4543443D2*
X6082547D1*
X6323930D2*
X7642553D1*
X7883937D2*
X7920820D1*
X8517947D2*
X8860533D1*
X9101920D2*
X9862547D1*
X10103930D2*
X14205780D1*
X14650193D2*
X14839837D1*
X1051643Y6784583D2*
X1195807D1*
X1640220D2*
X4238893D1*
X4480277D2*
X6145710D1*
X6387093D2*
X6652160D1*
X6687877D2*
X7705717D1*
X8581110D2*
X8923697D1*
X9165083D2*
X9925710D1*
X10167093D2*
X14205780D1*
X14650193D2*
X14839700D1*
X1051780Y6721417D2*
X1195807D1*
X1640220D2*
X3872487D1*
X4107537D2*
X4175730D1*
X4600453D2*
X4888443D1*
X5123540D2*
X6208873D1*
X6450257D2*
X6545200D1*
X6794790D2*
X7768880D1*
X8644277D2*
X8986860D1*
X9228247D2*
X9988873D1*
X10230257D2*
X14205780D1*
X14650193D2*
X14839517D1*
X1051873Y6658250D2*
X1195807D1*
X1640220D2*
X3843867D1*
X4353950D2*
X4397760D1*
X4638233D2*
X4859870D1*
X5152160D2*
X6272037D1*
X6817577D2*
X7832043D1*
X8273447D2*
X8466053D1*
X8707440D2*
X9050070D1*
X9291410D2*
X10052083D1*
X10293423D2*
X14205780D1*
X14650193D2*
X14839337D1*
X1051963Y6595083D2*
X1195807D1*
X1640220D2*
X3846737D1*
X4290787D2*
X4401360D1*
X4634680D2*
X4862740D1*
X5149243D2*
X6335200D1*
X6810057D2*
X7895207D1*
X8336613D2*
X8529220D1*
X8770603D2*
X9113237D1*
X9354573D2*
X10115247D1*
X10356587D2*
X14205780D1*
X14650193D2*
X14839153D1*
X1052057Y6531917D2*
X1195807D1*
X1640220D2*
X3883833D1*
X4227620D2*
X4430800D1*
X4605193D2*
X4899883D1*
X5112147D2*
X6398367D1*
X6764893D2*
X7789843D1*
X7926183D2*
X7958373D1*
X8399777D2*
X8592383D1*
X8833767D2*
X9176400D1*
X9417783D2*
X10178410D1*
X10419750D2*
X14205780D1*
X14650193D2*
X14838970D1*
X1052193Y6468750D2*
X1195807D1*
X1640220D2*
X3923073D1*
X4164457D2*
X4430800D1*
X4605193D2*
X6400780D1*
X6635193D2*
X7740623D1*
X7975400D2*
X8021580D1*
X8462940D2*
X8655547D1*
X8896930D2*
X9239563D1*
X9480947D2*
X10241577D1*
X10482960D2*
X14205780D1*
X14650193D2*
X14838833D1*
X1052283Y6405583D2*
X1195807D1*
X1640220D2*
X3859910D1*
X4101293D2*
X4430800D1*
X4605193D2*
X4760247D1*
X6333727D2*
X6400780D1*
X6635193D2*
X7709910D1*
X7977727D2*
X8084747D1*
X8526103D2*
X8718710D1*
X8960097D2*
X9302727D1*
X9544113D2*
X10304740D1*
X10525480D2*
X14205780D1*
X14650193D2*
X14838653D1*
X1052373Y6342417D2*
X1195807D1*
X1640220D2*
X3796743D1*
X4038083D2*
X4430800D1*
X4605193D2*
X4690567D1*
X6635193D2*
X7646743D1*
X7937850D2*
X8147910D1*
X8589270D2*
X8781873D1*
X9023260D2*
X9365890D1*
X9607277D2*
X10352317D1*
X10526710D2*
X14205780D1*
X14650193D2*
X14838470D1*
X1052510Y6279250D2*
X1195807D1*
X1640220D2*
X3761060D1*
X3974920D2*
X4430800D1*
X4605193D2*
X4682683D1*
X6635193D2*
X7583580D1*
X7824920D2*
X8211073D1*
X8652433D2*
X8845040D1*
X9086423D2*
X9429057D1*
X9670440D2*
X10352317D1*
X10526710D2*
X14205780D1*
X14650193D2*
X14838287D1*
X1052603Y6216083D2*
X1195807D1*
X1640220D2*
X3760787D1*
X3935180D2*
X4430800D1*
X4605193D2*
X4682683D1*
X6808097D2*
X7520417D1*
X7761757D2*
X8274237D1*
X8715597D2*
X8908203D1*
X9149587D2*
X9492220D1*
X9733603D2*
X10352317D1*
X10526710D2*
X14205780D1*
X14650193D2*
X14838107D1*
X1052693Y6152917D2*
X1195807D1*
X1640220D2*
X1675007D1*
X2029413D2*
X2436987D1*
X2791390D2*
X3340057D1*
X3575930D2*
X3760787D1*
X3935180D2*
X4430800D1*
X4605193D2*
X4682683D1*
X7698590D2*
X8337403D1*
X8867263D2*
X8971367D1*
X9302850D2*
X9555383D1*
X9796770D2*
X10352317D1*
X10526710D2*
X14205780D1*
X14650193D2*
X14837970D1*
X1052783Y6089750D2*
X1195807D1*
X1640220D2*
X1675007D1*
X2791390D2*
X3309070D1*
X3606920D2*
X3760787D1*
X3935180D2*
X4430800D1*
X4605193D2*
X4682683D1*
X7635427D2*
X8400567D1*
X8902080D2*
X9034577D1*
X9350337D2*
X9618547D1*
X9859933D2*
X10352317D1*
X10526710D2*
X14205780D1*
X14650193D2*
X14837787D1*
X1052920Y6026583D2*
X1195807D1*
X1640220D2*
X1675007D1*
X2791390D2*
X3309480D1*
X3606553D2*
X3760787D1*
X3935180D2*
X4430800D1*
X4605193D2*
X4682683D1*
X6790643D2*
X8463730D1*
X8903540D2*
X9056177D1*
X9359817D2*
X9681713D1*
X9923097D2*
X10352317D1*
X10526710D2*
X14205780D1*
X14650193D2*
X14837603D1*
X1053013Y5963417D2*
X1195807D1*
X1640220D2*
X1675007D1*
X2791390D2*
X3341517D1*
X3574517D2*
X3760787D1*
X3935180D2*
X4430800D1*
X4605193D2*
X4682683D1*
X6635193D2*
X6905957D1*
X7150030D2*
X7836420D1*
X8055563D2*
X8090443D1*
X8872960D2*
X9075730D1*
X9340263D2*
X9744877D1*
X9986260D2*
X10352317D1*
X10526710D2*
X14205780D1*
X14650193D2*
X14837420D1*
X1053103Y5900250D2*
X1195807D1*
X1640220D2*
X1675007D1*
X2029413D2*
X2436987D1*
X2791390D2*
X3760787D1*
X3935180D2*
X4430800D1*
X4605193D2*
X4682683D1*
X6635193D2*
X6880890D1*
X7271437D2*
X7802377D1*
X8845207D2*
X9150923D1*
X9265070D2*
X9808040D1*
X10049423D2*
X10352317D1*
X10526710D2*
X14205780D1*
X14650193D2*
X14837240D1*
X1053193Y5837083D2*
X1195807D1*
X1640220D2*
X3760787D1*
X3935180D2*
X4430800D1*
X4605193D2*
X4682683D1*
X6635193D2*
X6886543D1*
X7334600D2*
X7801600D1*
X8845207D2*
X9871203D1*
X10112590D2*
X10352317D1*
X10526710D2*
X14205780D1*
X14650193D2*
X14837103D1*
X1053330Y5773917D2*
X1195807D1*
X1640220D2*
X3760787D1*
X3935180D2*
X4430800D1*
X4605193D2*
X4682683D1*
X6635193D2*
X6928333D1*
X7127700D2*
X7156380D1*
X7397763D2*
X7833410D1*
X8845207D2*
X9934367D1*
X10175753D2*
X10352317D1*
X10526710D2*
X14205780D1*
X14650193D2*
X14836920D1*
X1053423Y5710750D2*
X1195807D1*
X1640220D2*
X3299360D1*
X3594567D2*
X3760787D1*
X3935180D2*
X4095200D1*
X4322733D2*
X4430800D1*
X4605193D2*
X4682683D1*
X6635193D2*
X7219543D1*
X7460930D2*
X7975553D1*
X8165213D2*
X8235547D1*
X8415180D2*
X8569777D1*
X8845207D2*
X9997533D1*
X10238917D2*
X10352317D1*
X10526710D2*
X14205780D1*
X14650193D2*
X14836737D1*
X1053513Y5647583D2*
X1195807D1*
X1640220D2*
X3299360D1*
X3594567D2*
X3760787D1*
X3935180D2*
X4064303D1*
X4353677D2*
X4430800D1*
X4605193D2*
X4682683D1*
X6635193D2*
X7282707D1*
X7524093D2*
X7990820D1*
X8165213D2*
X8240787D1*
X8415180D2*
X8569777D1*
X8845207D2*
X10060697D1*
X10302080D2*
X10352317D1*
X10526710D2*
X14205780D1*
X14650193D2*
X14836557D1*
X1053650Y5584417D2*
X1195807D1*
X1640220D2*
X3299360D1*
X3594567D2*
X3760787D1*
X3935180D2*
X4065670D1*
X4352263D2*
X4430800D1*
X4605193D2*
X4682683D1*
X6635193D2*
X7345873D1*
X7587257D2*
X7990820D1*
X8165213D2*
X8240787D1*
X8415180D2*
X8569777D1*
X8845207D2*
X10123907D1*
X10526710D2*
X14205780D1*
X14650193D2*
X14836420D1*
X1053740Y5521250D2*
X1195807D1*
X1640220D2*
X3299360D1*
X3594567D2*
X3760787D1*
X3935180D2*
X4100670D1*
X4317263D2*
X4430800D1*
X4605193D2*
X4682683D1*
X6635193D2*
X7409080D1*
X7650420D2*
X7990820D1*
X8165213D2*
X8240787D1*
X8415180D2*
X8569777D1*
X8845207D2*
X10170800D1*
X10526710D2*
X14205780D1*
X14650193D2*
X14836237D1*
X1053833Y5458083D2*
X1195807D1*
X1640220D2*
X3334407D1*
X3559567D2*
X3760787D1*
X3935180D2*
X4096387D1*
X4321593D2*
X4430800D1*
X4605193D2*
X4682683D1*
X6635193D2*
X7472247D1*
X7713587D2*
X7990820D1*
X8165213D2*
X8240787D1*
X8415180D2*
X8569777D1*
X8845207D2*
X10170800D1*
X10526710D2*
X14205780D1*
X14650193D2*
X14836053D1*
X1053923Y5394917D2*
X1195807D1*
X1640220D2*
X3302597D1*
X3591377D2*
X3760787D1*
X3935180D2*
X4064577D1*
X4353403D2*
X4430800D1*
X4605193D2*
X4682683D1*
X6635193D2*
X7535410D1*
X7776793D2*
X7990820D1*
X8165213D2*
X8240787D1*
X8415180D2*
X8569777D1*
X8866763D2*
X10170800D1*
X10526710D2*
X14205780D1*
X14650193D2*
X14835873D1*
X1054060Y5331750D2*
X1195807D1*
X1640220D2*
X3303373D1*
X3590650D2*
X3760787D1*
X3935180D2*
X4065350D1*
X4352627D2*
X4430800D1*
X4605193D2*
X4682683D1*
X6635193D2*
X7598573D1*
X7839960D2*
X7990820D1*
X8165213D2*
X8240787D1*
X8415180D2*
X8569777D1*
X8929927D2*
X10170800D1*
X10526710D2*
X14205780D1*
X14650193D2*
X14835690D1*
X1054150Y5268583D2*
X1195807D1*
X1640220D2*
X3337413D1*
X3556607D2*
X3760787D1*
X3935180D2*
X4099440D1*
X4318540D2*
X4430800D1*
X4605193D2*
X4682683D1*
X6635193D2*
X7661737D1*
X7903123D2*
X7990820D1*
X8165213D2*
X8240787D1*
X8415180D2*
X8569777D1*
X8993090D2*
X10170800D1*
X10526710D2*
X14205780D1*
X14650193D2*
X14835553D1*
X1054243Y5205417D2*
X1195807D1*
X1640220D2*
X3335593D1*
X3558383D2*
X3760787D1*
X3935180D2*
X4097570D1*
X4320407D2*
X4430800D1*
X4605193D2*
X4682683D1*
X6803903D2*
X7586313D1*
X8559693D2*
X8579623D1*
X9056253D2*
X10170800D1*
X10526710D2*
X14205780D1*
X14650193D2*
X14835370D1*
X1054380Y5142250D2*
X1195807D1*
X1640220D2*
X1718803D1*
X1985570D2*
X2480827D1*
X2747597D2*
X3302917D1*
X3935180D2*
X4064897D1*
X4353130D2*
X4430800D1*
X4605193D2*
X4682683D1*
X6859457D2*
X7186550D1*
X8596607D2*
X8638047D1*
X9119420D2*
X9849010D1*
X10054983D2*
X10170800D1*
X10526710D2*
X14205780D1*
X14650193D2*
X14835190D1*
X1054470Y5079083D2*
X1195807D1*
X1640220D2*
X1682800D1*
X2783597D2*
X3303053D1*
X3928663D2*
X4065077D1*
X4352947D2*
X4430800D1*
X4605193D2*
X4682683D1*
X6922620D2*
X7123387D1*
X8599203D2*
X8701210D1*
X9182627D2*
X9807267D1*
X10096730D2*
X10170800D1*
X10526710D2*
X14205780D1*
X14650193D2*
X14835007D1*
X1054560Y5015917D2*
X1195807D1*
X1640220D2*
X1675417D1*
X2790980D2*
X3336183D1*
X3557837D2*
X4098210D1*
X4319817D2*
X4430800D1*
X4605193D2*
X4682683D1*
X6985787D2*
X7060220D1*
X7301607D2*
X7576017D1*
X7807967D2*
X7830040D1*
X8569947D2*
X8764373D1*
X9245793D2*
X9800793D1*
X10103200D2*
X10170800D1*
X10526710D2*
X14205780D1*
X14650193D2*
X14834823D1*
X1054653Y4952750D2*
X1195807D1*
X1640220D2*
X1692460D1*
X2773937D2*
X4098803D1*
X4319223D2*
X4430800D1*
X4605193D2*
X4682683D1*
X6775193D2*
X6807563D1*
X7238443D2*
X7638360D1*
X8165213D2*
X8240787D1*
X8415180D2*
X8827540D1*
X9308957D2*
X9823853D1*
X10080140D2*
X10170800D1*
X10526710D2*
X14205780D1*
X14650193D2*
X14834687D1*
X1054790Y4889583D2*
X1195807D1*
X1640220D2*
X1745690D1*
X1958683D2*
X2507713D1*
X2720707D2*
X3763887D1*
X4352810D2*
X4430800D1*
X4605193D2*
X4682683D1*
X6775193D2*
X6870730D1*
X7175277D2*
X7572507D1*
X8165213D2*
X8240787D1*
X8415180D2*
X8890747D1*
X9372120D2*
X9919100D1*
X9984893D2*
X10170800D1*
X10526710D2*
X14205780D1*
X14650193D2*
X14834503D1*
X1054880Y4826417D2*
X1195807D1*
X1640220D2*
X2906433D1*
X3109580D2*
X3700723D1*
X4353267D2*
X4430800D1*
X4605193D2*
X4682683D1*
X6775283D2*
X6884947D1*
X7171040D2*
X7570820D1*
X8150447D2*
X8240787D1*
X8415180D2*
X8953913D1*
X9435283D2*
X10170800D1*
X10526710D2*
X14205780D1*
X14650193D2*
X14834323D1*
X1054973Y4763250D2*
X1195807D1*
X1640220D2*
X2866010D1*
X3149960D2*
X3637557D1*
X3878943D2*
X4097023D1*
X4321000D2*
X4430800D1*
X4605193D2*
X4689883D1*
X6838447D2*
X6922547D1*
X7133487D2*
X7570820D1*
X7745213D2*
X7771387D1*
X7996593D2*
X8240787D1*
X8415180D2*
X8787343D1*
X9498447D2*
X10170800D1*
X10526710D2*
X14205780D1*
X14650193D2*
X14834140D1*
X1055063Y4700083D2*
X1195807D1*
X1640220D2*
X2861133D1*
X3154837D2*
X3574393D1*
X3815780D2*
X4430800D1*
X4605193D2*
X4755053D1*
X6338923D2*
X6400780D1*
X6901613D2*
X7570820D1*
X8028950D2*
X8240787D1*
X8415180D2*
X8755033D1*
X9044953D2*
X9080240D1*
X9560063D2*
X10170800D1*
X10526710D2*
X14205780D1*
X14650193D2*
X14833957D1*
X1055200Y4636917D2*
X1195807D1*
X1640220D2*
X1721263D1*
X1983110D2*
X2483287D1*
X2745133D2*
X2887153D1*
X3128860D2*
X3511230D1*
X3752613D2*
X3852117D1*
X4605193D2*
X5932520D1*
X6964777D2*
X7570820D1*
X8028723D2*
X8240787D1*
X8415180D2*
X8755260D1*
X9044723D2*
X9137800D1*
X9312193D2*
X9383390D1*
X9575193D2*
X10170800D1*
X10526710D2*
X14205780D1*
X14650193D2*
X14833820D1*
X1055290Y4573750D2*
X1195807D1*
X1640220D2*
X1683663D1*
X2782733D2*
X3448067D1*
X3689450D2*
X3788040D1*
X4579443D2*
X5861700D1*
X7024157D2*
X7570820D1*
X7745213D2*
X7772253D1*
X7995773D2*
X8240787D1*
X8415180D2*
X8788300D1*
X9011730D2*
X9137800D1*
X9312193D2*
X9400800D1*
X9575193D2*
X10170800D1*
X10526710D2*
X14205780D1*
X14650193D2*
X14833640D1*
X1055383Y4510583D2*
X1195807D1*
X1640220D2*
X1675280D1*
X2791117D2*
X3384903D1*
X3626287D2*
X3724877D1*
X4515733D2*
X5798533D1*
X6555897D2*
X6610780D1*
X6785220D2*
X6849720D1*
X7035187D2*
X7570820D1*
X7745213D2*
X8240787D1*
X8415180D2*
X9137800D1*
X9312193D2*
X9400800D1*
X9575193D2*
X10170800D1*
X10526710D2*
X14205780D1*
X14650193D2*
X14833457D1*
X1055520Y4447417D2*
X1195807D1*
X1640220D2*
X1691183D1*
X2775213D2*
X3321737D1*
X3563123D2*
X3661713D1*
X3903097D2*
X5735370D1*
X5976757D2*
X6610780D1*
X6785220D2*
X6860793D1*
X7035187D2*
X7570820D1*
X7745213D2*
X8240787D1*
X8415180D2*
X9137800D1*
X9312193D2*
X9400800D1*
X9575193D2*
X10170800D1*
X10526710D2*
X14205780D1*
X14650193D2*
X14833273D1*
X1055610Y4384250D2*
X1195807D1*
X1640220D2*
X1742090D1*
X1962283D2*
X2504113D1*
X2724307D2*
X3258573D1*
X3499960D2*
X3598547D1*
X3839933D2*
X3864920D1*
X4229080D2*
X5672207D1*
X5913590D2*
X6610780D1*
X6785220D2*
X6860793D1*
X7035187D2*
X7570820D1*
X7745213D2*
X8188560D1*
X8412993D2*
X9137800D1*
X9312193D2*
X9400800D1*
X9575193D2*
X9664940D1*
X10029053D2*
X10170800D1*
X10526710D2*
X14205780D1*
X14650193D2*
X14833137D1*
X1055700Y4321083D2*
X1195807D1*
X3436793D2*
X3535383D1*
X4315760D2*
X5609497D1*
X5850427D2*
X6610780D1*
X6785220D2*
X6860793D1*
X7035187D2*
X7570820D1*
X7761620D2*
X8125397D1*
X8366780D2*
X9137800D1*
X9312193D2*
X9400800D1*
X10115780D2*
X10170800D1*
X10526710D2*
X14205780D1*
X14650193D2*
X14832957D1*
X1055793Y4257917D2*
X1195807D1*
X3373587D2*
X3472220D1*
X10526710D2*
X14205780D1*
X14650193D2*
X14832773D1*
X1055930Y4194750D2*
X1195807D1*
X3294697D2*
X3409057D1*
X3650440D2*
X3692973D1*
X10526710D2*
X14205780D1*
X14650193D2*
X14832590D1*
X1056020Y4131583D2*
X1195807D1*
X1980557D2*
X2485840D1*
X2742583D2*
X3345890D1*
X3587277D2*
X3673333D1*
X10526710D2*
X14205780D1*
X14650193D2*
X14832410D1*
X1056110Y4068417D2*
X1195807D1*
X3524113D2*
X3665177D1*
X4883507D2*
X4946503D1*
X5137530D2*
X5200480D1*
X5391507D2*
X5454503D1*
X5899510D2*
X5962507D1*
X6153487D2*
X6216483D1*
X6407510D2*
X6470507D1*
X7169490D2*
X7232487D1*
X7423513D2*
X7486510D1*
X7931513D2*
X7994510D1*
X8185493D2*
X8248490D1*
X8439517D2*
X8502513D1*
X8693493D2*
X8756490D1*
X8947517D2*
X9010470D1*
X10526710D2*
X14205780D1*
X14650193D2*
X14832273D1*
X1056203Y4005250D2*
X1195807D1*
X3556103D2*
X3667727D1*
X4911580D2*
X5172453D1*
X10526710D2*
X14205780D1*
X14650193D2*
X14832090D1*
X1056340Y3942083D2*
X1195807D1*
X3630160D2*
X3681217D1*
X4935370D2*
X5148620D1*
X10526710D2*
X14205780D1*
X14650193D2*
X14831907D1*
X1056430Y3878917D2*
X1195807D1*
X1965700D2*
X2500697D1*
X2727680D2*
X3395840D1*
X3652763D2*
X3707010D1*
X4928717D2*
X5155273D1*
X10526710D2*
X14205780D1*
X14650193D2*
X14831723D1*
X1056520Y3815750D2*
X1195807D1*
X2765323D2*
X3135800D1*
X3360187D2*
X3424230D1*
X3715930D2*
X3748347D1*
X4345657D2*
X4406373D1*
X4631123D2*
X4690840D1*
X4885147D2*
X5198840D1*
X5393150D2*
X5452863D1*
X5647127D2*
X5706843D1*
X5901150D2*
X5960867D1*
X6155127D2*
X6214843D1*
X6409150D2*
X6468867D1*
X7171130D2*
X7230847D1*
X7425153D2*
X7484870D1*
X7679133D2*
X7738847D1*
X7933157D2*
X7992870D1*
X8187133D2*
X8246850D1*
X8441157D2*
X8500873D1*
X8695133D2*
X8754850D1*
X8949157D2*
X9008873D1*
X9203137D2*
X9262850D1*
X10145673D2*
X10170800D1*
X10526710D2*
X14205780D1*
X14650193D2*
X14831543D1*
X1056657Y3752583D2*
X1195807D1*
X2829127D2*
X3103170D1*
X3392863D2*
X3537707D1*
X3779093D2*
X3813470D1*
X4280530D2*
X4343210D1*
X4584593D2*
X6486913D1*
X6988293D2*
X9336907D1*
X9569270D2*
X9613443D1*
X10080550D2*
X10170800D1*
X10526710D2*
X14205780D1*
X14650193D2*
X14831407D1*
X1056750Y3689417D2*
X1195807D1*
X2892290D2*
X3103170D1*
X3392863D2*
X3600873D1*
X3842257D2*
X3941667D1*
X4152337D2*
X4280047D1*
X4521430D2*
X6423750D1*
X6925127D2*
X9273743D1*
X9515127D2*
X9741687D1*
X9952310D2*
X10170800D1*
X10526710D2*
X14205780D1*
X14650193D2*
X14831223D1*
X1056840Y3626250D2*
X1195807D1*
X1640220D2*
X1726503D1*
X1977913D2*
X2488483D1*
X2955453D2*
X3135800D1*
X3360187D2*
X3664080D1*
X3905193D2*
X4216880D1*
X4458267D2*
X6360540D1*
X6861920D2*
X9210580D1*
X9451920D2*
X10170800D1*
X10526710D2*
X14205780D1*
X14650193D2*
X14831040D1*
X1056930Y3563083D2*
X1195807D1*
X1640220D2*
X1685533D1*
X3018617D2*
X3727247D1*
X3925200D2*
X4153717D1*
X4395103D2*
X6159700D1*
X6798753D2*
X9147413D1*
X9388753D2*
X10170800D1*
X10526710D2*
X14205780D1*
X14650193D2*
X14830860D1*
X1057067Y3499917D2*
X1195807D1*
X1640220D2*
X1675053D1*
X2791347D2*
X2840397D1*
X3081780D2*
X3702410D1*
X3973597D2*
X4090553D1*
X4331937D2*
X6113443D1*
X6735590D2*
X9084207D1*
X10526710D2*
X14205780D1*
X14650193D2*
X14830677D1*
X1057160Y3436750D2*
X1195807D1*
X1640220D2*
X1688813D1*
X2777627D2*
X2903560D1*
X3144947D2*
X3689647D1*
X3986360D2*
X4027390D1*
X4391593D2*
X6112487D1*
X6672427D2*
X9021040D1*
X9262427D2*
X9338820D1*
X10526710D2*
X14205780D1*
X14650193D2*
X14830540D1*
X1057250Y3373583D2*
X1195807D1*
X1640220D2*
X1735480D1*
X1968937D2*
X2497460D1*
X2730917D2*
X2966723D1*
X3208110D2*
X3706600D1*
X4454757D2*
X6154870D1*
X6308343D2*
X6367877D1*
X6609263D2*
X8957877D1*
X9199263D2*
X9338820D1*
X9513213D2*
X10352317D1*
X10526710D2*
X14205780D1*
X14650193D2*
X14830357D1*
X1057387Y3310417D2*
X1195807D1*
X1640220D2*
X3029890D1*
X3271273D2*
X3775737D1*
X4142400D2*
X4276580D1*
X4517967D2*
X6304713D1*
X6546097D2*
X8912713D1*
X9136097D2*
X9338820D1*
X9513213D2*
X10352317D1*
X10526710D2*
X14205780D1*
X14650193D2*
X14830177D1*
X1057477Y3247250D2*
X1195807D1*
X1640220D2*
X3093053D1*
X3594340D2*
X3837897D1*
X4079237D2*
X4339747D1*
X4681663D2*
X6241550D1*
X6482933D2*
X8289277D1*
X8530707D2*
X8910800D1*
X9085193D2*
X9305280D1*
X9546710D2*
X9647397D1*
X9872603D2*
X10352317D1*
X10526710D2*
X14205780D1*
X14650193D2*
X14829993D1*
X1057570Y3184083D2*
X1195807D1*
X1640220D2*
X3156217D1*
X3620453D2*
X3774687D1*
X4016073D2*
X4402910D1*
X4712837D2*
X6178387D1*
X6419770D2*
X8198403D1*
X8556820D2*
X8910800D1*
X9085193D2*
X9279167D1*
X9572823D2*
X9615040D1*
X9904960D2*
X10352317D1*
X10526710D2*
X14205780D1*
X14650193D2*
X14829857D1*
X1057660Y3120917D2*
X1195807D1*
X1640220D2*
X3219380D1*
X3608740D2*
X3711523D1*
X3952907D2*
X4415350D1*
X4720767D2*
X6115220D1*
X6356607D2*
X8135240D1*
X8552037D2*
X8910800D1*
X9085193D2*
X9283997D1*
X9568037D2*
X9615267D1*
X9904730D2*
X10352317D1*
X10526710D2*
X14205780D1*
X14650193D2*
X14829673D1*
X1057797Y3057750D2*
X1195807D1*
X1640220D2*
X3473633D1*
X3522380D2*
X3648360D1*
X3889743D2*
X4447207D1*
X4781560D2*
X6052057D1*
X6293443D2*
X8072077D1*
X8511750D2*
X8910800D1*
X9085193D2*
X9324283D1*
X9527753D2*
X9648260D1*
X9871737D2*
X10352317D1*
X10526710D2*
X14205780D1*
X14650193D2*
X14829493D1*
X1057890Y2994583D2*
X1195807D1*
X1640220D2*
X3585193D1*
X3826580D2*
X4605710D1*
X4794823D2*
X5988893D1*
X6230277D2*
X8008913D1*
X8250253D2*
X8910800D1*
X9085193D2*
X9657240D1*
X9847217D2*
X10352317D1*
X10526710D2*
X14205780D1*
X14650193D2*
X14829310D1*
X1057980Y2931417D2*
X1195807D1*
X1640220D2*
X3522030D1*
X3906970D2*
X4620383D1*
X4794823D2*
X5925730D1*
X6167113D2*
X7945747D1*
X8187087D2*
X8910800D1*
X9833363D2*
X10352317D1*
X10526710D2*
X14205780D1*
X14650193D2*
X14829127D1*
X1058070Y2868250D2*
X1195807D1*
X1640220D2*
X3458867D1*
X3700253D2*
X3720457D1*
X3955550D2*
X4620383D1*
X4794823D2*
X5862563D1*
X6103950D2*
X7882540D1*
X8123923D2*
X8924337D1*
X9772297D2*
X10352317D1*
X10526710D2*
X14205780D1*
X14650193D2*
X14828990D1*
X1058207Y2805083D2*
X1195807D1*
X1640220D2*
X3140860D1*
X3355173D2*
X3395703D1*
X3637087D2*
X3718403D1*
X3957603D2*
X4620383D1*
X4794823D2*
X5799400D1*
X6040787D2*
X7819373D1*
X8060760D2*
X10352317D1*
X10526710D2*
X14205780D1*
X14650193D2*
X14828807D1*
X1058300Y2741917D2*
X1195807D1*
X1640220D2*
X3104493D1*
X3573923D2*
X3750807D1*
X3925200D2*
X4530423D1*
X4884783D2*
X5600383D1*
X5977620D2*
X6108387D1*
X6354830D2*
X6616387D1*
X6862830D2*
X7124387D1*
X7370830D2*
X7756483D1*
X7997597D2*
X8230307D1*
X8584710D2*
X9300267D1*
X9546710D2*
X9808267D1*
X10054710D2*
X10316270D1*
X10562713D2*
X10824270D1*
X11070713D2*
X14205780D1*
X14650193D2*
X14828627D1*
X1058390Y2678750D2*
X1195807D1*
X1640220D2*
X3102030D1*
X3510760D2*
X3750807D1*
X3925200D2*
X4530423D1*
X4884783D2*
X5557820D1*
X5914457D2*
X6065820D1*
X6397347D2*
X6573820D1*
X6905350D2*
X7081823D1*
X7413350D2*
X7736613D1*
X7934430D2*
X8230307D1*
X8584710D2*
X9257747D1*
X9589277D2*
X9765747D1*
X10097277D2*
X10273750D1*
X10605277D2*
X10781750D1*
X11113280D2*
X14205780D1*
X14650193D2*
X14828443D1*
X1058527Y2615583D2*
X1195807D1*
X1640220D2*
X3131290D1*
X3447597D2*
X3750807D1*
X3925200D2*
X4530423D1*
X4884783D2*
X5546427D1*
X5900787D2*
X6054427D1*
X6408787D2*
X6562427D1*
X6916787D2*
X7070430D1*
X7424790D2*
X7736613D1*
X7911053D2*
X8230307D1*
X8584710D2*
X9246307D1*
X9600713D2*
X9754310D1*
X10108670D2*
X10262310D1*
X10616670D2*
X10770313D1*
X11124673D2*
X14205780D1*
X14650193D2*
X14828260D1*
X1058617Y2552417D2*
X1195807D1*
X1640220D2*
X3143047D1*
X3384430D2*
X3750807D1*
X3925200D2*
X4530423D1*
X4884783D2*
X5559187D1*
X5887980D2*
X6067187D1*
X6395980D2*
X6575190D1*
X6903983D2*
X7083190D1*
X7411983D2*
X7736613D1*
X7911053D2*
X8230307D1*
X8584710D2*
X9259113D1*
X9587907D2*
X9767117D1*
X10095910D2*
X10275117D1*
X10603910D2*
X10783117D1*
X11111913D2*
X14205780D1*
X14650193D2*
X14828123D1*
X1058710Y2489250D2*
X1195807D1*
X1640220D2*
X3079883D1*
X3321267D2*
X3704960D1*
X3971047D2*
X4530423D1*
X4884783D2*
X5604167D1*
X5843043D2*
X6112123D1*
X6351047D2*
X6620123D1*
X6859047D2*
X7128123D1*
X7367050D2*
X7736613D1*
X7911053D2*
X8230307D1*
X8584710D2*
X9304050D1*
X9542973D2*
X9812050D1*
X10050973D2*
X10320053D1*
X10558977D2*
X10828053D1*
X11066977D2*
X14205780D1*
X14650193D2*
X14827943D1*
X1058800Y2426083D2*
X1195807D1*
X1640220D2*
X3016720D1*
X3258103D2*
X3689603D1*
X3986403D2*
X4620383D1*
X4794823D2*
X5636387D1*
X5810780D2*
X6144387D1*
X6318780D2*
X6652390D1*
X6826780D2*
X7160390D1*
X7334783D2*
X7736613D1*
X7911053D2*
X8320313D1*
X8494703D2*
X9336313D1*
X9510707D2*
X9844317D1*
X10018710D2*
X10352317D1*
X10526710D2*
X10860320D1*
X11034710D2*
X14205780D1*
X14650193D2*
X14827760D1*
X1058937Y2362917D2*
X1195807D1*
X1640220D2*
X2953553D1*
X3194940D2*
X3703867D1*
X3972093D2*
X4620383D1*
X4794823D2*
X5636387D1*
X5810780D2*
X6144387D1*
X6318780D2*
X6652390D1*
X6826780D2*
X7160390D1*
X7334783D2*
X7736613D1*
X7911053D2*
X8320313D1*
X8494703D2*
X9336313D1*
X9510707D2*
X9844317D1*
X10018710D2*
X10352317D1*
X10526710D2*
X10860320D1*
X11034710D2*
X14205780D1*
X14650193D2*
X14827577D1*
X1059027Y2299750D2*
X1195807D1*
X1640220D2*
X2890390D1*
X3131777D2*
X3764617D1*
X4247400D2*
X4620383D1*
X4794823D2*
X5636387D1*
X5810780D2*
X6144387D1*
X6318780D2*
X6652390D1*
X6826780D2*
X7160390D1*
X7334783D2*
X7736613D1*
X7911053D2*
X8320313D1*
X8494703D2*
X9336313D1*
X9510707D2*
X9844317D1*
X10018710D2*
X10352317D1*
X10526710D2*
X10860320D1*
X11034710D2*
X12138593D1*
X12517427D2*
X14205780D1*
X14650193D2*
X14827397D1*
X1059120Y2236583D2*
X1195807D1*
X1696047D2*
X2827227D1*
X3068567D2*
X3787950D1*
X4328063D2*
X4620383D1*
X4794823D2*
X5636387D1*
X5810780D2*
X6144387D1*
X6318780D2*
X6652390D1*
X6826780D2*
X7160390D1*
X7334783D2*
X7736613D1*
X7911053D2*
X8320313D1*
X8494703D2*
X9336313D1*
X9510707D2*
X9844317D1*
X10018710D2*
X10352317D1*
X10526710D2*
X10860320D1*
X11034710D2*
X12057930D1*
X12598043D2*
X14205780D1*
X14650193D2*
X14827260D1*
X1059257Y2173417D2*
X1197857D1*
X1759210D2*
X2764063D1*
X3005400D2*
X3739277D1*
X4376737D2*
X4620383D1*
X4794823D2*
X5636387D1*
X5810780D2*
X6144387D1*
X6318780D2*
X6652390D1*
X6826780D2*
X7160390D1*
X7334783D2*
X7736613D1*
X7911053D2*
X8320313D1*
X8494703D2*
X9336313D1*
X9510707D2*
X9844317D1*
X10018710D2*
X10352317D1*
X10526710D2*
X10860320D1*
X11034710D2*
X12009257D1*
X12646763D2*
X14205780D1*
X14650193D2*
X14827077D1*
X1059347Y2110250D2*
X1216723D1*
X2680557D2*
X2700853D1*
X2942237D2*
X3708653D1*
X4407360D2*
X4620383D1*
X4794823D2*
X5636387D1*
X5810780D2*
X6144387D1*
X6318780D2*
X6652390D1*
X6826780D2*
X7160390D1*
X7334783D2*
X7736613D1*
X7911053D2*
X8320313D1*
X8494703D2*
X9336313D1*
X9510707D2*
X9844317D1*
X10018710D2*
X10352317D1*
X10526710D2*
X10860320D1*
X11034710D2*
X11978633D1*
X12677340D2*
X14205780D1*
X14650193D2*
X14826893D1*
X1059437Y2047083D2*
X1262297D1*
X2879073D2*
X3691470D1*
X4424543D2*
X4620383D1*
X4794823D2*
X5636387D1*
X5810780D2*
X6144387D1*
X6318780D2*
X6652390D1*
X6826780D2*
X7160390D1*
X7334783D2*
X7736613D1*
X7911053D2*
X8320313D1*
X8494703D2*
X9336313D1*
X9510707D2*
X9844317D1*
X10018710D2*
X10352317D1*
X10526710D2*
X10860320D1*
X11034710D2*
X11961450D1*
X12694523D2*
X14150457D1*
X14650193D2*
X14826713D1*
X1059530Y1983917D2*
X1325463D1*
X2844803D2*
X3685820D1*
X4430193D2*
X4530423D1*
X4884783D2*
X5604803D1*
X5842407D2*
X6112807D1*
X6350407D2*
X6620807D1*
X6858410D2*
X7128807D1*
X7366410D2*
X7736613D1*
X7911053D2*
X8230307D1*
X8584710D2*
X9304687D1*
X9542290D2*
X9812690D1*
X10050290D2*
X10320690D1*
X10558293D2*
X10828690D1*
X11066293D2*
X11955800D1*
X12700220D2*
X14087290D1*
X14648233D2*
X14826577D1*
X1059667Y1920750D2*
X1388627D1*
X2907967D2*
X3691153D1*
X4424860D2*
X4530423D1*
X4884783D2*
X5559413D1*
X5887753D2*
X6067413D1*
X6395753D2*
X6575417D1*
X6903753D2*
X7083417D1*
X7411757D2*
X7736613D1*
X7911053D2*
X8230307D1*
X8584710D2*
X9259343D1*
X9587680D2*
X9767343D1*
X10095680D2*
X10275343D1*
X10603683D2*
X10783347D1*
X11111683D2*
X11961133D1*
X12694887D2*
X14024127D1*
X14629503D2*
X14826393D1*
X1059757Y1857583D2*
X1451790D1*
X2971130D2*
X3707970D1*
X4408043D2*
X4530423D1*
X4884783D2*
X5546427D1*
X5900787D2*
X6054427D1*
X6408787D2*
X6562427D1*
X6916787D2*
X7070430D1*
X7424790D2*
X7736613D1*
X7911053D2*
X8230307D1*
X8584710D2*
X9246307D1*
X9600670D2*
X9754310D1*
X10108670D2*
X10262310D1*
X10616670D2*
X10770313D1*
X11124673D2*
X11977950D1*
X12678027D2*
X13193470D1*
X14584203D2*
X14826210D1*
X1059847Y1794417D2*
X1514953D1*
X3034293D2*
X3738137D1*
X4377830D2*
X4530423D1*
X4884783D2*
X5557637D1*
X5889573D2*
X6065637D1*
X6397577D2*
X6573640D1*
X6905577D2*
X7081593D1*
X7413580D2*
X7736613D1*
X7911053D2*
X8230307D1*
X8584710D2*
X9257520D1*
X9589503D2*
X9765520D1*
X10097503D2*
X10273523D1*
X10605507D2*
X10781523D1*
X11113460D2*
X12008163D1*
X12647857D2*
X13101593D1*
X14521040D2*
X14826027D1*
X1059940Y1731250D2*
X1580853D1*
X3097460D2*
X3786170D1*
X4329797D2*
X4530423D1*
X4884783D2*
X5599790D1*
X5847420D2*
X6107793D1*
X6355420D2*
X6615747D1*
X6863423D2*
X7123750D1*
X7371423D2*
X7736613D1*
X7911053D2*
X8230307D1*
X8584710D2*
X9299673D1*
X9547347D2*
X9807677D1*
X10055350D2*
X10315677D1*
X10563350D2*
X10823677D1*
X11071307D2*
X12056197D1*
X12599823D2*
X13041757D1*
X14457877D2*
X14825847D1*
X1060077Y1668083D2*
X2537427D1*
X3160623D2*
X3865423D1*
X4250543D2*
X7736613D1*
X7911053D2*
X12135450D1*
X12520570D2*
X12978593D1*
X14394710D2*
X14825710D1*
X1060167Y1604917D2*
X2600593D1*
X14331547D2*
X14825527D1*
X1060257Y1541750D2*
X2663757D1*
X14268337D2*
X14825343D1*
X1060393Y1478583D2*
X2726920D1*
X14199977D2*
X14825163D1*
X1060487Y1415417D2*
X2790083D1*
X13349133D2*
X14824980D1*
X1060577Y1352250D2*
X2853247D1*
X13285967D2*
X14824843D1*
X1060670Y1289083D2*
X2916413D1*
X13222803D2*
X14824660D1*
X1060807Y1225917D2*
X2998533D1*
X13140680D2*
X14824480D1*
X1060897Y1162750D2*
X14824297D1*
X1060987Y1099583D2*
X14824113D1*
X6955987Y9011767D2*
X6950397Y8988970D1*
X6941220Y8967367D1*
X6928697Y8947513D1*
X6913153Y8929927D1*
X6894987Y8915060D1*
X6874673Y8903303D1*
X6852737Y8894953D1*
X6829743Y8890233D1*
X6806290Y8889263D1*
X6782987Y8892063D1*
X6760433Y8898570D1*
X6739217Y8908607D1*
X6719887Y8921920D1*
X6702940Y8938160D1*
X6688817Y8956910D1*
X6677887Y8977680D1*
X6670427Y8999937D1*
X6666637Y9023100D1*
X6666610Y9046573D1*
X6670350Y9069743D1*
X6677757Y9092017D1*
X6688640Y9112813D1*
X6702720Y9131593D1*
X6719630Y9147873D1*
X6738933Y9161227D1*
X6760127Y9171313D1*
X6782667Y9177870D1*
X6805963Y9180727D1*
X6829417Y9179807D1*
X6852420Y9175137D1*
X6874377Y9166840D1*
X6894717Y9155127D1*
X6912917Y9140300D1*
X6928500Y9122750D1*
X6941067Y9102927D1*
X6950293Y9081343D1*
X6955933Y9058557D1*
X6957850Y9035000D1*
X6955987Y9011767D1*
X10095987Y5009767D2*
X10090397Y4986970D1*
X10081220Y4965367D1*
X10068697Y4945513D1*
X10053153Y4927927D1*
X10034987Y4913060D1*
X10014673Y4901303D1*
X9992737Y4892953D1*
X9969743Y4888233D1*
X9946290Y4887263D1*
X9922987Y4890063D1*
X9900433Y4896570D1*
X9879217Y4906607D1*
X9859887Y4919920D1*
X9842940Y4936160D1*
X9828817Y4954910D1*
X9817887Y4975680D1*
X9810427Y4997937D1*
X9806637Y5021100D1*
X9806610Y5044573D1*
X9810350Y5067743D1*
X9817757Y5090017D1*
X9828640Y5110813D1*
X9842720Y5129593D1*
X9859630Y5145873D1*
X9878933Y5159227D1*
X9900127Y5169313D1*
X9922667Y5175870D1*
X9945963Y5178727D1*
X9969417Y5177807D1*
X9992420Y5173137D1*
X10014377Y5164840D1*
X10034717Y5153127D1*
X10052917Y5138300D1*
X10068500Y5120750D1*
X10081067Y5100927D1*
X10090293Y5079343D1*
X10095933Y5056557D1*
X10097850Y5033000D1*
X10095987Y5009767D1*
X5965987Y9009767D2*
X5960397Y8986970D1*
X5951220Y8965367D1*
X5938697Y8945513D1*
X5923153Y8927927D1*
X5904987Y8913060D1*
X5884673Y8901303D1*
X5862737Y8892953D1*
X5839743Y8888233D1*
X5816290Y8887263D1*
X5792987Y8890063D1*
X5770433Y8896570D1*
X5749217Y8906607D1*
X5729887Y8919920D1*
X5712940Y8936160D1*
X5698817Y8954910D1*
X5687887Y8975680D1*
X5680427Y8997937D1*
X5676637Y9021100D1*
X5676610Y9044573D1*
X5680350Y9067743D1*
X5687757Y9090017D1*
X5698640Y9110813D1*
X5712720Y9129593D1*
X5729630Y9145873D1*
X5748933Y9159227D1*
X5770127Y9169313D1*
X5792667Y9175870D1*
X5815963Y9178727D1*
X5839417Y9177807D1*
X5862420Y9173137D1*
X5884377Y9164840D1*
X5904717Y9153127D1*
X5922917Y9138300D1*
X5938500Y9120750D1*
X5951067Y9100927D1*
X5960293Y9079343D1*
X5965933Y9056557D1*
X5967850Y9033000D1*
X5965987Y9009767D1*
X3521993Y9885767D2*
X3516403Y9862970D1*
X3507227Y9841367D1*
X3494703Y9821513D1*
X3479160Y9803927D1*
X3460993Y9789060D1*
X3440680Y9777303D1*
X3418743Y9768953D1*
X3395750Y9764233D1*
X3372297Y9763263D1*
X3348993Y9766063D1*
X3326440Y9772570D1*
X3305223Y9782607D1*
X3285890Y9795920D1*
X3268947Y9812160D1*
X3254823Y9830910D1*
X3243893Y9851680D1*
X3236433Y9873937D1*
X3232643Y9897100D1*
X3232617Y9920573D1*
X3236357Y9943743D1*
X3243763Y9966017D1*
X3254647Y9986813D1*
X3268727Y10005593D1*
X3285637Y10021873D1*
X3304940Y10035227D1*
X3326133Y10045313D1*
X3348673Y10051870D1*
X3371970Y10054727D1*
X3395423Y10053807D1*
X3418427Y10049137D1*
X3440383Y10040840D1*
X3460723Y10029127D1*
X3478923Y10014300D1*
X3494507Y9996750D1*
X3507073Y9976927D1*
X3516300Y9955343D1*
X3521940Y9932557D1*
X3523857Y9909000D1*
X3521993Y9885767D1*
X3601997Y6035767D2*
X3596407Y6012970D1*
X3587230Y5991367D1*
X3574707Y5971513D1*
X3559163Y5953927D1*
X3540997Y5939060D1*
X3520683Y5927303D1*
X3498747Y5918953D1*
X3475753Y5914233D1*
X3452300Y5913263D1*
X3428997Y5916063D1*
X3406443Y5922570D1*
X3385227Y5932607D1*
X3365897Y5945920D1*
X3348950Y5962160D1*
X3334827Y5980910D1*
X3323897Y6001680D1*
X3316437Y6023937D1*
X3312647Y6047100D1*
X3312620Y6070573D1*
X3316360Y6093743D1*
X3323767Y6116017D1*
X3334650Y6136813D1*
X3348730Y6155593D1*
X3365640Y6171873D1*
X3384943Y6185227D1*
X3406137Y6195313D1*
X3428677Y6201870D1*
X3451973Y6204727D1*
X3475427Y6203807D1*
X3498430Y6199137D1*
X3520387Y6190840D1*
X3540727Y6179127D1*
X3558927Y6164300D1*
X3574510Y6146750D1*
X3587077Y6126927D1*
X3596303Y6105343D1*
X3601947Y6082557D1*
X3603860Y6059000D1*
X3601997Y6035767D1*
X3407987Y7159750D2*
X3402397Y7136953D1*
X3393220Y7115350D1*
X3380697Y7095497D1*
X3365153Y7077910D1*
X3346987Y7063043D1*
X3326673Y7051287D1*
X3304737Y7042937D1*
X3281743Y7038217D1*
X3258290Y7037243D1*
X3234987Y7040047D1*
X3212433Y7046553D1*
X3191217Y7056590D1*
X3171887Y7069903D1*
X3154940Y7086143D1*
X3140817Y7104893D1*
X3129887Y7125663D1*
X3122427Y7147920D1*
X3118637Y7171083D1*
X3118610Y7194557D1*
X3122350Y7217727D1*
X3129757Y7240000D1*
X3140640Y7260797D1*
X3154720Y7279577D1*
X3171630Y7295857D1*
X3190933Y7309210D1*
X3212127Y7319297D1*
X3234667Y7325853D1*
X3257963Y7328707D1*
X3281417Y7327790D1*
X3304420Y7323120D1*
X3326377Y7314823D1*
X3346717Y7303110D1*
X3364917Y7288283D1*
X3380500Y7270733D1*
X3393067Y7250910D1*
X3402293Y7229323D1*
X3407933Y7206540D1*
X3409850Y7182983D1*
X3407987Y7159750D1*
X8259983Y2788150D2*
X8578350D1*
Y2446450D1*
X8488367D1*
X8488350Y2026160D1*
X8578350Y2026150D1*
Y1684450D1*
X8236650D1*
Y2026150D1*
X8326633D1*
X8326650Y2446440D1*
X8236650Y2446450D1*
Y2788150D1*
X8259983D1*
X9592760Y2594040D2*
X9588017Y2571210D1*
X9580207Y2549237D1*
X9569480Y2528533D1*
X9556033Y2509480D1*
X9540117Y2492440D1*
X9522030Y2477723D1*
X9504343Y2466967D1*
X9504350Y2005790D1*
X9522023Y1994880D1*
X9540113Y1980167D1*
X9556027Y1963123D1*
X9569477Y1944073D1*
X9580203Y1923370D1*
X9588013Y1901397D1*
X9592757Y1878567D1*
X9594350Y1855300D1*
X9592760Y1832040D1*
X9588017Y1809210D1*
X9580207Y1787237D1*
X9569480Y1766533D1*
X9556033Y1747480D1*
X9540117Y1730440D1*
X9522030Y1715723D1*
X9502103Y1703607D1*
X9480717Y1694317D1*
X9458263Y1688023D1*
X9435163Y1684850D1*
X9411843Y1684847D1*
X9388743Y1688023D1*
X9366290Y1694313D1*
X9344900Y1703603D1*
X9324977Y1715720D1*
X9306887Y1730433D1*
X9290973Y1747477D1*
X9277523Y1766527D1*
X9266797Y1787230D1*
X9258987Y1809203D1*
X9254243Y1832033D1*
X9252650Y1855297D1*
X9254240Y1878560D1*
X9258983Y1901390D1*
X9266793Y1923363D1*
X9277520Y1944067D1*
X9290967Y1963120D1*
X9306883Y1980160D1*
X9324970Y1994877D1*
X9342657Y2005633D1*
X9342650Y2466810D1*
X9324977Y2477720D1*
X9306887Y2492433D1*
X9290973Y2509477D1*
X9277523Y2528527D1*
X9266797Y2549230D1*
X9258987Y2571203D1*
X9254243Y2594033D1*
X9252650Y2617297D1*
X9254240Y2640560D1*
X9258983Y2663390D1*
X9266793Y2685363D1*
X9277520Y2706067D1*
X9290967Y2725120D1*
X9306883Y2742160D1*
X9324970Y2756877D1*
X9344897Y2768993D1*
X9366283Y2778283D1*
X9388737Y2784577D1*
X9411837Y2787750D1*
X9435157Y2787753D1*
X9458257Y2784577D1*
X9480710Y2778287D1*
X9502100Y2768997D1*
X9522023Y2756880D1*
X9540113Y2742167D1*
X9556027Y2725123D1*
X9569477Y2706073D1*
X9580203Y2685370D1*
X9588013Y2663397D1*
X9592757Y2640567D1*
X9594350Y2617300D1*
X9592760Y2594040D1*
X10100760D2*
X10096017Y2571210D1*
X10088207Y2549237D1*
X10077480Y2528533D1*
X10064033Y2509480D1*
X10048117Y2492440D1*
X10030030Y2477723D1*
X10012343Y2466967D1*
X10012350Y2005790D1*
X10030023Y1994880D1*
X10048113Y1980167D1*
X10064027Y1963123D1*
X10077477Y1944073D1*
X10088203Y1923370D1*
X10096013Y1901397D1*
X10100757Y1878567D1*
X10102350Y1855300D1*
X10100760Y1832040D1*
X10096017Y1809210D1*
X10088207Y1787237D1*
X10077480Y1766533D1*
X10064033Y1747480D1*
X10048117Y1730440D1*
X10030030Y1715723D1*
X10010103Y1703607D1*
X9988717Y1694317D1*
X9966263Y1688023D1*
X9943163Y1684850D1*
X9919843Y1684847D1*
X9896743Y1688023D1*
X9874290Y1694313D1*
X9852900Y1703603D1*
X9832977Y1715720D1*
X9814887Y1730433D1*
X9798973Y1747477D1*
X9785523Y1766527D1*
X9774797Y1787230D1*
X9766987Y1809203D1*
X9762243Y1832033D1*
X9760650Y1855297D1*
X9762240Y1878560D1*
X9766983Y1901390D1*
X9774793Y1923363D1*
X9785520Y1944067D1*
X9798967Y1963120D1*
X9814883Y1980160D1*
X9832970Y1994877D1*
X9850657Y2005633D1*
X9850650Y2466810D1*
X9832977Y2477720D1*
X9814887Y2492433D1*
X9798973Y2509477D1*
X9785523Y2528527D1*
X9774797Y2549230D1*
X9766987Y2571203D1*
X9762243Y2594033D1*
X9760650Y2617297D1*
X9762240Y2640560D1*
X9766983Y2663390D1*
X9774793Y2685363D1*
X9785520Y2706067D1*
X9798967Y2725120D1*
X9814883Y2742160D1*
X9832970Y2756877D1*
X9852897Y2768993D1*
X9874283Y2778283D1*
X9896737Y2784577D1*
X9919837Y2787750D1*
X9943157Y2787753D1*
X9966257Y2784577D1*
X9988710Y2778287D1*
X10010100Y2768997D1*
X10030023Y2756880D1*
X10048113Y2742167D1*
X10064027Y2725123D1*
X10077477Y2706073D1*
X10088203Y2685370D1*
X10096013Y2663397D1*
X10100757Y2640567D1*
X10102350Y2617300D1*
X10100760Y2594040D1*
X11116760D2*
X11112017Y2571210D1*
X11104207Y2549237D1*
X11093480Y2528533D1*
X11080033Y2509480D1*
X11064117Y2492440D1*
X11046030Y2477723D1*
X11028343Y2466967D1*
X11028350Y2005790D1*
X11046023Y1994880D1*
X11064113Y1980167D1*
X11080027Y1963123D1*
X11093477Y1944073D1*
X11104203Y1923370D1*
X11112013Y1901397D1*
X11116757Y1878567D1*
X11118350Y1855300D1*
X11116760Y1832040D1*
X11112017Y1809210D1*
X11104207Y1787237D1*
X11093480Y1766533D1*
X11080033Y1747480D1*
X11064117Y1730440D1*
X11046030Y1715723D1*
X11026103Y1703607D1*
X11004717Y1694317D1*
X10982263Y1688023D1*
X10959163Y1684850D1*
X10935843Y1684847D1*
X10912743Y1688023D1*
X10890290Y1694313D1*
X10868900Y1703603D1*
X10848977Y1715720D1*
X10830887Y1730433D1*
X10814973Y1747477D1*
X10801523Y1766527D1*
X10790797Y1787230D1*
X10782987Y1809203D1*
X10778243Y1832033D1*
X10776650Y1855297D1*
X10778240Y1878560D1*
X10782983Y1901390D1*
X10790793Y1923363D1*
X10801520Y1944067D1*
X10814967Y1963120D1*
X10830883Y1980160D1*
X10848970Y1994877D1*
X10866657Y2005633D1*
X10866650Y2466810D1*
X10848977Y2477720D1*
X10830887Y2492433D1*
X10814973Y2509477D1*
X10801523Y2528527D1*
X10790797Y2549230D1*
X10782987Y2571203D1*
X10778243Y2594033D1*
X10776650Y2617297D1*
X10778240Y2640560D1*
X10782983Y2663390D1*
X10790793Y2685363D1*
X10801520Y2706067D1*
X10814967Y2725120D1*
X10830883Y2742160D1*
X10848970Y2756877D1*
X10868897Y2768993D1*
X10890283Y2778283D1*
X10912737Y2784577D1*
X10935837Y2787750D1*
X10959157Y2787753D1*
X10982257Y2784577D1*
X11004710Y2778287D1*
X11026100Y2768997D1*
X11046023Y2756880D1*
X11064113Y2742167D1*
X11080027Y2725123D1*
X11093477Y2706073D1*
X11104203Y2685370D1*
X11112013Y2663397D1*
X11116757Y2640567D1*
X11118350Y2617300D1*
X11116760Y2594040D1*
X6400860D2*
X6396117Y2571210D1*
X6388307Y2549237D1*
X6377580Y2528533D1*
X6364133Y2509480D1*
X6348217Y2492440D1*
X6330130Y2477723D1*
X6312443Y2466967D1*
X6312450Y2005790D1*
X6330123Y1994880D1*
X6348213Y1980167D1*
X6364127Y1963123D1*
X6377577Y1944073D1*
X6388303Y1923370D1*
X6396113Y1901397D1*
X6400857Y1878567D1*
X6402450Y1855300D1*
X6400860Y1832040D1*
X6396117Y1809210D1*
X6388307Y1787237D1*
X6377580Y1766533D1*
X6364133Y1747480D1*
X6348217Y1730440D1*
X6330130Y1715723D1*
X6310203Y1703607D1*
X6288817Y1694317D1*
X6266363Y1688023D1*
X6243263Y1684850D1*
X6219943Y1684847D1*
X6196843Y1688023D1*
X6174390Y1694313D1*
X6153000Y1703603D1*
X6133077Y1715720D1*
X6114987Y1730433D1*
X6099073Y1747477D1*
X6085623Y1766527D1*
X6074897Y1787230D1*
X6067087Y1809203D1*
X6062343Y1832033D1*
X6060750Y1855297D1*
X6062340Y1878560D1*
X6067083Y1901390D1*
X6074893Y1923363D1*
X6085620Y1944067D1*
X6099067Y1963120D1*
X6114983Y1980160D1*
X6133070Y1994877D1*
X6150757Y2005633D1*
X6150750Y2466810D1*
X6133077Y2477720D1*
X6114987Y2492433D1*
X6099073Y2509477D1*
X6085623Y2528527D1*
X6074897Y2549230D1*
X6067087Y2571203D1*
X6062343Y2594033D1*
X6060750Y2617297D1*
X6062340Y2640560D1*
X6067083Y2663390D1*
X6074893Y2685363D1*
X6085620Y2706067D1*
X6099067Y2725120D1*
X6114983Y2742160D1*
X6133070Y2756877D1*
X6152997Y2768993D1*
X6174383Y2778283D1*
X6196837Y2784577D1*
X6219937Y2787750D1*
X6243257Y2787753D1*
X6266357Y2784577D1*
X6288810Y2778287D1*
X6310200Y2768997D1*
X6330123Y2756880D1*
X6348213Y2742167D1*
X6364127Y2725123D1*
X6377577Y2706073D1*
X6388303Y2685370D1*
X6396113Y2663397D1*
X6400857Y2640567D1*
X6402450Y2617300D1*
X6400860Y2594040D1*
X6908860D2*
X6904117Y2571210D1*
X6896307Y2549237D1*
X6885580Y2528533D1*
X6872133Y2509480D1*
X6856217Y2492440D1*
X6838130Y2477723D1*
X6820443Y2466967D1*
X6820450Y2005790D1*
X6838123Y1994880D1*
X6856213Y1980167D1*
X6872127Y1963123D1*
X6885577Y1944073D1*
X6896303Y1923370D1*
X6904113Y1901397D1*
X6908857Y1878567D1*
X6910450Y1855300D1*
X6908860Y1832040D1*
X6904117Y1809210D1*
X6896307Y1787237D1*
X6885580Y1766533D1*
X6872133Y1747480D1*
X6856217Y1730440D1*
X6838130Y1715723D1*
X6818203Y1703607D1*
X6796817Y1694317D1*
X6774363Y1688023D1*
X6751263Y1684850D1*
X6727943Y1684847D1*
X6704843Y1688023D1*
X6682390Y1694313D1*
X6661000Y1703603D1*
X6641077Y1715720D1*
X6622987Y1730433D1*
X6607073Y1747477D1*
X6593623Y1766527D1*
X6582897Y1787230D1*
X6575087Y1809203D1*
X6570343Y1832033D1*
X6568750Y1855297D1*
X6570340Y1878560D1*
X6575083Y1901390D1*
X6582893Y1923363D1*
X6593620Y1944067D1*
X6607067Y1963120D1*
X6622983Y1980160D1*
X6641070Y1994877D1*
X6658757Y2005633D1*
X6658750Y2466810D1*
X6641077Y2477720D1*
X6622987Y2492433D1*
X6607073Y2509477D1*
X6593623Y2528527D1*
X6582897Y2549230D1*
X6575087Y2571203D1*
X6570343Y2594033D1*
X6568750Y2617297D1*
X6570340Y2640560D1*
X6575083Y2663390D1*
X6582893Y2685363D1*
X6593620Y2706067D1*
X6607067Y2725120D1*
X6622983Y2742160D1*
X6641070Y2756877D1*
X6660997Y2768993D1*
X6682383Y2778283D1*
X6704837Y2784577D1*
X6727937Y2787750D1*
X6751257Y2787753D1*
X6774357Y2784577D1*
X6796810Y2778287D1*
X6818200Y2768997D1*
X6838123Y2756880D1*
X6856213Y2742167D1*
X6872127Y2725123D1*
X6885577Y2706073D1*
X6896303Y2685370D1*
X6904113Y2663397D1*
X6908857Y2640567D1*
X6910450Y2617300D1*
X6908860Y2594040D1*
X7416860D2*
X7412117Y2571210D1*
X7404307Y2549237D1*
X7393580Y2528533D1*
X7380133Y2509480D1*
X7364217Y2492440D1*
X7346130Y2477723D1*
X7328443Y2466967D1*
X7328450Y2005790D1*
X7346123Y1994880D1*
X7364213Y1980167D1*
X7380127Y1963123D1*
X7393577Y1944073D1*
X7404303Y1923370D1*
X7412113Y1901397D1*
X7416857Y1878567D1*
X7418450Y1855300D1*
X7416860Y1832040D1*
X7412117Y1809210D1*
X7404307Y1787237D1*
X7393580Y1766533D1*
X7380133Y1747480D1*
X7364217Y1730440D1*
X7346130Y1715723D1*
X7326203Y1703607D1*
X7304817Y1694317D1*
X7282363Y1688023D1*
X7259263Y1684850D1*
X7235943Y1684847D1*
X7212843Y1688023D1*
X7190390Y1694313D1*
X7169000Y1703603D1*
X7149077Y1715720D1*
X7130987Y1730433D1*
X7115073Y1747477D1*
X7101623Y1766527D1*
X7090897Y1787230D1*
X7083087Y1809203D1*
X7078343Y1832033D1*
X7076750Y1855297D1*
X7078340Y1878560D1*
X7083083Y1901390D1*
X7090893Y1923363D1*
X7101620Y1944067D1*
X7115067Y1963120D1*
X7130983Y1980160D1*
X7149070Y1994877D1*
X7166757Y2005633D1*
X7166750Y2466810D1*
X7149077Y2477720D1*
X7130987Y2492433D1*
X7115073Y2509477D1*
X7101623Y2528527D1*
X7090897Y2549230D1*
X7083087Y2571203D1*
X7078343Y2594033D1*
X7076750Y2617297D1*
X7078340Y2640560D1*
X7083083Y2663390D1*
X7090893Y2685363D1*
X7101620Y2706067D1*
X7115067Y2725120D1*
X7130983Y2742160D1*
X7149070Y2756877D1*
X7168997Y2768993D1*
X7190383Y2778283D1*
X7212837Y2784577D1*
X7235937Y2787750D1*
X7259257Y2787753D1*
X7282357Y2784577D1*
X7304810Y2778287D1*
X7326200Y2768997D1*
X7346123Y2756880D1*
X7364213Y2742167D1*
X7380127Y2725123D1*
X7393577Y2706073D1*
X7404303Y2685370D1*
X7412113Y2663397D1*
X7416857Y2640567D1*
X7418450Y2617300D1*
X7416860Y2594040D1*
X7574067Y8294233D2*
X7833233D1*
Y8011733D1*
X7777063D1*
X7780437Y8009120D1*
X7797357Y7993060D1*
X7811403Y7974437D1*
X7822193Y7953753D1*
X7829433Y7931573D1*
X7832923Y7908507D1*
X7833243Y7898983D1*
X7831320Y7875757D1*
X7825597Y7853143D1*
X7816230Y7831777D1*
X7803473Y7812243D1*
X7787677Y7795080D1*
X7769270Y7780747D1*
X7753423Y7772167D1*
X7761190Y7768130D1*
X7780517Y7755063D1*
X7797427Y7738993D1*
X7811463Y7720360D1*
X7822240Y7699670D1*
X7829463Y7677490D1*
X7832940Y7654420D1*
X7833257Y7644983D1*
X7831333Y7621757D1*
X7825610Y7599143D1*
X7816243Y7577777D1*
X7803487Y7558243D1*
X7787687Y7541080D1*
X7769280Y7526747D1*
X7748767Y7515640D1*
X7726703Y7508063D1*
X7703693Y7504220D1*
X7680363Y7504217D1*
X7657353Y7508053D1*
X7635287Y7515623D1*
X7614767Y7526723D1*
X7596357Y7541050D1*
X7580553Y7558210D1*
X7567790Y7577737D1*
X7558417Y7599100D1*
X7552687Y7621713D1*
X7550757Y7644963D1*
X7552680Y7668213D1*
X7558403Y7690827D1*
X7567770Y7712193D1*
X7580527Y7731727D1*
X7596323Y7748890D1*
X7614730Y7763223D1*
X7630577Y7771803D1*
X7622810Y7775837D1*
X7603483Y7788907D1*
X7586573Y7804973D1*
X7572537Y7823610D1*
X7561760Y7844300D1*
X7554537Y7866480D1*
X7551060Y7889550D1*
X7551430Y7912873D1*
X7555633Y7935820D1*
X7563557Y7957763D1*
X7574980Y7978103D1*
X7589600Y7996283D1*
X7606927Y8011733D1*
X7550733D1*
Y8294233D1*
X7574067D1*
X8408850Y4403057D2*
X8408853Y4971667D1*
X8419347Y4968067D1*
X8442357Y4964230D1*
X8465687Y4964233D1*
X8488697Y4968077D1*
X8510760Y4975657D1*
X8531273Y4986763D1*
X8549683Y5001093D1*
X8565480Y5018260D1*
X8578237Y5037793D1*
X8587603Y5059157D1*
X8593327Y5081773D1*
X8595250Y5105000D1*
X8594000Y5123743D1*
X8589007Y5146530D1*
X8580330Y5168187D1*
X8568207Y5188117D1*
X8552970Y5205780D1*
X8535030Y5220697D1*
X8514883Y5232457D1*
X8493073Y5240737D1*
X8470200Y5245317D1*
X8446883Y5246070D1*
X8423760Y5242977D1*
X8408850Y5238840D1*
X8408833Y5725750D1*
X8576150Y5725743D1*
Y5244070D1*
X8577897Y5227290D1*
X8585923Y5205467D1*
X8599830Y5186830D1*
X9144150Y4642530D1*
X9144170Y4315507D1*
X9125780Y4319667D1*
X9102357Y4321003D1*
X9079033Y4318467D1*
X9056447Y4312127D1*
X9035210Y4302153D1*
X9015903Y4288823D1*
X8999057Y4272497D1*
X8985127Y4253617D1*
X8978857Y4242377D1*
X8968887Y4259720D1*
X8954007Y4277857D1*
X8936343Y4293300D1*
X8916380Y4305623D1*
X8894663Y4314493D1*
X8871780Y4319667D1*
X8848357Y4321003D1*
X8825033Y4318467D1*
X8802447Y4312127D1*
X8781210Y4302153D1*
X8761903Y4288823D1*
X8745057Y4272497D1*
X8731127Y4253617D1*
X8724857Y4242377D1*
X8714887Y4259720D1*
X8700007Y4277857D1*
X8682343Y4293300D1*
X8662380Y4305623D1*
X8640663Y4314493D1*
X8617780Y4319667D1*
X8594357Y4321003D1*
X8571033Y4318467D1*
X8548447Y4312127D1*
X8527210Y4302153D1*
X8507903Y4288823D1*
X8491057Y4272497D1*
X8477127Y4253617D1*
X8470857Y4242377D1*
X8460887Y4259720D1*
X8446007Y4277857D1*
X8428343Y4293300D1*
X8408380Y4305623D1*
X8386663Y4314493D1*
X8363780Y4319667D1*
X8359273Y4319923D1*
X8385170Y4345830D1*
X8397767Y4362140D1*
X8406513Y4383710D1*
X8408850Y4403057D1*
X8224337Y5728347D2*
X8211687Y5726233D1*
X8188357Y5726230D1*
X8165347Y5730067D1*
X8158773Y5732323D1*
X8158850Y5729000D1*
Y5240103D1*
X8169760Y5242977D1*
X8192883Y5246070D1*
X8216200Y5245317D1*
X8239073Y5240737D1*
X8247147Y5237673D1*
X8247150Y5705517D1*
X8224717Y5727943D1*
X7169950Y5961850D2*
X7144283Y5961833D1*
X7140003Y5968370D1*
X7124093Y5985613D1*
X7105563Y6000003D1*
X7084920Y6011147D1*
X7062723Y6018740D1*
X7039577Y6022577D1*
X7016117Y6022553D1*
X6992980Y6018667D1*
X6970797Y6011023D1*
X6950177Y5999837D1*
X6931680Y5985407D1*
X6915807Y5968127D1*
X6902997Y5948473D1*
X6893597Y5926977D1*
X6887863Y5904230D1*
X6885950Y5880847D1*
X6887913Y5857467D1*
X6893697Y5834730D1*
X6903143Y5813257D1*
X6915997Y5793630D1*
X6931907Y5776387D1*
X6950437Y5761997D1*
X6971080Y5750853D1*
X6993277Y5743260D1*
X7016423Y5739423D1*
X7039883Y5739447D1*
X7063020Y5743333D1*
X7085203Y5750977D1*
X7105823Y5762163D1*
X7124320Y5776593D1*
X7140193Y5793873D1*
X7141303Y5795357D1*
X7690907Y5245767D1*
X7680313D1*
X7657303Y5241923D1*
X7635240Y5234343D1*
X7614727Y5223237D1*
X7596317Y5208907D1*
X7580520Y5191740D1*
X7576670Y5185847D1*
X7270000Y5185850D1*
X7249560Y5183223D1*
X7228123Y5174157D1*
X7212800Y5162140D1*
X7054743Y5004063D1*
X7039577Y5006577D1*
X7016117Y5006553D1*
X6992750Y5002590D1*
X6838793Y5156543D1*
X6814047Y5180040D1*
X6812857Y5182743D1*
X6800003Y5202370D1*
X6784093Y5219613D1*
X6765563Y5234003D1*
X6744920Y5245147D1*
X6722723Y5252740D1*
X6699577Y5256577D1*
X6676117Y5256553D1*
X6652980Y5252667D1*
X6630797Y5245023D1*
X6628850Y5244170D1*
X6628843Y6002060D1*
X6631080Y6000853D1*
X6653277Y5993260D1*
X6676423Y5989423D1*
X6699883Y5989447D1*
X6723020Y5993333D1*
X6745203Y6000977D1*
X6765823Y6012163D1*
X6784320Y6026593D1*
X6800193Y6043873D1*
X6804283Y6050150D1*
X7555933D1*
X7572710Y6051897D1*
X7594533Y6059923D1*
X7613170Y6073830D1*
X7856013Y6316677D1*
X7875970Y6317743D1*
X7898803Y6323720D1*
X7919967Y6334170D1*
X7938593Y6348667D1*
X7953920Y6366617D1*
X7965317Y6387283D1*
X7972323Y6409823D1*
X7974650Y6433310D1*
X7972200Y6456783D1*
X7965073Y6479287D1*
X7953563Y6499893D1*
X7938143Y6517760D1*
X7919440Y6532157D1*
X7898223Y6542497D1*
X7875357Y6548350D1*
X7851783Y6549483D1*
X7828463Y6545847D1*
X7806350Y6537593D1*
X7786353Y6525053D1*
X7769290Y6508747D1*
X7755857Y6489340D1*
X7746607Y6467627D1*
X7741917Y6444493D1*
X7741360Y6430700D1*
X7522520Y6211850D1*
X6804283Y6211833D1*
X6800003Y6218370D1*
X6784093Y6235613D1*
X6765563Y6250003D1*
X6744920Y6261147D1*
X6722723Y6268740D1*
X6699577Y6272577D1*
X6676117Y6272553D1*
X6652980Y6268667D1*
X6630797Y6261023D1*
X6628843Y6259963D1*
X6628860Y6487520D1*
X6644973Y6503653D1*
X6658423Y6501423D1*
X6681883Y6501447D1*
X6705020Y6505333D1*
X6727203Y6512977D1*
X6747823Y6524163D1*
X6766320Y6538593D1*
X6782193Y6555873D1*
X6795003Y6575527D1*
X6804403Y6597023D1*
X6810137Y6619770D1*
X6812050Y6643153D1*
X6810087Y6666533D1*
X6804303Y6689270D1*
X6794857Y6710743D1*
X6782003Y6730370D1*
X6766093Y6747613D1*
X6747563Y6762003D1*
X6726920Y6773147D1*
X6704723Y6780740D1*
X6681577Y6784577D1*
X6658117Y6784553D1*
X6634980Y6780667D1*
X6612797Y6773023D1*
X6592177Y6761837D1*
X6573680Y6747407D1*
X6557807Y6730127D1*
X6544997Y6710473D1*
X6535597Y6688977D1*
X6529863Y6666230D1*
X6527950Y6642847D1*
X6528450Y6636887D1*
X6255027Y6910293D1*
X6226977Y6938343D1*
X6230557Y6936950D1*
X6234990Y6935493D1*
X6258000Y6932150D1*
X7564510Y6932153D1*
X8488410Y6008250D1*
X8312750D1*
X8312763Y5951790D1*
X8298970Y5967780D1*
X8281030Y5982697D1*
X8260883Y5994457D1*
X8239073Y6002737D1*
X8216200Y6007317D1*
X8192883Y6008070D1*
X8169760Y6004977D1*
X8147463Y5998117D1*
X8126597Y5987680D1*
X8107737Y5973953D1*
X8091390Y5957307D1*
X8078007Y5938200D1*
X8073263Y5928270D1*
X8072787Y5928383D1*
X8070217Y5934247D1*
X8057453Y5953773D1*
X8041650Y5970937D1*
X8023237Y5985263D1*
X8002720Y5996363D1*
X7980653Y6003933D1*
X7957643Y6007770D1*
X7934313Y6007767D1*
X7911303Y6003923D1*
X7889240Y5996343D1*
X7868727Y5985237D1*
X7850317Y5970907D1*
X7834520Y5953740D1*
X7821763Y5934207D1*
X7812397Y5912843D1*
X7806673Y5890227D1*
X7804750Y5866977D1*
X7806680Y5843730D1*
X7812410Y5821117D1*
X7821783Y5799753D1*
X7834547Y5780227D1*
X7850350Y5763063D1*
X7868763Y5748737D1*
X7889280Y5737637D1*
X7911347Y5730067D1*
X7934357Y5726230D1*
X7957687Y5726233D1*
X7965170Y5727483D1*
X7997150Y5695490D1*
Y5236153D1*
X7985073Y5240737D1*
X7962200Y5245317D1*
X7938883Y5246070D1*
X7921563Y5243753D1*
X7870303Y5295037D1*
X7227170Y5938170D1*
X7210860Y5950767D1*
X7189290Y5959513D1*
X7169950Y5961850D1*
X2783460Y8699740D2*
X2778717Y8676910D1*
X2770907Y8654937D1*
X2760180Y8634233D1*
X2746733Y8615180D1*
X2730817Y8598140D1*
X2712730Y8583423D1*
X2692803Y8571307D1*
X2671417Y8562017D1*
X2648963Y8555723D1*
X2625863Y8552550D1*
X2602543Y8552547D1*
X2579443Y8555723D1*
X2556990Y8562013D1*
X2535600Y8571303D1*
X2515677Y8583420D1*
X2497587Y8598133D1*
X2481673Y8615177D1*
X2468223Y8634227D1*
X2464127Y8642133D1*
X2148453Y8642150D1*
X2002690D1*
X1998180Y8634233D1*
X1984733Y8615180D1*
X1968817Y8598140D1*
X1950730Y8583423D1*
X1930803Y8571307D1*
X1909417Y8562017D1*
X1886963Y8555723D1*
X1863863Y8552550D1*
X1840543Y8552547D1*
X1817443Y8555723D1*
X1794990Y8562013D1*
X1773600Y8571303D1*
X1753677Y8583420D1*
X1735587Y8598133D1*
X1719673Y8615177D1*
X1706223Y8634227D1*
X1695497Y8654930D1*
X1687687Y8676903D1*
X1682943Y8699733D1*
X1681350Y8722997D1*
X1682940Y8746260D1*
X1687683Y8769090D1*
X1695493Y8791063D1*
X1706220Y8811767D1*
X1719667Y8830820D1*
X1735583Y8847860D1*
X1753670Y8862577D1*
X1773597Y8874693D1*
X1794983Y8883983D1*
X1817437Y8890277D1*
X1840537Y8893450D1*
X1863857Y8893453D1*
X1886957Y8890277D1*
X1909410Y8883987D1*
X1930800Y8874697D1*
X1950723Y8862580D1*
X1968813Y8847867D1*
X1984727Y8830823D1*
X1998177Y8811773D1*
X2002273Y8803867D1*
X2317947Y8803850D1*
X2463710D1*
X2468220Y8811767D1*
X2481667Y8830820D1*
X2497583Y8847860D1*
X2515670Y8862577D1*
X2535597Y8874693D1*
X2556983Y8883983D1*
X2579437Y8890277D1*
X2602537Y8893450D1*
X2625857Y8893453D1*
X2648957Y8890277D1*
X2671410Y8883987D1*
X2692800Y8874697D1*
X2712723Y8862580D1*
X2730813Y8847867D1*
X2746727Y8830823D1*
X2760177Y8811773D1*
X2770903Y8791070D1*
X2778713Y8769097D1*
X2783457Y8746267D1*
X2785050Y8723000D1*
X2783460Y8699740D1*
Y8191740D2*
X2778717Y8168910D1*
X2770907Y8146937D1*
X2760180Y8126233D1*
X2746733Y8107180D1*
X2730817Y8090140D1*
X2712730Y8075423D1*
X2692803Y8063307D1*
X2671417Y8054017D1*
X2648963Y8047723D1*
X2625863Y8044550D1*
X2602543Y8044547D1*
X2579443Y8047723D1*
X2556990Y8054013D1*
X2535600Y8063303D1*
X2515677Y8075420D1*
X2497587Y8090133D1*
X2481673Y8107177D1*
X2468223Y8126227D1*
X2464127Y8134133D1*
X2148453Y8134150D1*
X2002690D1*
X1998180Y8126233D1*
X1984733Y8107180D1*
X1968817Y8090140D1*
X1950730Y8075423D1*
X1930803Y8063307D1*
X1909417Y8054017D1*
X1886963Y8047723D1*
X1863863Y8044550D1*
X1840543Y8044547D1*
X1817443Y8047723D1*
X1794990Y8054013D1*
X1773600Y8063303D1*
X1753677Y8075420D1*
X1735587Y8090133D1*
X1719673Y8107177D1*
X1706223Y8126227D1*
X1695497Y8146930D1*
X1687687Y8168903D1*
X1682943Y8191733D1*
X1681350Y8214997D1*
X1682940Y8238260D1*
X1687683Y8261090D1*
X1695493Y8283063D1*
X1706220Y8303767D1*
X1719667Y8322820D1*
X1735583Y8339860D1*
X1753670Y8354577D1*
X1773597Y8366693D1*
X1794983Y8375983D1*
X1817437Y8382277D1*
X1840537Y8385450D1*
X1863857Y8385453D1*
X1886957Y8382277D1*
X1909410Y8375987D1*
X1930800Y8366697D1*
X1950723Y8354580D1*
X1968813Y8339867D1*
X1984727Y8322823D1*
X1998177Y8303773D1*
X2002273Y8295867D1*
X2317947Y8295850D1*
X2463710D1*
X2468220Y8303767D1*
X2481667Y8322820D1*
X2497583Y8339860D1*
X2515670Y8354577D1*
X2535597Y8366693D1*
X2556983Y8375983D1*
X2579437Y8382277D1*
X2602537Y8385450D1*
X2625857Y8385453D1*
X2648957Y8382277D1*
X2671410Y8375987D1*
X2692800Y8366697D1*
X2712723Y8354580D1*
X2730813Y8339867D1*
X2746727Y8322823D1*
X2760177Y8303773D1*
X2770903Y8283070D1*
X2778713Y8261097D1*
X2783457Y8238267D1*
X2785050Y8215000D1*
X2783460Y8191740D1*
Y7175740D2*
X2778717Y7152910D1*
X2770907Y7130937D1*
X2760180Y7110233D1*
X2746733Y7091180D1*
X2730817Y7074140D1*
X2712730Y7059423D1*
X2692803Y7047307D1*
X2671417Y7038017D1*
X2648963Y7031723D1*
X2625863Y7028550D1*
X2602543Y7028547D1*
X2579443Y7031723D1*
X2556990Y7038013D1*
X2535600Y7047303D1*
X2515677Y7059420D1*
X2497587Y7074133D1*
X2481673Y7091177D1*
X2468223Y7110227D1*
X2464127Y7118133D1*
X2148453Y7118150D1*
X2002690D1*
X1998180Y7110233D1*
X1984733Y7091180D1*
X1968817Y7074140D1*
X1950730Y7059423D1*
X1930803Y7047307D1*
X1909417Y7038017D1*
X1886963Y7031723D1*
X1863863Y7028550D1*
X1840543Y7028547D1*
X1817443Y7031723D1*
X1794990Y7038013D1*
X1773600Y7047303D1*
X1753677Y7059420D1*
X1735587Y7074133D1*
X1719673Y7091177D1*
X1706223Y7110227D1*
X1695497Y7130930D1*
X1687687Y7152903D1*
X1682943Y7175733D1*
X1681350Y7198997D1*
X1682940Y7222260D1*
X1687683Y7245090D1*
X1695493Y7267063D1*
X1706220Y7287767D1*
X1719667Y7306820D1*
X1735583Y7323860D1*
X1753670Y7338577D1*
X1773597Y7350693D1*
X1794983Y7359983D1*
X1817437Y7366277D1*
X1840537Y7369450D1*
X1863857Y7369453D1*
X1886957Y7366277D1*
X1909410Y7359987D1*
X1930800Y7350697D1*
X1950723Y7338580D1*
X1968813Y7323867D1*
X1984727Y7306823D1*
X1998177Y7287773D1*
X2002273Y7279867D1*
X2317947Y7279850D1*
X2463710D1*
X2468220Y7287767D1*
X2481667Y7306820D1*
X2497583Y7323860D1*
X2515670Y7338577D1*
X2535597Y7350693D1*
X2556983Y7359983D1*
X2579437Y7366277D1*
X2602537Y7369450D1*
X2625857Y7369453D1*
X2648957Y7366277D1*
X2671410Y7359987D1*
X2692800Y7350697D1*
X2712723Y7338580D1*
X2730813Y7323867D1*
X2746727Y7306823D1*
X2760177Y7287773D1*
X2770903Y7267070D1*
X2778713Y7245097D1*
X2783457Y7222267D1*
X2785050Y7199000D1*
X2783460Y7175740D1*
X2466683Y6214850D2*
X2785050D1*
Y5873150D1*
X2443350D1*
Y5963133D1*
X2023060Y5963150D1*
X2023050Y5873150D1*
X1681350D1*
Y6214850D1*
X2023050D1*
Y6124867D1*
X2443340Y6124850D1*
X2443350Y6214850D1*
X2466683D1*
X2783460Y5004740D2*
X2778717Y4981910D1*
X2770907Y4959937D1*
X2760180Y4939233D1*
X2746733Y4920180D1*
X2730817Y4903140D1*
X2712730Y4888423D1*
X2692803Y4876307D1*
X2671417Y4867017D1*
X2648963Y4860723D1*
X2625863Y4857550D1*
X2602543Y4857547D1*
X2579443Y4860723D1*
X2556990Y4867013D1*
X2535600Y4876303D1*
X2515677Y4888420D1*
X2497587Y4903133D1*
X2481673Y4920177D1*
X2468223Y4939227D1*
X2464127Y4947133D1*
X2171787Y4947150D1*
X2002690D1*
X1998180Y4939233D1*
X1984733Y4920180D1*
X1968817Y4903140D1*
X1950730Y4888423D1*
X1930803Y4876307D1*
X1909417Y4867017D1*
X1886963Y4860723D1*
X1863863Y4857550D1*
X1840543Y4857547D1*
X1817443Y4860723D1*
X1794990Y4867013D1*
X1773600Y4876303D1*
X1753677Y4888420D1*
X1735587Y4903133D1*
X1719673Y4920177D1*
X1706223Y4939227D1*
X1695497Y4959930D1*
X1687687Y4981903D1*
X1682943Y5004733D1*
X1681350Y5027997D1*
X1682940Y5051260D1*
X1687683Y5074090D1*
X1695493Y5096063D1*
X1706220Y5116767D1*
X1719667Y5135820D1*
X1735583Y5152860D1*
X1753670Y5167577D1*
X1773597Y5179693D1*
X1794983Y5188983D1*
X1817437Y5195277D1*
X1840537Y5198450D1*
X1863857Y5198453D1*
X1886957Y5195277D1*
X1909410Y5188987D1*
X1930800Y5179697D1*
X1950723Y5167580D1*
X1968813Y5152867D1*
X1984727Y5135823D1*
X1998177Y5116773D1*
X2002273Y5108867D1*
X2294613Y5108850D1*
X2463710D1*
X2468220Y5116767D1*
X2481667Y5135820D1*
X2497583Y5152860D1*
X2515670Y5167577D1*
X2535597Y5179693D1*
X2556983Y5188983D1*
X2579437Y5195277D1*
X2602537Y5198450D1*
X2625857Y5198453D1*
X2648957Y5195277D1*
X2671410Y5188987D1*
X2692800Y5179697D1*
X2712723Y5167580D1*
X2730813Y5152867D1*
X2746727Y5135823D1*
X2760177Y5116773D1*
X2770903Y5096070D1*
X2778713Y5074097D1*
X2783457Y5051267D1*
X2785050Y5028000D1*
X2783460Y5004740D1*
X2574430Y4353850D2*
X2570377Y4354867D1*
X2565883Y4356123D1*
X2561427Y4357507D1*
X2557007Y4359007D1*
X2552630Y4360630D1*
X2548303Y4362370D1*
X2544020Y4364230D1*
X2539793Y4366203D1*
X2535620Y4368293D1*
X2531507Y4370497D1*
X2527453Y4372810D1*
X2508220Y4385993D1*
X2490960Y4401670D1*
X2475997Y4419553D1*
X2463713Y4439137D1*
X2002690Y4439150D1*
X1998180Y4431233D1*
X1984733Y4412180D1*
X1968817Y4395140D1*
X1950730Y4380423D1*
X1930803Y4368307D1*
X1926633Y4366217D1*
X1922403Y4364240D1*
X1918123Y4362380D1*
X1913797Y4360640D1*
X1909420Y4359017D1*
X1905003Y4357513D1*
X1900543Y4356133D1*
X1896050Y4354873D1*
X1891973Y4353850D1*
X2574403D1*
X2464123Y3584863D2*
X2468220Y3592767D1*
X2481667Y3611820D1*
X2497583Y3628860D1*
X2515670Y3643577D1*
X2535597Y3655693D1*
X2539767Y3657783D1*
X2543997Y3659760D1*
X2548277Y3661620D1*
X2552603Y3663360D1*
X2556980Y3664983D1*
X2561397Y3666487D1*
X2565857Y3667867D1*
X2570350Y3669127D1*
X2574873Y3670263D1*
X2579430Y3671273D1*
X2583953Y3672150D1*
X1882463D1*
X1886940Y3671280D1*
X1891497Y3670270D1*
X1896023Y3669133D1*
X1900517Y3667877D1*
X1904973Y3666493D1*
X1909393Y3664993D1*
X1913770Y3663370D1*
X1918097Y3661630D1*
X1922380Y3659770D1*
X1926607Y3657797D1*
X1930780Y3655707D1*
X1934893Y3653503D1*
X1954480Y3640853D1*
X1972163Y3625650D1*
X1987610Y3608183D1*
X2000533Y3588773D1*
X2002430Y3584860D1*
X2463710Y3584850D1*
X2644443Y3672150D2*
X2648940Y3671280D1*
X2653497Y3670270D1*
X2658023Y3669133D1*
X2662517Y3667877D1*
X2666973Y3666493D1*
X2671393Y3664993D1*
X2675770Y3663370D1*
X2680097Y3661630D1*
X2684380Y3659770D1*
X2689123Y3657537D1*
X2674517Y3672143D1*
X2644443Y3672150D1*
X5545317Y7875750D2*
X5539593Y7853133D1*
X5534847Y7842303D1*
X5543860Y7837767D1*
X5560170Y7825170D1*
X6031840Y7353500D1*
X6028700Y7367750D1*
X6026770Y7391000D1*
X6028693Y7414250D1*
X6034417Y7436863D1*
X6043783Y7458230D1*
X6056540Y7477760D1*
X6072337Y7494927D1*
X6090743Y7509260D1*
X6106590Y7517837D1*
X6098820Y7521873D1*
X6079493Y7534940D1*
X6062583Y7551010D1*
X6048547Y7569647D1*
X6037770Y7590337D1*
X6030543Y7612517D1*
X6027070Y7635587D1*
X6027440Y7658910D1*
X6029347Y7669330D1*
X5756547Y7942140D1*
X5540463Y7942150D1*
X5543427Y7931567D1*
X5546917Y7908500D1*
X5547240Y7898977D1*
X5545317Y7875750D1*
X14211650Y1492383D2*
Y1485850D1*
X14203607D1*
X14188033Y1474883D1*
X14167740Y1463393D1*
X14146323Y1454160D1*
X14124033Y1447290D1*
X14101137Y1442867D1*
X14077870Y1440940D1*
X14040800Y1440850D1*
X13368223D1*
X13196730Y1269370D1*
X13179370Y1253793D1*
X13160433Y1240183D1*
X13140140Y1228693D1*
X13118723Y1219460D1*
X13096433Y1212590D1*
X13073537Y1208167D1*
X13050270Y1206240D1*
X12997463Y1206150D1*
X3095113D1*
X3071823Y1207410D1*
X3048810Y1211173D1*
X3026333Y1217400D1*
X3004660Y1226017D1*
X2984043Y1236920D1*
X2964723Y1249983D1*
X2946910Y1265070D1*
X2909953Y1301900D1*
X2524817Y1687037D1*
X1718120Y1687030D1*
X1694833Y1688290D1*
X1671817Y1692053D1*
X1649340Y1698280D1*
X1627670Y1706897D1*
X1607053Y1717797D1*
X1587733Y1730860D1*
X1569920Y1745950D1*
X1532320Y1783423D1*
X1265370Y2050370D1*
X1249793Y2067730D1*
X1236183Y2086667D1*
X1224693Y2106960D1*
X1215460Y2128377D1*
X1208590Y2150667D1*
X1204167Y2173563D1*
X1202240Y2196830D1*
X1202150Y2249687D1*
Y9909100D1*
X1203410Y9932387D1*
X1207173Y9955403D1*
X1213400Y9977880D1*
X1222017Y9999553D1*
X1232920Y10020170D1*
X1245983Y10039490D1*
X1261070Y10057303D1*
X1297643Y10094000D1*
X1675337Y10471693D1*
X1675350Y10871380D1*
Y11144300D1*
X1676610Y11167587D1*
X1680373Y11190603D1*
X1686600Y11213080D1*
X1695217Y11234753D1*
X1706120Y11255370D1*
X1719183Y11274690D1*
X1734270Y11292503D1*
X1771810Y11330167D1*
X2207270Y11765630D1*
X2224630Y11781207D1*
X2243567Y11794817D1*
X2263860Y11806307D1*
X2285277Y11815540D1*
X2307567Y11822410D1*
X2330463Y11826833D1*
X2353730Y11828760D1*
X2406550Y11828850D1*
X13878000D1*
X13901287Y11827590D1*
X13924303Y11823827D1*
X13946780Y11817600D1*
X13968453Y11808983D1*
X13989070Y11798080D1*
X14008390Y11785017D1*
X14026203Y11769930D1*
X14063527Y11732730D1*
X14391413Y11404847D1*
X14406990Y11387487D1*
X14420600Y11368550D1*
X14432090Y11348257D1*
X14441323Y11326840D1*
X14448193Y11304550D1*
X14452617Y11281653D1*
X14454543Y11258387D1*
X14454633Y11203153D1*
X14454650Y10476730D1*
X14580630Y10350730D1*
X14596207Y10333373D1*
X14609817Y10314437D1*
X14621307Y10294140D1*
X14630540Y10272723D1*
X14637410Y10250437D1*
X14641833Y10227537D1*
X14643760Y10204273D1*
X14643850Y10151517D1*
Y2013000D1*
X14642590Y1989713D1*
X14638827Y1966697D1*
X14632600Y1944220D1*
X14623983Y1922547D1*
X14613080Y1901930D1*
X14600017Y1882610D1*
X14584930Y1864797D1*
X14547933Y1827677D1*
X14224313Y1504057D1*
X14211650Y1492383D1*
X4423107Y10959683D2*
X4420893Y10936573D1*
X4417217Y10913650D1*
X4412097Y10891007D1*
X4405547Y10868733D1*
X4397600Y10846920D1*
X4388287Y10825657D1*
X4377643Y10805027D1*
X4365710Y10785110D1*
X4352540Y10765993D1*
X4338183Y10747750D1*
X4322700Y10730453D1*
X4306150Y10714173D1*
X4288600Y10698973D1*
X4270120Y10684920D1*
X4250790Y10672067D1*
X4230680Y10660467D1*
X4209877Y10650163D1*
X4188460Y10641200D1*
X4166520Y10633617D1*
X4144140Y10627437D1*
X4121417Y10622687D1*
X4098437Y10619390D1*
X4075293Y10617560D1*
X4052080Y10617197D1*
X4028893Y10618310D1*
X4005820Y10620890D1*
X3982960Y10624930D1*
X3960400Y10630410D1*
X3938233Y10637310D1*
X3916550Y10645600D1*
X3895437Y10655250D1*
X3874977Y10666223D1*
X3855253Y10678467D1*
X3836347Y10691940D1*
X3818333Y10706583D1*
X3801283Y10722340D1*
X3785270Y10739147D1*
X3770353Y10756937D1*
X3756593Y10775637D1*
X3744047Y10795170D1*
X3732767Y10815460D1*
X3722797Y10836423D1*
X3714173Y10857980D1*
X3706937Y10880037D1*
X3701113Y10902510D1*
X3696727Y10925307D1*
X3693797Y10948337D1*
X3692330Y10971507D1*
X3692337Y10994723D1*
X3693817Y11017890D1*
X3696763Y11040917D1*
X3701163Y11063713D1*
X3707000Y11086180D1*
X3714253Y11108237D1*
X3722887Y11129783D1*
X3732873Y11150743D1*
X3744167Y11171027D1*
X3756723Y11190553D1*
X3770493Y11209243D1*
X3785420Y11227023D1*
X3801447Y11243820D1*
X3818507Y11259567D1*
X3836530Y11274200D1*
X3855443Y11287660D1*
X3875173Y11299893D1*
X3895640Y11310850D1*
X3916760Y11320487D1*
X3938450Y11328767D1*
X3960620Y11335653D1*
X3983183Y11341117D1*
X4006047Y11345143D1*
X4029120Y11347710D1*
X4052310Y11348807D1*
X4075523Y11348430D1*
X4098663Y11346583D1*
X4121640Y11343273D1*
X4144363Y11338510D1*
X4166737Y11332317D1*
X4188673Y11324717D1*
X4210083Y11315740D1*
X4230880Y11305427D1*
X4250983Y11293813D1*
X4270307Y11280947D1*
X4288777Y11266880D1*
X4306317Y11251673D1*
X4322857Y11235383D1*
X4338330Y11218077D1*
X4352677Y11199823D1*
X4365833Y11180697D1*
X4377753Y11160777D1*
X4388383Y11140137D1*
X4397687Y11118867D1*
X4405620Y11097050D1*
X4412153Y11074773D1*
X4417260Y11052127D1*
X4420920Y11029200D1*
X4423120Y11006090D1*
X4423850Y10983000D1*
X4423107Y10959683D1*
X12693107D2*
X12690893Y10936573D1*
X12687217Y10913650D1*
X12682097Y10891007D1*
X12675547Y10868733D1*
X12667600Y10846920D1*
X12658287Y10825657D1*
X12647643Y10805027D1*
X12635710Y10785110D1*
X12622540Y10765993D1*
X12608183Y10747750D1*
X12592700Y10730453D1*
X12576150Y10714173D1*
X12558600Y10698973D1*
X12540120Y10684920D1*
X12520790Y10672067D1*
X12500680Y10660467D1*
X12479877Y10650163D1*
X12458460Y10641200D1*
X12436520Y10633617D1*
X12414140Y10627437D1*
X12391417Y10622687D1*
X12368437Y10619390D1*
X12345293Y10617560D1*
X12322080Y10617197D1*
X12298893Y10618310D1*
X12275820Y10620890D1*
X12252960Y10624930D1*
X12230400Y10630410D1*
X12208233Y10637310D1*
X12186550Y10645600D1*
X12165437Y10655250D1*
X12144977Y10666223D1*
X12125253Y10678467D1*
X12106347Y10691940D1*
X12088333Y10706583D1*
X12071283Y10722340D1*
X12055270Y10739147D1*
X12040353Y10756937D1*
X12026593Y10775637D1*
X12014047Y10795170D1*
X12002767Y10815460D1*
X11992797Y10836423D1*
X11984173Y10857980D1*
X11976937Y10880037D1*
X11971113Y10902510D1*
X11966727Y10925307D1*
X11963797Y10948337D1*
X11962330Y10971507D1*
X11962337Y10994723D1*
X11963817Y11017890D1*
X11966763Y11040917D1*
X11971163Y11063713D1*
X11977000Y11086180D1*
X11984253Y11108237D1*
X11992887Y11129783D1*
X12002873Y11150743D1*
X12014167Y11171027D1*
X12026723Y11190553D1*
X12040493Y11209243D1*
X12055420Y11227023D1*
X12071447Y11243820D1*
X12088507Y11259567D1*
X12106530Y11274200D1*
X12125443Y11287660D1*
X12145173Y11299893D1*
X12165640Y11310850D1*
X12186760Y11320487D1*
X12208450Y11328767D1*
X12230620Y11335653D1*
X12253183Y11341117D1*
X12276047Y11345143D1*
X12299120Y11347710D1*
X12322310Y11348807D1*
X12345523Y11348430D1*
X12368663Y11346583D1*
X12391640Y11343273D1*
X12414363Y11338510D1*
X12436737Y11332317D1*
X12458673Y11324717D1*
X12480083Y11315740D1*
X12500880Y11305427D1*
X12520983Y11293813D1*
X12540307Y11280947D1*
X12558777Y11266880D1*
X12576317Y11251673D1*
X12592857Y11235383D1*
X12608330Y11218077D1*
X12622677Y11199823D1*
X12635833Y11180697D1*
X12647753Y11160777D1*
X12658383Y11140137D1*
X12667687Y11118867D1*
X12675620Y11097050D1*
X12682153Y11074773D1*
X12687260Y11052127D1*
X12690920Y11029200D1*
X12693120Y11006090D1*
X12693850Y10983000D1*
X12693107Y10959683D1*
X9058120Y8517770D2*
X9052387Y8495023D1*
X9042987Y8473527D1*
X9030177Y8453873D1*
X9014303Y8436593D1*
X8995807Y8422163D1*
X8975187Y8410977D1*
X8953003Y8403333D1*
X8929867Y8399447D1*
X8906407Y8399423D1*
X8883260Y8403260D1*
X8861063Y8410853D1*
X8840420Y8421997D1*
X8821890Y8436387D1*
X8805980Y8453630D1*
X8793127Y8473257D1*
X8783680Y8494730D1*
X8777897Y8517467D1*
X8775933Y8540847D1*
X8777847Y8564230D1*
X8783580Y8586977D1*
X8792980Y8608473D1*
X8805790Y8628127D1*
X8821663Y8645407D1*
X8840160Y8659837D1*
X8860780Y8671023D1*
X8882963Y8678667D1*
X8906100Y8682553D1*
X8929560Y8682577D1*
X8952703Y8678740D1*
X8974903Y8671147D1*
X8995547Y8660003D1*
X9014077Y8645613D1*
X9029987Y8628370D1*
X9042840Y8608743D1*
X9052287Y8587270D1*
X9058070Y8564533D1*
X9060033Y8541000D1*
X9058120Y8517770D1*
X9058153Y7501770D2*
X9052420Y7479023D1*
X9043020Y7457527D1*
X9030210Y7437873D1*
X9014337Y7420593D1*
X8995840Y7406163D1*
X8975220Y7394977D1*
X8953037Y7387333D1*
X8929900Y7383447D1*
X8906440Y7383423D1*
X8883297Y7387260D1*
X8861097Y7394853D1*
X8840453Y7405997D1*
X8821923Y7420387D1*
X8806013Y7437630D1*
X8793160Y7457257D1*
X8783713Y7478730D1*
X8777930Y7501467D1*
X8775967Y7524847D1*
X8777880Y7548230D1*
X8783613Y7570977D1*
X8793013Y7592473D1*
X8805823Y7612127D1*
X8821697Y7629407D1*
X8840193Y7643837D1*
X8860813Y7655023D1*
X8882997Y7662667D1*
X8906133Y7666553D1*
X8929593Y7666577D1*
X8952740Y7662740D1*
X8974937Y7655147D1*
X8995580Y7644003D1*
X9014110Y7629613D1*
X9030020Y7612370D1*
X9042873Y7592743D1*
X9052320Y7571270D1*
X9058103Y7548533D1*
X9060067Y7525000D1*
X9058153Y7501770D1*
X9040137Y4645793D2*
X9034403Y4623043D1*
X9025003Y4601550D1*
X9012193Y4581897D1*
X8996320Y4564617D1*
X8977823Y4550187D1*
X8957203Y4539000D1*
X8935020Y4531357D1*
X8911883Y4527470D1*
X8888423Y4527443D1*
X8865277Y4531280D1*
X8843080Y4538873D1*
X8822437Y4550020D1*
X8803907Y4564410D1*
X8787997Y4581653D1*
X8775143Y4601280D1*
X8765697Y4622753D1*
X8759913Y4645490D1*
X8757950Y4668867D1*
X8759863Y4692250D1*
X8765597Y4715000D1*
X8774997Y4736497D1*
X8787807Y4756150D1*
X8803680Y4773427D1*
X8822177Y4787857D1*
X8842797Y4799047D1*
X8864980Y4806687D1*
X8888117Y4810573D1*
X8911577Y4810600D1*
X8934723Y4806763D1*
X8956920Y4799170D1*
X8977563Y4788027D1*
X8996093Y4773637D1*
X9012003Y4756393D1*
X9024857Y4736767D1*
X9034303Y4715293D1*
X9040087Y4692557D1*
X9042050Y4669023D1*
X9040137Y4645793D1*
X6798130Y8497770D2*
X6792393Y8475023D1*
X6782993Y8453527D1*
X6770183Y8433873D1*
X6754313Y8416593D1*
X6735813Y8402163D1*
X6715193Y8390977D1*
X6693010Y8383333D1*
X6669873Y8379447D1*
X6646413Y8379423D1*
X6623270Y8383260D1*
X6601070Y8390853D1*
X6580427Y8401997D1*
X6561897Y8416387D1*
X6545987Y8433630D1*
X6533133Y8453257D1*
X6523687Y8474730D1*
X6517903Y8497467D1*
X6515940Y8520847D1*
X6517853Y8544230D1*
X6523587Y8566977D1*
X6532987Y8588473D1*
X6545800Y8608127D1*
X6561670Y8625407D1*
X6580167Y8639837D1*
X6600790Y8651023D1*
X6622970Y8658667D1*
X6646107Y8662553D1*
X6669567Y8662577D1*
X6692713Y8658740D1*
X6714910Y8651147D1*
X6735557Y8640003D1*
X6754087Y8625613D1*
X6769993Y8608370D1*
X6782847Y8588743D1*
X6792293Y8567270D1*
X6798077Y8544533D1*
X6800040Y8521000D1*
X6798130Y8497770D1*
X6798147Y7481770D2*
X6792413Y7459023D1*
X6783013Y7437527D1*
X6770200Y7417873D1*
X6754330Y7400593D1*
X6735833Y7386163D1*
X6715210Y7374977D1*
X6693030Y7367333D1*
X6669893Y7363447D1*
X6646433Y7363423D1*
X6623287Y7367260D1*
X6601090Y7374853D1*
X6580443Y7385997D1*
X6561913Y7400387D1*
X6546007Y7417630D1*
X6533153Y7437257D1*
X6523707Y7458730D1*
X6517923Y7481467D1*
X6515960Y7504847D1*
X6517870Y7528230D1*
X6523607Y7550977D1*
X6533007Y7572473D1*
X6545817Y7592127D1*
X6561687Y7609407D1*
X6580187Y7623837D1*
X6600807Y7635023D1*
X6622990Y7642667D1*
X6646127Y7646553D1*
X6669587Y7646577D1*
X6692730Y7642740D1*
X6714930Y7635147D1*
X6735573Y7624003D1*
X6754103Y7609613D1*
X6770013Y7592370D1*
X6782867Y7572743D1*
X6792313Y7551270D1*
X6798097Y7528533D1*
X6800060Y7505000D1*
X6798147Y7481770D1*
X5146137Y6609787D2*
X5140403Y6587037D1*
X5131003Y6565543D1*
X5118193Y6545887D1*
X5102320Y6528610D1*
X5083823Y6514180D1*
X5063203Y6502990D1*
X5041020Y6495350D1*
X5017883Y6491463D1*
X4994423Y6491437D1*
X4971277Y6495273D1*
X4949080Y6502867D1*
X4928437Y6514010D1*
X4909907Y6528400D1*
X4893997Y6545643D1*
X4881143Y6565270D1*
X4871697Y6586747D1*
X4865913Y6609483D1*
X4863950Y6632860D1*
X4865863Y6656243D1*
X4871597Y6678993D1*
X4880997Y6700487D1*
X4893807Y6720143D1*
X4909680Y6737420D1*
X4928177Y6751850D1*
X4948797Y6763040D1*
X4970980Y6770680D1*
X4994117Y6774567D1*
X5017577Y6774593D1*
X5040723Y6770757D1*
X5062920Y6763163D1*
X5083563Y6752020D1*
X5102093Y6737630D1*
X5118003Y6720387D1*
X5130857Y6700760D1*
X5140303Y6679283D1*
X5146087Y6656547D1*
X5148050Y6633013D1*
X5146137Y6609787D1*
X4110137Y8179770D2*
X4104403Y8157023D1*
X4095003Y8135527D1*
X4082193Y8115873D1*
X4066320Y8098593D1*
X4047823Y8084163D1*
X4027203Y8072977D1*
X4005020Y8065333D1*
X3981883Y8061447D1*
X3958423Y8061423D1*
X3935277Y8065260D1*
X3913080Y8072853D1*
X3892437Y8083997D1*
X3873907Y8098387D1*
X3857997Y8115630D1*
X3845143Y8135257D1*
X3835697Y8156730D1*
X3829913Y8179467D1*
X3827950Y8202847D1*
X3829863Y8226230D1*
X3835597Y8248977D1*
X3844997Y8270473D1*
X3857807Y8290127D1*
X3873680Y8307407D1*
X3892177Y8321837D1*
X3912797Y8333023D1*
X3934980Y8340667D1*
X3958117Y8344553D1*
X3981577Y8344577D1*
X4004723Y8340740D1*
X4026920Y8333147D1*
X4047563Y8322003D1*
X4066093Y8307613D1*
X4082003Y8290370D1*
X4094857Y8270743D1*
X4104303Y8249270D1*
X4110087Y8226533D1*
X4112050Y8203000D1*
X4110137Y8179770D1*
X3388137Y3697770D2*
X3382403Y3675023D1*
X3373003Y3653527D1*
X3360193Y3633873D1*
X3344320Y3616593D1*
X3325823Y3602163D1*
X3305203Y3590977D1*
X3283020Y3583333D1*
X3259883Y3579447D1*
X3236423Y3579423D1*
X3213277Y3583260D1*
X3191080Y3590853D1*
X3170437Y3601997D1*
X3151907Y3616387D1*
X3135997Y3633630D1*
X3123143Y3653257D1*
X3113697Y3674730D1*
X3107913Y3697467D1*
X3105950Y3720847D1*
X3107863Y3744230D1*
X3113597Y3766977D1*
X3122997Y3788473D1*
X3135807Y3808127D1*
X3151680Y3825407D1*
X3170177Y3839837D1*
X3190797Y3851023D1*
X3212980Y3858667D1*
X3236117Y3862553D1*
X3259577Y3862577D1*
X3282723Y3858740D1*
X3304920Y3851147D1*
X3325563Y3840003D1*
X3344093Y3825613D1*
X3360003Y3808370D1*
X3372857Y3788743D1*
X3382303Y3767270D1*
X3388087Y3744533D1*
X3390050Y3721000D1*
X3388137Y3697770D1*
X3148137Y4697770D2*
X3142403Y4675023D1*
X3133003Y4653527D1*
X3120193Y4633873D1*
X3104320Y4616593D1*
X3085823Y4602163D1*
X3065203Y4590977D1*
X3043020Y4583333D1*
X3019883Y4579447D1*
X2996423Y4579423D1*
X2973277Y4583260D1*
X2951080Y4590853D1*
X2930437Y4601997D1*
X2911907Y4616387D1*
X2895997Y4633630D1*
X2883143Y4653257D1*
X2873697Y4674730D1*
X2867913Y4697467D1*
X2865950Y4720847D1*
X2867863Y4744230D1*
X2873597Y4766977D1*
X2882997Y4788473D1*
X2895807Y4808127D1*
X2911680Y4825407D1*
X2930177Y4839837D1*
X2950797Y4851023D1*
X2972980Y4858667D1*
X2996117Y4862553D1*
X3019577Y4862577D1*
X3042723Y4858740D1*
X3064920Y4851147D1*
X3085563Y4840003D1*
X3104093Y4825613D1*
X3120003Y4808370D1*
X3132857Y4788743D1*
X3142303Y4767270D1*
X3148087Y4744533D1*
X3150050Y4721000D1*
X3148137Y4697770D1*
X4620797Y4036953D2*
X4626137Y4033113D1*
X4642677Y4016477D1*
X4656250Y3997340D1*
X4660740Y3988083D1*
X4667370Y4000010D1*
X4681363Y4018843D1*
X4698263Y4035117D1*
X4717610Y4048383D1*
X4724860Y4051760D1*
X4714913Y4057193D1*
X4695863Y4070887D1*
X4679323Y4087523D1*
X4676050Y4092140D1*
Y4036950D1*
X4621430D1*
X4422127Y8928680D2*
X4419950Y8905407D1*
X4416333Y8882310D1*
X4411287Y8859483D1*
X4404830Y8837013D1*
X4396987Y8814990D1*
X4387793Y8793497D1*
X4377280Y8772617D1*
X4365490Y8752430D1*
X4352467Y8733017D1*
X4338260Y8714450D1*
X4322930Y8696800D1*
X4306530Y8680140D1*
X4289127Y8664530D1*
X4270787Y8650033D1*
X4251580Y8636707D1*
X4231583Y8624597D1*
X4210870Y8613757D1*
X4189523Y8604220D1*
X4167627Y8596033D1*
X4145263Y8589223D1*
X4122520Y8583817D1*
X4099483Y8579833D1*
X4076247Y8577290D1*
X4052893Y8576197D1*
X4029520Y8576557D1*
X4006210Y8578370D1*
X3983060Y8581630D1*
X3960160Y8586320D1*
X3937593Y8592427D1*
X3915450Y8599923D1*
X3893817Y8608783D1*
X3872773Y8618970D1*
X3852407Y8630447D1*
X3832793Y8643167D1*
X3814007Y8657080D1*
X3796123Y8672137D1*
X3779210Y8688273D1*
X3763330Y8705433D1*
X3748550Y8723547D1*
X3734927Y8742543D1*
X3722507Y8762350D1*
X3711343Y8782890D1*
X3701480Y8804083D1*
X3692953Y8825850D1*
X3685793Y8848107D1*
X3680033Y8870763D1*
X3675693Y8893733D1*
X3672790Y8916930D1*
X3671333Y8940263D1*
X3671330Y8963640D1*
X3672780Y8986973D1*
X3675680Y9010170D1*
X3680013Y9033143D1*
X3685767Y9055803D1*
X3692920Y9078060D1*
X3701443Y9099827D1*
X3711300Y9121023D1*
X3722460Y9141567D1*
X3734873Y9161377D1*
X3748493Y9180377D1*
X3763267Y9198493D1*
X3779140Y9215657D1*
X3796050Y9231800D1*
X3813930Y9246860D1*
X3832713Y9260780D1*
X3852323Y9273503D1*
X3872690Y9284987D1*
X3893727Y9295177D1*
X3915360Y9304043D1*
X3937500Y9311547D1*
X3960067Y9317657D1*
X3982967Y9322357D1*
X4006117Y9325620D1*
X4029423Y9327440D1*
X4052797Y9327807D1*
X4076150Y9326717D1*
X4099390Y9324180D1*
X4122427Y9320203D1*
X4145170Y9314803D1*
X4167537Y9307997D1*
X4189437Y9299813D1*
X4210783Y9290287D1*
X4231497Y9279450D1*
X4251500Y9267347D1*
X4270707Y9254023D1*
X4289053Y9239530D1*
X4306460Y9223927D1*
X4322863Y9207270D1*
X4338200Y9189627D1*
X4352410Y9171063D1*
X4365437Y9151650D1*
X4377233Y9131467D1*
X4387753Y9110590D1*
X4396953Y9089100D1*
X4404800Y9067077D1*
X4411260Y9044610D1*
X4416313Y9021787D1*
X4419940Y8998690D1*
X4422120Y8975413D1*
X4422850Y8952000D1*
X4422127Y8928680D1*
X5359077Y4051737D2*
X5369087Y4046807D1*
X5388137Y4033113D1*
X5404677Y4016477D1*
X5418250Y3997340D1*
X5422740Y3988083D1*
X5429370Y4000010D1*
X5443363Y4018843D1*
X5460263Y4035117D1*
X5479610Y4048383D1*
X5486860Y4051760D1*
X5476913Y4057193D1*
X5457863Y4070887D1*
X5441323Y4087523D1*
X5427750Y4106660D1*
X5423260Y4115917D1*
X5421003Y4111527D1*
X5408193Y4091873D1*
X5392320Y4074593D1*
X5373823Y4060163D1*
X5359183Y4052220D1*
X5867090Y4051737D2*
X5876423Y4047200D1*
X5895550Y4033613D1*
X5912177Y4017063D1*
X5925857Y3998003D1*
X5930740Y3988073D1*
X5937370Y4000010D1*
X5951363Y4018843D1*
X5968263Y4035117D1*
X5987610Y4048383D1*
X5994860Y4051760D1*
X5984913Y4057193D1*
X5965863Y4070887D1*
X5949323Y4087523D1*
X5935750Y4106660D1*
X5931260Y4115917D1*
X5929003Y4111527D1*
X5916193Y4091873D1*
X5900320Y4074593D1*
X5881823Y4060163D1*
X5867183Y4052220D1*
X6184830Y4115703D2*
X6183003Y4111527D1*
X6170193Y4091873D1*
X6154320Y4074593D1*
X6135823Y4060163D1*
X6121183Y4052220D1*
X6130423Y4047200D1*
X6149550Y4033613D1*
X6166177Y4017063D1*
X6179857Y3998003D1*
X6184740Y3988073D1*
X6191370Y4000010D1*
X6205363Y4018843D1*
X6222263Y4035117D1*
X6241610Y4048383D1*
X6248860Y4051760D1*
X6238913Y4057193D1*
X6219863Y4070887D1*
X6203323Y4087523D1*
X6189750Y4106660D1*
X6185260Y4115917D1*
X6568850Y4563050D2*
X6568840Y4587820D1*
X6617150Y4539493D1*
X6617167Y4311020D1*
X6608663Y4314493D1*
X6585780Y4319667D1*
X6562357Y4321003D1*
X6539033Y4318467D1*
X6516447Y4312127D1*
X6495210Y4302153D1*
X6475903Y4288823D1*
X6459057Y4272497D1*
X6445127Y4253617D1*
X6438857Y4242377D1*
X6428887Y4259720D1*
X6414007Y4277857D1*
X6396343Y4293300D1*
X6376380Y4305623D1*
X6354663Y4314493D1*
X6331780Y4319667D1*
X6308357Y4321003D1*
X6285033Y4318467D1*
X6262447Y4312127D1*
X6241210Y4302153D1*
X6221903Y4288823D1*
X6205057Y4272497D1*
X6191127Y4253617D1*
X6184857Y4242377D1*
X6174887Y4259720D1*
X6160007Y4277857D1*
X6142343Y4293300D1*
X6122380Y4305623D1*
X6100663Y4314493D1*
X6077780Y4319667D1*
X6054357Y4321003D1*
X6031033Y4318467D1*
X6008447Y4312127D1*
X5987210Y4302153D1*
X5967903Y4288823D1*
X5951057Y4272497D1*
X5937127Y4253617D1*
X5931260Y4242080D1*
X5930857Y4242377D1*
X5920887Y4259720D1*
X5906007Y4277857D1*
X5888343Y4293300D1*
X5868380Y4305623D1*
X5846663Y4314493D1*
X5839177Y4316183D1*
X6005130Y4482150D1*
X6488000D1*
X6508440Y4484777D1*
X6529860Y4493830D1*
X6547813Y4508603D1*
X6560823Y4527877D1*
X6567807Y4550077D1*
X6568850Y4563050D1*
X6438830Y4115703D2*
X6437003Y4111527D1*
X6424193Y4091873D1*
X6408320Y4074593D1*
X6389823Y4060163D1*
X6375183Y4052220D1*
X6384423Y4047200D1*
X6403550Y4033613D1*
X6420177Y4017063D1*
X6433857Y3998003D1*
X6438740Y3988073D1*
X6445370Y4000010D1*
X6459363Y4018843D1*
X6476263Y4035117D1*
X6495610Y4048383D1*
X6502860Y4051760D1*
X6492913Y4057193D1*
X6473863Y4070887D1*
X6457323Y4087523D1*
X6443750Y4106660D1*
X6439260Y4115917D1*
X6777147Y4589513D2*
X6867150Y4499527D1*
X6867137Y4312663D1*
X6862663Y4314493D1*
X6839780Y4319667D1*
X6816357Y4321003D1*
X6793033Y4318467D1*
X6778850Y4314487D1*
Y4572933D1*
X6777147Y4589513D1*
X7137090Y4051737D2*
X7146423Y4047200D1*
X7165550Y4033613D1*
X7182177Y4017063D1*
X7195857Y3998003D1*
X7200740Y3988073D1*
X7207370Y4000010D1*
X7221363Y4018843D1*
X7238263Y4035117D1*
X7257610Y4048383D1*
X7264860Y4051760D1*
X7254913Y4057193D1*
X7235863Y4070887D1*
X7219323Y4087523D1*
X7205750Y4106660D1*
X7201260Y4115917D1*
X7199003Y4111527D1*
X7186193Y4091873D1*
X7170320Y4074593D1*
X7151823Y4060163D1*
X7137183Y4052220D1*
X7028850Y4532930D2*
X7028833Y4313357D1*
X7047033Y4318467D1*
X7070357Y4321003D1*
X7093780Y4319667D1*
X7116663Y4314493D1*
X7138380Y4305623D1*
X7158343Y4293300D1*
X7176007Y4277857D1*
X7190887Y4259720D1*
X7200857Y4242377D1*
X7207127Y4253617D1*
X7221057Y4272497D1*
X7237903Y4288823D1*
X7257210Y4302153D1*
X7278447Y4312127D1*
X7301033Y4318467D1*
X7324357Y4321003D1*
X7347780Y4319667D1*
X7370663Y4314493D1*
X7392380Y4305623D1*
X7412343Y4293300D1*
X7430007Y4277857D1*
X7444887Y4259720D1*
X7454857Y4242377D1*
X7461127Y4253617D1*
X7475057Y4272497D1*
X7491903Y4288823D1*
X7511210Y4302153D1*
X7532447Y4312127D1*
X7555033Y4318467D1*
X7577150Y4320873D1*
Y4873000D1*
X7580493Y4896010D1*
X7590247Y4917117D1*
X7605607Y4934577D1*
X7625300Y4946940D1*
X7647720Y4953190D1*
X7658070Y4953850D1*
X7997150Y4953837D1*
X7997137Y4973723D1*
X7980697Y4968077D1*
X7957687Y4964233D1*
X7934357Y4964230D1*
X7911347Y4968067D1*
X7889280Y4975637D1*
X7868763Y4986737D1*
X7850350Y5001063D1*
X7834547Y5018227D1*
X7821783Y5037753D1*
X7819213Y5043617D1*
X7818790Y5043613D1*
X7816237Y5037793D1*
X7803480Y5018260D1*
X7787683Y5001093D1*
X7769273Y4986763D1*
X7748760Y4975657D1*
X7726697Y4968077D1*
X7703687Y4964233D1*
X7680357Y4964230D1*
X7657347Y4968067D1*
X7635280Y4975637D1*
X7614763Y4986737D1*
X7596350Y5001063D1*
X7580547Y5018227D1*
X7576670Y5024157D1*
X7303493Y5024150D1*
X7168043Y4888703D1*
X7170050Y4865000D1*
X7168137Y4841770D1*
X7162403Y4819023D1*
X7153003Y4797527D1*
X7140193Y4777873D1*
X7124320Y4760593D1*
X7105823Y4746163D1*
X7085203Y4734977D1*
X7063020Y4727333D1*
X7039883Y4723447D1*
X7016423Y4723423D1*
X6993277Y4727260D1*
X6971080Y4734853D1*
X6950437Y4745997D1*
X6931907Y4760387D1*
X6915997Y4777630D1*
X6903143Y4797257D1*
X6893697Y4818730D1*
X6887913Y4841467D1*
X6885950Y4864847D1*
X6887150Y4879530D1*
X6768853Y4997810D1*
X6768850Y4826470D1*
X7005170Y4590170D1*
X7019077Y4571533D1*
X7027107Y4549690D1*
X7028850Y4532930D1*
X7391090Y4051737D2*
X7400423Y4047200D1*
X7419550Y4033613D1*
X7436177Y4017063D1*
X7449857Y3998003D1*
X7454740Y3988073D1*
X7461370Y4000010D1*
X7475363Y4018843D1*
X7492263Y4035117D1*
X7511610Y4048383D1*
X7518860Y4051760D1*
X7508913Y4057193D1*
X7489863Y4070887D1*
X7473323Y4087523D1*
X7459750Y4106660D1*
X7455260Y4115917D1*
X7453003Y4111527D1*
X7440193Y4091873D1*
X7424320Y4074593D1*
X7405823Y4060163D1*
X7391183Y4052220D1*
X7962830Y4115703D2*
X7961003Y4111527D1*
X7948193Y4091873D1*
X7932320Y4074593D1*
X7913823Y4060163D1*
X7899183Y4052220D1*
X7908423Y4047200D1*
X7927550Y4033613D1*
X7944177Y4017063D1*
X7957857Y3998003D1*
X7962740Y3988073D1*
X7969370Y4000010D1*
X7983363Y4018843D1*
X8000263Y4035117D1*
X8019610Y4048383D1*
X8026860Y4051760D1*
X8016913Y4057193D1*
X7997863Y4070887D1*
X7981323Y4087523D1*
X7967750Y4106660D1*
X7963260Y4115917D1*
X8216830Y4115703D2*
X8215003Y4111527D1*
X8202193Y4091873D1*
X8186320Y4074593D1*
X8167823Y4060163D1*
X8153183Y4052220D1*
X8162423Y4047200D1*
X8181550Y4033613D1*
X8198177Y4017063D1*
X8211857Y3998003D1*
X8216740Y3988073D1*
X8223370Y4000010D1*
X8237363Y4018843D1*
X8254263Y4035117D1*
X8273610Y4048383D1*
X8280860Y4051760D1*
X8270913Y4057193D1*
X8251863Y4070887D1*
X8235323Y4087523D1*
X8221750Y4106660D1*
X8217260Y4115917D1*
X8470830Y4115703D2*
X8469003Y4111527D1*
X8456193Y4091873D1*
X8440320Y4074593D1*
X8421823Y4060163D1*
X8407183Y4052220D1*
X8416423Y4047200D1*
X8435550Y4033613D1*
X8452177Y4017063D1*
X8465857Y3998003D1*
X8470740Y3988073D1*
X8477370Y4000010D1*
X8491363Y4018843D1*
X8508263Y4035117D1*
X8527610Y4048383D1*
X8534860Y4051760D1*
X8524913Y4057193D1*
X8505863Y4070887D1*
X8489323Y4087523D1*
X8475750Y4106660D1*
X8471260Y4115917D1*
X8724830Y4115703D2*
X8723003Y4111527D1*
X8710193Y4091873D1*
X8694320Y4074593D1*
X8675823Y4060163D1*
X8661183Y4052220D1*
X8670423Y4047200D1*
X8689550Y4033613D1*
X8706177Y4017063D1*
X8719857Y3998003D1*
X8724740Y3988073D1*
X8731370Y4000010D1*
X8745363Y4018843D1*
X8762263Y4035117D1*
X8781610Y4048383D1*
X8788860Y4051760D1*
X8778913Y4057193D1*
X8759863Y4070887D1*
X8743323Y4087523D1*
X8729750Y4106660D1*
X8725260Y4115917D1*
X8915090Y4051737D2*
X8924423Y4047200D1*
X8943550Y4033613D1*
X8960177Y4017063D1*
X8973857Y3998003D1*
X8978740Y3988073D1*
X8985370Y4000010D1*
X8999363Y4018843D1*
X9016263Y4035117D1*
X9035610Y4048383D1*
X9042860Y4051760D1*
X9032913Y4057193D1*
X9013863Y4070887D1*
X8997323Y4087523D1*
X8983750Y4106660D1*
X8979260Y4115917D1*
X8977003Y4111527D1*
X8964193Y4091873D1*
X8948320Y4074593D1*
X8929823Y4060163D1*
X8915183Y4052220D1*
X10222127Y8928680D2*
X10219950Y8905407D1*
X10216333Y8882310D1*
X10211287Y8859483D1*
X10204830Y8837013D1*
X10196987Y8814990D1*
X10187793Y8793497D1*
X10177280Y8772617D1*
X10165490Y8752430D1*
X10152467Y8733017D1*
X10138260Y8714450D1*
X10122930Y8696800D1*
X10106530Y8680140D1*
X10089127Y8664530D1*
X10070787Y8650033D1*
X10051580Y8636707D1*
X10031583Y8624597D1*
X10010870Y8613757D1*
X9989523Y8604220D1*
X9967627Y8596033D1*
X9945263Y8589223D1*
X9922520Y8583817D1*
X9899483Y8579833D1*
X9876247Y8577290D1*
X9852893Y8576197D1*
X9829520Y8576557D1*
X9806210Y8578370D1*
X9783060Y8581630D1*
X9760160Y8586320D1*
X9737593Y8592427D1*
X9715450Y8599923D1*
X9693817Y8608783D1*
X9672773Y8618970D1*
X9652407Y8630447D1*
X9632793Y8643167D1*
X9614007Y8657080D1*
X9596123Y8672137D1*
X9579210Y8688273D1*
X9563330Y8705433D1*
X9548550Y8723547D1*
X9534927Y8742543D1*
X9522507Y8762350D1*
X9511343Y8782890D1*
X9501480Y8804083D1*
X9492953Y8825850D1*
X9485793Y8848107D1*
X9480033Y8870763D1*
X9475693Y8893733D1*
X9472790Y8916930D1*
X9471333Y8940263D1*
X9471330Y8963640D1*
X9472780Y8986973D1*
X9475680Y9010170D1*
X9480013Y9033143D1*
X9485767Y9055803D1*
X9492920Y9078060D1*
X9501443Y9099827D1*
X9511300Y9121023D1*
X9522460Y9141567D1*
X9534873Y9161377D1*
X9548493Y9180377D1*
X9563267Y9198493D1*
X9579140Y9215657D1*
X9596050Y9231800D1*
X9613930Y9246860D1*
X9632713Y9260780D1*
X9652323Y9273503D1*
X9672690Y9284987D1*
X9693727Y9295177D1*
X9715360Y9304043D1*
X9737500Y9311547D1*
X9760067Y9317657D1*
X9782967Y9322357D1*
X9806117Y9325620D1*
X9829423Y9327440D1*
X9852797Y9327807D1*
X9876150Y9326717D1*
X9899390Y9324180D1*
X9922427Y9320203D1*
X9945170Y9314803D1*
X9967537Y9307997D1*
X9989437Y9299813D1*
X10010783Y9290287D1*
X10031497Y9279450D1*
X10051500Y9267347D1*
X10070707Y9254023D1*
X10089053Y9239530D1*
X10106460Y9223927D1*
X10122863Y9207270D1*
X10138200Y9189627D1*
X10152410Y9171063D1*
X10165437Y9151650D1*
X10177233Y9131467D1*
X10187753Y9110590D1*
X10196953Y9089100D1*
X10204800Y9067077D1*
X10211260Y9044610D1*
X10216313Y9021787D1*
X10219940Y8998690D1*
X10222120Y8975413D1*
X10222850Y8952000D1*
X10222127Y8928680D1*
X4689050Y6301723D2*
Y4825437D1*
X4689230Y4795770D1*
X4693073Y4772800D1*
X4701753Y4751190D1*
X4714867Y4731947D1*
X4731803Y4715960D1*
X4751773Y4703980D1*
X4773847Y4696560D1*
X4797000Y4694050D1*
X6297000D1*
X6309443Y4694770D1*
X6332150Y4699933D1*
X6353223Y4709847D1*
X6371680Y4724050D1*
X6386660Y4741880D1*
X6397467Y4762507D1*
X6403600Y4784997D1*
X6404950Y4802057D1*
Y6302000D1*
X6404230Y6314443D1*
X6399067Y6337150D1*
X6389153Y6358223D1*
X6374950Y6376680D1*
X6357120Y6391660D1*
X6336493Y6402467D1*
X6314003Y6408600D1*
X6296943Y6409950D1*
X4797000D1*
X4784557Y6409230D1*
X4761850Y6404067D1*
X4740777Y6394153D1*
X4722323Y6379950D1*
X4707340Y6362120D1*
X4696533Y6341493D1*
X4690400Y6319003D1*
X4689050Y6301723D1*
X8157807Y4860077D2*
X8150823Y4837877D1*
X8137813Y4818603D1*
X8119857Y4803830D1*
X8098440Y4794777D1*
X8078000Y4792150D1*
X7953843D1*
X7961563Y4787980D1*
X7980093Y4773590D1*
X7996003Y4756347D1*
X8008857Y4736720D1*
X8018303Y4715247D1*
X8024087Y4692510D1*
X8026050Y4668977D1*
X8024137Y4645750D1*
X8018403Y4623000D1*
X8009003Y4601503D1*
X7996193Y4581850D1*
X7980320Y4564573D1*
X7961823Y4550143D1*
X7941203Y4538953D1*
X7919020Y4531313D1*
X7895883Y4527427D1*
X7872423Y4527400D1*
X7849277Y4531237D1*
X7827080Y4538830D1*
X7806437Y4549973D1*
X7787907Y4564363D1*
X7771997Y4581607D1*
X7759143Y4601233D1*
X7749697Y4622707D1*
X7743913Y4645443D1*
X7741950Y4668823D1*
X7743863Y4692207D1*
X7749597Y4714957D1*
X7758997Y4736450D1*
X7771807Y4756103D1*
X7787680Y4773383D1*
X7806177Y4787813D1*
X7814170Y4792150D1*
X7738870D1*
X7738850Y4522627D1*
Y4337487D1*
X7768137Y4308203D1*
X7771050Y4305137D1*
X7773033Y4306333D1*
X7794850Y4314960D1*
X7817790Y4319877D1*
X7841227Y4320953D1*
X7864520Y4318157D1*
X7887033Y4311567D1*
X7908157Y4301357D1*
X7927313Y4287813D1*
X7943977Y4271297D1*
X7957697Y4252267D1*
X7962723Y4242100D1*
X7969127Y4253617D1*
X7983057Y4272497D1*
X7999903Y4288823D1*
X8019210Y4302153D1*
X8040447Y4312127D1*
X8063033Y4318467D1*
X8086357Y4321003D1*
X8109780Y4319667D1*
X8126517Y4315883D1*
X8247140Y4436480D1*
X8247150Y4971840D1*
X8247130Y4972347D1*
X8234697Y4968077D1*
X8211687Y4964233D1*
X8188357Y4964230D1*
X8165347Y4968067D1*
X8158860Y4970293D1*
X8158850Y4873050D1*
X8157807Y4860077D1*
X9294157Y4717877D2*
X9303223Y4696440D1*
X9305850Y4676000D1*
X9305863Y4309973D1*
X9310447Y4312127D1*
X9333033Y4318467D1*
X9356357Y4321003D1*
X9379780Y4319667D1*
X9402663Y4314493D1*
X9407137Y4312663D1*
X9407150Y4619530D1*
X8935763Y5090897D1*
X8737853Y5288807D1*
X8737850Y5277490D1*
X9282137Y4733203D1*
X9294157Y4717877D1*
X10496637Y6448700D2*
X9288850Y7656503D1*
X9288847Y8468963D1*
X9303920Y8486617D1*
X9315317Y8507283D1*
X9322323Y8529823D1*
X9324650Y8553310D1*
X9322200Y8576783D1*
X9315073Y8599287D1*
X9303563Y8619893D1*
X9288143Y8637760D1*
X9269440Y8652157D1*
X9248223Y8662497D1*
X9225357Y8668350D1*
X9201783Y8669483D1*
X9178463Y8665847D1*
X9156350Y8657593D1*
X9136353Y8645053D1*
X9119290Y8628747D1*
X9105857Y8609340D1*
X9096607Y8587627D1*
X9091917Y8564493D1*
X9091980Y8540890D1*
X9096793Y8517783D1*
X9106157Y8496120D1*
X9119693Y8476783D1*
X9127150Y8468910D1*
Y7623067D1*
X9128897Y7606290D1*
X9136923Y7584467D1*
X9150830Y7565830D1*
X10358650Y6358003D1*
X10358657Y2767633D1*
X10340970Y2756877D1*
X10322883Y2742160D1*
X10306967Y2725120D1*
X10293520Y2706067D1*
X10282793Y2685363D1*
X10274983Y2663390D1*
X10270240Y2640560D1*
X10268650Y2617297D1*
X10270243Y2594033D1*
X10274987Y2571203D1*
X10282797Y2549230D1*
X10293523Y2528527D1*
X10306973Y2509477D1*
X10322887Y2492433D1*
X10340977Y2477720D1*
X10358650Y2466810D1*
X10358657Y2005633D1*
X10340970Y1994877D1*
X10322883Y1980160D1*
X10306967Y1963120D1*
X10293520Y1944067D1*
X10282793Y1923363D1*
X10274983Y1901390D1*
X10270240Y1878560D1*
X10268650Y1855297D1*
X10270243Y1832033D1*
X10274987Y1809203D1*
X10282797Y1787230D1*
X10293523Y1766527D1*
X10306973Y1747477D1*
X10322887Y1730433D1*
X10340977Y1715720D1*
X10360900Y1703603D1*
X10382290Y1694313D1*
X10404743Y1688023D1*
X10427843Y1684847D1*
X10451163Y1684850D1*
X10474263Y1688023D1*
X10496717Y1694317D1*
X10518103Y1703607D1*
X10538030Y1715723D1*
X10556117Y1730440D1*
X10572033Y1747480D1*
X10585480Y1766533D1*
X10596207Y1787237D1*
X10604017Y1809210D1*
X10608760Y1832040D1*
X10610350Y1855303D1*
X10608757Y1878567D1*
X10604013Y1901397D1*
X10596203Y1923370D1*
X10585477Y1944073D1*
X10572027Y1963123D1*
X10556113Y1980167D1*
X10538023Y1994880D1*
X10520350Y2005790D1*
X10520343Y2466967D1*
X10538030Y2477723D1*
X10556117Y2492440D1*
X10572033Y2509480D1*
X10585480Y2528533D1*
X10596207Y2549237D1*
X10604017Y2571210D1*
X10608760Y2594040D1*
X10610350Y2617303D1*
X10608757Y2640567D1*
X10604013Y2663397D1*
X10596203Y2685370D1*
X10585477Y2706073D1*
X10572027Y2725123D1*
X10556113Y2742167D1*
X10538023Y2756880D1*
X10520337Y2767637D1*
X10520350Y2984870D1*
Y6391500D1*
X10517723Y6411940D1*
X10508657Y6433377D1*
X10496637Y6448700D1*
X3671217Y7764123D2*
X4235720Y7199620D1*
X4255357Y7198350D1*
X4278223Y7192497D1*
X4299440Y7182157D1*
X4318143Y7167760D1*
X4333563Y7149893D1*
X4345073Y7129287D1*
X4352200Y7106783D1*
X4354650Y7083000D1*
X4352323Y7059823D1*
X4345317Y7037283D1*
X4333920Y7016617D1*
X4318593Y6998667D1*
X4299967Y6984170D1*
X4278803Y6973720D1*
X4255970Y6967743D1*
X4232400Y6966483D1*
X4209060Y6969997D1*
X4186907Y6978137D1*
X4166843Y6990567D1*
X4149693Y7006783D1*
X4136157Y7026120D1*
X4126793Y7047783D1*
X4121980Y7070890D1*
X4121943Y7084697D1*
X3949920Y7256740D1*
X3580510Y7626150D1*
X2764277Y7626137D1*
X2760180Y7618233D1*
X2746733Y7599180D1*
X2730817Y7582140D1*
X2712730Y7567423D1*
X2692803Y7555307D1*
X2671417Y7546017D1*
X2648963Y7539723D1*
X2625863Y7536550D1*
X2602543Y7536547D1*
X2579443Y7539723D1*
X2556990Y7546013D1*
X2535600Y7555303D1*
X2515677Y7567420D1*
X2497587Y7582133D1*
X2481673Y7599177D1*
X2468223Y7618227D1*
X2464127Y7626133D1*
X2148453Y7626150D1*
X2002690D1*
X1998180Y7618233D1*
X1984733Y7599180D1*
X1968817Y7582140D1*
X1950730Y7567423D1*
X1930803Y7555307D1*
X1909417Y7546017D1*
X1886963Y7539723D1*
X1863863Y7536550D1*
X1840543Y7536547D1*
X1817443Y7539723D1*
X1794990Y7546013D1*
X1773600Y7555303D1*
X1753677Y7567420D1*
X1735587Y7582133D1*
X1719673Y7599177D1*
X1706223Y7618227D1*
X1695497Y7638930D1*
X1687687Y7660903D1*
X1682943Y7683733D1*
X1681350Y7706997D1*
X1682940Y7730260D1*
X1687683Y7753090D1*
X1695493Y7775063D1*
X1706220Y7795767D1*
X1719667Y7814820D1*
X1735583Y7831860D1*
X1753670Y7846577D1*
X1773597Y7858693D1*
X1794983Y7867983D1*
X1817437Y7874277D1*
X1840537Y7877450D1*
X1863857Y7877453D1*
X1886957Y7874277D1*
X1909410Y7867987D1*
X1930800Y7858697D1*
X1950723Y7846580D1*
X1968813Y7831867D1*
X1984727Y7814823D1*
X1998177Y7795773D1*
X2002273Y7787867D1*
X2317947Y7787850D1*
X2463710D1*
X2468220Y7795767D1*
X2481667Y7814820D1*
X2497583Y7831860D1*
X2515670Y7846577D1*
X2535597Y7858693D1*
X2556983Y7867983D1*
X2579437Y7874277D1*
X2602537Y7877450D1*
X2625857Y7877453D1*
X2648957Y7874277D1*
X2671410Y7867987D1*
X2692800Y7858697D1*
X2712723Y7846580D1*
X2730813Y7831867D1*
X2746727Y7814823D1*
X2760177Y7795773D1*
X2764273Y7787867D1*
X3090990Y7787850D1*
X3084897Y7789647D1*
X3080473Y7791137D1*
X3076103Y7792770D1*
X3071787Y7794547D1*
X3067533Y7796463D1*
X3063343Y7798517D1*
X3059223Y7800710D1*
X3055180Y7803037D1*
X3036097Y7816687D1*
X3019523Y7833290D1*
X3005907Y7852393D1*
X2995623Y7873480D1*
X2988947Y7895973D1*
X2986067Y7919257D1*
X2987057Y7942697D1*
X2991890Y7965653D1*
X3000440Y7987500D1*
X3012467Y8007643D1*
X3027643Y8025533D1*
X3045560Y8040680D1*
X3065727Y8052670D1*
X3087590Y8061180D1*
X3110553Y8065973D1*
X3133997Y8066923D1*
X3157273Y8064000D1*
X3179753Y8057287D1*
X3200820Y8046963D1*
X3219903Y8033313D1*
X3236477Y8016710D1*
X3250093Y7997607D1*
X3260377Y7976520D1*
X3267053Y7954027D1*
X3269933Y7930743D1*
X3270050Y7925000D1*
X3268137Y7901770D1*
X3262403Y7879023D1*
X3253003Y7857527D1*
X3240193Y7837873D1*
X3224320Y7820593D1*
X3205823Y7806163D1*
X3185203Y7794977D1*
X3180900Y7793167D1*
X3176540Y7791500D1*
X3172130Y7789980D1*
X3167673Y7788603D1*
X3164917Y7787850D1*
X3614000D1*
X3637010Y7784507D1*
X3658137Y7774737D1*
X3671217Y7764123D1*
X1655033Y3673200D2*
X1668040Y3672150D1*
X1821953D1*
X1817430Y3671273D1*
X1812873Y3670263D1*
X1808350Y3669127D1*
X1803857Y3667867D1*
X1799397Y3666487D1*
X1794980Y3664983D1*
X1790603Y3663360D1*
X1786277Y3661620D1*
X1781997Y3659760D1*
X1777767Y3657783D1*
X1773597Y3655693D1*
X1753670Y3643577D1*
X1735583Y3628860D1*
X1719667Y3611820D1*
X1706220Y3592767D1*
X1695493Y3572063D1*
X1687683Y3550090D1*
X1682940Y3527260D1*
X1681350Y3503997D1*
X1682943Y3480733D1*
X1687687Y3457903D1*
X1695497Y3435930D1*
X1706223Y3415227D1*
X1719673Y3396177D1*
X1735587Y3379133D1*
X1753677Y3364420D1*
X1773600Y3352303D1*
X1794990Y3343013D1*
X1817443Y3336723D1*
X1840543Y3333547D1*
X1863863Y3333550D1*
X1886963Y3336723D1*
X1909417Y3343017D1*
X1930803Y3352307D1*
X1950730Y3364423D1*
X1968817Y3379140D1*
X1984733Y3396180D1*
X1998180Y3415233D1*
X2002690Y3423150D1*
X2464127Y3423133D1*
X2468223Y3415227D1*
X2481673Y3396177D1*
X2497587Y3379133D1*
X2515677Y3364420D1*
X2535600Y3352303D1*
X2556990Y3343013D1*
X2579443Y3336723D1*
X2602543Y3333547D1*
X2625863Y3333550D1*
X2648963Y3336723D1*
X2671417Y3343017D1*
X2692803Y3352307D1*
X2712730Y3364423D1*
X2730817Y3379140D1*
X2746733Y3396180D1*
X2760180Y3415233D1*
X2770907Y3435937D1*
X2778717Y3457910D1*
X2783460Y3480740D1*
X2785050Y3504000D1*
X2784027Y3522660D1*
X2779907Y3545610D1*
X2772697Y3567787D1*
X2766890Y3579777D1*
X3230830Y3115830D1*
X3247140Y3103233D1*
X3268710Y3094487D1*
X3288053Y3092150D1*
X3414600Y3092143D1*
X3426843Y3080567D1*
X3446907Y3068137D1*
X3469060Y3059997D1*
X3492400Y3056483D1*
X3515970Y3057743D1*
X3538803Y3063720D1*
X3559967Y3074170D1*
X3578593Y3088667D1*
X3593920Y3106617D1*
X3605317Y3127283D1*
X3612323Y3149823D1*
X3614650Y3173310D1*
X3612200Y3196783D1*
X3605073Y3219287D1*
X3593563Y3239893D1*
X3578143Y3257760D1*
X3559440Y3272157D1*
X3538223Y3282497D1*
X3515357Y3288350D1*
X3491783Y3289483D1*
X3468463Y3285847D1*
X3446350Y3277593D1*
X3426353Y3265053D1*
X3413930Y3253850D1*
X3321483Y3253857D1*
X2765217Y3810123D1*
X2752117Y3820753D1*
X2731010Y3830507D1*
X2708000Y3833850D1*
X1748850Y3833853D1*
X1748853Y3876343D1*
X1753677Y3872420D1*
X1773600Y3860303D1*
X1794990Y3851013D1*
X1817443Y3844723D1*
X1840543Y3841547D1*
X1863863Y3841550D1*
X1886963Y3844723D1*
X1909417Y3851017D1*
X1930803Y3860307D1*
X1950730Y3872423D1*
X1968817Y3887140D1*
X1984733Y3904180D1*
X1998180Y3923233D1*
X2002690Y3931150D1*
X2464127Y3931133D1*
X2468223Y3923227D1*
X2481673Y3904177D1*
X2497587Y3887133D1*
X2515677Y3872420D1*
X2535600Y3860303D1*
X2556990Y3851013D1*
X2579443Y3844723D1*
X2602543Y3841547D1*
X2625863Y3841550D1*
X2648963Y3844723D1*
X2671417Y3851017D1*
X2692803Y3860307D1*
X2712730Y3872423D1*
X2730817Y3887140D1*
X2746733Y3904180D1*
X2760180Y3923233D1*
X2764277Y3931137D1*
X3347000Y3931150D1*
X3367440Y3933777D1*
X3388877Y3942843D1*
X3404213Y3954873D1*
X3941507Y4492150D1*
X4458000D1*
X4478440Y4494777D1*
X4499877Y4503843D1*
X4515203Y4515867D1*
X4575170Y4575830D1*
X4587767Y4592140D1*
X4596513Y4613710D1*
X4598850Y4633050D1*
X4598847Y6548977D1*
X4613920Y6566630D1*
X4625317Y6587297D1*
X4632323Y6609837D1*
X4634650Y6633323D1*
X4632200Y6656797D1*
X4625073Y6679300D1*
X4613563Y6699907D1*
X4598143Y6717773D1*
X4579440Y6732170D1*
X4558223Y6742510D1*
X4535357Y6748363D1*
X4511783Y6749497D1*
X4488463Y6745860D1*
X4466350Y6737607D1*
X4446353Y6725067D1*
X4429290Y6708760D1*
X4415857Y6689353D1*
X4406607Y6667640D1*
X4401917Y6644507D1*
X4401980Y6620903D1*
X4406793Y6597797D1*
X4416157Y6576133D1*
X4429693Y6556797D1*
X4437150Y6548923D1*
X4437147Y4666487D1*
X4424493Y4653850D1*
X3908067D1*
X3891287Y4652103D1*
X3869467Y4644077D1*
X3850803Y4630143D1*
X3313517Y4092850D1*
X2764273Y4092867D1*
X2760177Y4100773D1*
X2746727Y4119823D1*
X2730813Y4136867D1*
X2712723Y4151580D1*
X2692800Y4163697D1*
X2671410Y4172987D1*
X2648957Y4179277D1*
X2625857Y4182453D1*
X2602537Y4182450D1*
X2579437Y4179277D1*
X2556983Y4172983D1*
X2535597Y4163693D1*
X2515670Y4151577D1*
X2497583Y4136860D1*
X2481667Y4119820D1*
X2468220Y4100767D1*
X2464123Y4092863D1*
X2154613Y4092850D1*
X2002273Y4092867D1*
X1998177Y4100773D1*
X1984727Y4119823D1*
X1968813Y4136867D1*
X1950723Y4151580D1*
X1930800Y4163697D1*
X1909410Y4172987D1*
X1886957Y4179277D1*
X1863857Y4182453D1*
X1840537Y4182450D1*
X1817437Y4179277D1*
X1794983Y4172983D1*
X1773597Y4163693D1*
X1753670Y4151577D1*
X1748850Y4147653D1*
X1748870Y4192150D1*
X3267933D1*
X3284710Y4193897D1*
X3306533Y4201923D1*
X3325170Y4215830D1*
X3885490Y4776170D1*
X4093687Y4776173D1*
X4097563Y4770243D1*
X4113367Y4753083D1*
X4131780Y4738757D1*
X4152297Y4727657D1*
X4174363Y4720087D1*
X4197373Y4716250D1*
X4220703Y4716253D1*
X4243713Y4720097D1*
X4265777Y4727673D1*
X4286290Y4738780D1*
X4304700Y4753113D1*
X4320497Y4770277D1*
X4333253Y4789810D1*
X4342620Y4811177D1*
X4348343Y4833790D1*
X4350267Y4857020D1*
X4349950Y4866453D1*
X4346477Y4889523D1*
X4339250Y4911703D1*
X4328473Y4932393D1*
X4314437Y4951030D1*
X4297527Y4967097D1*
X4278200Y4980167D1*
X4270433Y4984200D1*
X4286280Y4992780D1*
X4304687Y5007113D1*
X4320487Y5024277D1*
X4333243Y5043810D1*
X4342610Y5065177D1*
X4348333Y5087790D1*
X4350257Y5111020D1*
X4349933Y5120543D1*
X4346443Y5143607D1*
X4339207Y5165787D1*
X4328417Y5186470D1*
X4314370Y5205093D1*
X4297447Y5221153D1*
X4278113Y5234207D1*
X4270423Y5238200D1*
X4286270Y5246780D1*
X4304677Y5261113D1*
X4320473Y5278277D1*
X4333230Y5297810D1*
X4342597Y5319177D1*
X4348320Y5341790D1*
X4350243Y5365020D1*
X4349923Y5374543D1*
X4346433Y5397607D1*
X4339193Y5419787D1*
X4328403Y5440470D1*
X4314357Y5459093D1*
X4297437Y5475153D1*
X4278103Y5488207D1*
X4270410Y5492200D1*
X4286257Y5500780D1*
X4304667Y5515113D1*
X4320463Y5532277D1*
X4333220Y5551810D1*
X4342587Y5573177D1*
X4348310Y5595790D1*
X4350233Y5619020D1*
X4349917Y5628453D1*
X4346443Y5651523D1*
X4339217Y5673703D1*
X4328440Y5694393D1*
X4314403Y5713030D1*
X4297493Y5729097D1*
X4278167Y5742167D1*
X4256953Y5751873D1*
X4234433Y5757957D1*
X4211217Y5760250D1*
X4187940Y5758693D1*
X4165240Y5753323D1*
X4143730Y5744293D1*
X4124000Y5731843D1*
X4106590Y5716317D1*
X4091970Y5698137D1*
X4080543Y5677797D1*
X4072620Y5655857D1*
X4068417Y5632907D1*
X4068050Y5609583D1*
X4071523Y5586513D1*
X4078750Y5564333D1*
X4089527Y5543643D1*
X4103563Y5525010D1*
X4120473Y5508940D1*
X4139800Y5495873D1*
X4147460Y5491853D1*
X4143740Y5490293D1*
X4124010Y5477843D1*
X4106600Y5462317D1*
X4091980Y5444137D1*
X4080557Y5423797D1*
X4072633Y5401857D1*
X4068430Y5378907D1*
X4068060Y5355583D1*
X4071537Y5332513D1*
X4078760Y5310333D1*
X4089537Y5289643D1*
X4103573Y5271010D1*
X4120483Y5254940D1*
X4139810Y5241873D1*
X4147470Y5237853D1*
X4143753Y5236293D1*
X4124023Y5223843D1*
X4106610Y5208317D1*
X4091993Y5190137D1*
X4080567Y5169797D1*
X4072643Y5147857D1*
X4068440Y5124907D1*
X4068070Y5101583D1*
X4071547Y5078513D1*
X4078770Y5056333D1*
X4089550Y5035643D1*
X4103583Y5017010D1*
X4120497Y5000940D1*
X4139820Y4987873D1*
X4147590Y4983837D1*
X4131743Y4975257D1*
X4113333Y4960923D1*
X4097537Y4943760D1*
X4093687Y4937863D1*
X3852020Y4937870D1*
X3831580Y4935243D1*
X3810143Y4926177D1*
X3794817Y4914157D1*
X3234527Y4353850D1*
X2653973D1*
X2658050Y4354873D1*
X2662543Y4356133D1*
X2667003Y4357513D1*
X2671420Y4359017D1*
X2675797Y4360640D1*
X2680123Y4362380D1*
X2684403Y4364240D1*
X2688633Y4366217D1*
X2692803Y4368307D1*
X2712730Y4380423D1*
X2730817Y4395140D1*
X2746733Y4412180D1*
X2760180Y4431233D1*
X2770907Y4451937D1*
X2778717Y4473910D1*
X2783460Y4496740D1*
X2785050Y4520000D1*
X2784473Y4534013D1*
X2780980Y4557070D1*
X2774380Y4579433D1*
X2764793Y4600690D1*
X2752403Y4620447D1*
X2737440Y4638330D1*
X2720180Y4654007D1*
X2700947Y4667190D1*
X2680097Y4677630D1*
X2658017Y4685137D1*
X2635123Y4689563D1*
X2611840Y4690833D1*
X2588600Y4688920D1*
X2565837Y4683863D1*
X2543973Y4675750D1*
X2523420Y4664737D1*
X2504557Y4651027D1*
X2487737Y4634877D1*
X2473273Y4616587D1*
X2463710Y4600850D1*
X2002687Y4600863D1*
X1990403Y4620447D1*
X1975440Y4638330D1*
X1958180Y4654007D1*
X1938947Y4667190D1*
X1918097Y4677630D1*
X1896017Y4685137D1*
X1873123Y4689563D1*
X1849840Y4690833D1*
X1826600Y4688920D1*
X1803837Y4683863D1*
X1781973Y4675750D1*
X1761420Y4664737D1*
X1742557Y4651027D1*
X1725737Y4634877D1*
X1711273Y4616587D1*
X1699433Y4596500D1*
X1690440Y4574983D1*
X1684460Y4552447D1*
X1681603Y4529303D1*
X1681927Y4505987D1*
X1685420Y4482930D1*
X1692020Y4460567D1*
X1701607Y4439310D1*
X1713997Y4419553D1*
X1728960Y4401670D1*
X1746220Y4385993D1*
X1765453Y4372810D1*
X1769507Y4370497D1*
X1773620Y4368293D1*
X1777793Y4366203D1*
X1782020Y4364230D1*
X1786303Y4362370D1*
X1790630Y4360630D1*
X1795007Y4359007D1*
X1799427Y4357507D1*
X1803883Y4356123D1*
X1808377Y4354867D1*
X1812423Y4353850D1*
X1668000D1*
X1647560Y4351223D1*
X1633850Y4346293D1*
X1633863Y9819707D1*
X1681350Y9867177D1*
Y9568150D1*
X2023050D1*
X2023060Y9658150D1*
X2443350Y9658133D1*
Y9568150D1*
X2785050D1*
Y9909850D1*
X2443350D1*
X2443340Y9819850D1*
X2023050Y9819867D1*
Y9909850D1*
X1723997Y9909840D1*
X2044850Y10230697D1*
X2060307Y10248160D1*
X2073793Y10267187D1*
X2085147Y10287560D1*
X2094237Y10309037D1*
X2100957Y10331370D1*
X2105227Y10354297D1*
X2106997Y10377573D1*
X2107050Y10398553D1*
X2107043Y11054887D1*
X2449310Y11397150D1*
X13788577Y11397163D1*
X14022933Y11162793D1*
X14022957Y10385850D1*
X14024373Y10362570D1*
X14028290Y10339580D1*
X14034670Y10317147D1*
X14043430Y10295533D1*
X14054470Y10274990D1*
X14067950Y10255393D1*
Y10216450D1*
X14104393D1*
X14212150Y10108697D1*
X14212160Y2102417D1*
X13982277Y1872550D1*
X13277353Y1872547D1*
X13254073Y1871130D1*
X13231083Y1867210D1*
X13208650Y1860833D1*
X13187037Y1852073D1*
X13166493Y1841033D1*
X13146893Y1827550D1*
X13107950D1*
Y1791107D1*
X12954697Y1637850D1*
X12448753Y1637847D1*
X12458460Y1641200D1*
X12479877Y1650163D1*
X12500680Y1660467D1*
X12520790Y1672067D1*
X12540120Y1684920D1*
X12558600Y1698973D1*
X12576150Y1714173D1*
X12592700Y1730453D1*
X12608183Y1747750D1*
X12622540Y1765993D1*
X12635710Y1785110D1*
X12647643Y1805027D1*
X12658287Y1825657D1*
X12667600Y1846920D1*
X12675547Y1868733D1*
X12682097Y1891007D1*
X12687217Y1913650D1*
X12690893Y1936573D1*
X12693107Y1959683D1*
X12693850Y1983000D1*
X12693120Y2006090D1*
X12690920Y2029200D1*
X12687260Y2052127D1*
X12682153Y2074773D1*
X12675620Y2097050D1*
X12667687Y2118867D1*
X12658383Y2140137D1*
X12647753Y2160777D1*
X12635833Y2180697D1*
X12622677Y2199823D1*
X12608330Y2218077D1*
X12592857Y2235383D1*
X12576317Y2251673D1*
X12558777Y2266880D1*
X12540307Y2280947D1*
X12520983Y2293813D1*
X12500880Y2305427D1*
X12480083Y2315740D1*
X12458673Y2324717D1*
X12436737Y2332317D1*
X12414363Y2338510D1*
X12391640Y2343273D1*
X12368663Y2346583D1*
X12345523Y2348430D1*
X12322310Y2348807D1*
X12299120Y2347710D1*
X12276047Y2345143D1*
X12253183Y2341117D1*
X12230620Y2335653D1*
X12208450Y2328767D1*
X12186760Y2320487D1*
X12165640Y2310850D1*
X12145173Y2299893D1*
X12125443Y2287660D1*
X12106530Y2274200D1*
X12088507Y2259567D1*
X12071447Y2243820D1*
X12055420Y2227023D1*
X12040493Y2209243D1*
X12026723Y2190553D1*
X12014167Y2171027D1*
X12002873Y2150743D1*
X11992887Y2129783D1*
X11984253Y2108237D1*
X11977000Y2086180D1*
X11971163Y2063713D1*
X11966763Y2040917D1*
X11963817Y2017890D1*
X11962337Y1994723D1*
X11962330Y1971507D1*
X11963797Y1948337D1*
X11966727Y1925307D1*
X11971113Y1902510D1*
X11976937Y1880037D1*
X11984173Y1857980D1*
X11992797Y1836423D1*
X12002767Y1815460D1*
X12014047Y1795170D1*
X12026593Y1775637D1*
X12040353Y1756937D1*
X12055270Y1739147D1*
X12071283Y1722340D1*
X12088333Y1706583D1*
X12106347Y1691940D1*
X12125253Y1678467D1*
X12144977Y1666223D1*
X12165437Y1655250D1*
X12186550Y1645600D1*
X12206817Y1637850D1*
X7904680Y1637860D1*
X7904687Y2655347D1*
X8310940Y3061590D1*
X8313907Y3058373D1*
X8332437Y3043987D1*
X8353080Y3032840D1*
X8375277Y3025247D1*
X8398423Y3021410D1*
X8421883Y3021437D1*
X8445020Y3025323D1*
X8467203Y3032967D1*
X8487823Y3044153D1*
X8506320Y3058583D1*
X8522193Y3075860D1*
X8535003Y3095517D1*
X8544403Y3117010D1*
X8550137Y3139760D1*
X8552050Y3163143D1*
X8550087Y3186520D1*
X8544303Y3209257D1*
X8534857Y3230733D1*
X8522003Y3250360D1*
X8506093Y3267603D1*
X8487563Y3281993D1*
X8466920Y3293137D1*
X8444723Y3300730D1*
X8421577Y3304567D1*
X8398117Y3304540D1*
X8374980Y3300653D1*
X8352797Y3293013D1*
X8332177Y3281823D1*
X8313680Y3267393D1*
X8297807Y3250117D1*
X8293643Y3243723D1*
X8281277Y3242093D1*
X8259453Y3234067D1*
X8240820Y3220160D1*
X7766707Y2746047D1*
X7756077Y2732947D1*
X7746323Y2711840D1*
X7742980Y2688830D1*
X7742963Y1637850D1*
X4178753Y1637847D1*
X4188460Y1641200D1*
X4209877Y1650163D1*
X4230680Y1660467D1*
X4250790Y1672067D1*
X4270120Y1684920D1*
X4288600Y1698973D1*
X4306150Y1714173D1*
X4322700Y1730453D1*
X4338183Y1747750D1*
X4352540Y1765993D1*
X4365710Y1785110D1*
X4377643Y1805027D1*
X4388287Y1825657D1*
X4397600Y1846920D1*
X4405547Y1868733D1*
X4412097Y1891007D1*
X4417217Y1913650D1*
X4420893Y1936573D1*
X4423107Y1959683D1*
X4423850Y1983000D1*
X4423120Y2006090D1*
X4420920Y2029200D1*
X4417260Y2052127D1*
X4412153Y2074773D1*
X4405620Y2097050D1*
X4397687Y2118867D1*
X4388383Y2140137D1*
X4377753Y2160777D1*
X4365833Y2180697D1*
X4352677Y2199823D1*
X4338330Y2218077D1*
X4322857Y2235383D1*
X4306317Y2251673D1*
X4288777Y2266880D1*
X4270307Y2280947D1*
X4250983Y2293813D1*
X4230880Y2305427D1*
X4210083Y2315740D1*
X4188673Y2324717D1*
X4166737Y2332317D1*
X4144363Y2338510D1*
X4121640Y2343273D1*
X4098663Y2346583D1*
X4075523Y2348430D1*
X4052310Y2348807D1*
X4029120Y2347710D1*
X4006047Y2345143D1*
X3983183Y2341117D1*
X3960620Y2335653D1*
X3943357Y2330433D1*
X3950193Y2337873D1*
X3963003Y2357527D1*
X3972403Y2379023D1*
X3978137Y2401770D1*
X3980050Y2425153D1*
X3978087Y2448533D1*
X3972303Y2471270D1*
X3962857Y2492743D1*
X3950003Y2512370D1*
X3934093Y2529613D1*
X3918850Y2541793D1*
X3918847Y2748963D1*
X3933920Y2766617D1*
X3945317Y2787283D1*
X3952323Y2809823D1*
X3954650Y2833310D1*
X3952200Y2856783D1*
X3945073Y2879287D1*
X3933563Y2899893D1*
X3918143Y2917760D1*
X3899440Y2932157D1*
X3878223Y2942497D1*
X3855357Y2948350D1*
X3831783Y2949483D1*
X3808463Y2945847D1*
X3786350Y2937593D1*
X3766353Y2925053D1*
X3749290Y2908747D1*
X3735857Y2889340D1*
X3726607Y2867627D1*
X3721917Y2844493D1*
X3721980Y2820890D1*
X3726793Y2797783D1*
X3736157Y2776120D1*
X3749693Y2756783D1*
X3757150Y2748927D1*
X3757160Y2541483D1*
X3741680Y2529407D1*
X3725807Y2512127D1*
X3712997Y2492473D1*
X3703597Y2470977D1*
X3697863Y2448230D1*
X3695950Y2424847D1*
X3697913Y2401467D1*
X3703697Y2378730D1*
X3713143Y2357257D1*
X3725997Y2337630D1*
X3741907Y2320387D1*
X3760437Y2305997D1*
X3781080Y2294853D1*
X3803277Y2287260D1*
X3826423Y2283423D1*
X3849477Y2283413D1*
X3836530Y2274200D1*
X3818507Y2259567D1*
X3801447Y2243820D1*
X3785420Y2227023D1*
X3770493Y2209243D1*
X3756723Y2190553D1*
X3744167Y2171027D1*
X3732873Y2150743D1*
X3722887Y2129783D1*
X3714253Y2108237D1*
X3707000Y2086180D1*
X3701163Y2063713D1*
X3696763Y2040917D1*
X3693817Y2017890D1*
X3692337Y1994723D1*
X3692330Y1971507D1*
X3693797Y1948337D1*
X3696727Y1925307D1*
X3701113Y1902510D1*
X3706937Y1880037D1*
X3714173Y1857980D1*
X3722797Y1836423D1*
X3732767Y1815460D1*
X3744047Y1795170D1*
X3756593Y1775637D1*
X3770353Y1756937D1*
X3785270Y1739147D1*
X3801283Y1722340D1*
X3818333Y1706583D1*
X3836347Y1691940D1*
X3855253Y1678467D1*
X3874977Y1666223D1*
X3895437Y1655250D1*
X3916550Y1645600D1*
X3936667Y1637850D1*
X3184507Y1637863D1*
X2823997Y1998343D1*
X4209497Y3383837D1*
X4420023Y3173330D1*
X4418610Y3164573D1*
X4418637Y3141100D1*
X4422427Y3117937D1*
X4429887Y3095680D1*
X4440817Y3074910D1*
X4454940Y3056160D1*
X4471887Y3039920D1*
X4491217Y3026607D1*
X4512433Y3016570D1*
X4534987Y3010063D1*
X4558290Y3007263D1*
X4581743Y3008233D1*
X4595597Y3011077D1*
X4626750Y2979893D1*
X4626733Y2788150D1*
X4536750D1*
Y2446450D1*
X4626750Y2446440D1*
X4626733Y2026150D1*
X4536750D1*
Y1684450D1*
X4878450D1*
Y2026150D1*
X4788450Y2026160D1*
X4788467Y2446450D1*
X4878450D1*
Y2788150D1*
X4788450Y2788163D1*
Y3013400D1*
X4785823Y3033840D1*
X4776757Y3055277D1*
X4764737Y3070603D1*
X4707513Y3127830D1*
X4707987Y3129767D1*
X4709850Y3153163D1*
X4707933Y3176557D1*
X4702293Y3199343D1*
X4693067Y3220927D1*
X4680500Y3240750D1*
X4664917Y3258300D1*
X4646717Y3273127D1*
X4626377Y3284840D1*
X4604420Y3293137D1*
X4581417Y3297807D1*
X4557963Y3298727D1*
X4534667Y3295870D1*
X4528083Y3293957D1*
X4447343Y3374667D1*
X4323830Y3498177D1*
X4595170Y3769517D1*
X4607767Y3785827D1*
X4616510Y3807373D1*
X4617187Y3810350D1*
X4630320Y3820593D1*
X4646193Y3837873D1*
X4659003Y3857527D1*
X4660830Y3861703D1*
X4661180Y3861723D1*
X4663143Y3857257D1*
X4675997Y3837630D1*
X4691907Y3820387D1*
X4710437Y3805997D1*
X4731080Y3794853D1*
X4753277Y3787260D1*
X4776423Y3783423D1*
X4799883Y3783447D1*
X4823020Y3787333D1*
X4845203Y3794977D1*
X4865823Y3806163D1*
X4884320Y3820593D1*
X4900193Y3837873D1*
X4913003Y3857527D1*
X4922403Y3879023D1*
X4928137Y3901770D1*
X4930050Y3925000D1*
X4929913Y3931207D1*
X4926957Y3954480D1*
X4920210Y3976950D1*
X4909857Y3998003D1*
X4896177Y4017063D1*
X4879550Y4033613D1*
X4860423Y4047200D1*
X4851183Y4052220D1*
X4865823Y4060163D1*
X4884320Y4074593D1*
X4900193Y4091873D1*
X4913003Y4111527D1*
X4914830Y4115703D1*
X4915180Y4115723D1*
X4917143Y4111257D1*
X4929997Y4091630D1*
X4945907Y4074387D1*
X4964437Y4059997D1*
X4985080Y4048853D1*
X5007277Y4041260D1*
X5030423Y4037423D1*
X5053883Y4037447D1*
X5077020Y4041333D1*
X5099203Y4048977D1*
X5119823Y4060163D1*
X5138320Y4074593D1*
X5154193Y4091873D1*
X5167003Y4111527D1*
X5168830Y4115703D1*
X5169260Y4115917D1*
X5173750Y4106660D1*
X5187323Y4087523D1*
X5203863Y4070887D1*
X5222913Y4057193D1*
X5232817Y4051780D1*
X5218177Y4043837D1*
X5199680Y4029407D1*
X5183807Y4012127D1*
X5170997Y3992473D1*
X5161597Y3970977D1*
X5155863Y3948230D1*
X5153950Y3924847D1*
X5155913Y3901467D1*
X5161697Y3878730D1*
X5171143Y3857257D1*
X5183997Y3837630D1*
X5199907Y3820387D1*
X5218437Y3805997D1*
X5239080Y3794853D1*
X5261277Y3787260D1*
X5284423Y3783423D1*
X5307883Y3783447D1*
X5331020Y3787333D1*
X5353203Y3794977D1*
X5373823Y3806163D1*
X5392320Y3820593D1*
X5408193Y3837873D1*
X5421003Y3857527D1*
X5422830Y3861703D1*
X5423180Y3861723D1*
X5425143Y3857257D1*
X5437997Y3837630D1*
X5453907Y3820387D1*
X5472437Y3805997D1*
X5493080Y3794853D1*
X5515277Y3787260D1*
X5538423Y3783423D1*
X5561883Y3783447D1*
X5585020Y3787333D1*
X5607203Y3794977D1*
X5627823Y3806163D1*
X5646320Y3820593D1*
X5662193Y3837873D1*
X5666283Y3844150D1*
X5678000D1*
X5687367Y3844703D1*
X5691997Y3837630D1*
X5707907Y3820387D1*
X5726437Y3805997D1*
X5747080Y3794853D1*
X5769277Y3787260D1*
X5792423Y3783423D1*
X5815883Y3783447D1*
X5839020Y3787333D1*
X5861203Y3794977D1*
X5881823Y3806163D1*
X5900320Y3820593D1*
X5916193Y3837873D1*
X5929003Y3857527D1*
X5930830Y3861703D1*
X5931180Y3861723D1*
X5933143Y3857257D1*
X5945997Y3837630D1*
X5961907Y3820387D1*
X5980437Y3805997D1*
X6001080Y3794853D1*
X6023277Y3787260D1*
X6046423Y3783423D1*
X6069883Y3783447D1*
X6093020Y3787333D1*
X6115203Y3794977D1*
X6135823Y3806163D1*
X6154320Y3820593D1*
X6170193Y3837873D1*
X6183003Y3857527D1*
X6185180Y3861723D1*
X6187143Y3857257D1*
X6199997Y3837630D1*
X6215907Y3820387D1*
X6234437Y3805997D1*
X6255080Y3794853D1*
X6277277Y3787260D1*
X6300423Y3783423D1*
X6323883Y3783447D1*
X6347020Y3787333D1*
X6369203Y3794977D1*
X6389823Y3806163D1*
X6408320Y3820593D1*
X6424193Y3837873D1*
X6437003Y3857527D1*
X6438830Y3861703D1*
X6439180Y3861723D1*
X6441143Y3857257D1*
X6453997Y3837630D1*
X6469907Y3820387D1*
X6488437Y3805997D1*
X6509080Y3794853D1*
X6528787Y3788113D1*
X6313113Y3572450D1*
X6300583Y3559950D1*
X6293040Y3565757D1*
X6271823Y3576097D1*
X6248957Y3581950D1*
X6225383Y3583083D1*
X6202063Y3579447D1*
X6179950Y3571193D1*
X6159953Y3558653D1*
X6142890Y3542347D1*
X6129457Y3522940D1*
X6120207Y3501227D1*
X6115517Y3478093D1*
X6115580Y3454490D1*
X6120393Y3431383D1*
X6129757Y3409720D1*
X6143293Y3390383D1*
X6160443Y3374167D1*
X6180507Y3361737D1*
X6202660Y3353597D1*
X6226000Y3350083D1*
X6249570Y3351343D1*
X6272403Y3357320D1*
X6293567Y3367770D1*
X6312193Y3382267D1*
X6315690Y3385750D1*
X6321547D1*
X6338310Y3387497D1*
X6360133Y3395523D1*
X6378770Y3409430D1*
X6739487Y3770147D1*
X6762980Y3794907D1*
X6785277Y3787260D1*
X6787417Y3786753D1*
X5779343Y2778697D1*
X5758357Y2784577D1*
X5735257Y2787753D1*
X5711937Y2787750D1*
X5688837Y2784577D1*
X5666383Y2778283D1*
X5644997Y2768993D1*
X5625070Y2756877D1*
X5606983Y2742160D1*
X5591067Y2725120D1*
X5577620Y2706067D1*
X5566893Y2685363D1*
X5559083Y2663390D1*
X5554340Y2640560D1*
X5552750Y2617297D1*
X5554343Y2594033D1*
X5559087Y2571203D1*
X5566897Y2549230D1*
X5577623Y2528527D1*
X5591073Y2509477D1*
X5606987Y2492433D1*
X5625077Y2477720D1*
X5642750Y2466810D1*
X5642757Y2005633D1*
X5625070Y1994877D1*
X5606983Y1980160D1*
X5591067Y1963120D1*
X5577620Y1944067D1*
X5566893Y1923363D1*
X5559083Y1901390D1*
X5554340Y1878560D1*
X5552750Y1855297D1*
X5554343Y1832033D1*
X5559087Y1809203D1*
X5566897Y1787230D1*
X5577623Y1766527D1*
X5591073Y1747477D1*
X5606987Y1730433D1*
X5625077Y1715720D1*
X5645000Y1703603D1*
X5666390Y1694313D1*
X5688843Y1688023D1*
X5711943Y1684847D1*
X5735263Y1684850D1*
X5758363Y1688023D1*
X5780817Y1694317D1*
X5802203Y1703607D1*
X5822130Y1715723D1*
X5840217Y1730440D1*
X5856133Y1747480D1*
X5869580Y1766533D1*
X5880307Y1787237D1*
X5888117Y1809210D1*
X5892860Y1832040D1*
X5894450Y1855303D1*
X5892857Y1878567D1*
X5888113Y1901397D1*
X5880303Y1923370D1*
X5869577Y1944073D1*
X5856127Y1963123D1*
X5840213Y1980167D1*
X5822123Y1994880D1*
X5804450Y2005790D1*
X5804443Y2466967D1*
X5822130Y2477723D1*
X5840217Y2492440D1*
X5856133Y2509480D1*
X5869580Y2528533D1*
X5880307Y2549237D1*
X5888117Y2571210D1*
X5892860Y2594040D1*
X5894450Y2617303D1*
X5892857Y2640567D1*
X5888907Y2659587D1*
X6114287Y2884947D1*
X7005120Y3775783D1*
X7015753Y3788883D1*
X7018923Y3794223D1*
X7039277Y3787260D1*
X7062423Y3783423D1*
X7085883Y3783447D1*
X7109020Y3787333D1*
X7131203Y3794977D1*
X7151823Y3806163D1*
X7170320Y3820593D1*
X7186193Y3837873D1*
X7199003Y3857527D1*
X7200830Y3861703D1*
X7201180Y3861723D1*
X7203143Y3857257D1*
X7215997Y3837630D1*
X7231907Y3820387D1*
X7250437Y3805997D1*
X7271080Y3794853D1*
X7293277Y3787260D1*
X7316423Y3783423D1*
X7339883Y3783447D1*
X7363020Y3787333D1*
X7385203Y3794977D1*
X7405823Y3806163D1*
X7424320Y3820593D1*
X7440193Y3837873D1*
X7453003Y3857527D1*
X7454830Y3861703D1*
X7455180Y3861723D1*
X7457143Y3857257D1*
X7469997Y3837630D1*
X7485907Y3820387D1*
X7504437Y3805997D1*
X7525080Y3794853D1*
X7547277Y3787260D1*
X7570423Y3783423D1*
X7593883Y3783447D1*
X7617020Y3787333D1*
X7639203Y3794977D1*
X7659823Y3806163D1*
X7678320Y3820593D1*
X7694193Y3837873D1*
X7707003Y3857527D1*
X7708830Y3861703D1*
X7709180Y3861723D1*
X7711143Y3857257D1*
X7723997Y3837630D1*
X7739907Y3820387D1*
X7758437Y3805997D1*
X7779080Y3794853D1*
X7801277Y3787260D1*
X7824423Y3783423D1*
X7847883Y3783447D1*
X7871020Y3787333D1*
X7893203Y3794977D1*
X7913823Y3806163D1*
X7932320Y3820593D1*
X7948193Y3837873D1*
X7961003Y3857527D1*
X7962830Y3861703D1*
X7963180Y3861723D1*
X7965143Y3857257D1*
X7977997Y3837630D1*
X7993907Y3820387D1*
X8012437Y3805997D1*
X8033080Y3794853D1*
X8055277Y3787260D1*
X8078423Y3783423D1*
X8101883Y3783447D1*
X8125020Y3787333D1*
X8147203Y3794977D1*
X8167823Y3806163D1*
X8186320Y3820593D1*
X8202193Y3837873D1*
X8215003Y3857527D1*
X8217180Y3861723D1*
X8219143Y3857257D1*
X8231997Y3837630D1*
X8247907Y3820387D1*
X8266437Y3805997D1*
X8287080Y3794853D1*
X8309277Y3787260D1*
X8332423Y3783423D1*
X8355883Y3783447D1*
X8379020Y3787333D1*
X8401203Y3794977D1*
X8421823Y3806163D1*
X8440320Y3820593D1*
X8456193Y3837873D1*
X8469003Y3857527D1*
X8470830Y3861703D1*
X8471180Y3861723D1*
X8473143Y3857257D1*
X8485997Y3837630D1*
X8501907Y3820387D1*
X8520437Y3805997D1*
X8541080Y3794853D1*
X8563277Y3787260D1*
X8586423Y3783423D1*
X8609883Y3783447D1*
X8633020Y3787333D1*
X8655203Y3794977D1*
X8675823Y3806163D1*
X8694320Y3820593D1*
X8710193Y3837873D1*
X8723003Y3857527D1*
X8725180Y3861723D1*
X8727143Y3857257D1*
X8739997Y3837630D1*
X8755907Y3820387D1*
X8774437Y3805997D1*
X8795080Y3794853D1*
X8817277Y3787260D1*
X8840423Y3783423D1*
X8863883Y3783447D1*
X8887020Y3787333D1*
X8909203Y3794977D1*
X8929823Y3806163D1*
X8948320Y3820593D1*
X8964193Y3837873D1*
X8977003Y3857527D1*
X8978830Y3861703D1*
X8979180Y3861723D1*
X8981143Y3857257D1*
X8993997Y3837630D1*
X9009907Y3820387D1*
X9028437Y3805997D1*
X9049080Y3794853D1*
X9071277Y3787260D1*
X9094423Y3783423D1*
X9117883Y3783447D1*
X9141020Y3787333D1*
X9163203Y3794977D1*
X9183823Y3806163D1*
X9202320Y3820593D1*
X9218193Y3837873D1*
X9231003Y3857527D1*
X9232830Y3861703D1*
X9233180Y3861723D1*
X9235143Y3857257D1*
X9247997Y3837630D1*
X9263907Y3820387D1*
X9282437Y3805997D1*
X9303080Y3794853D1*
X9325277Y3787260D1*
X9348423Y3783423D1*
X9371883Y3783447D1*
X9374573Y3783900D1*
X8940830Y3350170D1*
X8928233Y3333857D1*
X8919487Y3312290D1*
X8917150Y3292947D1*
Y2913000D1*
X8919777Y2892560D1*
X8928830Y2871140D1*
X8943603Y2853187D1*
X8962877Y2840177D1*
X8985077Y2833193D1*
X8998063Y2832150D1*
X9696360D1*
X9716800Y2834777D1*
X9738237Y2843843D1*
X9753573Y2855873D1*
X9817170Y2919470D1*
X9829767Y2935780D1*
X9838513Y2957350D1*
X9840850Y2976683D1*
X9840840Y3036503D1*
X9856320Y3048580D1*
X9872193Y3065857D1*
X9885003Y3085513D1*
X9894403Y3107007D1*
X9900137Y3129757D1*
X9902050Y3153140D1*
X9900087Y3176517D1*
X9894303Y3199253D1*
X9884857Y3220730D1*
X9872003Y3240357D1*
X9856093Y3257600D1*
X9837563Y3271990D1*
X9816920Y3283133D1*
X9794723Y3290727D1*
X9771577Y3294563D1*
X9748117Y3294537D1*
X9724980Y3290650D1*
X9702797Y3283010D1*
X9682177Y3271820D1*
X9663680Y3257390D1*
X9647807Y3240113D1*
X9634997Y3220457D1*
X9625597Y3198963D1*
X9619863Y3176213D1*
X9617950Y3152830D1*
X9619913Y3129453D1*
X9625697Y3106717D1*
X9635143Y3085240D1*
X9647997Y3065613D1*
X9663907Y3048370D1*
X9679160Y3036523D1*
X9679157Y3010137D1*
X9662877Y2993850D1*
X9078850Y2993830D1*
X9078863Y3259523D1*
X9545123Y3725783D1*
X9555753Y3738883D1*
X9565507Y3759990D1*
X9568850Y3783000D1*
X9568837Y3799483D1*
X9579210Y3788273D1*
X9596123Y3772137D1*
X9614007Y3757080D1*
X9632793Y3743167D1*
X9652407Y3730447D1*
X9672773Y3718970D1*
X9693817Y3708783D1*
X9715450Y3699923D1*
X9737593Y3692427D1*
X9760160Y3686320D1*
X9783060Y3681630D1*
X9806210Y3678370D1*
X9829520Y3676557D1*
X9852893Y3676197D1*
X9876247Y3677290D1*
X9899483Y3679833D1*
X9922520Y3683817D1*
X9945263Y3689223D1*
X9967627Y3696033D1*
X9989523Y3704220D1*
X10010870Y3713757D1*
X10031583Y3724597D1*
X10051580Y3736707D1*
X10070787Y3750033D1*
X10089127Y3764530D1*
X10106530Y3780140D1*
X10122930Y3796800D1*
X10138260Y3814450D1*
X10152467Y3833017D1*
X10165490Y3852430D1*
X10177150Y3872357D1*
X10177160Y3553850D1*
X9426000D1*
X9405560Y3551223D1*
X9384140Y3542170D1*
X9366187Y3527397D1*
X9353177Y3508123D1*
X9346193Y3485923D1*
X9345150Y3472947D1*
X9345160Y3279493D1*
X9329680Y3267417D1*
X9313807Y3250140D1*
X9300997Y3230483D1*
X9291597Y3208990D1*
X9285863Y3186240D1*
X9283950Y3162857D1*
X9285913Y3139480D1*
X9291697Y3116743D1*
X9301143Y3095267D1*
X9313997Y3075640D1*
X9329907Y3058397D1*
X9348437Y3044007D1*
X9369080Y3032863D1*
X9391277Y3025270D1*
X9414423Y3021433D1*
X9437883Y3021460D1*
X9461020Y3025347D1*
X9483203Y3032987D1*
X9503823Y3044177D1*
X9522320Y3058607D1*
X9538193Y3075883D1*
X9551003Y3095540D1*
X9560403Y3117033D1*
X9566137Y3139783D1*
X9568050Y3163167D1*
X9566087Y3186543D1*
X9560303Y3209280D1*
X9550857Y3230757D1*
X9538003Y3250383D1*
X9522093Y3267627D1*
X9506840Y3279470D1*
Y3392150D1*
X10257933D1*
X10268303Y3392810D1*
X10290700Y3399057D1*
X10310393Y3411423D1*
X10325753Y3428883D1*
X10335507Y3449990D1*
X10338850Y3473000D1*
Y5570923D1*
X10337103Y5587700D1*
X10329077Y5609523D1*
X10315170Y5628160D1*
X8897607Y7045707D1*
X8898130Y7047770D1*
X8900040Y7071153D1*
X8898077Y7094533D1*
X8892293Y7117270D1*
X8882847Y7138743D1*
X8869993Y7158370D1*
X8854087Y7175613D1*
X8835557Y7190003D1*
X8814910Y7201147D1*
X8792713Y7208740D1*
X8769567Y7212577D1*
X8746107Y7212553D1*
X8722970Y7208667D1*
X8700790Y7201023D1*
X8680167Y7189837D1*
X8661670Y7175407D1*
X8645800Y7158127D1*
X8632987Y7138473D1*
X8623587Y7116977D1*
X8617853Y7094230D1*
X8615940Y7070847D1*
X8617903Y7047467D1*
X8623687Y7024730D1*
X8633133Y7003257D1*
X8645987Y6983630D1*
X8661897Y6966387D1*
X8680427Y6951997D1*
X8701070Y6940853D1*
X8723270Y6933260D1*
X8746413Y6929423D1*
X8769873Y6929447D1*
X8783003Y6931653D1*
X10177150Y5537500D1*
X10177153Y4231607D1*
X10165437Y4251650D1*
X10152410Y4271063D1*
X10138200Y4289627D1*
X10122863Y4307270D1*
X10106460Y4323927D1*
X10089053Y4339530D1*
X10070707Y4354023D1*
X10051500Y4367347D1*
X10031497Y4379450D1*
X10010783Y4390287D1*
X9989437Y4399813D1*
X9967537Y4407997D1*
X9945170Y4414803D1*
X9922427Y4420203D1*
X9899390Y4424180D1*
X9876150Y4426717D1*
X9852797Y4427807D1*
X9829423Y4427440D1*
X9806117Y4425620D1*
X9782967Y4422357D1*
X9760067Y4417657D1*
X9737500Y4411547D1*
X9715360Y4404043D1*
X9693727Y4395177D1*
X9672690Y4384987D1*
X9652323Y4373503D1*
X9632713Y4360780D1*
X9613930Y4346860D1*
X9596050Y4331800D1*
X9579140Y4315657D1*
X9568863Y4304543D1*
X9568850Y4652933D1*
X9567103Y4669713D1*
X9559077Y4691533D1*
X9545170Y4710170D1*
X8838860Y5416477D1*
X8838850Y5938517D1*
X8854330Y5950593D1*
X8870200Y5967873D1*
X8883013Y5987527D1*
X8892413Y6009023D1*
X8898147Y6031770D1*
X8900060Y6055153D1*
X8898097Y6078533D1*
X8892313Y6101270D1*
X8882867Y6122743D1*
X8870013Y6142370D1*
X8854103Y6159613D1*
X8835573Y6174003D1*
X8814930Y6185147D1*
X8792730Y6192740D1*
X8769587Y6196577D1*
X8746127Y6196553D1*
X8730907Y6194430D1*
X8240683Y6684647D1*
X8259967Y6694170D1*
X8278593Y6708667D1*
X8282103Y6712150D1*
X8418497Y6712157D1*
X9065310Y6065340D1*
X9062607Y6048573D1*
X9062630Y6025100D1*
X9066423Y6001937D1*
X9073880Y5979680D1*
X9084813Y5958910D1*
X9098933Y5940160D1*
X9115880Y5923920D1*
X9135213Y5910607D1*
X9156430Y5900570D1*
X9178983Y5894063D1*
X9202287Y5891263D1*
X9225740Y5892233D1*
X9248730Y5896953D1*
X9270670Y5905303D1*
X9290983Y5917060D1*
X9309147Y5931927D1*
X9324693Y5949513D1*
X9337217Y5969367D1*
X9346390Y5990970D1*
X9351983Y6013767D1*
X9353847Y6037163D1*
X9351930Y6060557D1*
X9346287Y6083343D1*
X9337063Y6104927D1*
X9324497Y6124750D1*
X9308910Y6142300D1*
X9290713Y6157127D1*
X9270373Y6168840D1*
X9248417Y6177137D1*
X9225413Y6181807D1*
X9201960Y6182727D1*
X9179367Y6179957D1*
X8509163Y6850170D1*
X8492853Y6862767D1*
X8471287Y6871513D1*
X8451930Y6873850D1*
X8281533Y6873833D1*
X8278143Y6877760D1*
X8259440Y6892157D1*
X8238223Y6902497D1*
X8215357Y6908350D1*
X8191783Y6909483D1*
X8168463Y6905847D1*
X8146350Y6897593D1*
X8126353Y6885053D1*
X8109290Y6868747D1*
X8095857Y6849340D1*
X8089500Y6835837D1*
X8088850Y6836470D1*
X8088843Y7165517D1*
X8312887Y7389567D1*
X8314697Y7367747D1*
X8320427Y7345133D1*
X8329800Y7323770D1*
X8342563Y7304243D1*
X8358367Y7287083D1*
X8376780Y7272757D1*
X8397297Y7261657D1*
X8419363Y7254087D1*
X8442373Y7250250D1*
X8465703Y7250253D1*
X8488713Y7254097D1*
X8510777Y7261673D1*
X8531290Y7272780D1*
X8549700Y7287113D1*
X8565497Y7304277D1*
X8578253Y7323810D1*
X8587620Y7345177D1*
X8593343Y7367790D1*
X8595267Y7391020D1*
X8594950Y7400453D1*
X8591477Y7423523D1*
X8584250Y7445703D1*
X8573473Y7466393D1*
X8559437Y7485030D1*
X8542527Y7501097D1*
X8523200Y7514167D1*
X8515310Y7517777D1*
X8515433Y7518200D1*
X8531280Y7526780D1*
X8549687Y7541113D1*
X8565487Y7558277D1*
X8578243Y7577810D1*
X8587610Y7599177D1*
X8593333Y7621790D1*
X8595257Y7645020D1*
X8594933Y7654543D1*
X8591443Y7677607D1*
X8584207Y7699787D1*
X8573417Y7720470D1*
X8559370Y7739093D1*
X8542447Y7755153D1*
X8523113Y7768207D1*
X8515423Y7772200D1*
X8531270Y7780780D1*
X8549677Y7795113D1*
X8565473Y7812277D1*
X8578230Y7831810D1*
X8587597Y7853177D1*
X8593320Y7875790D1*
X8595243Y7899020D1*
X8594923Y7908543D1*
X8591433Y7931607D1*
X8584193Y7953787D1*
X8573403Y7974470D1*
X8559357Y7993093D1*
X8542437Y8009153D1*
X8523103Y8022207D1*
X8515410Y8026200D1*
X8531257Y8034780D1*
X8549667Y8049113D1*
X8565463Y8066277D1*
X8578220Y8085810D1*
X8587587Y8107177D1*
X8593310Y8129790D1*
X8595233Y8153020D1*
X8594917Y8162453D1*
X8591443Y8185523D1*
X8584217Y8207703D1*
X8573440Y8228393D1*
X8559403Y8247030D1*
X8542493Y8263097D1*
X8523167Y8276167D1*
X8501953Y8285873D1*
X8479433Y8291957D1*
X8456217Y8294250D1*
X8432940Y8292693D1*
X8410240Y8287323D1*
X8388730Y8278293D1*
X8369000Y8265843D1*
X8351590Y8250317D1*
X8336970Y8232137D1*
X8325543Y8211797D1*
X8317620Y8189857D1*
X8313417Y8166907D1*
X8313050Y8143583D1*
X8316523Y8120513D1*
X8323750Y8098333D1*
X8334527Y8077643D1*
X8348563Y8059010D1*
X8365473Y8042940D1*
X8384800Y8029873D1*
X8392460Y8025853D1*
X8388740Y8024293D1*
X8369010Y8011843D1*
X8351600Y7996317D1*
X8336980Y7978137D1*
X8325557Y7957797D1*
X8317633Y7935857D1*
X8313430Y7912907D1*
X8313060Y7889583D1*
X8316537Y7866513D1*
X8323760Y7844333D1*
X8334537Y7823643D1*
X8348573Y7805010D1*
X8365483Y7788940D1*
X8384810Y7775873D1*
X8392470Y7771853D1*
X8388753Y7770293D1*
X8369023Y7757843D1*
X8351610Y7742317D1*
X8336993Y7724137D1*
X8325567Y7703797D1*
X8317643Y7681857D1*
X8313440Y7658907D1*
X8313070Y7635583D1*
X8315313Y7620693D1*
X8263743Y7569097D1*
X7950830Y7256183D1*
X7938233Y7239873D1*
X7929487Y7218303D1*
X7927150Y7198960D1*
Y6803000D1*
X7927310Y6798030D1*
X7655170Y7070170D1*
X7638860Y7082767D1*
X7617290Y7091513D1*
X7597950Y7093850D1*
X6291477Y7093863D1*
X6130153Y7255190D1*
X6133367Y7254087D1*
X6156377Y7250253D1*
X6179707Y7250257D1*
X6202717Y7254100D1*
X6224780Y7261677D1*
X6245293Y7272783D1*
X6263700Y7287117D1*
X6279500Y7304280D1*
X6292257Y7323813D1*
X6301623Y7345177D1*
X6307347Y7367793D1*
X6309270Y7391020D1*
X6308953Y7400457D1*
X6305477Y7423527D1*
X6298253Y7445707D1*
X6287477Y7466397D1*
X6273440Y7485030D1*
X6256530Y7501100D1*
X6237203Y7514167D1*
X6229310Y7517780D1*
X6229433Y7518203D1*
X6245280Y7526783D1*
X6263687Y7541117D1*
X6279483Y7558280D1*
X6292240Y7577813D1*
X6301607Y7599177D1*
X6307330Y7621793D1*
X6309253Y7645020D1*
X6308933Y7654543D1*
X6305443Y7677610D1*
X6298203Y7699787D1*
X6287413Y7720470D1*
X6273367Y7739097D1*
X6256447Y7755157D1*
X6237113Y7768210D1*
X6229300Y7771780D1*
X6229417Y7772203D1*
X6245263Y7780783D1*
X6263670Y7795117D1*
X6279470Y7812280D1*
X6292227Y7831813D1*
X6301593Y7853177D1*
X6307317Y7875793D1*
X6309240Y7899020D1*
X6308917Y7908543D1*
X6305427Y7931610D1*
X6298190Y7953787D1*
X6287400Y7974470D1*
X6273353Y7993097D1*
X6256430Y8009157D1*
X6237097Y8022210D1*
X6229403Y8026203D1*
X6245250Y8034783D1*
X6263657Y8049117D1*
X6279453Y8066280D1*
X6292210Y8085813D1*
X6301577Y8107177D1*
X6307300Y8129793D1*
X6309223Y8153020D1*
X6308910Y8162457D1*
X6305433Y8185527D1*
X6298210Y8207707D1*
X6287430Y8228397D1*
X6273397Y8247030D1*
X6256483Y8263100D1*
X6237160Y8276167D1*
X6215947Y8285877D1*
X6193423Y8291960D1*
X6170210Y8294253D1*
X6146933Y8292697D1*
X6124230Y8287327D1*
X6102720Y8278293D1*
X6082990Y8265847D1*
X6065580Y8250320D1*
X6050960Y8232140D1*
X6039537Y8211800D1*
X6031613Y8189857D1*
X6027410Y8166910D1*
X6027040Y8143587D1*
X6030517Y8120517D1*
X6037740Y8098337D1*
X6048517Y8077647D1*
X6062553Y8059010D1*
X6079463Y8042940D1*
X6098790Y8029873D1*
X6106453Y8025857D1*
X6102737Y8024293D1*
X6083007Y8011847D1*
X6065593Y7996320D1*
X6050977Y7978140D1*
X6039550Y7957800D1*
X6031627Y7935857D1*
X6027423Y7912910D1*
X6027220Y7900133D1*
X5847197Y8080170D1*
X5830887Y8092767D1*
X5809317Y8101513D1*
X5789977Y8103850D1*
X5547223Y8103847D1*
Y8294227D1*
X5264723D1*
X5264730Y8103850D1*
X5087140Y8103843D1*
X5098193Y8115873D1*
X5111003Y8135527D1*
X5120403Y8157023D1*
X5126137Y8179770D1*
X5128050Y8203153D1*
X5126087Y8226533D1*
X5120303Y8249270D1*
X5110857Y8270743D1*
X5098003Y8290370D1*
X5082093Y8307613D1*
X5063563Y8322003D1*
X5042920Y8333147D1*
X5020723Y8340740D1*
X4997577Y8344577D1*
X4974117Y8344553D1*
X4950980Y8340667D1*
X4928797Y8333023D1*
X4908177Y8321837D1*
X4889680Y8307407D1*
X4873807Y8290127D1*
X4860997Y8270473D1*
X4851597Y8248977D1*
X4845863Y8226230D1*
X4843950Y8202847D1*
X4845913Y8179467D1*
X4851697Y8156730D1*
X4861143Y8135257D1*
X4873997Y8115630D1*
X4884857Y8103860D1*
X4828000Y8103850D1*
X4807560Y8101223D1*
X4786123Y8092157D1*
X4770790Y8080130D1*
X4484497Y7793850D1*
X4086283Y7793833D1*
X4082003Y7800370D1*
X4066093Y7817613D1*
X4047563Y7832003D1*
X4026920Y7843147D1*
X4004723Y7850740D1*
X3981577Y7854577D1*
X3958117Y7854553D1*
X3934980Y7850667D1*
X3912797Y7843023D1*
X3892177Y7831837D1*
X3873680Y7817407D1*
X3857807Y7800127D1*
X3844997Y7780473D1*
X3835597Y7758977D1*
X3829863Y7736230D1*
X3827950Y7712847D1*
X3829913Y7689467D1*
X3835697Y7666730D1*
X3845143Y7645257D1*
X3857997Y7625630D1*
X3873907Y7608387D1*
X3892437Y7593997D1*
X3913080Y7582853D1*
X3935277Y7575260D1*
X3958423Y7571423D1*
X3981883Y7571447D1*
X4005020Y7575333D1*
X4027203Y7582977D1*
X4047823Y7594163D1*
X4066320Y7608593D1*
X4082193Y7625873D1*
X4086283Y7632150D1*
X4517933D1*
X4534710Y7633897D1*
X4556533Y7641923D1*
X4575170Y7655830D1*
X4861473Y7942150D1*
X5271910Y7942133D1*
X5269627Y7935813D1*
X5265423Y7912867D1*
X5265053Y7889540D1*
X5268530Y7866473D1*
X5275753Y7844290D1*
X5285763Y7825077D1*
X5226007Y7765347D1*
X5114740Y7654070D1*
X5120403Y7667023D1*
X5126137Y7689770D1*
X5128050Y7713153D1*
X5126087Y7736533D1*
X5120303Y7759270D1*
X5110857Y7780743D1*
X5098003Y7800370D1*
X5082093Y7817613D1*
X5063563Y7832003D1*
X5042920Y7843147D1*
X5020723Y7850740D1*
X4997577Y7854577D1*
X4974117Y7854553D1*
X4950980Y7850667D1*
X4928797Y7843023D1*
X4908177Y7831837D1*
X4889680Y7817407D1*
X4873807Y7800127D1*
X4860997Y7780473D1*
X4851597Y7758977D1*
X4845863Y7736230D1*
X4843950Y7712847D1*
X4845913Y7689467D1*
X4851697Y7666730D1*
X4861143Y7645257D1*
X4873997Y7625630D1*
X4889907Y7608387D1*
X4908437Y7593997D1*
X4929080Y7582853D1*
X4951277Y7575260D1*
X4974423Y7571423D1*
X4997883Y7571447D1*
X5021020Y7575333D1*
X5043203Y7582977D1*
X5043987Y7583323D1*
X4127473Y6666797D1*
X4124303Y6679253D1*
X4114857Y6700730D1*
X4102003Y6720357D1*
X4086093Y6737600D1*
X4067563Y6751990D1*
X4046920Y6763133D1*
X4024723Y6770727D1*
X4001577Y6774563D1*
X3978117Y6774537D1*
X3954980Y6770650D1*
X3932797Y6763010D1*
X3912177Y6751820D1*
X3893680Y6737390D1*
X3877807Y6720113D1*
X3864997Y6700457D1*
X3855597Y6678963D1*
X3849863Y6656213D1*
X3847950Y6632830D1*
X3849913Y6609453D1*
X3855697Y6586717D1*
X3865143Y6565240D1*
X3877997Y6545613D1*
X3893907Y6528370D1*
X3912437Y6513980D1*
X3933080Y6502837D1*
X3955277Y6495243D1*
X3955783Y6495120D1*
X3791003Y6330343D1*
X3780247Y6317117D1*
X3770493Y6296010D1*
X3767150Y6273000D1*
X3767170Y5191833D1*
X3562337Y5191837D1*
X3552427Y5204993D1*
X3535517Y5221063D1*
X3516190Y5234130D1*
X3508423Y5238167D1*
X3524270Y5246747D1*
X3542677Y5261080D1*
X3558473Y5278243D1*
X3571230Y5297777D1*
X3580597Y5319143D1*
X3586320Y5341757D1*
X3588243Y5364983D1*
X3587923Y5374507D1*
X3584433Y5397573D1*
X3577193Y5419753D1*
X3566403Y5440437D1*
X3552357Y5459060D1*
X3535437Y5475120D1*
X3532067Y5477733D1*
X3588233D1*
Y5760233D1*
X3305733D1*
Y5477733D1*
X3361927D1*
X3344600Y5462283D1*
X3329980Y5444103D1*
X3318557Y5423763D1*
X3310633Y5401820D1*
X3306430Y5378873D1*
X3306060Y5355550D1*
X3309537Y5332480D1*
X3316760Y5310300D1*
X3327537Y5289610D1*
X3341573Y5270973D1*
X3358483Y5254907D1*
X3377810Y5241837D1*
X3385703Y5238227D1*
X3385577Y5237803D1*
X3369730Y5229223D1*
X3351323Y5214890D1*
X3335527Y5197727D1*
X3322770Y5178193D1*
X3313403Y5156827D1*
X3307680Y5134213D1*
X3305757Y5110963D1*
X3307687Y5087713D1*
X3313417Y5065100D1*
X3322790Y5043737D1*
X3335553Y5024210D1*
X3351357Y5007050D1*
X3369767Y4992723D1*
X3390287Y4981623D1*
X3412353Y4974053D1*
X3435363Y4970217D1*
X3458693Y4970220D1*
X3481703Y4974063D1*
X3503767Y4981640D1*
X3524280Y4992747D1*
X3542687Y5007080D1*
X3558487Y5024243D1*
X3562333Y5030140D1*
X3847933Y5030133D1*
X3858303Y5030793D1*
X3880703Y5037040D1*
X3900393Y5049407D1*
X3915753Y5066867D1*
X3925507Y5087973D1*
X3928850Y5110983D1*
X3928853Y6239513D1*
X5277293Y7587973D1*
X5281790Y7577730D1*
X5294550Y7558200D1*
X5310353Y7541040D1*
X5328767Y7526713D1*
X5349283Y7515613D1*
X5371350Y7508043D1*
X5394360Y7504207D1*
X5417690Y7504210D1*
X5430340Y7506323D1*
X5523483Y7413160D1*
X6407150Y6529507D1*
X6407160Y4643850D1*
X5971710D1*
X5954927Y4642103D1*
X5933107Y4634077D1*
X5914470Y4620170D1*
X5620877Y4326577D1*
X5610247Y4313477D1*
X5607277Y4308523D1*
X5592663Y4314493D1*
X5569780Y4319667D1*
X5546357Y4321003D1*
X5523033Y4318467D1*
X5500447Y4312127D1*
X5479210Y4302153D1*
X5459903Y4288823D1*
X5443057Y4272497D1*
X5429127Y4253617D1*
X5422857Y4242377D1*
X5412887Y4259720D1*
X5398007Y4277857D1*
X5380343Y4293300D1*
X5360380Y4305623D1*
X5338663Y4314493D1*
X5315780Y4319667D1*
X5292357Y4321003D1*
X5269033Y4318467D1*
X5246447Y4312127D1*
X5225210Y4302153D1*
X5205903Y4288823D1*
X5189057Y4272497D1*
X5175127Y4253617D1*
X5168857Y4242323D1*
X5159150Y4259337D1*
X5144330Y4277523D1*
X5126717Y4293023D1*
X5106793Y4305413D1*
X5085103Y4314353D1*
X5062237Y4319600D1*
X5038820Y4321013D1*
X5015487Y4318553D1*
X4992880Y4312287D1*
X4971610Y4302383D1*
X4952263Y4289117D1*
X4935363Y4272843D1*
X4921370Y4254010D1*
X4914857Y4242377D1*
X4904887Y4259720D1*
X4890007Y4277857D1*
X4872343Y4293300D1*
X4852380Y4305623D1*
X4830663Y4314493D1*
X4807780Y4319667D1*
X4784357Y4321003D1*
X4761033Y4318467D1*
X4738447Y4312127D1*
X4717210Y4302153D1*
X4697903Y4288823D1*
X4681057Y4272497D1*
X4676050Y4266430D1*
Y4321050D1*
X4391950D1*
Y4200790D1*
X4387753Y4210590D1*
X4377233Y4231467D1*
X4365437Y4251650D1*
X4352410Y4271063D1*
X4338200Y4289627D1*
X4322863Y4307270D1*
X4306460Y4323927D1*
X4289053Y4339530D1*
X4270707Y4354023D1*
X4251500Y4367347D1*
X4231497Y4379450D1*
X4210783Y4390287D1*
X4189437Y4399813D1*
X4167537Y4407997D1*
X4145170Y4414803D1*
X4122427Y4420203D1*
X4099390Y4424180D1*
X4076150Y4426717D1*
X4052797Y4427807D1*
X4029423Y4427440D1*
X4006117Y4425620D1*
X3982967Y4422357D1*
X3960067Y4417657D1*
X3937500Y4411547D1*
X3915360Y4404043D1*
X3893727Y4395177D1*
X3872690Y4384987D1*
X3852323Y4373503D1*
X3832713Y4360780D1*
X3813930Y4346860D1*
X3796050Y4331800D1*
X3779140Y4315657D1*
X3763267Y4298493D1*
X3748493Y4280377D1*
X3734873Y4261377D1*
X3722460Y4241567D1*
X3711300Y4221023D1*
X3701443Y4199827D1*
X3692920Y4178060D1*
X3685767Y4155803D1*
X3680013Y4133143D1*
X3675680Y4110170D1*
X3672780Y4086973D1*
X3671330Y4063640D1*
X3671333Y4040263D1*
X3672790Y4016930D1*
X3675693Y3993733D1*
X3680033Y3970763D1*
X3685793Y3948107D1*
X3692953Y3925850D1*
X3701480Y3904083D1*
X3711343Y3882890D1*
X3722507Y3862350D1*
X3734927Y3842543D1*
X3748550Y3823547D1*
X3763330Y3805433D1*
X3779210Y3788273D1*
X3796123Y3772137D1*
X3814007Y3757080D1*
X3832793Y3743167D1*
X3852407Y3730447D1*
X3872773Y3718970D1*
X3893817Y3708783D1*
X3915450Y3699923D1*
X3937593Y3692427D1*
X3960160Y3686320D1*
X3983060Y3681630D1*
X4006210Y3678370D1*
X4029520Y3676557D1*
X4052893Y3676197D1*
X4076247Y3677290D1*
X4099483Y3679833D1*
X4122520Y3683817D1*
X4145263Y3689223D1*
X4167627Y3696033D1*
X4189523Y3704220D1*
X4210870Y3713757D1*
X4231583Y3724597D1*
X4251580Y3736707D1*
X4270787Y3750033D1*
X4289127Y3764530D1*
X4306530Y3780140D1*
X4322930Y3796800D1*
X4338260Y3814450D1*
X4352467Y3833017D1*
X4365490Y3852430D1*
X4377280Y3872617D1*
X4387793Y3893497D1*
X4393500Y3906377D1*
X4393913Y3901467D1*
X4399697Y3878730D1*
X4409143Y3857257D1*
X4421997Y3837630D1*
X4427723Y3830750D1*
X3947530Y3350557D1*
X3950287Y3353993D1*
X3953083Y3357730D1*
X3955757Y3361553D1*
X3958303Y3365467D1*
X3960720Y3369457D1*
X3963003Y3373527D1*
X3972403Y3395023D1*
X3978137Y3417770D1*
X3980050Y3441000D1*
X3979680Y3451250D1*
X3976060Y3474430D1*
X3968677Y3496697D1*
X3957727Y3517447D1*
X3943510Y3536110D1*
X3926417Y3552180D1*
X3918853Y3557233D1*
X3918850Y3572947D1*
X3917103Y3589710D1*
X3909077Y3611533D1*
X3895170Y3630170D1*
X3634440Y3890893D1*
X3634650Y3893310D1*
X3632200Y3916783D1*
X3625073Y3939287D1*
X3613563Y3959893D1*
X3598143Y3977760D1*
X3579440Y3992157D1*
X3558223Y4002497D1*
X3535357Y4008350D1*
X3511783Y4009483D1*
X3488463Y4005847D1*
X3466350Y3997593D1*
X3446353Y3985053D1*
X3429290Y3968747D1*
X3415857Y3949340D1*
X3406607Y3927627D1*
X3401917Y3904493D1*
X3401980Y3880890D1*
X3406793Y3857783D1*
X3416157Y3836120D1*
X3429693Y3816783D1*
X3446843Y3800567D1*
X3466907Y3788137D1*
X3489060Y3779997D1*
X3512400Y3776483D1*
X3520290Y3776370D1*
X3747043Y3549600D1*
X3734503Y3538297D1*
X3719900Y3519933D1*
X3708517Y3499417D1*
X3700670Y3477310D1*
X3696567Y3454210D1*
X3696320Y3430750D1*
X3699940Y3407570D1*
X3707323Y3385303D1*
X3718273Y3364553D1*
X3732490Y3345890D1*
X3749583Y3329820D1*
X3769090Y3316783D1*
X3790473Y3307137D1*
X3813157Y3301140D1*
X3836513Y3298957D1*
X3859913Y3300650D1*
X3882717Y3306173D1*
X3887120Y3307713D1*
X3891473Y3309400D1*
X3895767Y3311227D1*
X3899997Y3313193D1*
X3904163Y3315300D1*
X3908257Y3317540D1*
X3912273Y3319913D1*
X3916210Y3322420D1*
X3920063Y3325053D1*
X3923827Y3327810D1*
X3928427Y3331453D1*
X3371613Y2774640D1*
X3360003Y2792370D1*
X3344093Y2809613D1*
X3325563Y2824003D1*
X3304920Y2835147D1*
X3282723Y2842740D1*
X3259577Y2846577D1*
X3236117Y2846553D1*
X3212980Y2842667D1*
X3190797Y2835023D1*
X3170177Y2823837D1*
X3151680Y2809407D1*
X3135807Y2792127D1*
X3122997Y2772473D1*
X3113597Y2750977D1*
X3107863Y2728230D1*
X3105950Y2704847D1*
X3107913Y2681467D1*
X3113697Y2658730D1*
X3123143Y2637257D1*
X3135997Y2617630D1*
X3151907Y2600387D1*
X3170437Y2585997D1*
X3178560Y2581610D1*
X3101297Y2504320D1*
X2698563Y2101590D1*
X2682987Y2107500D1*
X2660513Y2113727D1*
X2637497Y2117490D1*
X2614207Y2118750D1*
X1807543Y2118713D1*
X1633850Y2292410D1*
Y3679697D1*
X1655033Y3673200D1*
X14860177Y11954273D2*
X1036820Y11964227D1*
X1037247Y11692737D1*
X1054697Y1068677D1*
X1419687Y1068063D1*
X14830340Y1044803D1*
X14860163Y11954273D1*
D17*
X6812000Y9035000D3*
D18*
X7320000D3*
D17*
X9952000Y5033000D3*
D18*
X9444000D3*
D17*
X9207995Y6037000D3*
D18*
X9208005Y5529000D3*
D17*
X4564000Y3153000D3*
D18*
X5072000D3*
D17*
X5822000Y9033000D3*
D18*
X5314000D3*
D17*
X3378007Y9909000D3*
D18*
X3377993Y10417000D3*
D17*
X3458010Y6059000D3*
D18*
X3457990Y6567000D3*
D17*
X3264000Y7182983D3*
D18*
X3772000Y7183017D3*
D20*
X8407500Y2617300D3*
D21*
X8915500D3*
X9423500D3*
X9931500D3*
X10439500D3*
X10947500D3*
D20*
X8407500Y1855300D3*
D21*
X8915500D3*
X9423500D3*
X9931500D3*
X10439500D3*
X10947500D3*
D20*
X4707600Y2617300D3*
D21*
X5215600D3*
X5723600D3*
X6231600D3*
X6739600D3*
X7247600D3*
D20*
X4707600Y1855300D3*
D21*
X5215600D3*
X5723600D3*
X6231600D3*
X6739600D3*
X7247600D3*
D23*
X7691983Y8152985D3*
D24*
X7691994Y7898985D3*
X7692006Y7644985D3*
X7692017Y7390985D3*
X8454017Y7391018D3*
X8454006Y7645018D3*
X8453994Y7899018D3*
X8453983Y8153018D3*
D23*
X8454000Y5867000D3*
D24*
X8200000D3*
X7946000D3*
X7692000D3*
Y5105000D3*
X7946000D3*
X8200000D3*
X8454000D3*
D20*
X2614200Y9739000D3*
D21*
Y9231000D3*
Y8723000D3*
Y8215000D3*
Y7707000D3*
Y7199000D3*
D20*
X1852200Y9739000D3*
D21*
Y9231000D3*
Y8723000D3*
Y8215000D3*
Y7707000D3*
Y7199000D3*
D20*
X2614200Y6044000D3*
D21*
Y5536000D3*
Y5028000D3*
Y4520000D3*
Y4012000D3*
Y3504000D3*
D20*
X1852200Y6044000D3*
D21*
Y5536000D3*
Y5028000D3*
Y4520000D3*
Y4012000D3*
Y3504000D3*
D23*
X5405974Y8152976D3*
D24*
X5405989Y7898976D3*
X5406004Y7644976D3*
X5406019Y7390976D3*
X6168019Y7391021D3*
X6168004Y7645021D3*
X6167989Y7899021D3*
X6167974Y8153021D3*
D23*
X3446983Y5618985D3*
D24*
X3446994Y5364985D3*
X3447006Y5110985D3*
X3447017Y4856985D3*
X4209017Y4857018D3*
X4209006Y5111018D3*
X4208994Y5365018D3*
X4208983Y5619018D3*
D20*
X14238800Y10387302D3*
D21*
X13730800Y10387290D3*
D20*
X14238784Y11149302D3*
D21*
X13730784Y11149290D3*
D20*
X2614200Y2410899D3*
D21*
X2614213Y1902899D3*
D20*
X1852200Y2410879D3*
D21*
X1852213Y1902879D3*
D20*
X13278800Y1656700D3*
D21*
Y2164700D3*
D20*
X14040800Y1656700D3*
D21*
Y2164700D3*
D20*
X2399200Y10382300D3*
D21*
X1891200D3*
D20*
X2399200Y11144300D3*
D21*
X1891200D3*
D25*
X4058000Y10983000D3*
Y1983000D3*
X12328000Y10983000D3*
Y1983000D3*
D26*
X8917983Y8541000D3*
D27*
X8918017Y7525000D3*
D26*
X8900000Y4669022D3*
D27*
X7884000Y4668978D3*
D26*
X6657991Y8521000D3*
D27*
X6658009Y7505000D3*
D26*
X5006000Y6633015D3*
D27*
X3990000Y6632985D3*
D26*
X8410000Y3162989D3*
D27*
X9426000Y3163011D3*
D26*
X10776000Y3153015D3*
D27*
X9760000Y3152985D3*
D26*
X8757991Y7071000D3*
D27*
X8758009Y6055000D3*
D26*
X6688000Y6131000D3*
D27*
Y5115000D3*
D26*
X7686000Y6643000D3*
D27*
X6670000D3*
D26*
X7028000Y4865000D3*
D27*
Y5881000D3*
D26*
X4986000Y8203000D3*
D27*
X3970000D3*
D26*
X3128000Y8941000D3*
D27*
Y7925000D3*
D26*
X4986000Y7713000D3*
D27*
X3970000D3*
D26*
X3248000Y2705000D3*
D27*
Y3721000D3*
D26*
X3008000Y3705000D3*
D27*
Y4721000D3*
D26*
X3838000Y2425000D3*
D27*
Y3441000D3*
X4534000Y3925000D3*
D28*
X4047000Y8952000D3*
D29*
X4534000Y4179000D3*
D27*
X4788000D3*
X5042000D3*
X5296000Y3925000D3*
Y4179000D3*
X5550000Y3925000D3*
X5042000D3*
X5804000D3*
X6058000Y4179000D3*
X6312000D3*
Y3925000D3*
X6566000D3*
X5804000Y4179000D3*
X6820000D3*
X7074000Y3925000D3*
Y4179000D3*
X7328000Y3925000D3*
X7582000D3*
X7836000Y4179000D3*
Y3925000D3*
X8090000Y4179000D3*
X8344000D3*
Y3925000D3*
X7328000Y4179000D3*
X8598000D3*
X8852000Y3925000D3*
Y4179000D3*
X9106000Y3925000D3*
X9360000D3*
X9106000Y4179000D3*
D28*
X4047000Y4052000D3*
X9847000D3*
Y8952000D3*
D27*
X5550000Y4179000D3*
X4788000Y3925000D3*
X6058000D3*
X6566000Y4179000D3*
X7582000D3*
X6820000Y3925000D3*
X9360000Y4179000D3*
X8090000Y3925000D3*
X8598000D3*
G04 Bottom Clear*
%LPC*%
D31*
X7858000Y6433000D3*
X8198000Y6793000D3*
X9208000Y8553000D3*
X4238000Y7083000D3*
X6231600Y3466600D3*
X3838000Y2833000D3*
X3498000Y3173000D3*
X3518000Y3893000D3*
X4518000Y6633013D3*
X6708000Y5453000D3*
X5098000Y4473000D3*
D32*
X6812000Y9035000D3*
X7320000D3*
X9952000Y5033000D3*
X9444000D3*
X9207995Y6037000D3*
X9208005Y5529000D3*
X4564000Y3153000D3*
X5072000D3*
X5822000Y9033000D3*
X5314000D3*
X3378007Y9909000D3*
X3377993Y10417000D3*
X3458010Y6059000D3*
X3457990Y6567000D3*
X3264000Y7182983D3*
X3772000Y7183017D3*
D33*
X8407500Y2617300D3*
X8915500D3*
X9423500D3*
X9931500D3*
X10439500D3*
X10947500D3*
X8407500Y1855300D3*
X8915500D3*
X9423500D3*
X9931500D3*
X10439500D3*
X10947500D3*
X4707600Y2617300D3*
X5215600D3*
X5723600D3*
X6231600D3*
X6739600D3*
X7247600D3*
X4707600Y1855300D3*
X5215600D3*
X5723600D3*
X6231600D3*
X6739600D3*
X7247600D3*
D34*
X7691983Y8152985D3*
X7691994Y7898985D3*
X7692006Y7644985D3*
X7692017Y7390985D3*
X8454017Y7391018D3*
X8454006Y7645018D3*
X8453994Y7899018D3*
X8453983Y8153018D3*
X8454000Y5867000D3*
X8200000D3*
X7946000D3*
X7692000D3*
Y5105000D3*
X7946000D3*
X8200000D3*
X8454000D3*
D33*
X2614200Y9739000D3*
Y9231000D3*
Y8723000D3*
Y8215000D3*
Y7707000D3*
Y7199000D3*
X1852200Y9739000D3*
Y9231000D3*
Y8723000D3*
Y8215000D3*
Y7707000D3*
Y7199000D3*
X2614200Y6044000D3*
Y5536000D3*
Y5028000D3*
Y4520000D3*
Y4012000D3*
Y3504000D3*
X1852200Y6044000D3*
Y5536000D3*
Y5028000D3*
Y4520000D3*
Y4012000D3*
Y3504000D3*
D34*
X5405974Y8152976D3*
X5405989Y7898976D3*
X5406004Y7644976D3*
X5406019Y7390976D3*
X6168019Y7391021D3*
X6168004Y7645021D3*
X6167989Y7899021D3*
X6167974Y8153021D3*
X3446983Y5618985D3*
X3446994Y5364985D3*
X3447006Y5110985D3*
X3447017Y4856985D3*
X4209017Y4857018D3*
X4209006Y5111018D3*
X4208994Y5365018D3*
X4208983Y5619018D3*
D33*
X14238800Y10387302D3*
X13730800Y10387290D3*
X14238784Y11149302D3*
X13730784Y11149290D3*
X2614200Y2410899D3*
X2614213Y1902899D3*
X1852200Y2410879D3*
X1852213Y1902879D3*
X13278800Y1656700D3*
Y2164700D3*
X14040800Y1656700D3*
Y2164700D3*
X2399200Y10382300D3*
X1891200D3*
X2399200Y11144300D3*
X1891200D3*
D15*
X4058000Y10983000D3*
Y1983000D3*
X12328000Y10983000D3*
Y1983000D3*
D35*
X8917983Y8541000D3*
D36*
X8918017Y7525000D3*
D35*
X8900000Y4669022D3*
D36*
X7884000Y4668978D3*
D35*
X6657991Y8521000D3*
D36*
X6658009Y7505000D3*
D35*
X5006000Y6633015D3*
D36*
X3990000Y6632985D3*
D35*
X8410000Y3162989D3*
D36*
X9426000Y3163011D3*
D35*
X10776000Y3153015D3*
D36*
X9760000Y3152985D3*
D35*
X8757991Y7071000D3*
D36*
X8758009Y6055000D3*
D35*
X6688000Y6131000D3*
D36*
Y5115000D3*
D35*
X7686000Y6643000D3*
D36*
X6670000D3*
D35*
X7028000Y4865000D3*
D36*
Y5881000D3*
D35*
X4986000Y8203000D3*
D36*
X3970000D3*
D35*
X3128000Y8941000D3*
D36*
Y7925000D3*
D35*
X4986000Y7713000D3*
D36*
X3970000D3*
D35*
X3248000Y2705000D3*
D36*
Y3721000D3*
D35*
X3008000Y3705000D3*
D36*
Y4721000D3*
D35*
X3838000Y2425000D3*
D36*
Y3441000D3*
D30*
X4534000Y3925000D3*
D37*
X4047000Y8952000D3*
D30*
X4534000Y4179000D3*
X4788000D3*
X5042000D3*
X5296000Y3925000D3*
Y4179000D3*
X5550000Y3925000D3*
X5042000D3*
X5804000D3*
X6058000Y4179000D3*
X6312000D3*
Y3925000D3*
X6566000D3*
X5804000Y4179000D3*
X6820000D3*
X7074000Y3925000D3*
Y4179000D3*
X7328000Y3925000D3*
X7582000D3*
X7836000Y4179000D3*
Y3925000D3*
X8090000Y4179000D3*
X8344000D3*
Y3925000D3*
X7328000Y4179000D3*
X8598000D3*
X8852000Y3925000D3*
Y4179000D3*
X9106000Y3925000D3*
X9360000D3*
X9106000Y4179000D3*
D37*
X4047000Y4052000D3*
X9847000D3*
Y8952000D3*
D30*
X5550000Y4179000D3*
X4788000Y3925000D3*
X6058000D3*
X6566000Y4179000D3*
X7582000D3*
X6820000Y3925000D3*
X9360000Y4179000D3*
X8090000Y3925000D3*
X8598000D3*
M02*
