M48
METRIC,0000.00
T01C0.486
T02C0.9
T03C0.965
T04C1.0
T05C1.016
T06C1.4
T07C2.75
T08C3.0
%
T01
X+006708Y+005453
X+007858Y+006433
X+008198Y+006793
X+009208Y+008553
X+004518Y+006633
X+004238Y+007083
X+005098Y+004473
X+006232Y+003467
X+003838Y+002833
X+003498Y+003173
X+003518Y+003893
T02
X+006812Y+009035
X+007320Y+009035
X+005822Y+009033
X+005314Y+009033
X+003378Y+009909
X+003378Y+010417
X+003264Y+007183
X+003772Y+007183
X+003458Y+006567
X+003458Y+006059
X+004564Y+003153
X+005072Y+003153
X+009444Y+005033
X+009952Y+005033
X+009208Y+005529
X+009208Y+006037
T03
X+008918Y+008541
X+008918Y+007525
X+008758Y+007071
X+008758Y+006055
X+007686Y+006643
X+007028Y+005881
X+006688Y+006131
X+006670Y+006643
X+006658Y+007505
X+006658Y+008521
X+004986Y+008203
X+004986Y+007713
X+003970Y+007713
X+003970Y+008203
X+003128Y+007925
X+003128Y+008941
X+003990Y+006633
X+005006Y+006633
X+006688Y+005115
X+007028Y+004865
X+007884Y+004669
X+008900Y+004669
X+008410Y+003163
X+009426Y+003163
X+009760Y+003153
X+010776Y+003153
X+003838Y+003441
X+003248Y+003721
X+003008Y+003705
X+003008Y+004721
X+003248Y+002705
X+003838Y+002425
T04
X+007692Y+008153
X+007692Y+007899
X+007692Y+007645
X+007692Y+007391
X+008454Y+007391
X+008454Y+007645
X+008454Y+007899
X+008454Y+008153
X+006168Y+008153
X+006168Y+007899
X+006168Y+007645
X+006168Y+007391
X+005406Y+007391
X+005406Y+007645
X+005406Y+007899
X+005406Y+008153
X+004209Y+005619
X+004209Y+005365
X+004209Y+005111
X+004209Y+004857
X+003447Y+004857
X+003447Y+005111
X+003447Y+005365
X+003447Y+005619
X+007692Y+005867
X+007946Y+005867
X+008200Y+005867
X+008454Y+005867
X+008454Y+005105
X+008200Y+005105
X+007946Y+005105
X+007692Y+005105
T05
X+004534Y+003925
X+004788Y+003925
X+004788Y+004179
X+005042Y+004179
X+005296Y+004179
X+005550Y+004179
X+005550Y+003925
X+005804Y+003925
X+005804Y+004179
X+006058Y+004179
X+006312Y+004179
X+006312Y+003925
X+006058Y+003925
X+006566Y+003925
X+006820Y+003925
X+007074Y+003925
X+007328Y+003925
X+007582Y+003925
X+007836Y+003925
X+007836Y+004179
X+008090Y+004179
X+008344Y+004179
X+008344Y+003925
X+008090Y+003925
X+008598Y+003925
X+008598Y+004179
X+008852Y+004179
X+009106Y+004179
X+009106Y+003925
X+008852Y+003925
X+009360Y+003925
X+009360Y+004179
X+007582Y+004179
X+007328Y+004179
X+007074Y+004179
X+006820Y+004179
X+006566Y+004179
X+005296Y+003925
X+005042Y+003925
X+004534Y+004179
T06
X+008408Y+002617
X+008916Y+002617
X+009424Y+002617
X+009931Y+002617
X+010439Y+002617
X+010948Y+002617
X+010948Y+001855
X+010439Y+001855
X+009931Y+001855
X+009424Y+001855
X+008916Y+001855
X+008408Y+001855
X+007248Y+001855
X+006740Y+001855
X+006232Y+001855
X+005724Y+001855
X+005216Y+001855
X+004708Y+001855
X+004708Y+002617
X+005216Y+002617
X+005724Y+002617
X+006232Y+002617
X+006740Y+002617
X+007248Y+002617
X+002614Y+002411
X+002614Y+001903
X+001852Y+001903
X+001852Y+002411
X+001852Y+003504
X+001852Y+004012
X+001852Y+004520
X+001852Y+005028
X+001852Y+005536
X+001852Y+006044
X+002614Y+006044
X+002614Y+005536
X+002614Y+005028
X+002614Y+004520
X+002614Y+004012
X+002614Y+003504
X+002614Y+007199
X+002614Y+007707
X+002614Y+008215
X+002614Y+008723
X+002614Y+009231
X+002614Y+009739
X+002399Y+010382
X+001891Y+010382
X+001852Y+009739
X+001852Y+009231
X+001852Y+008723
X+001852Y+008215
X+001852Y+007707
X+001852Y+007199
X+001891Y+011144
X+002399Y+011144
X+013731Y+011149
X+014239Y+011149
X+014239Y+010387
X+013731Y+010387
X+014041Y+002165
X+014041Y+001657
X+013279Y+001657
X+013279Y+002165
T07
X+004047Y+008952
X+004047Y+004052
X+009847Y+004052
X+009847Y+008952
T08
X+004058Y+010983
X+012328Y+010983
X+012328Y+001983
X+004058Y+001983
T00
M30
