G04 DipTrace 4.1.1.0*
G04 TopAssembly.gbr*
%MOMM*%
G04 #@! TF.FileFunction,Drawing,Top*
G04 #@! TF.Part,Single*
%ADD10C,0.12*%
%ADD19C,0.127*%
%FSLAX35Y35*%
G04*
G71*
G90*
G75*
G01*
G04 TopAssy*
%LPD*%
X8147500Y1397300D2*
D19*
Y2802300D1*
X11445500D1*
Y1397300D1*
X8147500D1*
X4447600D2*
Y2802300D1*
X7745600D1*
Y1397300D1*
X4447600D1*
X7572978Y8279980D2*
X8572978Y8280024D1*
X8573022Y7264024D1*
X7573022Y7263980D1*
X7572978Y8279980D1*
X8581000Y5986000D2*
Y4986000D1*
X7565000D1*
Y5986000D1*
X8581000D1*
X1394200Y9999000D2*
X2799200D1*
Y6701000D1*
X1394200D1*
Y9999000D1*
Y6304000D2*
X2799200D1*
Y3006000D1*
X1394200D1*
Y6304000D1*
X5286967Y8279969D2*
X6286967Y8280028D1*
X6287027Y7264028D1*
X5287027Y7263969D1*
X5286967Y8279969D1*
X3327978Y5745980D2*
X4327978Y5746024D1*
X4328022Y4730024D1*
X3328022Y4729980D1*
X3327978Y5745980D1*
X14498774Y11607307D2*
X14498805Y10202307D1*
X13232805Y10202279D1*
X13232774Y11607279D1*
X14498774Y11607307D1*
X1394194Y2670868D2*
X2799194Y2670904D1*
X2799226Y1404904D1*
X1394226Y1404868D1*
X1394194Y2670868D1*
X14498800Y1396700D2*
X13093800D1*
Y2662700D1*
X14498800D1*
Y1396700D1*
X2659200Y11602300D2*
Y10197300D1*
X1393200D1*
Y11602300D1*
X2659200D1*
X1393550Y11601950D2*
D10*
Y10197050D1*
X2798450D1*
Y11601950D1*
X1393550D1*
X10297000Y3952000D2*
D19*
X12447000D1*
Y9052000D1*
X10297000D1*
Y3952000D1*
G36*
X3597000Y8802000D2*
X3597086Y8803305D1*
X3597341Y8804588D1*
X3597761Y8805827D1*
X3598340Y8807000D1*
X3599066Y8808088D1*
X3599929Y8809071D1*
X3600912Y8809934D1*
X3602000Y8810660D1*
X3603173Y8811239D1*
X3604412Y8811659D1*
X3605695Y8811914D1*
X3607000Y8812000D1*
X3608305Y8811914D1*
X3609588Y8811659D1*
X3610827Y8811239D1*
X3612000Y8810660D1*
X3613088Y8809934D1*
X3614071Y8809071D1*
X3614934Y8808088D1*
X3615660Y8807000D1*
X3616239Y8805827D1*
X3616659Y8804588D1*
X3616914Y8803305D1*
X3617000Y8802000D1*
D1*
X3616914Y8800695D1*
X3616659Y8799412D1*
X3616239Y8798173D1*
X3615660Y8797000D1*
X3614934Y8795912D1*
X3614071Y8794929D1*
X3613088Y8794066D1*
X3612000Y8793340D1*
X3610827Y8792761D1*
X3609588Y8792341D1*
X3608305Y8792086D1*
X3607000Y8792000D1*
X3605695Y8792086D1*
X3604412Y8792341D1*
X3603173Y8792761D1*
X3602000Y8793340D1*
X3600912Y8794066D1*
X3599929Y8794929D1*
X3599066Y8795912D1*
X3598340Y8797000D1*
X3597761Y8798173D1*
X3597341Y8799412D1*
X3597086Y8800695D1*
X3597000Y8802000D1*
D1*
G37*
X3697000Y9002000D2*
D19*
Y4002000D1*
G03X3997000Y3702000I299996J-4D01*
G01*
X11897000D1*
G03X12197000Y4002000I4J299996D01*
G01*
Y9002000D1*
G03X11897000Y9302000I-299996J4D01*
G01*
X3997000D1*
X1394563Y9998597D2*
D10*
Y6700407D1*
X2799437D1*
Y9998597D1*
X1394563D1*
Y6303597D2*
Y3005407D1*
X2799437D1*
Y6303597D1*
X1394563D1*
X1394550Y2810073D2*
Y1405173D1*
X2799450D1*
Y2810073D1*
X1394550D1*
X4447907Y2801937D2*
Y1397063D1*
X7746093D1*
Y2801937D1*
X4447907D1*
X13093550Y11606950D2*
Y10202050D1*
X14498450D1*
Y11606950D1*
X13093550D1*
X8147903Y2801937D2*
Y1397063D1*
X11446097D1*
Y2801937D1*
X8147903D1*
X13093550Y2801950D2*
Y1397050D1*
X14498450D1*
Y2801950D1*
X13093550D1*
M02*
