G04 DipTrace 4.1.1.0*
G04 TopMask.gbr*
%MOMM*%
G04 #@! TF.FileFunction,Soldermask,Top*
G04 #@! TF.Part,Single*
%ADD39C,1.116*%
%ADD41R,1.624X1.624*%
%ADD43C,6.3*%
%ADD44C,6.1*%
%ADD45C,1.624*%
%ADD47C,1.624*%
%ADD50C,1.608*%
%ADD52R,1.608X1.608*%
%ADD54C,2.2*%
%ADD56R,2.2X2.2*%
%ADD58R,1.7X1.7*%
%ADD60C,1.7*%
%FSLAX35Y35*%
G04*
G71*
G90*
G75*
G01*
G04 TopMask*
%LPD*%
D39*
X7858000Y6433000D3*
X8198000Y6793000D3*
X9208000Y8553000D3*
X4238000Y7083000D3*
X6231600Y3466600D3*
X3838000Y2833000D3*
X3498000Y3173000D3*
X3518000Y3893000D3*
X4518000Y6633013D3*
X6708000Y5453000D3*
X5098000Y4473000D3*
D60*
X6812000Y9035000D3*
D58*
X7320000D3*
D60*
X9952000Y5033000D3*
D58*
X9444000D3*
D60*
X9207995Y6037000D3*
D58*
X9208005Y5529000D3*
D60*
X4564000Y3153000D3*
D58*
X5072000D3*
D60*
X5822000Y9033000D3*
D58*
X5314000D3*
D60*
X3378007Y9909000D3*
D58*
X3377993Y10417000D3*
D60*
X3458010Y6059000D3*
D58*
X3457990Y6567000D3*
D60*
X3264000Y7182983D3*
D58*
X3772000Y7183017D3*
D56*
X8407500Y2617300D3*
D54*
X8915500D3*
X9423500D3*
X9931500D3*
X10439500D3*
X10947500D3*
D56*
X8407500Y1855300D3*
D54*
X8915500D3*
X9423500D3*
X9931500D3*
X10439500D3*
X10947500D3*
D56*
X4707600Y2617300D3*
D54*
X5215600D3*
X5723600D3*
X6231600D3*
X6739600D3*
X7247600D3*
D56*
X4707600Y1855300D3*
D54*
X5215600D3*
X5723600D3*
X6231600D3*
X6739600D3*
X7247600D3*
D52*
X7691983Y8152985D3*
D50*
X7691994Y7898985D3*
X7692006Y7644985D3*
X7692017Y7390985D3*
X8454017Y7391018D3*
X8454006Y7645018D3*
X8453994Y7899018D3*
X8453983Y8153018D3*
D52*
X8454000Y5867000D3*
D50*
X8200000D3*
X7946000D3*
X7692000D3*
Y5105000D3*
X7946000D3*
X8200000D3*
X8454000D3*
D56*
X2614200Y9739000D3*
D54*
Y9231000D3*
Y8723000D3*
Y8215000D3*
Y7707000D3*
Y7199000D3*
D56*
X1852200Y9739000D3*
D54*
Y9231000D3*
Y8723000D3*
Y8215000D3*
Y7707000D3*
Y7199000D3*
D56*
X2614200Y6044000D3*
D54*
Y5536000D3*
Y5028000D3*
Y4520000D3*
Y4012000D3*
Y3504000D3*
D56*
X1852200Y6044000D3*
D54*
Y5536000D3*
Y5028000D3*
Y4520000D3*
Y4012000D3*
Y3504000D3*
D52*
X5405974Y8152976D3*
D50*
X5405989Y7898976D3*
X5406004Y7644976D3*
X5406019Y7390976D3*
X6168019Y7391021D3*
X6168004Y7645021D3*
X6167989Y7899021D3*
X6167974Y8153021D3*
D52*
X3446983Y5618985D3*
D50*
X3446994Y5364985D3*
X3447006Y5110985D3*
X3447017Y4856985D3*
X4209017Y4857018D3*
X4209006Y5111018D3*
X4208994Y5365018D3*
X4208983Y5619018D3*
D56*
X14238800Y10387302D3*
D54*
X13730800Y10387290D3*
D56*
X14238784Y11149302D3*
D54*
X13730784Y11149290D3*
D56*
X2614200Y2410899D3*
D54*
X2614213Y1902899D3*
D56*
X1852200Y2410879D3*
D54*
X1852213Y1902879D3*
D56*
X13278800Y1656700D3*
D54*
Y2164700D3*
D56*
X14040800Y1656700D3*
D54*
Y2164700D3*
D56*
X2399200Y10382300D3*
D54*
X1891200D3*
D56*
X2399200Y11144300D3*
D54*
X1891200D3*
D44*
X4058000Y10983000D3*
Y1983000D3*
X12328000Y10983000D3*
Y1983000D3*
D47*
X8917983Y8541000D3*
D45*
X8918017Y7525000D3*
D47*
X8900000Y4669022D3*
D45*
X7884000Y4668978D3*
D47*
X6657991Y8521000D3*
D45*
X6658009Y7505000D3*
D47*
X5006000Y6633015D3*
D45*
X3990000Y6632985D3*
D47*
X8410000Y3162989D3*
D45*
X9426000Y3163011D3*
D47*
X10776000Y3153015D3*
D45*
X9760000Y3152985D3*
D47*
X8757991Y7071000D3*
D45*
X8758009Y6055000D3*
D47*
X6688000Y6131000D3*
D45*
Y5115000D3*
D47*
X7686000Y6643000D3*
D45*
X6670000D3*
D47*
X7028000Y4865000D3*
D45*
Y5881000D3*
D47*
X4986000Y8203000D3*
D45*
X3970000D3*
D47*
X3128000Y8941000D3*
D45*
Y7925000D3*
D47*
X4986000Y7713000D3*
D45*
X3970000D3*
D47*
X3248000Y2705000D3*
D45*
Y3721000D3*
D47*
X3008000Y3705000D3*
D45*
Y4721000D3*
D47*
X3838000Y2425000D3*
D45*
Y3441000D3*
X4534000Y3925000D3*
D43*
X4047000Y8952000D3*
D41*
X4534000Y4179000D3*
D45*
X4788000D3*
X5042000D3*
X5296000Y3925000D3*
Y4179000D3*
X5550000Y3925000D3*
X5042000D3*
X5804000D3*
X6058000Y4179000D3*
X6312000D3*
Y3925000D3*
X6566000D3*
X5804000Y4179000D3*
X6820000D3*
X7074000Y3925000D3*
Y4179000D3*
X7328000Y3925000D3*
X7582000D3*
X7836000Y4179000D3*
Y3925000D3*
X8090000Y4179000D3*
X8344000D3*
Y3925000D3*
X7328000Y4179000D3*
X8598000D3*
X8852000Y3925000D3*
Y4179000D3*
X9106000Y3925000D3*
X9360000D3*
X9106000Y4179000D3*
D43*
X4047000Y4052000D3*
X9847000D3*
Y8952000D3*
D45*
X5550000Y4179000D3*
X4788000Y3925000D3*
X6058000D3*
X6566000Y4179000D3*
X7582000D3*
X6820000Y3925000D3*
X9360000Y4179000D3*
X8090000Y3925000D3*
X8598000D3*
M02*
